<svg width="44" height="46" fill="none" xmlns="http://www.w3.org/2000/svg"><path d="M41.554 11.522a.736.736 0 00-.796-.625c-1.755.172-3.069 1.716-2.983 3.507l.132 5.493a4.152 4.152 0 00-3.334 2.381L32.6 26.493a4.823 4.823 0 01-1.31 1.682l-.41.334a8.534 8.534 0 00-3.128 7.012l-.806-.39a.729.729 0 00-.978.352l-2.165 4.622a.751.751 0 00.347.993l9.975 4.83a.72.72 0 00.56.03.736.736 0 00.418-.382l2.164-4.622a.751.751 0 00-.346-.993l-.266-.129-.269-1.557c-.033-.554.142-1.1.49-1.526l5.166-6.355.03-.04a8.814 8.814 0 001.602-5.188.795.795 0 00-.009-.106l-2.11-13.538zm-7.462 32.74l-8.65-4.19 1.534-3.274 8.651 4.188-1.535 3.276zm6.803-14.799l-5.15 6.336a3.708 3.708 0 00-.82 2.621.731.731 0 00.01.073l.095.552-5.73-2.774a7.05 7.05 0 012.496-6.598l.41-.335a6.313 6.313 0 001.717-2.204l1.975-4.214a2.675 2.675 0 012.866-1.516l-2.886 6.161a.756.756 0 00.056.746.73.73 0 001.268-.105l3.245-6.927a.751.751 0 00-.346-.994 4.121 4.121 0 00-.724-.269l-.136-5.657v-.02a1.876 1.876 0 01.993-1.759l1.974 12.66a7.301 7.301 0 01-1.313 4.224zM7.29 38.275l-.27 1.557-.265.129a.751.751 0 00-.347.993l2.165 4.622a.737.737 0 00.417.382.721.721 0 00.56-.03l9.975-4.83a.75.75 0 00.347-.993l-2.165-4.622a.728.728 0 00-.977-.352l-.807.39a8.534 8.534 0 00-3.127-7.012l-.41-.334a4.82 4.82 0 01-1.31-1.682L9.1 22.278a4.152 4.152 0 00-3.334-2.38l.132-5.493c.086-1.791-1.227-3.336-2.983-3.508a.737.737 0 00-.795.626L.01 25.06a.745.745 0 00-.01.106 8.812 8.812 0 001.633 5.228l5.166 6.355c.348.427.523.972.49 1.526zm10.943 1.798L9.582 44.26l-1.534-3.275 8.65-4.188 1.535 3.275zM1.467 25.24L3.44 12.58a1.875 1.875 0 01.994 1.76v.019l-.137 5.657c-.249.066-.49.157-.723.269a.751.751 0 00-.347.993l3.245 6.928a.729.729 0 001.269.104.757.757 0 00.056-.745l-2.887-6.16a2.674 2.674 0 012.867 1.515l1.974 4.214c.403.856.99 1.61 1.717 2.204l.41.335a7.05 7.05 0 012.498 6.598l-5.73 2.774.094-.552a.731.731 0 00.01-.073 3.707 3.707 0 00-.82-2.621l-5.15-6.335a7.301 7.301 0 01-1.313-4.224zm10.689-11.125a.753.753 0 001.024.081l.316-.238v8.288c0 .412.283.774.688.774H29.49c.405 0 .688-.362.688-.774v-8.288l.316.238c.134.106.3.164.47.164a.739.739 0 00.548-.245l2.281-2.55a.756.756 0 00.19-.56.732.732 0 00-.256-.524L29.72 7.215V.785A.803.803 0 0028.954 0h-3.021c-.405 0-.704.372-.704.784v2.79l-2.92-2.358a.735.735 0 00-.922 0l-11.42 9.265a.754.754 0 00-.088 1.084l2.277 2.55zm16.557 7.413h-13.75v-8.765l6.875-5.636 6.875 5.636v8.765zM26.696 1.491h1.558v4.534l-1.558-1.261V1.49zm-4.858 1.262l10.348 8.398-1.29 1.443-8.6-7.005a.724.724 0 00-.917 0l-8.6 7.005-1.29-1.443 10.349-8.398z" fill="#000"/></svg>