<svg width="286" height="135" fill="none" xmlns="http://www.w3.org/2000/svg"><path d="M109.6 93.4H59.7c-22 0-25 11.4-13 13 12 1.6 37 9.1 25 12.6s-14.5 15 5 15.5 118 1 134 0 7.8-14.5-11.6-14-10.4-5.9 20.1-6.2c30.5-.3 52.5-17.6 16.5-18.7-36-1.2-126.1-2.2-126.1-2.2z" fill="#D3D3D3"/><path d="M117.7 104.4s-8.7-2-12.4 0c-3.7 2-.8 10.3 18.8 7.3l-6.4-7.3zm46 0s8.7-2 12.4 0c3.7 2 .8 10.3-18.8 7.3l6.4-7.3z" fill="#473A51"/><path d="M104.8 86s-8.6-2-7.1 8.6c1.5 6.9 26.4 17.2 26.4 17.2V91l-19.3-5z" fill="#5F7091"/><path d="M135.5 39.4v6.1s4.8 6 10.4 0v-6.1c.1 0-6.9-6.1-10.4 0z" fill="#E2B79A"/><path d="M178.2 86s8.6-2 7.1 8.6c-1.5 6.9-26.4 17.2-26.4 17.2V91l19.3-5z" fill="#5F7091"/><path d="M158.2 48.7l-8.3-3.1c-5.7-2.1-12-2.1-17.7 0l-8.3 3.1s-12 6.6-2.2 40.8c0 0 5.9 5.2 19.4 5.2 13.5 0 19.4-5.2 19.4-5.2 9.7-34.2-2.3-40.8-2.3-40.8z" fill="#F5AD43"/><path d="M135.2 4.3s-6.1-1.8-8.9 2.1c-2.8 3.9 0 9.1 0 9.1s-4.5.9-5.2 6.4c-.7 5.5 3.4 7.3 3.4 7.3s-2.5 3.9.4 8.2c1.8 2.5 7.7 0 7.7 0s.2 2.3 2.7 3.2c2.5.9 4.8-2 4.8-2s3 4.1 9.1 2.1c6.1-2 5.2-6.9 5.2-6.9s4.5.9 6.6-2.7c2.1-3.6-1.6-7.8-1.6-7.8s2.5-4.8 0-10.1-6.4-3.4-6.4-3.4.5-5.2-2.7-6.9c-3.2-1.8-6.9 2.3-6.9 2.3s.2-5.2-3.7-5.2c-4.4.1-4.5 4.3-4.5 4.3z" fill="#545454"/><path d="M121.6 89.4s-1.2 11.3 0 18.7c1.2 7.4 19.1 8.1 27.7 7.6 8.6-.5 14.8-3.9 11.1-26.3 0 0-19.1 9.7-38.8 0z" fill="#697A9E"/><path d="M123.4 63.3c.3 2.3.5 4.6.7 7l.6 7 .5 7c.1 2.3.3 4.7.4 7-.4-2.3-.7-4.6-1-6.9-.3-2.3-.5-4.7-.7-7-.2-2.3-.3-4.7-.4-7-.1-2.4-.2-4.8-.1-7.1zm35-.1c0 2.3-.1 4.7-.2 7s-.3 4.7-.4 7c-.2 2.3-.4 4.7-.7 7-.3 2.3-.6 4.6-1 6.9.1-2.3.2-4.7.4-7l.5-7 .6-7c.3-2.2.6-4.6.8-6.9z" fill="#E9E9E9"/><path d="M35.3 121.8c5.689 0 10.3-1.343 10.3-3s-4.611-3-10.3-3c-5.688 0-10.3 1.343-10.3 3s4.611 3 10.3 3zm236.5-6c7.456 0 13.5-1.343 13.5-3s-6.044-3-13.5-3-13.5 1.343-13.5 3 6.044 3 13.5 3zm-30.1 13.3c0 .6-1.9 1-4.3 1s-4.3-.4-4.3-1 1.9-1 4.3-1c2.3 0 4.3.4 4.3 1zM17 98.8c2.761 0 5-.448 5-1s-2.239-1-5-1-5 .448-5 1 2.239 1 5 1zm-8.7 21.5c0 .8-1.9 1.5-4.2 1.5-2.3 0-4.2-.7-4.2-1.5s1.9-1.5 4.2-1.5c2.4 0 4.2.7 4.2 1.5z" fill="#E1E1E1"/></svg>