<svg width="297" height="318" fill="none" xmlns="http://www.w3.org/2000/svg"><path d="M72.37 217.676s-1.678 32.747 21.88 44.319c23.557 11.572 37.606 8.354 54.681-6.231 0 0-8.719 32.236-27.158 42.185 0 0 40.134.446 59.255-42.394 0 0 38.447 2.523 45.974-35.535 0 0 38.63-8.346 48.587-44.035 9.957-35.689-4.483-48.971-23.849-65.891 0 0 11.61-19.61-9.655-43.866-15.449-13.328-37.152-4.455-37.152-4.455s-4.251-37.134-49.389-45.163c-14.031-2.025-38.602 10.066-43.185 26.454 0 0-24.089-21.334-51.27-5.887-27.18 15.447-25.154 51.352-19.318 68.538 0 0-30.155 23.895-21.711 65.266 8.535 41.385 52.31 46.695 52.31 46.695z" fill="#E0E0E0"/><path d="M152.581 185.671l-33.223-4.796.528-3.656c.885-6.127 2.246-11.076 4.07-14.747 1.823-3.672 4.223-6.856 7.229-9.752 2.991-2.796 9.507-7.606 19.534-14.331 5.306-3.471 8.216-6.986 8.73-10.543.499-3.459-.007-6.357-1.623-8.608-1.615-2.251-4.384-3.559-8.186-4.107-4.164-.601-7.727.398-10.871 2.97-3.143 2.573-5.619 7.563-7.413 14.87l-33.2-9.433c3.145-13.468 9.255-23.784 18.315-30.85 9.073-7.165 21.803-9.565 38.097-7.213 12.673 1.83 22.489 6.172 29.522 13.14 9.465 9.336 13.294 20.582 11.411 33.627-.785 5.436-2.885 10.379-6.328 15.027-3.443 4.648-9.94 9.965-19.4 15.965-6.612 4.19-10.922 7.805-12.903 10.647-2.267 2.901-3.562 6.75-4.289 11.79zm-20.032 6.894l4.164.601c8.69 1.255 14.548 9.969 13.193 19.358-1.37 9.487-9.529 16.078-18.129 14.836l-4.164-.601c-8.69-1.254-14.548-9.969-13.192-19.357 1.264-9.402 9.438-16.091 18.128-14.837z" fill="#fff"/></svg>