<svg width="200" height="208" fill="none" xmlns="http://www.w3.org/2000/svg"><path d="M120.878 7.822L26.361 47.66C10.438 54.305 2.867 73.924 9.383 91.3l26.506 71.258c6.291 16.806 23.316 25.517 38.758 20.125 10.245 12.41 26.405 17.116 24.57 14.848-6.118-7.329-8.918-15.13-10.068-20.9l81.822-34.424c15.912-6.73 23.494-26.263 16.978-43.641l-26.506-71.258C154.917 9.846 136.713 1.1 120.878 7.822z" fill="#C5C5C5"/><path d="M114.757 112.996L94.004 122.6l-.897-2.292c-1.56-3.925-2.5-7.238-2.673-10.041a24.758 24.758 0 01.903-8.319c.775-2.743 2.907-7.954 6.405-15.548 1.884-3.984 2.378-7.122 1.49-9.329-.887-2.207-2.149-3.6-3.883-4.339-1.647-.664-3.736-.42-6.123.627-2.598 1.244-4.334 3.158-5.274 5.834-.94 2.676-.657 6.408.79 11.373l-22.396 6.972c-2.775-8.917-2.723-17.137.079-24.65 2.801-7.514 9.294-13.66 19.487-18.356 7.96-3.665 15.117-4.84 21.478-3.442 8.607 1.82 14.611 6.854 18.013 15.1 1.424 3.428 1.851 7.057 1.457 11.039-.394 3.981-2.341 9.427-5.754 16.413-2.404 4.9-3.621 8.55-3.807 10.967-.331 2.52.151 5.287 1.458 8.387zm-9.234 11.513l2.599-1.243c5.43-2.515 11.795.252 14.223 6.215 2.427 5.963.02 12.832-5.409 15.346l-2.599 1.244c-5.43 2.515-11.795-.252-14.223-6.215-2.427-5.963.057-12.841 5.409-15.347z" fill="#fff"/></svg>