<svg version="1.1" id="Layer_1" xmlns="http://www.w3.org/2000/svg" x="0" y="0" viewBox="0 0 781.9 391.8" xml:space="preserve" fill="#fff"><style>.st1{fill:#fff}</style><linearGradient id="SVGID_1_" gradientUnits="userSpaceOnUse" x1="238.74" y1="330.057" x2="476.523" y2="330.057" gradientTransform="matrix(1 0 0 -1 0 454.5)"><stop offset="0" stop-color="#272826"/><stop offset="1" stop-color="#fff"/></linearGradient><path d="M433.9 127.2c-2.3 2.8-4.5 5.6-6.7 8.4-5.6 6.7-11.6 13-18 19-6.4 5.9-12.9 11.7-19.5 17.4-15.5 13.3-31.5 25.9-48.3 37.6-11.9 8.2-24.1 15.9-36.8 22.9-6.3 3.5-12.6 7-19.1 10.1-7 3.4-14.3 5.9-22.1 6.3-4.5.2-8.8-.4-12.6-3-3.8-2.6-5.5-6.4-6.1-10.8-.9-6.7 1.6-12.2 5.8-17.1 4.3-5.1 10-8.4 15.7-11.6 15.5-8.7 31-17.4 46.4-26.4 9.4-5.5 18.5-11.6 27.5-17.6 6-4 11.9-8.4 17.7-12.7 14-10.4 27.3-21.7 40.3-33.2 2.6-2.3 5.2-4.6 7.8-7l.8-.8c-1.5-1-2.9-2-4.3-3-6.9-4.6-13.7-9.2-20.6-13.9-4.9-3.3-9.8-6.6-14.6-10-1.1-.7-1.9-.8-3-.1-4.2 2.6-8.7 4.8-13.6 6-3.3.8-6.3.6-9.3-1.1-17.8-9.7-35.8-19.2-53.6-28.9-9.2-5-18.2-10.2-27.3-15.4-5.8-3.3-11.4-6.8-17.1-10.2-1.2-.8-2.4-1.6-3.6-2.5-.8-.5-1.1-1.1-.9-2.2 1.2-7.8 4.1-14.9 8.9-21.2 2-2.6 4.4-4.8 7.6-6 .4-.2 1.1-.2 1.5 0 5.1 2.5 10.2 4.9 15.1 7.5 16.5 8.8 33 17.6 49.3 26.5 15.7 8.6 31.3 17.3 46.8 26.1 9.6 5.5 19.1 11.2 28.4 17.2 8.3 5.3 16.3 10.9 24.5 16.5.7.5 1 .4 1.6-.1 4-3.3 8.6-3.4 12.8-.4 1.4 1 3.2 1.6 4.6 2.6 4.2 2.8 5.6 7 4.2 11.9-.4 1.5-1 3-1.6 4.4-.4.9-.4 1.6 0 2.4 3.3 7 8.7 11.7 15.8 14.7 4.3 1.8 8.7 2.7 13.3 3.1 1.8.1 3 1 3.8 2.5 1.2 2.3 1.5 4.8.6 7.3-.7 2-2.2 3.1-4.3 2.8-2.4-.3-4.8-.7-7-1.4-6.7-2.2-12.8-5.6-18.8-9.1-4-2.4-8-5-12-7.5zM296.2 234.3c1.8-.9 3.6-1.8 5.4-2.8 14.5-8.1 28.5-17 42.1-26.5 14.7-10.3 28.8-21.4 42.6-33 6.5-5.5 12.9-11 19.2-16.7 4.5-4.1 8.7-8.5 13-12.8.4-.4.8-.8 1.2-1.3-.9-.5-1.6-.8-2.4-1.3.3 1 1.9 1.3 1.2 2.6-.7-.5-1.5-.9-2.2-1.4.2.6.6 1 .9 1.4.1.2.1.5.2.7-.2 0-.5.1-.7 0-.5-.2-1-.5-1.5-.8.2.5.6.9.9 1.3.1.2.1.4.2.6-.2 0-.5.2-.7.1-.6-.3-1.2-.7-1.7-1.1.3.6.7 1.1 1.1 1.6.1.2.1.4.2.7-.2 0-.5.1-.7 0-.6-.3-1.2-.7-1.7-1.1l-.1.1c.5.6 1.1 1.2 1.7 1.9-1.2.5-1.8-.7-2.8-.7.5.7 1 1.2 1.4 1.8-.1.1-.1.2-.2.3-.8-.4-1.6-.8-2.3-1.3-.1.1-.1.2-.2.2.4.5.8.9 1.2 1.4.1.1.1.4.1.6-.2 0-.5.1-.6 0-.6-.3-1.1-.6-1.6-1 .2.6.6.9.8 1.3.1.2.1.5.2.8-.3 0-.6 0-.8-.1-.5-.3-1.1-.7-1.6-1 .3.6.7 1 1.1 1.5.1.2.1.5.2.7-.3 0-.6.1-.8 0-.6-.3-1.1-.7-1.6-1.1l-.1.1c.5.6 1 1.2 1.6 1.9-1.2 1-1.7-.9-2.8-.6.4.4.7.8 1 1.2.1.2.1.5.2.8-.3 0-.7.1-.9-.1-.5-.2-1-.6-1.4-.9 0 .1-.1.1-.1.2.5.6.9 1.1 1.5 1.8-1.2.8-1.7-.7-2.7-.6.4.4.7.8 1 1.2.1.2.1.5.1.7-.2 0-.5.1-.7 0-.5-.3-1-.7-1.5-1 .2.5.6.9.9 1.4.1.2.1.5.2.8-.3 0-.6.1-.8-.1-.5-.3-1-.7-1.5-1 .2.5.6.9.9 1.4.1.2.1.5.2.8-.3 0-.6 0-.9-.1-.5-.2-.9-.6-1.3-.9 0 .1-.1.1-.1.2.4.5.8 1.1 1.3 1.6 0 .1-.1.2-.1.3-.4-.1-.7-.1-1.1-.3-.4-.2-.7-.4-1.1-.7.1.5.4.8.6 1.2.1.2.1.5.1.8-.3 0-.6.1-.7-.1-.5-.3-1-.7-1.5-1l-.1.1c.4.6.9 1.2 1.4 1.8-1.2 1-1.6-.8-2.6-.6.3.4.6.7.8 1.1.1.3.2.6.2.9-.3-.1-.7-.1-.9-.2-.4-.2-.7-.4-1-.6 0 .1-.1.1-.1.2.4.5.7 1 1.1 1.5-1.3.9-1.7-.7-2.7-.7.5.6.9 1.2 1.4 1.9-1.2.8-1.6-.7-2.5-.6.3.3.5.7.7 1 .1.2.1.5.2.8-.3 0-.7.1-.9-.1-.5-.3-1-.7-1.4-1 .2.5.6 1 .9 1.5.1.2.1.5.2.7-.3 0-.6.1-.8 0-.5-.3-.9-.6-1.4-1l-.1.1c.4.6.8 1.1 1.3 1.8-1.3.7-1.8-.8-2.8-.9.4.5.8.9 1.1 1.4.1.2.1.5.1.8-.2 0-.5 0-.7-.1-.5-.3-.9-.6-1.4-.9l-.1.1c.4.6.8 1.1 1.2 1.7-1.2 1-1.6-.7-2.5-.5.3.4.6.7.8 1.1.1.2.1.5.1.8-.3 0-.6 0-.8-.1-.5-.3-.9-.6-1.3-1 .2.5.5.9.7 1.3.1.2.1.5.1.8-.3 0-.6 0-.8-.1-.4-.2-.8-.6-1.2-.9l-.1.1c.4.5.8 1.1 1.2 1.6-1.1 1.3-1.5-.7-2.4-.4.2.3.5.6.6.9.1.2.1.5.2.8-.3 0-.7.1-.9 0-.4-.2-.8-.6-1.3-.9.1.5.4.8.6 1.2.1.3.1.6.1.9-.3-.1-.7 0-.9-.2-.4-.2-.6-.5-1.1-.8 0 .9 1.6 1.4.4 2.3-.6-.5-1.2-.9-1.7-1.3l-.1.1c.4.6.8 1.1 1.2 1.7-1.2.9-1.6-.7-2.5-.7.4.6.8 1.1 1.2 1.7-1.4 1.1-1.7-.8-2.7-.8.3.5.7 1 1 1.4.1.2.1.4.1.6-.2 0-.6.2-.7.1-.5-.3-.9-.7-1.4-1l-.1.1c.4.5.8 1.1 1.2 1.6-1.3 1.2-1.6-.8-2.6-.8l1.2 1.8c-1.2.9-1.6-.6-2.5-.8.4.6.8 1.2 1.2 1.7-1.1 1.3-1.5-.7-2.3-.4.4.5.7 1 1.1 1.6-1.2.8-1.6-.7-2.6-.9.4.5.7.9 1 1.4.1.2.1.6 0 .7-.2.1-.5.1-.7 0-.5-.3-1-.8-1.7-1.3.5.9.9 1.5 1.3 2.2-1.3 1-1.6-.8-2.5-.8.3.4.6.8.8 1.2.1.2.1.5.1.8-.3 0-.6 0-.9-.1-.3-.2-.6-.5-.9-.7l-.1.1c.3.5.6 1 .9 1.6-1.2 1-1.5-.7-2.4-.8.4.6.7 1.1 1.1 1.7-1 1.2-1.4-.6-2.3-.5.3.6.6 1.1.9 1.6-1.2 1-1.5-.8-2.4-.8.4.6.7 1.2 1.1 1.8-1.3.8-1.6-.8-2.5-.9.4.6.8 1.2 1.2 1.9-1.3 1.1-1.6-.8-2.5-.7.4.6.7 1.1 1.1 1.7-1.4.9-1.6-.8-2.4-.9-.3.8 1.8 1.3.4 2.4-.6-.5-1.1-.9-1.6-1.3l-.1.1c.3.5.6 1 1.1 1.7-1.2.9-1.6-.7-2.5-.9.4.6.7 1.2 1.1 1.8-1.3 1.2-1.5-.9-2.5-.7.4.6.7 1.1 1.1 1.7-1.3 1.1-1.5-.7-2.5-.8.4.6.7 1.2 1.1 1.8-1.1 1-1.4-.6-2.3-.6.3.5.6 1 .9 1.6-1.2 1.1-1.4-.7-2.3-.7.2.4.5.7.6 1.1.1.3 0 .6 0 .9-.3 0-.6 0-.8-.2-.4-.3-.8-.7-1.1-1.1l-.1.1c.4.6.7 1.2 1.1 1.8-1.2 1.2-1.4-.7-2.3-.7.3.4.5.7.7 1.1.1.2 0 .5 0 .8-.3 0-.6 0-.8-.1-.4-.3-.7-.7-1.1-1l-.2.2c.3.6.6 1.1 1 1.8-1.4.8-1.6-.9-2.5-1 .4.6.7 1.2 1.1 1.9-1.2 1.3-1.4-.7-2.3-.7.3.6.6 1.1 1 1.7-1.3 1.1-1.5-.8-2.4-.8.3.6.7 1.2 1 1.8-1.3.9-1.5-.8-2.4-.9.3.6.6 1.2 1 1.9-1.3 1-1.4-.8-2.3-.7.2.4.5.8.6 1.2.1.2 0 .5 0 .8-.3 0-.6 0-.8-.2-.4-.3-.7-.7-1.1-1.1l-.1.1.9 1.8c-1.2 1-1.4-.7-2.2-.7.3.5.6 1 .9 1.6-1.4 1-1.5-.9-2.5-.9.2.4.5.7.7 1.1.1.3 0 .7.1 1-.3-.1-.7-.2-1-.3-.4-.2-.6-.6-1-.9.1.5.4.9.6 1.3.1.2 0 .5 0 .8-.3-.1-.6 0-.8-.2-.4-.3-.8-.7-1.2-1.1l-.1.1c.3.6.7 1.2 1 1.9-1.4 1.1-1.5-.9-2.5-1 .3.5.6.8.7 1.3.1.3 0 .6 0 .9-.3-.1-.7-.1-.9-.3-.4-.3-.6-.6-1-.9-.1 0-.1.1-.2.1l.9 1.8c-1.4.9-1.4-.9-2.4-1 .4.7.7 1.3 1 1.9-1.4.9-1.5-1-2.4-1 .3.6.7 1.2 1 1.9-1.5.9-1.5-1.1-2.5-1.1.4.7.7 1.3 1.1 2-1.3.9-1.4-.9-2.4-.9.3.5.6.9.7 1.4.1.2 0 .5-.2.7-.1.1-.5 0-.6-.1-.5-.4-.9-.9-1.3-1.3l-.1.1c.3.7.7 1.4 1.1 2.1-1.4.8-1.4-1-2.4-1 .3.5.6 1 .8 1.5.1.2 0 .6-.2.7-.1.1-.5 0-.7-.1-.5-.4-.9-.9-1.3-1.3 0 .4.3.8.4 1.1.1.4.1.8.2 1.2-.4-.2-.8-.3-1.2-.6-.3-.2-.5-.6-.8-.8.1.6.4 1.1.6 1.6.1.2 0 .5 0 .7-.3 0-.6 0-.8-.2-.4-.3-.7-.7-1-1l-.2.2c.3.5.6 1.1.9 1.7-1.4 1-1.5-1-2.4-1 .3.6.6 1.3 1 1.9-1.4.8-1.5-1.1-2.5-1.1.3.5.5 1 .7 1.5.1.2 0 .5 0 .8-.3-.1-.6-.1-.9-.3-.5-.4-.9-.9-1.3-1.4.1.6.5 1.1.7 1.6.1.3 0 .6 0 .9-.3-.1-.6-.1-.8-.3-.4-.4-.8-.8-1.1-1.2.1.6.4 1.1.6 1.6.1.2 0 .5 0 .8-.3-.1-.6-.1-.9-.3-.4-.4-.8-.8-1.2-1.3.1.6.4 1.1.6 1.6.1.2 0 .6 0 .8-.3-.1-.7-.1-.9-.3-.5-.4-.8-.9-1.2-1.4-.1 0-.1.1-.2.1.4.7.7 1.5 1.1 2.2-.4.2-.4.2-2.6-1.5.4.9.8 1.6 1.2 2.5-1.6.3-1.7-1.4-2.7-1.7.4.7.7 1.3 1 1.9.1.2 0 .5-.1.7-.2-.1-.5 0-.7-.2-.5-.5-1-1-1.4-1.6l-.1.1c.4.8.7 1.5 1.2 2.5-1.6.2-1.7-1.4-2.7-1.8.3.7.6 1.2.9 1.8.1.2 0 .5 0 .8-.3-.1-.6-.1-.8-.3-.4-.4-.8-.8-1.1-1.2 0 .6.3 1.1.5 1.6.1.2 0 .5 0 .8-.3-.1-.6-.1-.8-.3-.4-.4-.8-.9-1.1-1.3 0 .7.3 1.2.6 1.8.1.2 0 .5 0 .7-.2-.1-.5-.1-.7-.2-.5-.6-1-1.2-1.5-1.7.2.8.5 1.4.8 2.1-1.2.9-1.3 1.3-1.4 1.6l-2.2-2.2-.1.1c.4.9.9 1.8 1.3 2.7.4-.2.7-.4 1-.6zm126-136.6c-2.1-1.5-4.1-3.1-6.2-4.5-8-5.4-15.9-10.9-24.2-15.9-12.1-7.4-24.4-14.6-36.7-21.7-13.3-7.6-26.7-15-40.2-22.3-18.5-10-37.1-19.7-55.6-29.6-3.5-1.9-3.7-1.8-6.9.6-.2.2-.5.4-.7.6-6.1 6.1-9.2 13.7-10.7 22-.1.4.2 1 .5 1.2 1.2.9 2.4 1.7 3.6 2.5 11.9 7 23.8 14 35.9 20.8 10.2 5.8 20.6 11.5 30.9 17.1 10.1 5.4 20.3 10.7 30.4 16.1 2.5 1.3 5 1.6 7.6.8 6.2-1.8 12.1-4.3 16.6-9.2 2-2.1 2.1-2 4.5-.5.4.2.8.5 1.2.7 6.5 4.2 13 8.4 19.4 12.6 5.4 3.5 10.8 7.1 16.1 10.7 2.1 1.4 4.2 2.9 6.3 4.3.3.2.7.2 1 .2 0-.1.1-.3.1-.4-6.2-4.3-12.5-8.6-18.7-13 2.4 1.2 4.6 2.5 7 3.6 2.5 1.1 5.1 2.1 7.7 3 .8.3 1.8.4 2.5-.5.6-.9.3-1.8-.1-2.6-.5-.9-1-1.8-1.7-3l1.2.8c2.5 1.8 5 3.7 7.5 5.5.8.9 1.3.9 1.7.1zm-3.4 27.6c-.7-.6-1.3-1.1-1.9-1.5-2.5-1.8-5.1-3.5-7.6-5.2-.8-.6-1.4-.5-2.1.2-12.3 11.2-25 21.9-38.3 31.9-6.3 4.7-12.5 9.4-18.9 13.9-12 8.5-24.5 16.4-37.3 23.9-12.3 7.1-24.7 14.1-37 21.1-1.4.8-1.5.8-.8 2.3 1.2 2.9 2.5 5.9 3.8 8.8.4.8.8 1.5 1.3 2.2.1-.3.1-.4.1-.6s-.1-.3-.1-.5c-.8-3.1.2-5.7 2.6-7.7 1-.9 2.1-1.6 3.3-2.3 5.3-3.1 10.8-6.1 16-9.3 9.7-6 19.5-11.8 29-18.2 10.5-7.1 20.8-14.5 31-22 7.3-5.4 14.3-11.1 21.3-16.8 7.8-6.5 15.4-13.3 23.1-20 2.5-2.2 5.4-2.8 8.6-1.9 1.2.5 2.4 1.1 3.9 1.7zm-146.1 85.9c-.3.1-.4.1-.5.2-4.9 2.6-9.7 5.4-14 8.9-3.7 2.9-7.1 6.1-9.4 10.3-2.9 5.5-1.1 11.4 4.4 14.3 3.3 1.8 7 2 10.7 1.8 4.7-.3 9.3-1.4 13.7-3.1 3.7-1.4 7.4-3.1 11.2-4.7-6.9-8.5-12.2-17.6-16.1-27.7zm137.2-94.8c6.2 4.8 12.4 9.5 18.7 14.3-.1.1.1 0 .2-.2 2.6-3.7 5.3-7.3 7.8-11.1 2.3-3.6 4.3-7.3 5.5-11.4 1.2-4 0-7.9-3.1-10-3.3-2.2-6.8-2-10.1 1-4.2 3.7-8.3 7.7-12.5 11.5-2.2 2-4.5 4-6.5 5.9zm27.8 5.1l-.2.2c.1.2.2.5.4.6 7.5 6 15.2 11.7 23.8 16.2 3.4 1.7 6.9 3.2 10.7 3.9 1 .2 1.6-.2 1.8-1.1.4-1.9.2-3.8-.9-5.4-.3-.5-1-.9-1.6-1-2.6-.5-5.2-.7-7.8-1.3-7.9-1.8-14.8-5.6-19.8-12.1-1.2-1.6-2.2-3.4-3.3-5.1-.2.4-.4.9-.2 1.2.5 1 1 2 1.7 2.8 1.1 1.5 2.3 2.9 3.6 4.6-1.1-.7-2-1.3-2.9-1.8-.9-.4-1.9-.7-2.9-1-.5-.2-1.1-.3-1.6-.5-.3.1-.6 0-.8-.2zm-183 98.4l.2.2c.2-.2.4-.3.6-.5 3.4-2.4 6.6-4.9 10.2-7 7.8-4.6 15.8-8.9 23.7-13.3 14.6-8.1 29.1-16.5 43.1-25.6 8.9-5.8 17.6-12 26.3-18.2 6.8-4.9 13.3-10.1 19.9-15.4 15.2-12.2 29.7-25.3 44.2-38.5 2.6-2.4 4.8-5.3 8.3-6.6-1.7.1-3 1-4.2 2.1-4.7 4.3-9.4 8.5-14.2 12.8-13.2 11.9-26.5 23.6-40.6 34.6-5.6 4.3-11 8.8-16.8 12.8-10 7-20.2 13.8-30.5 20.4-7.9 5.1-16.1 9.7-24.2 14.4-8 4.7-16.2 9.2-24.2 13.7-6 3.4-12.1 6.5-17.7 10.6-1.4 1.2-2.7 2.4-4.1 3.5zM408.4 110c-.1-.1-.2-.2-.2-.3-.3.2-.5.4-.8.6-8.4 7.3-16.6 14.7-25.1 21.8-7.8 6.5-15.9 12.9-24 19.1-13.5 10.4-27.7 19.7-42.3 28.5-9.7 5.8-19.5 11.4-29.3 17.1-6.3 3.6-12.6 7.1-19 10.6-5 2.8-10 5.7-14.1 9.8-.4.4-.8.8-1.2 1.3-.4.4-.7.8-1.1 1.2 2.9-2.8 5.8-5.4 9.3-7.5 5.9-3.5 11.9-6.8 17.8-10.2 15.8-8.8 31.5-17.7 46.8-27.3 15.6-9.9 30.6-20.5 45.1-32 12.8-10.2 25.2-20.8 37.3-31.8.4-.4.6-.7.8-.9zm-78.1 78.1c26-15.9 50.1-34.2 72.1-55.3-22.6 20.3-46.8 38.5-72.1 55.3zm80.8-80.1l-38.4-24.6c.7.7 1.4 1.3 2.2 1.8 4.8 3.3 9.6 6.6 14.4 9.8 6.7 4.5 13.4 8.9 20.1 13.4.8.5 1.3.5 1.7-.4zm52.5 34c-.8-.4-1.6-.9-2.4-1.3-3.3-1.8-6.7-3.4-9.9-5.3-5.1-3.2-10.1-6.7-15.1-10.1-.6-.4-1-.6-1.3.4 9 6.5 18.4 12.2 28.7 16.3zm-45.3-3.6c-.1 0-.1.1-.2.1.6.7 1.2 1.4 1.9 2.1.2-.2.4-.5.7-.8-.8-.4-1.6-.9-2.4-1.4zm-124.5 97.3c.3-.2.5-.3.8-.5-.7-.8-1.3-1.6-2-2.3-.1 0-.1.1-.2.1.5.9.9 1.7 1.4 2.7zM423.4 95.6c.1.1.2.3.3.4 1.1-.8 2.3-1.6 3.4-2.4-.1-.1-.1-.2-.2-.3-1.1.8-2.3 1.5-3.5 2.3zM293.1 236c-.7-.8-1.3-1.6-2.1-2.5.7 2.3 1.2 3 2.1 2.5zm-3.4-1.5c.9 2.7 1 2.9 1.8 2.2-.6-.7-1.2-1.5-1.8-2.2zm130.8-98.3c1.2 1.9 1.6 2.2 2.3 1.2-.7-.4-1.5-.8-2.3-1.2zm1.2-1.2l-.1.1c.5.5.9 1 1.4 1.5.1.1.4.1.6.1-.1-.2-.1-.6-.2-.7-.5-.4-1.1-.7-1.7-1zm-2.1 2.5l-.2.2c.5.6 1.1 1.2 1.7 1.8.2-.3.4-.5.7-.7-.8-.5-1.5-.9-2.2-1.3zm3.2-3.6l1.8 1.8c.5-1 .4-1.1-1.8-1.8z" fill="url(#SVGID_1_)"/><path class="st1" d="M418.8 125.3c-1.4-.6-2.7-1.2-4.1-1.7-3.2-1-6-.4-8.6 1.9-7.7 6.7-15.3 13.5-23.1 20-6.9 5.8-14 11.5-21.3 16.8-10.2 7.5-20.5 14.9-31 22-9.5 6.3-19.3 12.2-29 18.2-5.3 3.2-10.7 6.2-16 9.3-1.2.7-2.3 1.4-3.3 2.3-2.4 2-3.3 4.6-2.6 7.7 0 .2.1.3.1.5s.1.3-.1.6c-.4-.7-.9-1.5-1.3-2.2-1.3-2.9-2.6-5.8-3.8-8.8-.6-1.5-.6-1.5.8-2.3 12.4-7 24.7-14 37-21.1 12.8-7.4 25.2-15.3 37.3-23.9 6.4-4.5 12.6-9.2 18.9-13.9 13.3-10 26-20.7 38.3-31.9.7-.7 1.3-.8 2.1-.2 2.5 1.8 5.1 3.5 7.6 5.2.8.4 1.4 1 2.1 1.5zm-146.1 85.9c3.9 10 9.2 19.2 16.1 27.8-3.8 1.6-7.5 3.3-11.2 4.7-4.4 1.6-8.9 2.8-13.7 3.1-3.7.2-7.3-.1-10.7-1.8-5.5-2.9-7.3-8.8-4.4-14.3 2.2-4.2 5.7-7.4 9.4-10.3 4.4-3.4 9.2-6.2 14-8.9.1-.2.2-.2.5-.3zM249.6 240c.2.4.3.6.4.7 2.3 3.3 5.8 4.5 9.6 4.9 4.4.5 8.6-.3 12.8-1.4 5-1.3 9.8-3.3 14.4-5.6-2.8-4.1-5.5-8.1-8.3-12.2-2.5 1.4-5 2.9-7.4 4.3 0 1 0 2-.1 3.1 2.1-.9 4.2-1.8 6.2-2.7-.2.4-.5.5-.8.7-2.6 1.5-5.1 3-7.7 4.5-.5.3-1.1.6-1.7.8-1.8.6-3.7 1-5.5 1.6-3.7 1.1-7.6 2.3-11.9 1.3zm12.6-10.2c-1.2 1.9-.6 4.6 1.3 5.9 2.1 1.4 4.9.8 6.2-1.3 1.3-2 .7-4.7-1.3-5.9-2.2-1.5-4.7-1-6.2 1.3zm9.6-16.6c-6.7 3.9-13.3 7.8-18.7 13.4 6-4.5 12.6-8.1 19.4-11.5-.3-.6-.5-1.1-.7-1.9zm-22.1 24c3.3 1.3 9.8.8 13.4-.9-.8-.3-.8-1.6-2.1-1.1-3.6 1.3-7.3 2.1-11.3 2zm160.2-120.8c2.1-1.9 4.3-3.9 6.5-5.9 4.2-3.8 8.2-7.8 12.5-11.5 3.3-2.9 6.9-3.1 10.1-1 3.1 2.1 4.3 6 3.1 10-1.3 4.1-3.2 7.9-5.5 11.4-2.5 3.8-5.2 7.4-7.8 11.1l-.2.2c-6.3-4.8-12.5-9.5-18.7-14.3zm16.6.5c-.6-.4-1-.7-1.5-1l-5.7 5.4c-.1.1-.1.2-.2.3 3.1 2.6 6.1 5.1 9.2 7.7.7-.9 1.4-1.8 2.1-2.8-.6.1-1 .2-1.5.3 0-.4-.1-.7 0-1 .8-2.6 2.4-4.7 4.6-6.2.3-.2.9.1 1.5.2 1.6-2.9 3.4-6 5-9.4.8-1.8 1.2-3.8 1.4-5.8.2-2.4-1.5-5-3.4-5.7.6 2 .1 3.9-.9 5.6-1.2 2-2.6 4-3.8 6-.3.4-.4 1-.4 1.5.3 2.8-1.5 5.1-4.4 5.3-.6 0-1.2.4-1.7.8-1.5 1.4-3 2.8-4.4 4.3l-.2-.2c1.4-1.8 2.8-3.5 4.3-5.3zm3.8-7.7c-1.8-1-4.3-.3-5.4 1.5-1.1 1.9-.3 4.3 1.6 5.4 1.9 1 4.4.3 5.4-1.6 1-1.8.2-4.2-1.6-5.3zm-16.8 8.5c4.1-4.6 8.1-9.2 12.1-13.7l-.1-.1c-4.5 4.2-9 8.4-13.6 12.7.5.4 1 .7 1.6 1.1zm18.3-8.3c1.3-2.4 2.6-4.9 4-7.3-1.5 2.1-2.9 4.2-4.4 6.2-.4.6-.4.9.4 1.1zm-13.4 32.9c-4.3 4.3-8.5 8.7-13 12.8-6.3 5.7-12.7 11.3-19.2 16.7-13.7 11.6-27.9 22.7-42.6 33-13.6 9.5-27.6 18.4-42.1 26.5-1.8 1-3.6 1.9-5.4 2.8 0-.3.2-.7.1-1-.3-.7-.6-1.3-.8-2.1.5.6 1 1.2 1.5 1.7.1.2.5.2.7.2 0-.2.1-.5 0-.7-.2-.6-.5-1.1-.6-1.8.4.4.7.9 1.1 1.3.2.2.6.2.8.3 0-.3.1-.6 0-.8-.2-.5-.5-1-.5-1.6.4.4.7.9 1.1 1.2.2.2.6.2.8.3 0-.3.1-.6 0-.8-.2-.6-.6-1.2-.9-1.8 1.1.3 1.2 2 2.7 1.8-.5-1-.8-1.8-1.2-2.5l.1-.1c.5.5.9 1.1 1.4 1.6.2.1.5.1.7.2 0-.2.1-.5.1-.7-.3-.6-.6-1.2-1-1.9 1.1.3 1.2 2 2.7 1.7-.4-.9-.8-1.7-1.2-2.5 2.1 1.6 2.1 1.6 2.6 1.5-.4-.7-.7-1.5-1.1-2.2.1 0 .1-.1.2-.1.4.5.8 1 1.2 1.4.2.2.6.2.9.3 0-.3.1-.6 0-.8-.2-.5-.5-1-.6-1.6.4.4.8.9 1.2 1.3.2.2.6.2.9.3 0-.3.1-.6 0-.8-.2-.5-.5-1-.6-1.6.4.4.7.8 1.1 1.2.2.2.6.2.8.3 0-.3.1-.6 0-.9-.2-.5-.5-1-.7-1.6.4.5.8 1 1.3 1.4.2.2.6.2.9.3 0-.3.1-.6 0-.8-.2-.5-.5-1-.7-1.5 1 .1 1 2 2.5 1.1-.4-.7-.7-1.3-1-1.9 1 0 1 2 2.4 1-.3-.6-.6-1.2-.9-1.7l.2-.2c.3.4.7.7 1 1 .2.1.5.1.8.2 0-.2.1-.5 0-.7-.2-.5-.5-1-.6-1.6.3.3.5.6.8.8.4.3.8.4 1.2.6-.1-.4-.1-.8-.2-1.2-.1-.4-.3-.7-.4-1.1.4.4.8.9 1.3 1.3.1.1.5.2.7.1.1-.1.2-.5.2-.7-.2-.5-.5-1-.8-1.5 1 0 1 1.8 2.4 1-.4-.7-.7-1.4-1.1-2.1l.1-.1c.4.5.8.9 1.3 1.3.1.1.5.2.6.1s.2-.5.2-.7c-.2-.5-.5-.9-.7-1.4 1 0 1.1 1.8 2.4.9-.4-.7-.7-1.4-1.1-2 1 0 1 2 2.5 1.1-.4-.7-.7-1.3-1-1.9.9 0 1.1 1.9 2.4 1-.3-.6-.7-1.2-1-1.9 1 .1 1 1.9 2.4 1l-.9-1.8c.1 0 .1-.1.2-.1.3.3.6.7 1 .9.2.2.6.2.9.3 0-.3.1-.6 0-.9-.2-.4-.5-.8-.7-1.3 1 0 1.1 2 2.5 1-.4-.6-.7-1.3-1-1.9l.1-.1c.4.4.7.8 1.2 1.1.2.1.5.1.8.2 0-.3.1-.6 0-.8-.2-.4-.4-.8-.6-1.3.3.3.6.6 1 .9.3.2.7.2 1 .3 0-.3.1-.7-.1-1-.1-.4-.4-.7-.7-1.1 1 0 1.1 2 2.5.9-.3-.6-.6-1.1-.9-1.6.9 0 1.1 1.7 2.2.7l-.9-1.8.1-.1c.3.4.7.8 1.1 1.1.2.1.5.1.8.2 0-.3.1-.6 0-.8-.1-.4-.4-.7-.6-1.2.9 0 1 1.8 2.3.7-.3-.6-.6-1.2-1-1.9.9.1 1.1 1.8 2.4.9-.3-.6-.7-1.2-1-1.8.9 0 1.1 1.9 2.4.8-.3-.6-.6-1.1-1-1.7.9-.1 1.1 1.9 2.3.7-.4-.6-.7-1.2-1.1-1.9.9.1 1.1 1.8 2.5 1-.4-.6-.7-1.2-1-1.8l.2-.2c.4.4.7.8 1.1 1 .2.1.5.1.8.1 0-.3.1-.6 0-.8-.2-.4-.4-.7-.7-1.1.9 0 1.2 1.8 2.3.7-.4-.6-.7-1.2-1.1-1.8l.1-.1c.4.4.7.8 1.1 1.1.2.1.5.1.8.2 0-.3.1-.6 0-.9-.1-.4-.4-.7-.6-1.1.9 0 1.1 1.8 2.3.7-.3-.5-.6-1-.9-1.6.9 0 1.1 1.6 2.3.6-.4-.6-.7-1.2-1.1-1.8.9.1 1.1 1.9 2.5.8-.4-.6-.8-1.2-1.1-1.7.9-.1 1.2 1.9 2.5.7-.4-.6-.7-1.2-1.1-1.8.9.1 1.2 1.7 2.5.9-.4-.7-.7-1.2-1.1-1.7l.1-.1c.5.4 1 .8 1.6 1.3 1.4-1.1-.6-1.6-.4-2.4.8.1 1.1 1.8 2.4.9-.4-.6-.7-1.2-1.1-1.7.9-.1 1.2 1.8 2.5.7-.4-.7-.8-1.2-1.2-1.9.9.1 1.2 1.7 2.5.9-.4-.6-.7-1.2-1.1-1.8.9 0 1.2 1.8 2.4.8-.3-.5-.6-1-.9-1.6.8-.1 1.2 1.6 2.3.5-.4-.6-.7-1.1-1.1-1.7.9 0 1.2 1.8 2.4.8-.3-.6-.6-1.1-.9-1.6l.1-.1c.3.2.6.5.9.7.3.1.6.1.9.1 0-.3 0-.6-.1-.8-.2-.4-.5-.8-.8-1.2.9 0 1.2 1.7 2.5.8-.4-.7-.8-1.3-1.3-2.2.7.6 1.2 1 1.7 1.3.2.1.5.1.7 0 .1-.1.1-.5 0-.7-.2-.4-.6-.8-1-1.4 1 .2 1.4 1.7 2.6.9-.4-.6-.7-1.1-1.1-1.6.9-.2 1.2 1.8 2.3.4-.4-.5-.7-1.1-1.2-1.7.9.1 1.4 1.7 2.5.8-.4-.7-.8-1.2-1.2-1.8 1-.1 1.3 1.9 2.6.8-.4-.6-.8-1.1-1.2-1.6l.1-.1c.5.3.9.7 1.4 1 .2.1.5 0 .7-.1 0-.2 0-.5-.1-.6-.3-.5-.6-.9-1-1.4 1 0 1.3 1.9 2.7.8-.4-.6-.8-1.1-1.2-1.7.9 0 1.3 1.6 2.5.7-.4-.6-.8-1.2-1.2-1.7l.1-.1c.5.4 1.1.8 1.7 1.3 1.2-.9-.4-1.4-.4-2.3.4.3.7.6 1.1.8.3.1.6.1.9.2 0-.3 0-.6-.1-.9-.2-.4-.5-.7-.6-1.2.4.3.8.6 1.3.9.2.1.6 0 .9 0-.1-.3-.1-.6-.2-.8l-.6-.9c.9-.3 1.3 1.7 2.4.4-.4-.5-.8-1.1-1.2-1.6l.1-.1 1.2.9c.2.1.5.1.8.1 0-.3 0-.6-.1-.8-.2-.4-.6-.8-.7-1.3.4.3.8.7 1.3 1 .2.1.5.1.8.1 0-.3 0-.6-.1-.8-.2-.4-.5-.7-.8-1.1.9-.1 1.3 1.6 2.5.5-.4-.6-.8-1.2-1.2-1.7l.1-.1c.5.3.9.7 1.4.9.2.1.5 0 .7.1 0-.3 0-.6-.1-.8-.3-.5-.7-.9-1.1-1.4 1 .2 1.5 1.6 2.8.9-.5-.7-.9-1.3-1.3-1.8l.1-.1c.5.3.9.7 1.4 1 .2.1.5 0 .8 0 0-.2 0-.5-.2-.7-.3-.5-.7-.9-.9-1.5.5.3.9.7 1.4 1 .2.1.6.1.9.1 0-.3 0-.6-.2-.8-.2-.4-.5-.7-.7-1 .9-.1 1.3 1.4 2.5.6-.5-.6-.9-1.2-1.4-1.9 1 0 1.4 1.7 2.7.7-.4-.5-.8-1-1.1-1.5 0-.1.1-.1.1-.2.3.2.7.5 1 .6s.6.1.9.2c-.1-.3-.1-.6-.2-.9-.2-.4-.5-.7-.8-1.1 1-.2 1.4 1.6 2.6.6-.5-.7-.9-1.2-1.4-1.8l.1-.1c.5.4 1 .7 1.5 1 .2.1.5 0 .7.1 0-.3 0-.6-.1-.8-.2-.4-.5-.7-.6-1.2.4.2.7.5 1.1.7.3.1.7.2 1.1.3 0-.1.1-.2.1-.3-.4-.5-.8-1.1-1.3-1.6 0-.1.1-.1.1-.2.4.3.8.6 1.3.9.3.1.6.1.9.1-.1-.3 0-.6-.2-.8-.3-.4-.7-.8-.9-1.4.5.4 1 .7 1.5 1 .2.1.6 0 .8.1 0-.3 0-.6-.2-.8-.3-.4-.7-.8-.9-1.4.5.3 1 .7 1.5 1 .2.1.5 0 .7 0 0-.2 0-.5-.1-.7-.3-.4-.6-.8-1-1.2 1 0 1.5 1.4 2.7.6-.5-.7-1-1.2-1.5-1.8 0-.1.1-.1.1-.2.5.3.9.7 1.4.9.3.1.6 0 .9.1-.1-.3-.1-.6-.2-.8-.3-.4-.6-.8-1-1.2 1-.2 1.5 1.6 2.8.6-.6-.7-1.1-1.3-1.6-1.9l.1-.1c.5.4 1.1.8 1.6 1.1.2.1.5 0 .8 0-.1-.2-.1-.5-.2-.7-.4-.5-.8-1-1.1-1.5.5.3 1 .7 1.6 1 .2.1.5.1.8.1-.1-.3-.1-.6-.2-.8-.3-.4-.6-.8-.8-1.3.5.3 1.1.7 1.6 1 .2.1.4 0 .6 0 0-.2 0-.4-.1-.6-.4-.5-.8-.9-1.2-1.4.1-.1.1-.2.2-.2.8.4 1.6.8 2.3 1.3.1-.1.1-.2.2-.3-.5-.6-.9-1.2-1.4-1.8 1 0 1.5 1.3 2.8.7-.7-.7-1.2-1.3-1.7-1.9l.1-.1c.6.4 1.1.7 1.7 1.1.2.1.5 0 .7 0-.1-.2 0-.5-.2-.7-.4-.5-.8-.9-1.1-1.6.6.4 1.1.8 1.7 1.1.2.1.5 0 .7-.1-.1-.2 0-.5-.2-.6-.3-.4-.7-.7-.9-1.3.5.3 1 .6 1.5.8.2.1.5 0 .7 0 0-.2 0-.5-.2-.7-.3-.4-.7-.8-.9-1.4 2.1 0 2.8.4 3.5.8 0 .1 0 0 0 0zm19.3-20.8c.3.1.5.3.8.4.5.2 1 .3 1.6.5 1 .3 2 .5 2.9 1 .9.4 1.8 1.1 2.9 1.8-1.3-1.7-2.5-3.1-3.6-4.6-.6-.9-1.2-1.9-1.7-2.8-.2-.3-.1-.8.2-1.2 1.1 1.7 2.1 3.5 3.3 5.1 5.1 6.5 11.9 10.3 19.8 12.1 2.6.6 5.2.8 7.8 1.3.6.1 1.3.5 1.6 1 1.1 1.6 1.3 3.5.9 5.4-.2 1-.7 1.3-1.8 1.1-3.8-.7-7.3-2.1-10.7-3.9-8.6-4.4-16.3-10.2-23.8-16.2-.2-.2-.3-.4-.4-.6 0-.2.1-.3.2-.4zm35.3 18c-.4-2.8-.8-3.2-3.2-3.6-1.2-.2-2.4-.4-3.6-.7l-5.4-1.2c2.2 1 4.4 1.8 6.6 2.4 2.2.6 4 1.3 5.6 3.1z"/><path class="st1" d="M254.7 219.9c1.4-1.1 2.7-2.3 4.2-3.4 5.5-4.1 11.7-7.3 17.7-10.6 8.1-4.6 16.2-9.1 24.2-13.7 8.1-4.7 16.3-9.4 24.2-14.4 10.3-6.6 20.4-13.4 30.5-20.4 5.8-4 11.2-8.5 16.8-12.8 14-10.9 27.4-22.6 40.6-34.6 4.7-4.3 9.4-8.6 14.2-12.8 1.2-1.1 2.5-2 4.2-2.1-3.5 1.3-5.7 4.2-8.3 6.6-14.4 13.2-28.9 26.3-44.2 38.5-6.5 5.2-13.1 10.4-19.9 15.4-8.6 6.3-17.3 12.4-26.3 18.2-14 9.1-28.5 17.5-43.1 25.6-7.9 4.4-15.9 8.7-23.7 13.3-3.6 2.1-6.8 4.7-10.2 7-.2.2-.4.3-.6.5l-.3-.3z"/><path class="st1" d="M408.4 110c-.2.3-.4.5-.7.8-12.1 11-24.5 21.6-37.3 31.8-14.4 11.5-29.5 22.2-45.1 32-15.3 9.7-31 18.6-46.8 27.3-6 3.3-11.9 6.7-17.8 10.2-3.4 2-6.4 4.6-9.3 7.5.3-.4.7-.8 1.1-1.2.4-.4.8-.9 1.2-1.3 4.1-4.1 9.1-7 14.1-9.8 6.3-3.5 12.7-7 19-10.6 9.8-5.6 19.6-11.3 29.3-17.1 14.6-8.7 28.8-18.1 42.3-28.5 8.1-6.2 16.1-12.6 24-19.1 8.5-7.1 16.8-14.5 25.1-21.8.2-.2.5-.4.8-.6 0 .2.1.3.1.4zm-78.1 78.1c25.3-16.8 49.5-35 72.1-55.3-22 21.1-46.1 39.4-72.1 55.3zm80.8-80.1c-.4.9-.9.9-1.6.4-6.7-4.5-13.4-8.9-20.1-13.4-4.8-3.2-9.6-6.5-14.4-9.8-.8-.5-1.5-1.1-2.2-1.8 12.7 8.2 25.5 16.4 38.3 24.6zm52.5 34c-10.3-4.1-19.7-9.8-28.7-16.3.2-1 .7-.8 1.3-.4 5 3.4 10 6.9 15.1 10.1 3.2 2 6.6 3.6 9.9 5.3.8.5 1.6.9 2.4 1.3zm-45.3-3.6l2.4 1.5c-.3.3-.5.6-.7.8-.6-.7-1.3-1.4-1.9-2.1l.2-.2zm-122.1 95.9c-.3.2-.6.4-1 .7-.5-1-.9-1.9-1.3-2.7l.1-.1c.8.6 1.5 1.4 2.2 2.1zm-2.4 1.4c-.5-.9-.9-1.8-1.3-2.7.1 0 .1-.1.2-.1.6.8 1.3 1.5 2 2.3-.4.2-.6.3-.9.5zM423.4 95.6c1.2-.8 2.3-1.6 3.5-2.3.1.1.1.2.2.3-1.1.8-2.3 1.6-3.4 2.4-.1-.1-.2-.2-.3-.4zM293.1 236c-.9.5-1.4-.1-2.1-2.5.8.9 1.4 1.7 2.1 2.5zm125.3-93.6c.7-1.3-.9-1.6-1.2-2.6.8.4 1.5.8 2.4 1.3-.4.4-.8.8-1.2 1.3 0-.1 0 0 0 0zm-128.7 92.1c.6.7 1.2 1.5 1.8 2.2-.8.7-.9.5-1.8-2.2zm130.8-98.3c.8.4 1.5.8 2.3 1.2-.6 1-1.1.7-2.3-1.2zm1.2-1.2c.6.3 1.2.6 1.7 1 .2.1.2.5.2.7-.2 0-.5 0-.6-.1-.5-.5-1-1-1.4-1.5.1 0 .1-.1.1-.1zm-2.1 2.5c.7.4 1.4.8 2.2 1.2-.2.3-.4.5-.7.7-.6-.6-1.1-1.2-1.7-1.8.1 0 .2 0 .2-.1zm3.2-3.6c2.2.8 2.3.9 1.8 1.8-.6-.7-1.2-1.2-1.8-1.8z"/><path d="M346.8 55.2c4.4 1.7 8.3 4.5 12.8 5.9.1-.1.1-.2.2-.3-.6-.6-1.3-1.2-1.9-1.8.1-.1.1-.2.2-.3l30 18c0 .1-.1.2-.1.2-1.8-.9-3.6-1.9-5.5-2.7-2.8-1.2-5.6-2.3-8.4-3.4-.9-.3-2.2-.7-2.8.3-.7 1 .4 1.9 1 2.6 1.4 1.5 3 2.9 4.6 4.5-1.7-1-3.2-1.9-4.6-2.9-3.5-2.7-6.2-1.9-9.6.6-.6.4-1.2 1-1.9 1.6 1-1.8 1.7-3.6 2.8-5.1 2.4-3.5.4-7.6-2.5-9.1-4.8-2.6-9.5-5.4-14.3-8.1zm-40.9 7.3c-2.7-1.7-5.5-3.5-8.2-5.2 6.5 3.5 12.9 7 19.4 10.5 0 0 0 .1-.1.1-.6-.1-1.2-.1-1.9-.2 0 .1-.1.2-.1.3 6.6 4.5 13.9 8 20.6 12.4-17.7-9.5-35.5-18.8-52.9-29 .1-.1.1-.2.2-.3 7.6 3.9 15.1 7.9 22.7 11.8.2-.1.2-.3.3-.4zm-3.5-34.2c14.9 8 29.6 16 44.3 23.9-.1.1-.1.2-.2.3-15.1-7.1-29.9-14.8-44.1-24.2zM247.9 31c2 1.1 4.1 2.2 6.1 3.3.1-.1.2-.3.2-.4-2.5-2.4-5.7-3.8-8.4-6 9.9 5.7 19.8 11.3 29.9 17.1-3.8-1.3-7-3.7-10.7-5-.1.1-.1.2-.2.3 1.3 1 2.5 1.9 3.8 2.9l-.2.2c-6.9-4-13.9-8-20.8-12.1l.3-.3zM284 17.7c-6.1-2.5-11.8-5.8-18.1-8.1-.1.1-.1.2-.2.3.8.7 1.6 1.3 2.4 2v.1c-4.5-2.4-9-4.8-13.5-7.3 1.3-1.3 1.4-1.4 3-.5 8.4 4.3 16.8 8.6 25.1 12.8.5.3.9.5 1.3.7zm-19.5 3.1c0 .1.1.3.1.4-.5.7-.9 1.4-1.4 2.2-.1-.1-.2-.1-.3-.2.5-.9 1-1.7 1.6-2.4zM249.6 240c4.3 1 8.2-.1 12-1.3 1.8-.6 3.7-1 5.5-1.6.6-.2 1.2-.4 1.7-.8 2.6-1.5 5.1-3 7.7-4.5.3-.2.6-.3.8-.7-2.1.9-4.1 1.7-6.2 2.7 0-1.1.1-2.1.1-3.1 2.4-1.4 4.9-2.8 7.4-4.3 2.8 4.1 5.5 8.1 8.3 12.2-4.6 2.3-9.4 4.3-14.4 5.6-4.2 1.1-8.4 1.9-12.8 1.4-3.8-.4-7.2-1.6-9.6-4.9-.2-.2-.3-.4-.5-.7zm25.1.2c-.2.4 0 .8.8 1 1.7.3 5.8-1.8 6.5-3.3.3-.7.1-1-.6-1.2-1.7-.3-5.7 1.7-6.7 3.5zm-2.3 2.5c-.3-.6-.3-1.1-.6-1.3-.3-.1-.9.1-1 .3s0 .9.2 1c.3.2.7 0 1.4 0z"/><path d="M262.2 229.8c1.5-2.3 3.9-2.9 6.2-1.4 1.9 1.2 2.5 4 1.3 5.9-1.3 2.1-4.2 2.7-6.2 1.3-1.9-1.2-2.5-3.9-1.3-5.8zm2.2 4.9c1.5.9 3.4.5 4.3-1s.4-3.5-1.1-4.3c-1.5-.9-3.4-.4-4.3 1.2-.9 1.3-.4 3.2 1.1 4.1zm7.4-21.5c.3.8.5 1.3.7 1.9-6.8 3.4-13.3 7-19.4 11.5 5.3-5.6 11.9-9.5 18.7-13.4zm-22.1 24c3.9.1 7.7-.7 11.3-2 1.2-.4 1.3.9 2.1 1.1-3.6 1.7-10.1 2.2-13.4.9zm176.8-120.3c-1.5 1.8-2.9 3.5-4.2 5.3l.2.2c1.5-1.4 2.9-2.9 4.4-4.3.4-.4 1.1-.8 1.7-.8 2.9-.2 4.7-2.5 4.4-5.3-.1-.5.1-1 .4-1.5 1.2-2 2.6-3.9 3.8-6 1-1.7 1.5-3.6.9-5.6 1.9.7 3.6 3.2 3.4 5.7-.2 2-.6 4-1.4 5.8-1.5 3.3-3.4 6.5-5 9.4-.6-.1-1.2-.4-1.5-.2-2.2 1.6-3.8 3.6-4.6 6.2-.1.3 0 .6 0 1 .5-.1.9-.2 1.5-.3-.8 1-1.4 1.9-2.1 2.8-3.1-2.6-6.2-5.2-9.2-7.7.1-.1.1-.3.2-.3 1.9-1.8 3.8-3.5 5.7-5.4.3.3.8.6 1.4 1z"/><path d="M430.3 109.2c1.8 1 2.6 3.5 1.6 5.3-1 1.9-3.5 2.7-5.4 1.6s-2.6-3.6-1.6-5.4c1.1-1.8 3.6-2.5 5.4-1.5zm-.6 1.2c-1.3-.7-2.9-.2-3.6 1.1-.7 1.4-.2 2.9 1.1 3.6s2.8.2 3.5-1.1c.8-1.4.3-2.9-1-3.6zm-16.2 7.3c-.6-.4-1.1-.7-1.6-1.1 4.6-4.3 9.1-8.5 13.6-12.7l.1.1c-4 4.6-8 9.1-12.1 13.7zm18.3-8.3c-.8-.2-.8-.5-.4-1.1 1.5-2 2.9-4.1 4.4-6.2-1.3 2.4-2.7 4.9-4 7.3zm41.2 30.1c-1.6-1.8-3.4-2.6-5.5-3.1-2.3-.6-4.5-1.4-6.6-2.4l5.4 1.2c1.2.3 2.4.5 3.6.7 2.3.5 2.7.8 3.1 3.6z"/><path class="st1" d="M274.7 240.2c.9-1.8 5-3.8 6.6-3.5.7.1.9.5.6 1.2-.7 1.5-4.8 3.6-6.5 3.3-.7-.2-.9-.6-.7-1zm-2.3 2.5c-.7.1-1.1.2-1.4.1-.2-.2-.4-.8-.2-1 .2-.2.8-.4 1-.3.3 0 .3.5.6 1.2zm-8-8c-1.4-.9-1.9-2.7-1.1-4.2.9-1.5 2.8-2 4.3-1.2 1.5.9 2 2.9 1.1 4.3-.9 1.5-2.8 2-4.3 1.1zm1.5-.3c-.9-1-1.3-1.8-.8-2.8.6-1.1 1.6-1.1 2.8-.8-.8-1-1.7-1.3-2.7-.9-1 .3-1.5 1.1-1.5 2.2s.7 1.9 2.2 2.3zm163.8-124c1.3.7 1.8 2.3 1 3.6-.7 1.3-2.2 1.8-3.5 1.1-1.4-.7-1.8-2.2-1.1-3.6s2.2-1.9 3.6-1.1zm.4 1.3c-.7-1-1.6-1.2-2.5-.8-.9.4-1.3 1.1-1.2 2.1s.7 1.6 1.4 1.7c-.1-.8-.4-1.6-.2-2.3.4-1.1 1.5-1.1 2.5-.7z"/><path d="M265.9 234.4c-1.5-.4-2.2-1.2-2.2-2.4 0-1 .5-1.8 1.5-2.2 1-.4 1.9-.1 2.7.9-1.2-.3-2.2-.3-2.8.8-.5 1.1-.1 1.9.8 2.9zm164.2-122.7c-1.1-.3-2.1-.3-2.5.7-.2.7.1 1.5.2 2.3-.7-.1-1.3-.7-1.4-1.7-.1-1 .3-1.7 1.2-2.1 1-.5 1.8-.3 2.5.8z"/><linearGradient id="SVGID_2_" gradientUnits="userSpaceOnUse" x1="247.233" y1="258.661" x2="546.392" y2="258.661" gradientTransform="matrix(1 0 0 -1 0 454.5)"><stop offset="0" stop-color="#272826"/><stop offset="1" stop-color="#fff"/></linearGradient><path d="M420.7 135.3c-2.7 4-4.8 8.5-8.1 11.9-24.4 25.1-51.4 47.2-80.4 66.8-1.8 1.2-3.5 2.6-4.3 3.1 23.3-1.4 47.3-3.9 71.3-4 49.8-.2 97.2 11.1 142.6 31.3 4.7 2.1 5.9 4.8 3.1 9.2-.9 1.4-1.7 2.9-2.3 4.4-1.9 4.9-4.7 5.8-9.6 3.4-50.2-24.3-103.3-35-158.9-33.5-27.5.8-54.6 4.6-81.4 10.8-9 2.1-17.6 6-26.6 8.2-7.2 1.7-14.1-2-17-7.6-3.2-6-2.3-15.2 2.8-19.7 4.4-3.9 9.7-6.8 14.6-10.2-.1 1.1.3 2.6-.3 3.2-3.7 4.1-7.6 8.1-11.4 12.1s-6.2 8.3-3.8 14.3c4-.5 7.9-1 11.8-1.5 0-.3-.1-.7-.1-1-2.7.2-5.5.4-8.2.7 3.8-2.5 9.7-1.7 10.1-8.4 0-.3 4.2-1 6.2-.5 3.1.8 9.7-2.1 9.7-5.2.1-6.6 4.2-9.6 9.3-12.4 37.8-21.5 73.2-46.5 105.5-75.6 3.6-3.3 7-6.7 12.6-4.2.5.2 1.8-1.2 2.7-1.8 3.3 2 6.7 4.1 10.1 6.2z" fill="url(#SVGID_2_)"/><path d="M56.4 300.1v13.4h23.5c3.3 0 6.3.4 9 1.1 2.7.7 5 1.9 6.8 3.5 1.9 1.6 3.3 3.7 4.3 6.2 1 2.6 1.5 5.7 1.5 9.4 0 7.4-1.9 12.9-5.8 16.5-3.9 3.6-9.2 5.4-15.8 5.4h-39v-2.3c2 0 3.1-.8 3.1-2.3v-57.2c0-1.5-1-2.3-3.1-2.3v-2.3h48c1.1 0 2-.1 2.7-.2.7-.1 1-.6 1-1.3h2v16.5h-2c0-1.4-.3-2.5-1-3.2s-1.6-1-2.7-1l-32.5.1zM76.2 344c4.6 0 7.9-1 9.9-3s3-4.6 3-7.8-1-5.5-3-6.9-5.3-2.1-9.9-2.1H56.4v19.7l19.8.1zm34.6 9.3c.9-.2 1.7-.7 2.2-1.6.5-.9 1.1-2 1.6-3.2l20.2-49.1c.5-1.1 1-2.1 1.4-3s.6-1.7.6-2.4c0-.8-.3-1.4-.8-1.8-.5-.3-1.1-.6-1.6-.8v-2.3h18.5v2.3c-.5.2-1 .4-1.5.7s-.8.9-.8 1.8c0 .7.1 1.3.4 2s.6 1.6 1.1 2.6l22.7 51.3c.4.9.9 1.6 1.5 2s1.3.8 2.1 1.3v2.3h-19.2v-2.1c.3 0 .7-.1 1.1-.4.4-.3.7-.6.7-1.1 0-.8-.3-1.9-.9-3.3l-4.1-9.3h-26.6l-3.9 9c-.7 1.8-1.1 3-1.1 3.8 0 .9.7 1.4 2.1 1.4v2.3H111v-2.4h-.2zm41.2-23.5l-9.2-23.5-10.3 23.5H152zm37.6 25.8v-2.3c2.7 0 4-.8 4-2.3v-57.2c0-1.5-1.3-2.3-4-2.3v-2.3h38.5c7 0 12.5 1.5 16.5 4.5s6 8.1 6 15.2-2 12.2-6 15.2-9.5 4.5-16.5 4.5h-22V351c0 1.5 1.2 2.3 3.5 2.3v2.3h-20zm39.8-38.6c2.4 0 4.5-.5 6.2-1.6s2.6-3.2 2.6-6.4-.9-5.3-2.6-6.4c-1.7-1.1-3.8-1.6-6.2-1.6h-23.3v16.1l23.3-.1zm49.3-16.9v13.4h23.5c3.3 0 6.3.4 9 1.1 2.7.7 5 1.9 6.8 3.5 1.9 1.6 3.3 3.7 4.3 6.2 1 2.6 1.5 5.7 1.5 9.4 0 7.4-1.9 12.9-5.8 16.5s-9.2 5.4-15.8 5.4h-39v-2.3c2 0 3.1-.8 3.1-2.3v-57.2c0-1.5-1-2.3-3.1-2.3v-2.3h48c1.1 0 2-.1 2.7-.2.7-.1 1-.6 1-1.3h2v16.5h-2c0-1.4-.3-2.5-1-3.2s-1.6-1-2.7-1l-32.5.1zm19.8 43.9c4.6 0 7.9-1 9.9-3s3-4.6 3-7.8-1-5.5-3-6.9-5.3-2.1-9.9-2.1h-19.8v19.7l19.8.1zm95.6-41.2c0-.9-.3-1.6-.9-2.1s-1.7-.7-3.2-.7h-35.4v15.6H376c1.5 0 2.6-.2 3.4-.7s1.2-1.7 1.2-3.6h2V331h-2c0-1.9-.4-3.2-1.2-3.7-.8-.5-1.9-.8-3.4-.8h-21.4v17.4h36.5c1.1 0 2-.3 2.7-.9.7-.6 1-1.4 1-2.4h2v17.3h-2c0-1.3-.3-2-1-2.1-.7-.2-1.6-.3-2.7-.3h-50.9v-2.2c.5 0 1-.2 1.4-.6.4-.4.6-.9.6-1.7v-57.2c0-.8-.2-1.3-.6-1.7s-.9-.6-1.4-.6v-2.3H390c1.5 0 2.6-.3 3.2-.8s.9-1.3.9-2.2h2v16.6h-2zm17.8 52.8v-2.3c2.7 0 4-.8 4-2.3v-57.2c0-1.5-1.3-2.3-4-2.3v-2.3h38.4c7 0 12.5 1.5 16.5 4.5s6 8.1 6 15.2-2 12.2-6 15.2-9.5 4.5-16.5 4.5h-21.9V351c0 1.5 1.2 2.3 3.5 2.3v2.3h-20zm39.8-38.6c2.4 0 4.5-.5 6.2-1.6s2.6-3.2 2.6-6.4-.9-5.3-2.6-6.4c-1.7-1.1-3.8-1.6-6.2-1.6h-23.3v16.1l23.3-.1zm104.4-23.2c0-1.5-.7-2.3-2.1-2.3v-2.3h16.5v2.3c-.5 0-1 .2-1.4.6-.4.4-.6.9-.6 1.7V351c0 .8.2 1.3.6 1.7.4.4.9.6 1.4.6v2.3h-83.7v-2.3c1.4 0 2.1-.8 2.1-2.3v-57.2c0-1.5-.7-2.3-2.1-2.3v-2.3h16.5v2.3c-.5 0-1 .2-1.4.6-.4.4-.6.9-.6 1.7V344h21.2v-50.2c0-1.5-.7-2.3-2.2-2.3v-2.3h16.6v2.3c-.5 0-1 .2-1.4.6-.4.4-.6.9-.6 1.7V344h21.2v-50.2zm67.4-5.3c4 0 8.1.7 12.2 2.1 4.1 1.4 7.9 3.5 11.4 6.2 3.4 2.8 6.2 6.3 8.4 10.5s3.3 9.3 3.3 15.1-1.1 10.8-3.3 15.1c-2.2 4.2-5 7.8-8.4 10.5-3.4 2.8-7.2 4.8-11.4 6.1-4.1 1.3-8.2 1.9-12.2 1.9s-8.1-.6-12.2-1.9c-4.1-1.3-7.9-3.3-11.4-6.1-3.4-2.8-6.2-6.3-8.4-10.5s-3.3-9.3-3.3-15.1 1.1-10.8 3.3-15.1c2.2-4.2 5-7.8 8.4-10.5 3.4-2.8 7.2-4.9 11.4-6.2 4.1-1.4 8.2-2.1 12.2-2.1zm0 11.6c-2.8 0-5.5.5-8.3 1.5s-5.3 2.5-7.5 4.4-4 4.2-5.4 7-2.1 5.9-2.1 9.5c0 3.5.7 6.7 2.1 9.5 1.4 2.8 3.2 5.1 5.4 7s4.7 3.3 7.5 4.4c2.8 1 5.5 1.5 8.3 1.5s5.5-.5 8.3-1.5 5.3-2.5 7.5-4.4 4-4.2 5.4-7 2.1-5.9 2.1-9.5c0-3.5-.7-6.7-2.1-9.5-1.4-2.8-3.2-5.1-5.4-7s-4.7-3.3-7.5-4.4c-2.8-1-5.5-1.5-8.3-1.5zm101.4.7h-34.1V351c0 .8.2 1.3.6 1.7.4.4.9.6 1.4.6v2.3h-16.5v-2.3c1.4 0 2.1-.8 2.1-2.3v-57.2c0-1.5-.7-2.3-2.1-2.3v-2.3h63v2.3c-.5 0-1 .2-1.4.6-.4.4-.6.9-.6 1.7V351c0 .8.2 1.3.6 1.7.4.4.9.6 1.4.6v2.3h-16.8v-2.3c1.6 0 2.4-.8 2.4-2.3v-50.2z"/><path d="M42.7 377.7l696.3 2.2m-696.6 8.4l696.2 2.2M42.7 269.7l696.3 2.2" fill="none" stroke="#fff" stroke-width="2.748" stroke-miterlimit="10"/><linearGradient id="SVGID_3_" gradientUnits="userSpaceOnUse" x1="0" y1="129.35" x2="31.9" y2="129.35" gradientTransform="matrix(1 0 0 -1 0 454.5)"><stop offset="0" stop-color="#272826"/><stop offset="1" stop-color="#fff"/></linearGradient><path d="M28.4 358.7h-.3v-67h.3c1.9 0 3.5-1.6 3.5-3.5 0-1.7-1.2-3-2.7-3.4-.4-3.7-3.5-6.6-7.4-6.6h-2.2c-.4-1.7-1.9-2.9-3.6-2.9-1.8 0-3.3 1.3-3.6 2.9h-2.3c-3.9 0-7 2.9-7.4 6.6-1.6.3-2.7 1.7-2.7 3.4 0 1.9 1.6 3.5 3.5 3.5h.3v67h-.3c-1.9 0-3.5 1.6-3.5 3.5 0 1.7 1.2 3 2.7 3.4.4 3.7 3.5 6.6 7.4 6.6h2.2c.4 1.7 1.9 2.9 3.6 2.9 1.8 0 3.3-1.3 3.6-2.9h2.2c3.9 0 7-2.9 7.4-6.6 1.6-.3 2.7-1.7 2.7-3.4.1-1.9-1.5-3.5-3.4-3.5zm-1.9-58.1l-18.4-8.8h18.4v8.8zm-10.6-23.7c.9 0 1.6.5 2 1.3H14c.3-.7 1.1-1.3 1.9-1.3zm-5.8 3h11.7c2.9 0 5.4 2.1 5.8 4.9H4.4c.3-2.8 2.8-4.9 5.7-4.9zm-6.6 10.2c-1 0-1.8-.8-1.8-1.8s.8-1.8 1.8-1.8h25c1 0 1.8.8 1.8 1.8s-.8 1.8-1.8 1.8H4.7l-1-.5v.5h-.2zm1.9 13l21.2 10.1v10.7L5.4 313.8v-10.7zm0 23.4l21.2 10.1v10.7L5.4 337.2v-10.7zm0 23.4l18.4 8.8H5.4v-8.8zm10.5 23.6c-.9 0-1.6-.5-2-1.3h3.9c-.2.8-1 1.3-1.9 1.3zm5.9-2.9H10.1c-2.9 0-5.4-2.1-5.8-4.9h23.2c-.3 2.7-2.8 4.9-5.7 4.9zm6.6-6.6h-25c-1 0-1.8-.8-1.8-1.8s.8-1.8 1.8-1.8h23.7l1 .5v-.5h.3c1 0 1.8.8 1.8 1.8.1 1-.8 1.8-1.8 1.8z" fill="url(#SVGID_3_)"/><linearGradient id="SVGID_4_" gradientUnits="userSpaceOnUse" x1="749.951" y1="129.35" x2="781.837" y2="129.35" gradientTransform="matrix(1 0 0 -1 0 454.5)"><stop offset="0" stop-color="#272826"/><stop offset="1" stop-color="#fff"/></linearGradient><path d="M778.4 358.7h-.3v-67h.3c1.9 0 3.5-1.6 3.5-3.5 0-1.7-1.2-3-2.7-3.4-.4-3.7-3.5-6.6-7.4-6.6h-2.2c-.4-1.7-1.9-2.9-3.6-2.9-1.8 0-3.3 1.3-3.6 2.9h-2.2c-3.9 0-7 2.9-7.4 6.6-1.6.3-2.7 1.7-2.7 3.4 0 1.9 1.6 3.5 3.5 3.5h.3v67h-.3c-1.9 0-3.5 1.6-3.5 3.5 0 1.7 1.2 3 2.7 3.4.4 3.7 3.5 6.6 7.4 6.6h2.2c.4 1.7 1.9 2.9 3.6 2.9 1.8 0 3.3-1.3 3.6-2.9h2.2c3.9 0 7-2.9 7.4-6.6 1.6-.3 2.7-1.7 2.7-3.4-.1-1.9-1.6-3.5-3.5-3.5zm-1.9-58.1l-18.4-8.8h18.4v8.8zm-10.6-23.7c.9 0 1.6.5 2 1.3H764c.3-.7 1-1.3 1.9-1.3zm-5.9 3h11.7c2.9 0 5.4 2.1 5.8 4.9h-23.2c.4-2.8 2.8-4.9 5.7-4.9zm-6.6 10.2c-1 0-1.8-.8-1.8-1.8s.8-1.8 1.8-1.8h25c1 0 1.8.8 1.8 1.8s-.8 1.8-1.8 1.8h-23.7l-1-.5v.5h-.3zm1.9 13l21.2 10.1v10.7l-21.2-10.1v-10.7zm0 23.4l21.2 10.1v10.7l-21.2-10.1v-10.7zm0 23.4l18.4 8.8h-18.4v-8.8zm10.6 23.6c-.9 0-1.6-.5-2-1.3h3.9c-.3.8-1 1.3-1.9 1.3zm5.8-2.9H760c-2.9 0-5.4-2.1-5.8-4.9h23.2c-.3 2.7-2.7 4.9-5.7 4.9zm6.7-6.6h-25c-1 0-1.8-.8-1.8-1.8s.8-1.8 1.8-1.8h23.7l1 .5v-.5h.3c1 0 1.8.8 1.8 1.8s-.8 1.8-1.8 1.8z" fill="url(#SVGID_4_)"/></svg>