<svg xmlns="http://www.w3.org/2000/svg" viewBox="0 0 781.9 123.5" fill="#fff"><path d="M56.4 31.8v13.4h23.5c3.3 0 6.3.4 9 1.1 2.7.7 5 1.9 6.8 3.5 1.9 1.6 3.3 3.7 4.3 6.2 1 2.6 1.5 5.7 1.5 9.4 0 7.4-1.9 12.9-5.8 16.5-3.9 3.6-9.2 5.4-15.8 5.4h-39V85c2 0 3.1-.8 3.1-2.3V25.5c0-1.5-1-2.3-3.1-2.3v-2.3h48c1.1 0 2-.1 2.7-.2.7-.1 1-.6 1-1.3h2v16.5h-2c0-1.4-.3-2.5-1-3.2-.7-.7-1.6-1-2.7-1l-32.5.1zm19.8 43.9c4.6 0 7.9-1 9.9-3s3-4.6 3-7.8-1-5.5-3-6.9-5.3-2.1-9.9-2.1H56.4v19.7l19.8.1zm34.6 9.3c.9-.2 1.7-.7 2.2-1.6.5-.9 1.1-2 1.6-3.2l20.2-49.1c.5-1.1 1-2.1 1.4-3s.6-1.7.6-2.4c0-.8-.3-1.4-.8-1.8-.5-.3-1.1-.6-1.6-.8v-2.3h18.5v2.3c-.5.2-1 .4-1.5.7s-.8.9-.8 1.8c0 .7.1 1.3.4 2s.6 1.6 1.1 2.6l22.7 51.3c.4.9.9 1.6 1.5 2s1.3.8 2.1 1.3v2.3h-19.2V85c.3 0 .7-.1 1.1-.4.4-.3.7-.6.7-1.1 0-.8-.3-1.9-.9-3.3l-4.1-9.3h-26.6l-3.9 9c-.7 1.8-1.1 3-1.1 3.8 0 .9.7 1.4 2.1 1.4v2.3H111V85h-.2zM152 61.5L142.8 38l-10.3 23.5H152zm37.6 25.8V85c2.7 0 4-.8 4-2.3V25.5c0-1.5-1.3-2.3-4-2.3v-2.3h38.5c7 0 12.5 1.5 16.5 4.5s6 8.1 6 15.2-2 12.2-6 15.2-9.5 4.5-16.5 4.5h-22v22.4c0 1.5 1.2 2.3 3.5 2.3v2.3h-20zm39.8-38.6c2.4 0 4.5-.5 6.2-1.6s2.6-3.2 2.6-6.4-.9-5.3-2.6-6.4c-1.7-1.1-3.8-1.6-6.2-1.6h-23.3v16.1l23.3-.1zm49.3-16.9v13.4h23.5c3.3 0 6.3.4 9 1.1 2.7.7 5 1.9 6.8 3.5 1.9 1.6 3.3 3.7 4.3 6.2 1 2.6 1.5 5.7 1.5 9.4 0 7.4-1.9 12.9-5.8 16.5s-9.2 5.4-15.8 5.4h-39V85c2 0 3.1-.8 3.1-2.3V25.5c0-1.5-1-2.3-3.1-2.3v-2.3h48c1.1 0 2-.1 2.7-.2.7-.1 1-.6 1-1.3h2v16.5h-2c0-1.4-.3-2.5-1-3.2-.7-.7-1.6-1-2.7-1l-32.5.1zm19.8 43.9c4.6 0 7.9-1 9.9-3s3-4.6 3-7.8-1-5.5-3-6.9-5.3-2.1-9.9-2.1h-19.8v19.7l19.8.1zm95.6-41.2c0-.9-.3-1.6-.9-2.1-.6-.5-1.7-.7-3.2-.7h-35.4v15.6H376c1.5 0 2.6-.2 3.4-.7s1.2-1.7 1.2-3.6h2v19.7h-2c0-1.9-.4-3.2-1.2-3.7-.8-.5-1.9-.8-3.4-.8h-21.4v17.4h36.5c1.1 0 2-.3 2.7-.9.7-.6 1-1.4 1-2.4h2v17.3h-2c0-1.3-.3-2-1-2.1-.7-.2-1.6-.3-2.7-.3h-50.9V85c.5 0 1-.2 1.4-.6.4-.4.6-.9.6-1.7V25.5c0-.8-.2-1.3-.6-1.7s-.9-.6-1.4-.6v-2.3H390c1.5 0 2.6-.3 3.2-.8s.9-1.3.9-2.2h2v16.6h-2zm17.8 52.8V85c2.7 0 4-.8 4-2.3V25.5c0-1.5-1.3-2.3-4-2.3v-2.3h38.4c7 0 12.5 1.5 16.5 4.5s6 8.1 6 15.2-2 12.2-6 15.2-9.5 4.5-16.5 4.5h-21.9v22.4c0 1.5 1.2 2.3 3.5 2.3v2.3h-20zm39.8-38.6c2.4 0 4.5-.5 6.2-1.6s2.6-3.2 2.6-6.4-.9-5.3-2.6-6.4c-1.7-1.1-3.8-1.6-6.2-1.6h-23.3v16.1l23.3-.1zm104.4-23.2c0-1.5-.7-2.3-2.1-2.3v-2.3h16.5v2.3c-.5 0-1 .2-1.4.6-.4.4-.6.9-.6 1.7v57.2c0 .8.2 1.3.6 1.7.4.4.9.6 1.4.6v2.3h-83.7V85c1.4 0 2.1-.8 2.1-2.3V25.5c0-1.5-.7-2.3-2.1-2.3v-2.3h16.5v2.3c-.5 0-1 .2-1.4.6-.4.4-.6.9-.6 1.7v50.2h21.2V25.5c0-1.5-.7-2.3-2.2-2.3v-2.3h16.6v2.3c-.5 0-1 .2-1.4.6-.4.4-.6.9-.6 1.7v50.2h21.2V25.5zm67.4-5.3c4 0 8.1.7 12.2 2.1 4.1 1.4 7.9 3.5 11.4 6.2 3.4 2.8 6.2 6.3 8.4 10.5s3.3 9.3 3.3 15.1-1.1 10.8-3.3 15.1c-2.2 4.2-5 7.8-8.4 10.5-3.4 2.8-7.2 4.8-11.4 6.1-4.1 1.3-8.2 1.9-12.2 1.9s-8.1-.6-12.2-1.9c-4.1-1.3-7.9-3.3-11.4-6.1-3.4-2.8-6.2-6.3-8.4-10.5s-3.3-9.3-3.3-15.1 1.1-10.8 3.3-15.1c2.2-4.2 5-7.8 8.4-10.5 3.4-2.8 7.2-4.9 11.4-6.2 4.1-1.4 8.2-2.1 12.2-2.1zm0 11.6c-2.8 0-5.5.5-8.3 1.5s-5.3 2.5-7.5 4.4-4 4.2-5.4 7-2.1 5.9-2.1 9.5c0 3.5.7 6.7 2.1 9.5 1.4 2.8 3.2 5.1 5.4 7s4.7 3.3 7.5 4.4c2.8 1 5.5 1.5 8.3 1.5s5.5-.5 8.3-1.5 5.3-2.5 7.5-4.4 4-4.2 5.4-7c1.4-2.8 2.1-5.9 2.1-9.5 0-3.5-.7-6.7-2.1-9.5-1.4-2.8-3.2-5.1-5.4-7s-4.7-3.3-7.5-4.4c-2.8-1-5.5-1.5-8.3-1.5zm101.4.7h-34.1v50.2c0 .8.2 1.3.6 1.7.4.4.9.6 1.4.6v2.3h-16.5V85c1.4 0 2.1-.8 2.1-2.3V25.5c0-1.5-.7-2.3-2.1-2.3v-2.3h63v2.3c-.5 0-1 .2-1.4.6-.4.4-.6.9-.6 1.7v57.2c0 .8.2 1.3.6 1.7.4.4.9.6 1.4.6v2.3h-16.8V85c1.6 0 2.4-.8 2.4-2.3V32.5z"/><path d="M42.7 109.4l696.3 2.2M42.4 120l696.2 2.2M42.7 1.4L739 3.6" fill="none" stroke="#fff" stroke-width="2.748" stroke-miterlimit="10"/><linearGradient id="a" gradientUnits="userSpaceOnUse" x1="0" y1="-138.926" x2="31.9" y2="-138.926" gradientTransform="matrix(1 0 0 -1 0 -82.052)"><stop offset="0" stop-color="#272826"/><stop offset="1" stop-color="#fff"/></linearGradient><path d="M28.4 90.4h-.3v-67h.3c1.9 0 3.5-1.6 3.5-3.5 0-1.7-1.2-3-2.7-3.4-.4-3.7-3.5-6.6-7.4-6.6h-2.2C19.2 8.2 17.7 7 16 7c-1.8 0-3.3 1.3-3.6 2.9h-2.3c-3.9 0-7 2.9-7.4 6.6-1.6.3-2.7 1.7-2.7 3.4 0 1.9 1.6 3.5 3.5 3.5h.3v67h-.3C1.6 90.4 0 92 0 93.9c0 1.7 1.2 3 2.7 3.4.4 3.7 3.5 6.6 7.4 6.6h2.2c.4 1.7 1.9 2.9 3.6 2.9 1.8 0 3.3-1.3 3.6-2.9h2.2c3.9 0 7-2.9 7.4-6.6 1.6-.3 2.7-1.7 2.7-3.4.1-1.9-1.5-3.5-3.4-3.5zm-1.9-58.1L8.1 23.5h18.4v8.8zM15.9 8.6c.9 0 1.6.5 2 1.3H14c.3-.7 1.1-1.3 1.9-1.3zm-5.8 3h11.7c2.9 0 5.4 2.1 5.8 4.9H4.4c.3-2.8 2.8-4.9 5.7-4.9zM3.5 21.8c-1 0-1.8-.8-1.8-1.8s.8-1.8 1.8-1.8h25c1 0 1.8.8 1.8 1.8s-.8 1.8-1.8 1.8H4.7l-1-.5v.5h-.2zm1.9 13l21.2 10.1v10.7L5.4 45.5V34.8zm0 23.4l21.2 10.1V79L5.4 68.9V58.2zm0 23.4l18.4 8.8H5.4v-8.8zm10.5 23.6c-.9 0-1.6-.5-2-1.3h3.9c-.2.8-1 1.3-1.9 1.3zm5.9-2.9H10.1c-2.9 0-5.4-2.1-5.8-4.9h23.2c-.3 2.7-2.8 4.9-5.7 4.9zm6.6-6.6h-25c-1 0-1.8-.8-1.8-1.8s.8-1.8 1.8-1.8h23.7l1 .5v-.5h.3c1 0 1.8.8 1.8 1.8.1 1-.8 1.8-1.8 1.8z" fill="url(#a)"/><linearGradient id="b" gradientUnits="userSpaceOnUse" x1="749.951" y1="-138.926" x2="781.837" y2="-138.926" gradientTransform="matrix(1 0 0 -1 0 -82.052)"><stop offset="0" stop-color="#272826"/><stop offset="1" stop-color="#fff"/></linearGradient><path d="M778.4 90.4h-.3v-67h.3c1.9 0 3.5-1.6 3.5-3.5 0-1.7-1.2-3-2.7-3.4-.4-3.7-3.5-6.6-7.4-6.6h-2.2c-.4-1.7-1.9-2.9-3.6-2.9-1.8 0-3.3 1.3-3.6 2.9h-2.2c-3.9 0-7 2.9-7.4 6.6-1.6.3-2.7 1.7-2.7 3.4 0 1.9 1.6 3.5 3.5 3.5h.3v67h-.3c-1.9 0-3.5 1.6-3.5 3.5 0 1.7 1.2 3 2.7 3.4.4 3.7 3.5 6.6 7.4 6.6h2.2c.4 1.7 1.9 2.9 3.6 2.9 1.8 0 3.3-1.3 3.6-2.9h2.2c3.9 0 7-2.9 7.4-6.6 1.6-.3 2.7-1.7 2.7-3.4-.1-1.9-1.6-3.5-3.5-3.5zm-1.9-58.1l-18.4-8.8h18.4v8.8zM765.9 8.6c.9 0 1.6.5 2 1.3H764c.3-.7 1-1.3 1.9-1.3zm-5.9 3h11.7c2.9 0 5.4 2.1 5.8 4.9h-23.2c.4-2.8 2.8-4.9 5.7-4.9zm-6.6 10.2c-1 0-1.8-.8-1.8-1.8s.8-1.8 1.8-1.8h25c1 0 1.8.8 1.8 1.8s-.8 1.8-1.8 1.8h-23.7l-1-.5v.5h-.3zm1.9 13l21.2 10.1v10.7l-21.2-10.1V34.8zm0 23.4l21.2 10.1V79l-21.2-10.1V58.2zm0 23.4l18.4 8.8h-18.4v-8.8zm10.6 23.6c-.9 0-1.6-.5-2-1.3h3.9c-.3.8-1 1.3-1.9 1.3zm5.8-2.9H760c-2.9 0-5.4-2.1-5.8-4.9h23.2c-.3 2.7-2.7 4.9-5.7 4.9zm6.7-6.6h-25c-1 0-1.8-.8-1.8-1.8s.8-1.8 1.8-1.8h23.7l1 .5v-.5h.3c1 0 1.8.8 1.8 1.8s-.8 1.8-1.8 1.8z" fill="url(#b)"/></svg>