<svg width="34" height="32" fill="none" xmlns="http://www.w3.org/2000/svg"><path d="M14.48.157l-.354.207c-.317.185-.445.438-.45.693-1.19 1.525-2.089 3.291-3.086 4.956-1.283 2.139-2.499 4.315-3.436 6.646-.393.975.932 1.518 1.554.944.429-.395.645-.851.918-1.377a.49.49 0 0 0 .047-.332c.733-1.394 1.432-2.815 2.152-4.208.951-1.84 1.9-3.967 3.133-5.672a.886.886 0 0 0 .376-.39l.199-.37-.012-.009c.33-.667-.314-1.513-1.04-1.088zM9.385 15.498c-.264-.188-.643-.239-1.009-.248a.373.373 0 0 0-.075-.12c-.98-1.037-2.608.701-2.913 1.63-.456 1.392 1.164 2.253 2.21 2.388.557.073 1.182-.108 1.647-.425.47-.32.58-1.069.64-1.598.064-.571-.018-1.284-.5-1.627zm-.603 1.47c-.032.172-.103.636-.261.729-.229.132-.527.12-.777.112-.363-.01-1.29-.29-1.047-.825.208-.456.614-.64.995-.855.021.004.038.014.061.015.29.009.577.023.86.096.331.085.23.404.169.729zm18.383-.971c-.407-.332-1.48-.688-1.814-.182-.067-.042-.15-.054-.22-.004-.492.346-1.144.473-1.502 1.012-.377.57-.217 1.406.211 1.902.836.966 2.21.809 3.155.108.994-.738 1.178-2.016.17-2.836zm-1.238 2.051c-.5.201-.983.133-1.28-.353-.237-.386.284-.972.613-1.355.047.305.466.392.555.059.077-.295.842.428.927.571.297.496-.45.933-.815 1.078zm-4.241-5.598c-3.635-.068-7.794-.399-11.35.454-.306.074-.306.57 0 .643 3.556.854 7.715.523 11.35.455.959-.018.959-1.534 0-1.552z" fill="#fff"/><path d="M32.697 11.338l.001-.048c-2.056-.49-4.851-.093-6.269.097a.595.595 0 0 0-.541.684c-1.55-2.301-2.822-4.894-4.093-7.354-.632-1.222-1.42-2.34-1.943-3.623-.23-.562-.422-.93-.992-1.079-.303-.08-.692.161-.66.525l.029.309c.02.225.135.367.279.44.182.487.312 1.118.489 1.518a53.803 53.803 0 0 0 2.09 4.221c1.251 2.267 2.033 4.965 3.795 6.885.717.781 2.097-.276 1.461-1.178-.051-.071-.1-.146-.15-.219a.72.72 0 0 0 .236.075c1.862.248 3.905-.109 5.744.357.02.59-.157 1.417-.357 2.194-.05.095-.102.189-.15.287a1.187 1.187 0 0 0-.345-.017c-.416.04-.817.212-1.124.508-.515.495.257 1.301.765.8a.39.39 0 0 0 .026-.024 1.016 1.016 0 0 1 .175-.103 27.94 27.94 0 0 0-.59 1.718c-.062-.017-.126-.03-.19-.047a2.928 2.928 0 0 0-.988-.075c-.298.025-.414.531-.075.584.341.053.657.194.992.276l.032.009c-.135.445-.268.889-.406 1.328-.04.135-.091.265-.137.398-.131-.043-.262-.084-.38-.135-.353-.151-.846-.003-1.213.024-.186-.013-.272.138-.263.289-.01.151.077.303.263.29.404.03.807.032 1.188.183.049.02.099.039.148.056-.163.42-.34.834-.523 1.247-.068 0-.135 0-.2-.002-.302-.014-.608.037-.909.066-.402.038-.402.614 0 .652.25.024.505.063.756.066-.16.349-.32.696-.478 1.045l-.27-.036c-.242-.035-.504-.223-.734-.092l.015.012a.302.302 0 0 0-.136.152l-.012.033a.347.347 0 0 0 .086.338c.196.186.442.324.706.366-.203.467-.389.942-.561 1.422-.162-.007-.329.008-.49.012.025 0-.252-.187-.309-.207-.157-.055-.33-.007-.472.063l.006.006c-.132.1-.2.324-.006.421.126.063.228.064.32.175.152.181.215.29.462.3l.27.006a4.008 4.008 0 0 0-.116.566l.081.01c-.22.518-.348 1.053-.305 1.572-3.245.01-6.494.083-9.754.16-3.106.074-6.75-.443-9.9.158a3.193 3.193 0 0 1-.065-.775C6.418 26.9 4.76 24.952 4.011 22.64c-.496-1.538-.849-3.16-1.245-4.73-.325-1.286-.948-4.462-.944-4.648.577.032 1.156-.005 1.737-.003.634.002 1.53.102 2.011-.4.08-.082.125-.212.086-.324-.216-.627-.962-.838-1.567-.886-.94-.073-1.952-.058-2.88.11a.603.603 0 0 0-.379.234c-.25-.053-.553.077-.648.348-.486 1.388.13 2.715.355 4.1.179 1.099.444 2.226.911 3.25.172.66.347 1.31.511 1.936.352 1.34.724 2.609 1.267 3.879.669 1.56 1.973 2.986 2.129 4.74.013.148.053.289.111.416.001.01 0 .018.002.028.002.11.06.217.207.27a.834.834 0 0 0 .597.243c.08 0 .162-.005.243-.006 3.248.783 7.203.274 10.456.28 3.346.005 6.706-.136 10.037-.13.508 0 .773-.373.8-.766a.549.549 0 0 0 .178-.186c.333-.603.416-1.357.659-2.007a8.782 8.782 0 0 0 .48-1.81c.925-2.371 2.026-4.628 2.756-7.092.203-.684.428-1.325.676-1.941.008-.078.014-.155.023-.233.933-1.246 1.732-5.282.117-5.973z" fill="#fff"/><path d="M24.058 23.067c-4.954-.5-10.145-.085-15.119.044-.402.01-.402.642 0 .652 4.973.129 10.165.542 15.119.043.456-.045.456-.693 0-.739zm-.823 2.903c-1.79-.433-3.694-.02-5.513.067-2.432.118-4.872-.034-7.3.182-.385.034-.385.59 0 .624 3.99.356 8.912.717 12.813-.37.234-.065.245-.444 0-.503zm-3.559-5.872c-2.37-1.026-5.567-.468-8.068-.37-.377.015-.377.595 0 .61 1.482.059 2.963.121 4.446.14 1.222.014 2.443.52 3.622.11.244-.085.218-.396 0-.49zm-.596-4.008c-.905-.383-1.964-.2-2.915-.11-1.05.098-2.125.106-3.155.348-.342.08-.22.505.001.602l-.001.002.02.004a.219.219 0 0 0 .068.011c1.012.197 2.045.085 3.068.024.982-.058 2.054-.032 2.968-.444.205-.092.102-.37-.055-.437z" fill="#fff"/></svg>