<svg width="687" height="656" fill="none" xmlns="http://www.w3.org/2000/svg"><path d="M304.29.043a1 1 0 1 0-.579 1.914l.579-1.914zM654 197l.927-.375L654 197zm-72 370l.58.815L582 567zM9.671 655.944a1 1 0 0 0 1.273-.615l2.96-8.499a1 1 0 0 0-1.888-.658l-2.631 7.555-7.555-2.632a1 1 0 0 0-.658 1.889l8.5 2.96zm-1.596-8.612a1 1 0 0 0-1.92.56l1.92-.56zm-2.591-14.969a1 1 0 1 0 1.943.476l-1.943-.476zm9.431-12.104a1 1 0 1 0-1.405-1.423l1.405 1.423zm11.216-10.37a1 1 0 0 0 .938 1.767l-.938-1.767zm14.877-4.213a1 1 0 1 0-.661-1.887l.661 1.887zm14.157-6.289a1 1 0 1 0 .49 1.939l-.49-1.939zm15.464-1.342a1 1 0 0 0-.374-1.965l.374 1.965zm14.893-4.517a1 1 0 0 0 .29 1.979l-.29-1.979zm15.607-.007a1 1 0 0 0-.227-1.988l.227 1.988zm14.949-3.529a1 1 0 1 0 .179 1.992l-.179-1.992zm15.469.773a1 1 0 0 0-.14-1.995l.14 1.995zm15.321-2.954a1 1 0 1 0 .109 1.997l-.109-1.997zm15.374 1.27a1.001 1.001 0 0 0-.083-1.998l.083 1.998zm15.284-2.549a1 1 0 0 0 .061 2l-.061-2zm15.501 1.599a1 1 0 1 0-.043-1.999l.043 1.999zm15.251-2.27a1 1 0 1 0 .028 2l-.028-2zm15.429 1.833a1 1 0 0 0-.016-2l.016 2zm15.345-2.08a1 1 0 1 0 .006 2l-.006-2zm15.372 1.991a1.001 1.001 0 0 0 .003-2l-.003 2zm15.394-1.953a1 1 0 0 0-.01 2l.01-2zm15.347 2.091a1 1 0 1 0 .014-2l-.014 2zm15.392-1.877a1 1 0 1 0-.017 2l.017-2zm15.353 2.141a1 1 0 1 0 .019-2l-.019 2zm15.393-1.85a1 1 0 1 0-.02 1.999l.02-1.999zm15.343 2.144a1 1 0 0 0 .018-2l-.018 2zm15.411-1.872a1 1 0 0 0-.015 2l.015-2zm15.296 2.098a1 1 0 0 0 .011-2l-.011 2zm15.449-1.946a1 1 0 0 0-.003 2l.003-2zm15.344 1.994a1 1 0 1 0-.005-2l.005 2zm15.355-2.084a1 1 0 0 0 .017 2l-.017-2zm15.449 1.814a.999.999 0 1 0-.032-1.999l.032 1.999zm15.241-2.308a1 1 0 0 0 .05 1.999l-.05-1.999zm15.47 1.527a1 1 0 0 0-.073-1.999l.073 1.999zm15.332-2.675a1 1 0 1 0 .103 1.997l-.103-1.997zm15.42 1.065a1 1 0 1 0-.142-1.995l.142 1.995zm15.014-3.256a1 1 0 1 0 .193 1.99l-.193-1.99zm15.569.24a1 1 0 1 0-.264-1.983l.264 1.983zm14.9-4.386a1 1 0 1 0 .37 1.965l-.37-1.965zm15.379-1.48a1 1 0 0 0-.541-1.925l.541 1.925zm13.793-7.153a1 1 0 1 0 .869 1.8l-.869-1.8zm13.412-6.397a1 1 0 1 0-1.207-1.594l1.207 1.594zm10.07-10.686a1 1 0 0 0 1.302 1.518l-1.302-1.518zm12.098-8.328a1 1 0 1 0-1.393-1.435l1.393 1.435zm8.696-11.842a1 1 0 1 0 1.478 1.347l-1.478-1.347zm10.983-9.752a1 1 0 0 0-1.558-1.254l1.558 1.254zm7.172-12.819a1 1 0 1 0 1.632 1.155l-1.632-1.155zm9.708-11.024a1 1 0 1 0-1.7-1.054l1.7 1.054zm5.566-13.591a1.001 1.001 0 0 0 1.76.951l-1.76-.951zm8.325-12.1a.999.999 0 1 0-1.812-.846l1.812.846zm3.944-14.154a1 1 0 0 0 1.858.742l-1.858-.742zm6.894-12.976a1 1 0 1 0-1.895-.637l1.895.637zm2.349-14.493a1 1 0 1 0 1.927.534l-1.927-.534zm5.458-13.633a.999.999 0 1 0-1.952-.434l1.952.434zm.832-14.668a1 1 0 0 0 1.972.335l-1.972-.335zm4.065-14.122a1 1 0 1 0-1.986-.238l1.986.238zm-.592-14.688a1 1 0 0 0 1.995.146l-1.995-.146zm2.731-14.428a1.001 1.001 0 0 0-2-.056l2 .056zm-1.907-14.56a1 1 0 1 0 2-.03l-2 .03zm1.474-14.611a1 1 0 1 0-1.996.113l1.996-.113zm-3.11-14.356a1 1 0 1 0 1.991-.193l-1.991.193zm.301-14.686a1.001 1.001 0 0 0-1.982.27l1.982-.27zm-4.208-14.075a1.001 1.001 0 0 0 1.971-.343l-1.971.343zm-.791-14.669a1 1 0 1 0-1.956.413l1.956-.413zm-5.204-13.739a1 1 0 0 0 1.941-.481l-1.941.481zm-1.802-14.579a1 1 0 1 0-1.924.545l1.924-.545zm-6.108-13.361a1 1 0 1 0 1.905-.606l-1.905.606zm-2.737-14.432a1 1 0 1 0-1.886.666l1.886-.666zm-6.929-12.954a1 1 0 1 0 1.865-.722l-1.865.722zm-3.793-14.595a1 1 0 1 0-1.834.797l1.834-.797zm-8.176-12.821a1 1 0 0 0 1.79-.892l-1.79.892zm-5.327-14.242a1 1 0 0 0-1.738.99l1.738-.99zm-9.541-11.844a.999.999 0 1 0 1.678-1.088l-1.678 1.088zm-6.936-13.543a1 1 0 0 0-1.61 1.187l1.61-1.187zm-10.891-10.634a1.001 1.001 0 0 0 1.535-1.283l-1.535 1.283zm-8.539-12.607a.999.999 0 1 0-1.452 1.375l1.452-1.375zm-12.119-9.22a1.001 1.001 0 0 0 1.365-1.462l-1.365 1.462zm-10.021-11.467a1 1 0 0 0-1.274 1.542l1.274-1.542zm-13.143-7.692a1 1 0 0 0 1.182-1.614l-1.182 1.614zm-11.294-10.213a1 1 0 0 0-1.089 1.678l1.089-1.678zm-13.924-6.165a1 1 0 0 0 .997-1.734l-.997 1.734zm-12.318-8.95a1 1 0 1 0-.909 1.781l.909-1.781zm-14.471-4.74a1 1 0 0 0 .825-1.822l-.825 1.822zm-13.097-7.766a1 1 0 1 0-.746 1.856l.746-1.856zm-14.822-3.483a1 1 0 1 0 .673-1.884l-.673 1.884zm-13.661-6.72a1 1 0 0 0-.607 1.906l.607-1.906zm-15.026-2.43a1 1 0 1 0 .546-1.924l-.546 1.924zm-14.064-5.852a1 1 0 1 0-.494 1.938l.494-1.938zm-15.155-1.604a1 1 0 1 0 .447-1.949l-.447 1.95zm-14.326-5.182a.999.999 0 1 0-.409 1.958l.409-1.958zm-15.194-1.01a1 1 0 0 0 .38-1.963l-.38 1.963zm-14.448-4.742a1 1 0 0 0-.36 1.968l.36-1.968zm-15.235-.703a1 1 0 0 0 .35-1.969l-.35 1.97zm-14.526-4.618a1 1 0 1 0-.354 1.969l.354-1.969zm-15.164-.77a1 1 0 1 0 .376-1.963l-.376 1.964zm-14.45-4.974a1 1 0 1 0-.424 1.954l.424-1.954zm-15.118-1.556a1 1 0 1 0 .512-1.933l-.512 1.933zM10.9 654.565c-1.214-2.512-2.15-4.921-2.825-7.233l-1.92.56c.71 2.431 1.688 4.944 2.945 7.543l1.8-.87zm-3.473-21.726c1.13-4.622 3.659-8.799 7.488-12.58l-1.405-1.423c-4.046 3.994-6.793 8.487-8.026 13.527l1.943.476zm19.642-21.183c4.094-2.175 8.756-4.163 13.94-5.98l-.662-1.887c-5.258 1.842-10.015 3.869-14.216 6.1l.938 1.767zm28.585-10.33c4.714-1.19 9.713-2.281 14.975-3.281l-.374-1.965c-5.295 1.007-10.333 2.106-15.09 3.307l.49 1.939zm30.158-5.819a486.131 486.131 0 0 1 15.317-1.986l-.227-1.988a491.729 491.729 0 0 0-15.38 1.995l.29 1.979zm30.445-3.523a787.767 787.767 0 0 1 15.29-1.219l-.14-1.995c-5.219.366-10.332.773-15.329 1.222l.179 1.992zm30.72-2.176c5.009-.272 10.1-.514 15.265-.727l-.083-1.998c-5.172.214-10.272.455-15.291.728l.109 1.997zm30.61-1.276c5.09-.156 10.239-.289 15.44-.401l-.043-1.999c-5.206.112-10.362.245-15.458.4l.061 2zm30.719-.671c5.095-.072 10.232-.127 15.401-.167l-.016-2a2415.3 2415.3 0 0 0-15.413.167l.028 2zm30.752-.247c5.099-.014 10.223-.017 15.366-.009l.003-2c-5.145-.008-10.272-.005-15.375.009l.006 2zm30.75.038c5.109.024 10.23.055 15.357.091l.014-2c-5.128-.036-10.25-.067-15.361-.091l-.01 2zm30.732.214c5.126.044 10.252.092 15.37.141l.019-2c-5.119-.049-10.245-.096-15.372-.141l-.017 2zm30.743.29c5.137.05 10.26.099 15.363.145l.018-2c-5.102-.046-10.225-.095-15.361-.144l-.02 1.999zm30.759.273c5.134.039 10.24.072 15.311.098l.011-2c-5.07-.026-10.175-.059-15.307-.098l-.015 2zm30.757.152c5.162.009 10.28.008 15.347-.006l-.005-2c-5.064.014-10.179.015-15.339.006l-.003 2zm30.719-.09c5.212-.044 10.359-.105 15.432-.186l-.032-1.999c-5.067.08-10.209.141-15.417.185l.017 2zm30.723-.495c5.237-.131 10.381-.287 15.42-.472l-.073-1.999c-5.031.185-10.167.341-15.397.472l.05 1.999zm30.855-1.15c5.247-.271 10.357-.58 15.317-.932l-.142-1.995c-4.945.351-10.043.66-15.278.93l.103 1.997zm30.524-2.198a430.97 430.97 0 0 0 15.376-1.75l-.264-1.983a429.699 429.699 0 0 1-15.305 1.743l.193 1.99zm30.646-4.171c5.426-1.02 10.443-2.163 15.009-3.445l-.541-1.925c-4.498 1.262-9.457 2.393-14.838 3.405l.37 1.965zm29.671-8.798c2.48-1.197 4.702-2.483 6.643-3.864l-1.16-1.63c-1.833 1.305-3.954 2.535-6.352 3.694l.869 1.8zm6.643-3.864a242.496 242.496 0 0 0 5.9-4.333l-1.207-1.594a243.213 243.213 0 0 1-5.853 4.297l1.16 1.63zm17.272-13.501a237.913 237.913 0 0 0 10.796-9.846l-1.393-1.435a236.79 236.79 0 0 1-10.705 9.763l1.302 1.518zm20.97-20.341a236.444 236.444 0 0 0 9.505-11.099l-1.558-1.254a234.774 234.774 0 0 1-9.425 11.006l1.478 1.347zm18.309-22.763a239.938 239.938 0 0 0 8.076-12.179l-1.7-1.054a238.63 238.63 0 0 1-8.008 12.078l1.632 1.155zm15.402-24.819a249.726 249.726 0 0 0 6.565-13.051l-1.812-.846a247.285 247.285 0 0 1-6.513 12.946l1.76.951zm12.367-26.463a262.826 262.826 0 0 0 5.036-13.718l-1.895-.637a261.215 261.215 0 0 1-4.999 13.613l1.858.742zm9.312-27.677a280.719 280.719 0 0 0 3.531-14.167l-1.952-.434a279.718 279.718 0 0 1-3.506 14.067l1.927.534zm6.335-28.5a302.865 302.865 0 0 0 2.093-14.457l-1.986-.238a300.263 300.263 0 0 1-2.079 14.36l1.972.335zm3.496-28.999c.352-4.817.598-9.676.736-14.574l-2-.056a323.24 323.24 0 0 1-.731 14.484l1.995.146zm.829-29.164a350.54 350.54 0 0 0-.526-14.581l-1.996.113c.276 4.866.449 9.7.522 14.498l2-.03zm-1.645-29.13a378.893 378.893 0 0 0-1.69-14.493l-1.982.27a374.646 374.646 0 0 1 1.681 14.416l1.991-.193zm-3.927-28.911a406.21 406.21 0 0 0-2.762-14.326l-1.956.413a404.93 404.93 0 0 1 2.747 14.256l1.971-.343zm-6.025-28.546a435.493 435.493 0 0 0-3.743-14.098l-1.924.545a434.813 434.813 0 0 1 3.726 14.034l1.941-.481zm-7.946-28.065a469.588 469.588 0 0 0-4.642-13.826l-1.886.666a469.5 469.5 0 0 1 4.623 13.766l1.905-.606zm-9.706-27.502a500.504 500.504 0 0 0-2.696-6.809l-1.854.75c.915 2.262 1.81 4.523 2.685 6.781l1.865-.722zm-2.696-6.809a300.081 300.081 0 0 0-2.962-7.064l-1.834.797a304.723 304.723 0 0 1 2.942 7.017l1.854-.75zm-9.348-20.777a273.624 273.624 0 0 0-7.117-13.35l-1.738.99a272.207 272.207 0 0 1 7.065 13.252l1.79-.892zm-14.98-26.282a253.914 253.914 0 0 0-8.614-12.455l-1.61 1.187a251.272 251.272 0 0 1 8.546 12.356l1.678-1.088zm-17.97-24.372a245.245 245.245 0 0 0-10.074-11.324l-1.452 1.375a243.457 243.457 0 0 1 9.991 11.232l1.535-1.283zm-20.828-22.006a249.805 249.805 0 0 0-11.386-10.005l-1.274 1.542a247.889 247.889 0 0 1 11.295 9.925l1.365-1.462zm-23.347-19.31a268.871 268.871 0 0 0-12.476-8.6l-1.089 1.678a266.126 266.126 0 0 1 12.383 8.535l1.182-1.614zm-25.403-16.499a301.803 301.803 0 0 0-13.315-7.216l-.909 1.781a300.039 300.039 0 0 1 13.227 7.169l.997-1.734zM516.09 53.601a353.165 353.165 0 0 0-13.922-5.944l-.746 1.856a351.48 351.48 0 0 1 13.843 5.91l.825-1.822zm-28.071-11.31a429.925 429.925 0 0 0-14.334-4.837l-.607 1.906a427.311 427.311 0 0 1 14.268 4.814l.673-1.884zm-28.814-9.19a550.193 550.193 0 0 0-14.61-3.929l-.494 1.938a547.129 547.129 0 0 1 14.558 3.914l.546-1.924zm-29.318-7.482a773.32 773.32 0 0 0-14.773-3.233l-.409 1.958a773.653 773.653 0 0 1 14.735 3.224l.447-1.949zM400.3 19.413c-5.011-.968-9.958-1.89-14.828-2.779l-.36 1.968c4.866.887 9.806 1.808 14.808 2.774l.38-1.963zm-29.713-5.45c-5.071-.901-10.034-1.779-14.876-2.65l-.354 1.969c4.845.871 9.812 1.75 14.88 2.65l.35-1.97zM340.923 8.58a616.404 616.404 0 0 1-14.826-3.011l-.424 1.954a616.81 616.81 0 0 0 14.874 3.02l.376-1.963zm-29.432-6.5A216.363 216.363 0 0 1 304.29.043l-.579 1.914c2.345.71 4.769 1.394 7.268 2.056l.512-1.933z" fill="#DCDCDC"/></svg>