<svg width="645" height="335" fill="none" xmlns="http://www.w3.org/2000/svg"><path d="M427.711.003a1 1 0 0 1 0 2v-2zM28.017 102.9l.877.48-.877-.48zm41.975 215.004l.596-.803-.596.803zm567.715.707a1 1 0 0 1-1.414 0l-6.364-6.364a.999.999 0 1 1 1.414-1.414L637 316.49l5.657-5.657a.999.999 0 1 1 1.414 1.414l-6.364 6.364zm-2.072-8.512a1 1 0 0 1 1.991-.193l-1.991.193zm-1.285-15.248a1 1 0 0 1-1.882.678l1.882-.678zm-9.024-12.285a1.001 1.001 0 0 1 1.57-1.24l-1.57 1.24zm-9.877-11.671a1 1 0 0 1-1.106 1.667l1.106-1.667zm-14.505-4.969a1 1 0 0 1 .685-1.88l-.685 1.88zm-14.191-5.9a1 1 0 1 1-.377 1.964l.377-1.964zm-15.41-.03a1 1 0 1 1 .162-1.993l-.162 1.993zm-15.191-2.619a.999.999 0 1 1-.009 2l.009-2zm-15.271 2.378a1.001 1.001 0 0 1-.102-1.997l.102 1.997zm-15.477-.862a1 1 0 0 1 .188 1.991l-.188-1.991zm-14.918 3.676a.999.999 0 1 1-.253-1.983l.253 1.983zm-15.362.15a1 1 0 0 1 .305 1.977l-.305-1.977zm-14.797 4.47a1 1 0 1 1-.346-1.969l.346 1.969zm-15.447.817a1 1 0 1 1 .379 1.964l-.379-1.964zm-14.528 4.948a1 1 0 0 1-.405-1.958l.405 1.958zm-15.398 1.234a1 1 0 0 1 .427 1.954l-.427-1.954zm-14.501 5.285a.999.999 0 1 1-.444-1.95l.444 1.95zm-15.316 1.489a1 1 0 0 1 .457 1.947l-.457-1.947zm-14.445 5.485a1 1 0 0 1-.467-1.945l.467 1.945zm-15.312 1.645a1 1 0 0 1 .473 1.944l-.473-1.944zm-14.381 5.577a.999.999 0 1 1-.476-1.942l.476 1.942zm-15.325 1.709a1 1 0 0 1 .478 1.942l-.478-1.942zm-14.374 5.591a1 1 0 0 1-.476-1.943l.476 1.943zm-15.324 1.679a1 1 0 0 1 .471 1.944l-.471-1.944zm-14.395 5.522a1 1 0 0 1-.464-1.945l.464 1.945zm-15.358 1.567a1 1 0 0 1 .453 1.948l-.453-1.948zm-14.403 5.354a1 1 0 0 1-.439-1.952l.439 1.952zm-15.414 1.355a1 1 0 1 1 .422 1.955l-.422-1.955zm-14.552 5.102a1.001 1.001 0 0 1-.4-1.96l.4 1.96zm-15.32.982a1 1 0 0 1 .373 1.965l-.373-1.965zm-14.768 4.71a1.001 1.001 0 0 1-.339-1.971l.339 1.971zm-15.408.467a1.001 1.001 0 0 1 .298 1.978l-.298-1.978zm-14.764 4.059a1.001 1.001 0 0 1-.248-1.985l.248 1.985zm-15.498-.323a1 1 0 1 1 .183 1.992l-.183-1.992zm-15.155 3.099a1 1 0 1 1-.102-1.997l.102 1.997zm-15.326-1.61a1 1 0 1 1-.005 2l.005-2zm-15.319 1.45a1 1 0 1 1 .145-1.994l-.145 1.994zm-14.908-3.793a1 1 0 1 1-.34 1.971l.34-1.971zm-15.33-1.632a1 1 0 1 1 .61-1.905l-.61 1.905zm-13.233-7.829a1 1 0 1 1-.979 1.744l.979-1.744zM63.3 314.034a1 1 0 0 1 1.242-1.568l-1.242 1.568zm-10.293-11.351a1 1 0 0 1-1.346 1.479l1.346-1.479zm-12.247-9.229a1 1 0 0 1 1.458-1.37l-1.458 1.37zm-8.418-12.826a1 1 0 1 1-1.572 1.236l1.572-1.236zm-10.436-11.219a1 1 0 1 1 1.685-1.078l-1.685 1.078zm-5.759-14.197a.999.999 0 1 1-1.79.891l1.79-.891zm-7.832-13.177a1 1 0 1 1 1.88-.683l-1.88.683zm-2.44-15.136a1 1 0 0 1-1.947.461l1.947-.461zm-4.602-14.623a1 1 0 1 1 1.986-.233l-1.986.233zm1.06-15.295a1 1 0 0 1-2 .014l2-.014zm-1.312-15.273a1 1 0 0 1 1.991.19l-1.99-.19zm4.138-14.766a1 1 0 1 1-1.964-.374l1.964.374zm1.532-15.256a1 1 0 0 1 1.927.537l-1.927-.537zm6.54-13.876a1 1 0 0 1-1.882-.679l1.881.679zm3.788-14.863a1 1 0 1 1 1.832.803l-1.832-.803zm8.33-12.876a1 1 0 0 1-1.78-.912l1.78.912zm5.723-14.32a1 1 0 0 1 1.69 1.07l-1.69-1.07zm10.612-11.23a1 1 0 1 1-1.543-1.272l1.543 1.272zm8.955-12.585a1 1 0 0 1 1.386 1.442l-1.386-1.442zm12.913-8.517a1 1 0 0 1-1.23-1.578l1.23 1.578zm11.365-10.473a1 1 0 1 1 1.08 1.684l-1.08-1.684zm14.229-6.021a1 1 0 0 1-.944-1.763l.944 1.763zm12.884-8.562a1 1 0 0 1 .823 1.823l-.823-1.823zm14.95-4.052a1 1 0 1 1-.715-1.868l.715 1.868zm13.775-6.996a1 1 0 1 1 .621 1.901l-.621-1.901zm15.249-2.523a1 1 0 1 1-.539-1.926l.539 1.926zm14.342-5.78a1 1 0 1 1 .466 1.946l-.466-1.945zm15.408-1.37a1 1 0 1 1-.401-1.958l.401 1.959zm14.699-4.825a1 1 0 1 1 .345 1.97l-.345-1.97zm15.464-.48a1 1 0 0 1-.295-1.977l.295 1.978zm14.925-4.073a1 1 0 1 1 .251 1.985l-.251-1.985zm15.469.216a1 1 0 0 1-.212-1.99l.212 1.99zm15.073-3.477a1 1 0 1 1 .177 1.992l-.177-1.992zm15.45.76a1 1 0 0 1-.146-1.994l.146 1.994zm15.173-3.003a1 1 0 0 1 .118 1.996l-.118-1.996zm15.421 1.188a1 1 0 0 1-.094-1.998l.094 1.998zm15.24-2.632a.999.999 0 1 1 .072 1.998l-.072-1.998zm15.393 1.518a1 1 0 0 1-.054-2l.054 2zm15.29-2.348a1 1 0 1 1 .037 2l-.037-2zm15.369 1.763a1 1 0 0 1-.025-2l.025 2zM374.042.103a1 1 0 0 1 .014 2l-.014-2zm15.353 1.925a1 1 0 0 1-.006-2l.006 2zM404.736.002a1.001 1.001 0 0 1 .001 2l-.001-2zm15.345 2a1 1 0 1 1 0-2v2zM636 317.904a80.72 80.72 0 0 0-.365-7.805l1.991-.193c.248 2.559.374 5.223.374 7.998h-2zm-3.532-22.375c-1.761-4.885-4.159-9.189-7.142-12.963l1.57-1.24c3.12 3.949 5.621 8.444 7.454 13.525l-1.882.678zm-18.125-22.967c-3.972-2.635-8.451-4.835-13.399-6.636l.685-1.88c5.074 1.847 9.698 4.115 13.82 6.849l-1.106 1.667zm-27.967-10.572c-4.731-.907-9.75-1.565-15.033-1.994l.162-1.993c5.345.434 10.436 1.1 15.248 2.023l-.377 1.964zm-30.233-2.613a272.01 272.01 0 0 0-15.262.378l-.102-1.997a273.862 273.862 0 0 1 15.373-.381l-.009 2zm-30.551 1.507c-4.924.465-9.963 1.03-15.106 1.685l-.253-1.983a465.172 465.172 0 0 1 15.171-1.693l.188 1.991zm-30.163 3.812a734.604 734.604 0 0 0-15.102 2.493l-.346-1.969a736.456 736.456 0 0 1 15.143-2.501l.305 1.977zm-30.17 5.274c-4.916.948-9.887 1.945-14.907 2.984l-.405-1.958a1120.32 1120.32 0 0 1 14.933-2.99l.379 1.964zm-29.878 6.172a1778.094 1778.094 0 0 0-14.928 3.331l-.444-1.95c5.016-1.141 9.999-2.255 14.945-3.335l.427 1.954zm-29.787 6.767a3273.2 3273.2 0 0 0-14.902 3.538l-.467-1.945c4.991-1.197 9.964-2.379 14.912-3.54l.457 1.947zm-29.741 7.127c-4.94 1.202-9.893 2.415-14.854 3.633l-.476-1.942c4.961-1.218 9.915-2.431 14.857-3.635l.473 1.944zm-29.701 7.284c-4.951 1.218-9.904 2.436-14.852 3.649l-.476-1.943c4.947-1.212 9.899-2.43 14.85-3.648l.478 1.942zm-29.705 7.272a4060.267 4060.267 0 0 1-14.866 3.578l-.464-1.945a4158.23 4158.23 0 0 0 14.859-3.577l.471 1.944zm-29.771 7.093a2235.51 2235.51 0 0 1-14.856 3.406l-.439-1.952c4.921-1.109 9.87-2.245 14.842-3.402l.453 1.948zm-29.848 6.716a1365.571 1365.571 0 0 1-14.974 3.147l-.4-1.96c4.943-1.008 9.929-2.058 14.952-3.142l.422 1.955zm-29.921 6.094a903.417 903.417 0 0 1-15.141 2.745l-.339-1.971a903.069 903.069 0 0 0 15.107-2.739l.373 1.965zm-30.251 5.19a596.845 596.845 0 0 1-15.062 2.081l-.248-1.985a590.23 590.23 0 0 0 15.012-2.074l.298 1.978zm-30.377 3.75c-5.233.481-10.35.854-15.338 1.107l-.102-1.997a374.24 374.24 0 0 0 15.257-1.102l.183 1.992zm-30.669 1.497c-5.287-.012-10.398-.19-15.314-.55l.145-1.994c4.865.355 9.928.532 15.174.544l-.005 2zm-30.562-2.372c-5.3-.913-10.307-2.104-14.99-3.603l.61-1.905c4.582 1.467 9.497 2.638 14.72 3.537l-.34 1.971zm-29.202-9.688a60.267 60.267 0 0 1-6.45-4.165l1.192-1.606a58.4 58.4 0 0 0 6.237 4.027l-.979 1.744zm-6.45-4.165a247.334 247.334 0 0 1-6.095-4.673l1.242-1.568a243.319 243.319 0 0 0 6.045 4.635l-1.192 1.606zm-17.734-14.545a196.422 196.422 0 0 1-10.9-10.708l1.457-1.37a194.327 194.327 0 0 0 10.789 10.599l-1.346 1.479zm-20.89-22.298a156.31 156.31 0 0 1-8.865-12.455l1.685-1.078a154.187 154.187 0 0 0 8.751 12.297l-1.572 1.236zm-16.414-25.761a134.869 134.869 0 0 1-6.042-14.068l1.88-.683a132.924 132.924 0 0 0 5.952 13.86l-1.79.891zM3.93 227.36a132.95 132.95 0 0 1-2.655-15.084l1.986-.233a130.82 130.82 0 0 0 2.616 14.856l-1.947.461zM.335 196.995c-.035-5.13.204-10.23.687-15.287l1.991.19a147.743 147.743 0 0 0-.678 15.083l-2 .014zm2.86-30.427a183.181 183.181 0 0 1 3.497-14.882l1.927.537a181.31 181.31 0 0 0-3.459 14.719l-1.964-.374zm8.155-29.437a229.076 229.076 0 0 1 5.67-14.184l1.832.803a227.135 227.135 0 0 0-5.62 14.06l-1.882-.679zm12.22-27.972a276.014 276.014 0 0 1 3.57-6.74l1.754.961a272.017 272.017 0 0 0-3.543 6.691l-1.78-.912zm3.57-6.74a121.06 121.06 0 0 1 3.933-6.669l1.69 1.07a118.723 118.723 0 0 0-3.869 6.56l-1.754-.961zm13.002-19.17A133.254 133.254 0 0 1 50.64 71.936l1.386 1.442a131.306 131.306 0 0 0-10.34 11.143l-1.544-1.272zm22.182-21.408c4.008-3.12 8.21-6.083 12.594-8.895l1.08 1.684a167.23 167.23 0 0 0-12.445 8.79l-1.23-1.579zm25.879-16.68a227.618 227.618 0 0 1 13.828-6.798l.823 1.823a225.583 225.583 0 0 0-13.707 6.739l-.944-1.763zm28.063-12.718a307.81 307.81 0 0 1 14.49-5.128l.621 1.901a305.9 305.9 0 0 0-14.396 5.095l-.715-1.868zm29.2-9.577a409.917 409.917 0 0 1 14.881-3.853l.466 1.945a407.8 407.8 0 0 0-14.808 3.834l-.539-1.926zm29.888-7.182a533.484 533.484 0 0 1 15.1-2.867l.345 1.97a532.762 532.762 0 0 0-15.044 2.856l-.401-1.96zm30.269-5.324a686.236 686.236 0 0 1 15.22-2.096l.251 1.985a684.417 684.417 0 0 0-15.176 2.089l-.295-1.978zM236.1 6.49a874.554 874.554 0 0 1 15.285-1.487l.177 1.992c-5.107.453-10.192.946-15.25 1.485l-.212-1.99zm30.589-2.721a1111.73 1111.73 0 0 1 15.319-1.01l.118 1.997c-5.107.302-10.206.636-15.291 1.007l-.146-1.994zm30.646-1.82a1436.24 1436.24 0 0 1 15.334-.633l.072 1.998c-5.1.185-10.206.394-15.312.634l-.094-1.998zM328.008.836c5.13-.138 10.246-.253 15.343-.35l.037 2c-5.091.097-10.202.211-15.326.349l-.054-2zM358.695.25c5.146-.063 10.264-.11 15.347-.146l.014 2c-5.08.035-10.194.083-15.336.146l-.025-2zm30.694-.22c5.163-.017 10.281-.024 15.347-.027l.001 2c-5.064.003-10.181.01-15.342.026l-.006-2zm30.692-.027l7.63.001v2l-7.63-.001v-2z" fill="#DCDCDC"/></svg>