<svg width="120" height="349" viewBox="0 0 120 349" fill="none" xmlns="http://www.w3.org/2000/svg">
<path d="M92.4083 16.6195C91.1313 16.2755 89.05 15.54 87.7584 16.2994C87.5635 16.378 87.5342 16.6761 87.7097 16.7962C88.2361 17.1566 88.8843 17.2292 89.44 17.2915C90.366 17.3952 91.1898 17.588 92.0037 17.8801C92.9103 18.1826 93.3246 16.8226 92.4083 16.6195Z" fill="#EEEEEE"/>
<path d="M109.326 18.8164C106.636 17.6108 103.253 17.7341 100.412 17.1143C99.4953 16.9112 99.2467 18.4907 100.163 18.6938C103.014 19.2142 106.465 20.3041 109.268 19.4126C109.453 19.4334 109.594 18.9469 109.326 18.8164Z" fill="#EEEEEE"/>
<path d="M131.484 22.0022C129.339 20.9582 126.81 20.9761 124.402 20.7063C121.716 20.4054 118.928 20.1935 116.233 19.9919C115.4 19.8985 115.346 21.3994 116.179 21.4928C118.875 21.6944 121.663 21.9063 124.348 22.2073C126.664 22.4667 129.042 23.0346 131.426 22.5984C131.723 22.4308 131.762 22.0334 131.484 22.0022Z" fill="#EEEEEE"/>
<path d="M216.899 147.705C219.424 137.239 219.341 125.677 218.215 115.203C216.626 100.86 210.884 84.9467 203.456 72.8627C204.874 72.7202 206.156 72.0602 206.6 70.4021C206.902 69.2304 205.674 68.3895 204.782 68.8924C202.998 69.898 200.629 69.2307 198.767 69.1226C196.257 68.9417 193.83 68.8707 191.32 68.6899C186.947 68.4009 182.585 68.0126 178.223 67.6242C169.508 66.7482 160.876 65.9819 152.2 64.7083C152.015 64.6876 151.922 64.6772 151.727 64.7558C150.625 64.5319 149.421 64.397 148.364 64.6803C147.525 63.6823 146.585 62.7732 145.551 61.8537C155.002 63.8168 164.502 65.2831 174.153 66.1636C179.349 66.6453 184.574 66.8289 189.809 66.9132C195.043 66.9975 201.053 67.7713 206.137 66.5327C207.195 66.2493 207.287 64.3509 206.186 64.1271C201.945 63.451 197.383 64.1453 193.074 64.1648C187.264 64.217 181.391 63.9608 175.63 63.5161C164.653 62.7885 153.745 61.3653 142.895 59.3459C142.617 59.3148 142.422 59.3934 142.227 59.472C140.37 58.3598 138.494 57.4463 136.681 56.8413C131.066 54.9061 124.905 54.7181 119.075 54.969C118.51 55.0061 117.852 55.0329 117.286 55.07C115.512 54.0675 113.455 54.0379 111.51 53.82C111.418 53.8096 111.418 53.8096 111.325 53.7993C111.272 53.3914 111.023 53.0622 110.643 53.12C110.458 53.0993 110.272 53.0785 110.17 53.1675C110.385 52.8902 110.497 52.7018 110.711 52.4245C110.794 52.5342 110.877 52.644 110.969 52.6543C111.238 52.7848 111.423 52.8056 111.71 52.7373C111.793 52.8471 111.978 52.8678 112.071 52.8782C129.608 53.5373 146.57 58.1503 163.912 60.7968C172.208 62.1281 180.377 62.8426 188.736 62.5737C192.869 62.4341 197.032 61.9963 201.131 61.2501C203.227 60.8822 205.24 60.4045 205.854 57.9618C206.307 56.2043 204.051 55.3487 203.256 56.7666C203.266 56.6672 203.266 56.6672 203.276 56.5678C203.768 56.3216 204.085 55.9553 204.246 55.27C204.606 53.5022 203.87 52.4151 202.725 51.684C202.735 51.5846 202.735 51.5846 202.744 51.4852C202.535 50.7585 202.725 49.7752 202.71 48.9699C202.725 47.8665 202.73 46.8624 202.744 45.759C202.72 45.053 202.174 44.8914 201.692 45.0382C201.887 44.9596 202.184 44.792 202.379 44.7134C204.275 43.5194 205.459 41.9443 205.313 39.6173C205.172 38.195 204.109 37.5736 203.071 37.6582C204.406 33.5885 204.816 29.415 204.207 25.1274C203.407 19.9143 197.354 20.542 193.742 20.1373C180.435 18.3449 167.027 16.6415 153.691 15.1473C140.507 13.0672 127.688 12.0326 114.815 10.5903C107.777 9.80162 100.739 9.01298 93.7393 7.82686C89.2308 7.02029 84.1373 4.54081 80.2819 8.52908C79.4435 9.43976 80.511 10.9658 81.3395 10.1545C85.0926 6.25523 92.7011 9.82021 97.2487 10.2293C102.537 10.7214 107.947 10.9258 113.226 11.5173C124.627 12.6943 135.998 14.1694 147.287 15.5347C157.649 16.7963 168.021 17.9585 178.374 19.3194C183.828 20.031 189.189 20.7323 194.644 21.4439C198.431 21.9687 202.247 22.1954 202.583 27.3566C202.798 30.8968 202.086 34.3331 200.931 37.5189C200.858 37.3098 200.775 37.2001 200.488 37.2683C198.484 37.6466 196.447 37.4183 194.453 37.6972C194.268 37.6765 194.229 38.074 194.414 38.0947C196.291 39.0082 198.674 38.572 200.678 38.1937C200.77 38.2041 200.77 38.2041 200.78 38.1048C200.804 38.8107 201.609 39.2022 202.12 38.7573C203.51 40.8217 203.281 42.2024 201.433 42.8996C200.132 43.7584 198.158 43.8386 196.739 43.981C194.57 44.1398 192.348 43.8908 190.135 43.5424C185.051 42.8723 180.036 41.5066 175.074 40.5488C173.602 40.2834 169.381 39.4086 169.113 39.2781C169.142 38.98 168.621 37.6155 169.527 37.9181C170.741 37.9536 171.955 37.9891 173.168 38.0246C178.291 38.2973 183.414 38.5699 188.629 38.8529C189.37 38.9359 189.487 37.7435 188.746 37.6605C184.096 37.3404 179.353 37.0099 174.704 36.6898C172.471 36.5401 167.188 35.0439 165.379 37.2524C164.327 38.4404 165.721 39.5007 167.977 40.3564C167.967 40.4557 168.041 40.6648 168.031 40.7642C168.158 41.3812 168.387 41.9092 168.923 42.1702C169.015 42.1805 169.21 42.1019 169.128 41.9922C169.084 41.4849 168.937 41.0667 168.884 40.6589C169.522 40.8309 170.161 41.0029 170.799 41.1749C170.77 41.473 170.639 41.8601 170.702 42.1686C170.663 42.5661 170.809 42.9843 171.262 43.1355C171.448 43.1563 171.735 43.088 171.672 42.7796C171.618 42.3717 171.472 41.9535 171.511 41.556C171.521 41.4566 171.521 41.4566 171.53 41.3573C172.076 41.5189 172.632 41.5812 173.271 41.7532C173.241 42.0513 173.314 42.2604 173.378 42.5689C173.431 42.9767 173.631 43.8028 174.085 43.9541C174.177 43.9644 174.27 43.9748 174.279 43.8754C174.411 43.4883 174.265 43.0701 174.109 42.7513C174.036 42.5421 173.972 42.2337 173.899 42.0245C173.899 42.0245 173.899 42.0245 173.909 41.9252C174.455 42.0868 175.011 42.1491 175.566 42.2113C175.469 43.205 175.537 44.4182 176.137 44.9877C176.219 45.0974 176.322 45.0084 176.424 44.9194C176.658 44.4433 176.512 44.0251 176.468 43.5179C176.414 43.11 176.351 42.8016 176.297 42.3937C176.853 42.456 177.399 42.6176 177.955 42.6799C177.955 42.6799 177.955 42.6799 177.945 42.7792C177.998 43.1871 178.052 43.5949 178.106 44.0028C178.15 44.51 178.111 44.9075 178.349 45.3361C178.432 45.4458 178.617 45.4666 178.627 45.3672C178.954 44.9015 178.91 44.3943 178.876 43.7877C178.812 43.4792 178.749 43.1707 178.686 42.8622C179.519 42.9556 180.158 43.1276 180.436 43.1588C180.397 43.5563 180.358 43.9537 180.411 44.3616C180.436 45.0675 180.367 45.7631 180.772 46.4112C180.855 46.521 181.04 46.5417 181.059 46.343C181.396 45.7779 181.352 45.2707 181.318 44.6641C181.274 44.1569 181.22 43.749 181.176 43.2418C181.732 43.3041 182.185 43.4553 182.741 43.5176C182.721 43.7163 182.795 43.9254 182.96 44.1449C182.799 44.8301 182.824 45.5361 183.053 46.064C183.136 46.1738 183.321 46.1945 183.423 46.1056C183.843 45.6502 183.911 44.9546 183.886 44.2487C183.989 44.1597 184.101 43.9713 184.111 43.872C184.193 43.9817 184.276 44.0914 184.462 44.1122C184.554 44.1226 184.749 44.044 184.842 44.0543C185.12 44.0855 185.397 44.1166 185.573 44.2367C185.505 44.9323 185.417 45.8266 185.636 46.454C185.719 46.5637 185.904 46.5845 185.914 46.4851C186.333 46.0298 186.421 45.1354 186.397 44.4295C186.767 44.471 187.22 44.6222 187.591 44.6638C187.459 45.0508 187.503 45.5581 187.464 45.9555C187.479 46.7609 187.576 47.6759 188.176 48.2454C188.258 48.3552 188.453 48.2766 188.463 48.1772C188.634 47.3926 188.424 46.6659 188.4 45.9599C188.336 45.6515 188.375 45.254 188.322 44.8461C188.878 44.9084 189.516 45.0804 190.072 45.1427C189.994 45.9376 190.091 46.8527 190.198 47.6684C190.179 47.8671 190.354 47.9872 190.447 47.9976C190.632 48.0184 190.632 48.0184 190.827 47.9398C190.93 47.8508 191.042 47.6624 191.051 47.563C191.12 46.8675 191.012 46.0518 190.998 45.2464C191.368 45.2879 191.831 45.3398 192.202 45.3813C192.153 45.8782 192.114 46.2756 192.065 46.7725C191.997 47.4681 191.909 48.3624 192.509 48.9319C192.592 49.0416 192.777 49.0624 192.796 48.8636C193.133 48.2986 193.025 47.4828 193.001 46.7769C193.04 46.3794 192.996 45.8722 193.035 45.4747C193.406 45.5162 193.776 45.5577 194.239 45.6096C194.088 46.1955 194.122 46.802 194.073 47.2989C194.098 48.0048 194.049 48.5017 194.361 49.1394C194.444 49.2492 194.629 49.2699 194.731 49.1809C194.975 48.6055 195.024 48.1086 194.999 47.4027C194.965 46.7961 195.024 46.1999 194.795 45.6719C195.165 45.7134 195.545 45.6555 195.916 45.697C195.511 46.9577 195.643 48.4794 196.389 49.4671C196.637 49.7963 197.222 49.5605 197.178 49.0532C197.051 48.4363 196.739 47.7986 196.715 47.0926C196.671 46.5854 196.71 46.1879 196.666 45.6807C197.139 45.6332 197.602 45.6851 198.075 45.6376C198.017 46.2338 198.041 46.9398 198.168 47.5567C198.275 48.3724 198.26 49.4759 198.757 50.1343C195.453 49.4627 191.792 49.5548 188.707 49.5105C183.843 49.4677 159.062 48.198 159.062 48.198C159.14 47.4031 159.136 46.4984 159.121 45.693C159.16 45.2956 159.199 44.8981 159.155 44.3909C159.711 44.4531 160.266 44.5154 160.822 44.5777C160.651 45.3622 160.656 46.2669 160.671 47.0723C160.651 47.271 160.734 47.3807 160.817 47.4905C160.993 47.6106 161.085 47.621 161.28 47.5424C161.383 47.4534 161.485 47.3644 161.504 47.1656C161.582 46.3707 161.68 45.377 161.573 44.5613C162.138 44.5242 162.703 44.4871 163.186 44.3402C163.176 44.4396 163.166 44.539 163.147 44.7377C163.108 45.1352 162.967 45.6217 163.215 45.9509C163.298 46.0606 163.391 46.071 163.493 45.982C163.893 45.7254 163.849 45.2182 163.795 44.8104C163.815 44.6116 163.834 44.4129 163.771 44.1044C164.263 43.8582 164.58 43.4918 164.916 42.9268C165.038 42.639 164.985 42.2312 164.716 42.1007C156.962 38.1175 147.067 39.7212 138.693 39.1848C128.736 38.5713 118.753 37.2519 108.82 35.4356C108.542 35.4044 108.44 35.4934 108.328 35.6818C107.543 35.0916 106.748 34.6007 105.861 34.0995C103.19 32.6951 100.28 32.7709 97.4778 33.6624C97.1074 33.6209 96.737 33.5794 96.3665 33.5379C94.2365 33.2992 92.2187 32.8722 90.2105 32.3458C90.3372 29.1452 90.3616 26.0337 90.6735 22.8539C91.044 22.8954 91.507 22.9473 91.8774 22.9888C91.6971 23.8727 91.5168 24.7566 91.5119 25.7607C91.4144 26.7544 91.3072 27.8474 91.5899 28.7833C91.663 28.9924 91.9506 28.9241 92.0627 28.7358C92.3454 27.7629 92.2576 26.7484 92.2625 25.7444C92.3502 24.85 92.438 23.9557 92.4331 23.051C92.8035 23.0925 93.2666 23.1444 93.637 23.1859C93.4518 25.0739 93.2568 27.0613 93.5444 28.9018C93.5249 29.1006 93.8125 29.0323 93.8222 28.9329C94.1927 27.0657 94.1001 25.1466 93.9977 23.3268C94.5533 23.3891 95.109 23.4513 95.6646 23.5136C95.6013 25.1139 95.3332 26.8921 95.7426 28.4449C95.7329 28.5443 96.0107 28.5754 96.0205 28.476C96.3617 26.9069 96.1569 25.1761 96.0351 23.5551C96.5907 23.6173 97.0538 23.6692 97.6094 23.7315C97.317 24.8038 97.1513 26.4931 97.5899 27.7477C97.6728 27.8575 97.858 27.8782 97.8678 27.7789C98.3649 26.5286 98.3454 24.8186 98.2041 23.3963C98.5745 23.4378 98.9449 23.4793 99.3154 23.5208C99.3495 24.1274 99.3007 24.6242 99.3349 25.2308C99.2764 25.827 99.2179 26.4232 99.252 27.0298C99.2325 27.2286 99.5103 27.2597 99.6224 27.0713C100.183 26.1295 100.134 24.7176 99.9636 23.5934C100.427 23.6453 100.89 23.6972 101.445 23.7595C101.406 24.1569 101.45 24.6642 101.411 25.0616C101.353 25.6579 101.304 26.1547 101.431 26.7717C101.421 26.871 101.606 26.8918 101.709 26.8028C102.157 26.0493 102.274 24.8569 102.094 23.8321C102.557 23.884 103.02 23.9359 103.483 23.9878C103.444 24.3852 103.415 24.6833 103.376 25.0808C103.317 25.677 103.239 26.472 103.551 27.1097C103.634 27.2194 103.819 27.2402 103.921 27.1512C104.258 26.5861 104.141 25.8698 104.107 25.2632C104.146 24.8657 104.082 24.5572 104.121 24.1598C104.584 24.2117 105.047 24.2635 105.51 24.3154C105.262 25.8949 105.291 27.5056 105.423 29.0273C105.403 29.226 105.681 29.2571 105.7 29.0584C106.032 27.5886 106.105 25.889 105.973 24.3673C106.436 24.4192 106.9 24.4711 107.363 24.523C107.129 24.999 107.163 25.6056 107.124 26.0031C107.055 26.6987 106.783 27.5723 107.094 28.21C107.177 28.3197 107.363 28.3405 107.372 28.2411C107.791 27.7858 107.684 26.9701 107.743 26.3739C107.791 25.877 107.952 25.1918 107.826 24.5748C108.381 24.6371 108.937 24.6994 109.4 24.7512C109.327 26.4509 109.254 28.1505 109.478 29.6826C109.468 29.7819 109.653 29.8027 109.756 29.7137C110.097 28.1446 109.985 26.4242 109.956 24.8135C110.511 24.8758 110.974 24.9277 111.53 24.9899C111.311 26.2713 111.174 27.6625 111.345 28.7867C111.325 28.9854 111.603 29.0165 111.715 28.8282C112.11 27.6669 112.246 26.2757 112.271 25.0729C112.641 25.1144 113.012 25.1559 113.382 25.1975C113.285 26.1911 113.177 27.2842 113.46 28.22C113.543 28.3298 113.636 28.3401 113.738 28.2511C114.011 27.3776 114.025 26.2742 113.938 25.2597C114.401 25.3116 114.864 25.3635 115.419 25.4257C115.38 25.8232 115.332 26.3201 115.293 26.7175C115.195 27.7112 115.098 28.7049 115.278 29.7297C115.351 29.9388 115.536 29.9596 115.649 29.7712C115.922 28.8977 116.009 28.0033 116.004 27.0987C116.053 26.6018 116.112 26.0056 116.068 25.4984C116.253 25.5191 116.346 25.5295 116.531 25.5503C116.809 25.5814 117.086 25.6125 117.364 25.6437C117.238 26.9354 117.111 28.2272 117.457 29.4715C117.53 29.6807 117.725 29.602 117.827 29.5131C118.212 28.4511 118.164 27.0392 118.095 25.826C118.558 25.8779 118.929 25.9194 119.392 25.9713C119.353 26.3688 119.314 26.7663 119.275 27.1637C119.177 28.1574 119.08 29.1511 119.168 30.1656C119.158 30.2649 119.343 30.2857 119.446 30.1967C119.792 29.5322 119.87 28.7373 119.938 28.0417C119.996 27.4455 120.065 26.7499 120.03 26.1433C120.679 26.216 121.327 26.2886 121.965 26.4606C122.004 27.9719 121.848 29.5618 121.887 31.0731C121.878 31.1724 122.063 31.1932 122.073 31.0938C122.589 29.6448 122.643 28.1439 122.614 26.5332C123.077 26.5851 123.54 26.637 123.993 26.7883C123.954 27.1857 123.905 27.6826 123.866 28.0801C123.788 28.875 123.71 29.67 123.808 30.585C123.798 30.6844 123.983 30.7051 124.086 30.6162C124.563 29.5646 124.792 28.1838 124.632 26.9603C124.909 26.9914 125.095 27.0122 125.372 27.0433C125.041 28.5131 124.978 30.1133 125.212 31.546C125.202 31.6454 125.47 31.7759 125.489 31.5771C125.996 30.2275 126.152 28.6376 126.206 27.1367C126.669 27.1886 127.225 27.2508 127.678 27.4021C127.639 27.7995 127.61 28.0977 127.663 28.5055C127.697 29.1121 127.639 29.7083 127.858 30.3357C127.941 30.4454 128.126 30.4662 128.136 30.3668C128.39 29.692 128.355 29.0854 128.331 28.3794C128.36 28.0813 128.287 27.8722 128.316 27.5741C128.779 27.626 129.15 27.6675 129.603 27.8187L129.696 27.8291C129.447 29.4086 129.282 31.0979 129.413 32.6196C129.394 32.8183 129.671 32.8494 129.784 32.6611C130.3 31.212 130.568 29.4338 130.344 27.9017C130.992 27.9744 131.631 28.1464 132.279 28.219C132.07 29.4011 132.045 30.6039 132.318 31.6391C132.401 31.7488 132.586 31.7696 132.596 31.6702C133.054 30.8174 133.273 29.536 133.288 28.4325C133.566 28.4637 133.844 28.4948 134.112 28.6253C134.073 29.0228 134.044 29.3209 134.005 29.7184C133.946 30.3146 133.888 30.9108 134.219 31.3498C134.302 31.4595 134.394 31.4699 134.497 31.3809C134.823 30.9152 134.789 30.3086 134.755 29.702C134.692 29.3935 134.731 28.996 134.667 28.6876C135.13 28.7394 135.501 28.7809 135.954 28.9322C135.735 30.2136 135.671 31.8139 136.242 32.6815C136.325 32.7912 136.51 32.812 136.529 32.6132C136.773 32.0378 136.646 31.4208 136.715 30.7252C136.68 30.1187 136.739 29.5224 136.797 28.9262C137.168 28.9677 137.631 29.0196 138.001 29.0611C137.68 30.4315 137.782 32.2513 138.035 33.4852C138.109 33.6943 138.304 33.6157 138.313 33.5164C138.576 32.7422 138.645 32.0466 138.63 31.2413C138.606 30.5353 138.674 29.8397 138.65 29.1338C139.113 29.1856 139.576 29.2375 139.956 29.1797C139.907 29.6765 139.849 30.2727 139.892 30.7799C139.824 31.4755 139.858 32.0821 140.078 32.7095C140.161 32.8192 140.253 32.8296 140.356 32.7406C140.589 32.2645 140.638 31.7677 140.604 31.1611C140.58 30.4551 140.638 29.8589 140.604 29.2523C140.789 29.2731 141.067 29.3042 141.262 29.2256C141.355 29.236 141.457 29.147 141.569 28.9586C141.53 29.3561 141.501 29.6542 141.555 30.062C141.467 30.9564 141.472 31.861 141.774 32.5981C141.857 32.7079 142.032 32.828 142.052 32.6293C142.315 31.8551 142.383 31.1595 142.369 30.3542C142.408 29.9567 142.364 29.4495 142.31 29.0416C142.866 29.1039 143.421 29.1661 143.884 29.218C143.685 30.3007 143.568 31.4931 143.738 32.6173C143.728 32.7167 144.006 32.7478 144.016 32.6484C144.401 31.5865 144.518 30.3941 144.533 29.2907C145.088 29.3529 145.644 29.4152 146.107 29.4671C145.99 30.6595 145.863 31.9513 146.321 33.0072C146.404 33.117 146.59 33.1377 146.692 33.0487C147.067 32.0862 147.009 30.7736 146.848 29.5501C147.496 29.6227 148.144 29.6954 148.793 29.768C148.656 31.1592 148.344 32.4302 148.495 33.7531C148.476 33.9519 148.763 33.8836 148.773 33.7843C149.178 32.5236 149.314 31.1324 149.348 29.8303C149.811 29.8821 150.367 29.9444 150.83 29.9963C150.698 30.3834 150.64 30.9796 150.601 31.3771C150.523 32.172 150.547 32.878 150.85 33.6151C150.932 33.7248 151.025 33.7352 151.137 33.5468C151.503 32.6836 151.498 31.7789 151.586 30.8846C151.586 30.8846 151.625 30.4872 151.664 30.0897C152.034 30.1312 152.404 30.1727 152.775 30.2142C152.755 30.4129 152.819 30.7214 152.799 30.9202C152.814 31.7255 153.023 32.4522 153.53 33.0113C153.613 33.121 153.808 33.0424 153.818 32.9431C153.876 32.3469 153.75 31.7299 153.716 31.1233C153.642 30.9142 153.672 30.6161 153.701 30.318C154.349 30.3906 154.997 30.4632 155.646 30.5359C155.436 31.7179 155.495 33.0305 155.953 34.0864C156.036 34.1962 156.231 34.1176 156.24 34.0182C156.411 33.2336 156.396 32.4283 156.372 31.7223C156.401 31.4242 156.348 31.0164 156.377 30.7183C156.932 30.7805 157.488 30.8428 158.044 30.9051C157.893 31.4909 157.917 32.1968 157.951 32.8034C157.912 33.2009 157.956 33.7081 158.01 34.116C158.083 34.3251 158.268 34.3458 158.287 34.1471C158.624 33.582 158.682 32.9858 158.75 32.2902C158.789 31.8928 158.838 31.3959 158.692 30.9777C159.248 31.0399 159.711 31.0918 160.266 31.1541C160.169 32.1478 160.257 33.1622 160.559 33.8993C160.642 34.0091 160.827 34.0298 160.837 33.9304C161.08 33.355 161.046 32.7484 161.012 32.1418C161.041 31.8437 160.978 31.5352 161.007 31.2371C161.563 31.2994 162.119 31.3616 162.767 31.4343C162.577 32.4176 162.469 33.5106 162.864 34.2581C162.947 34.3678 163.132 34.3886 163.235 34.2996C163.59 33.5358 163.513 32.422 163.322 31.4965C163.878 31.5588 164.434 31.6211 164.989 31.6833C164.98 31.7827 164.97 31.8821 164.96 31.9814C164.921 32.3789 164.975 32.7867 164.946 33.0849C164.877 33.7804 164.809 34.476 165.019 35.2027C165.092 35.4118 165.277 35.4326 165.389 35.2442C165.725 34.6792 165.969 32.1949 165.833 31.6773C166.296 31.7292 166.759 31.7811 167.314 31.8434C166.998 32.2097 166.593 35.3791 166.998 36.0272C167.08 36.137 167.266 36.1577 167.368 36.0687C167.797 35.514 167.782 34.7087 167.851 34.0131C167.909 33.4169 168.192 32.444 167.87 31.9056C168.426 31.9679 168.981 32.0302 169.444 32.082C169.181 32.8562 169.103 33.6512 169.128 34.3571C169.152 35.0631 169.074 35.858 169.488 36.4068C169.571 36.5165 169.766 36.4379 169.868 36.3489C170.102 35.8728 170.058 35.3656 170.024 34.759C170.019 33.8543 170.107 32.96 170.185 32.1651C170.648 32.2169 171.111 32.2688 171.574 32.3207C171.35 32.6974 171.487 33.215 171.53 33.7222C171.638 34.5379 171.643 35.4426 172.047 36.0907C172.12 36.2998 172.408 36.2316 172.427 36.0329C172.691 35.2587 172.5 34.3332 172.393 33.5175C172.34 33.1097 172.296 32.6025 172.047 32.2732C172.881 32.3666 173.621 32.4496 174.455 32.543C174.396 33.1392 174.338 33.7354 174.279 34.3317C174.221 34.9279 174.153 35.6234 174.567 36.1722C174.65 36.2819 174.845 36.2033 174.855 36.1039C175.181 35.6382 175.137 35.131 175.186 34.6342C175.162 33.9282 175.128 33.3216 175.103 32.6157C175.844 32.6987 176.585 32.7817 177.326 32.8647C177.184 33.3512 177.228 33.8584 177.189 34.2559C177.214 34.9618 177.145 35.6574 177.467 36.1957C177.55 36.3055 177.735 36.3262 177.745 36.2269C177.989 35.6514 177.955 35.0448 178.013 34.4486C177.969 33.9414 178.028 33.3452 177.891 32.8276C178.076 32.8483 178.354 32.8795 178.539 32.9002C178.817 32.9314 179.095 32.9625 179.373 32.9936C179.163 34.1757 179.017 35.6662 179.597 36.4344C179.68 36.5442 179.875 36.4655 179.885 36.3662C180.128 35.7907 180.094 35.1841 180.05 34.6769C180.007 34.1697 180.055 33.6728 180.114 33.0766C180.484 33.1181 180.947 33.17 181.41 33.2219C181.381 33.52 181.352 33.8181 181.323 34.1162C181.264 34.7124 181.288 35.4184 181.508 36.0457C181.591 36.1555 181.776 36.1762 181.786 36.0769C182.122 35.5118 182.005 34.7955 182.063 34.1992C182.093 33.9011 182.02 33.692 182.049 33.3939C182.512 33.4458 183.068 33.5081 183.531 33.5599C183.433 34.5536 183.594 35.7772 183.979 36.624C184.062 36.7338 184.257 36.6552 184.267 36.5558C184.418 35.9699 184.476 35.3737 184.442 34.7671C184.388 34.3593 184.418 34.0612 184.364 33.6533C185.105 33.7364 185.846 33.8194 186.587 33.9024C186.577 34.0018 186.567 34.1011 186.557 34.2005C186.499 34.7967 186.328 35.5813 186.64 36.219C186.723 36.3287 186.816 36.3391 186.918 36.2501C187.328 35.8942 187.386 35.2979 187.435 34.8011C187.454 34.6024 187.483 34.3043 187.513 34.0062C187.976 34.058 188.346 34.0995 188.819 34.0521C188.799 34.2508 188.78 34.4495 188.751 34.7476C188.692 35.3439 188.624 36.0394 188.955 36.4784C189.038 36.5882 189.131 36.5985 189.233 36.5095C189.643 36.1536 189.609 35.547 189.657 35.0501C189.687 34.752 189.716 34.4539 189.662 34.0461C190.125 34.098 190.505 34.0401 190.968 34.092C191.051 34.2017 191.134 34.3115 191.227 34.3219C191.207 34.5206 191.178 34.8187 191.159 35.0174C191.11 35.5143 191.061 36.0111 191.485 36.4605C191.568 36.5702 191.763 36.4916 191.773 36.3922C192.099 35.9265 192.046 35.5187 192.002 35.0115C192.031 34.7134 191.958 34.5042 191.987 34.2061C191.987 34.2061 192.09 34.1171 192.099 34.0178C192.479 33.9599 192.85 34.0014 193.23 33.9436C193.162 34.6391 193.084 35.4341 193.406 35.9724C193.488 36.0822 193.674 36.1029 193.683 36.0036C194.02 35.4385 194.107 34.5442 193.99 33.8278C194.371 33.77 194.751 33.7121 195.038 33.6439C194.775 34.4181 194.585 35.4014 194.878 36.2378C194.96 36.3476 195.146 36.3683 195.248 36.2793C195.789 35.5363 195.711 34.4225 195.604 33.6068C196.086 33.4599 196.661 33.3234 197.051 33.1662C197.032 33.3649 197.003 33.6631 196.983 33.8618C196.934 34.3586 196.876 34.9548 197.319 35.2055C197.412 35.2158 197.505 35.2262 197.505 35.2262C197.904 34.9696 197.86 34.4624 197.807 34.0546C197.753 33.6467 197.792 33.2492 197.739 32.8414C198.231 32.5952 198.631 32.3386 199.04 31.9826C199.001 32.3801 199.055 32.7879 199.108 33.1958C199.089 33.3945 199.367 33.4256 199.469 33.3366C199.815 32.6722 199.986 31.8876 199.869 31.1713C200.307 30.5172 200.663 29.7534 200.668 28.7493C200.707 28.3519 200.468 27.9232 200.005 27.8714C193.05 27.1925 186.031 26.2051 179.007 26.2218C178.535 26.2693 178.457 27.0642 178.92 27.1161C184.427 28.2355 190.023 28.4607 195.589 28.9839C196.052 29.0358 196.515 29.0877 196.978 29.1396C199.055 28.9704 198.986 29.666 196.754 31.4251C195.38 32.0747 193.6 32.0763 192.09 32.2084C188.595 32.52 185.003 31.9166 181.474 31.6216C168.109 30.4255 154.837 29.2397 141.472 28.0435C141.009 27.9916 140.775 28.4677 140.828 28.8756C136.407 27.1747 131.377 26.9125 126.766 26.1949C120.961 25.243 115.229 24.5003 109.405 23.7472C104.043 23.046 98.672 22.4441 93.3007 21.8422C89.8742 21.4583 86.5305 21.1841 83.1138 20.7008C81.7246 20.5451 80.2429 20.3791 78.8538 20.2235C75.4175 19.9389 78.5369 16.7723 80.5548 17.1993C81.4712 17.4024 81.71 15.9223 80.8863 15.7295C80.5158 15.688 80.1551 15.5472 79.6824 15.5946C79.736 14.0937 79.8822 12.6032 80.3062 11.1438C80.4671 10.4586 79.5605 10.1561 79.3997 10.8413C78.9659 12.4001 78.8099 13.99 78.6539 15.5799C76.2169 15.6082 73.3314 16.3899 74.0576 19.4851C74.5012 21.6445 76.0658 21.9203 77.7327 22.1071C77.7132 22.3058 77.8692 22.6247 77.9423 22.8338C77.84 22.9228 77.7279 23.1111 77.7084 23.3099C77.6011 24.4029 77.5036 25.3966 77.3964 26.4897L77.3867 26.589C74.1161 26.5239 71.0357 27.3843 68.5791 29.5201C68.6084 29.222 68.6474 28.8245 68.3988 28.4953C61.7212 14.4862 41.1182 5.94907 31.8038 21.6824C26.7396 30.3573 33.3002 37.9238 39.466 42.834C45.7975 47.9637 53.445 51.1313 61.2046 52.2016C53.5913 55.367 46.4117 60.7911 40.5286 66.3605C33.1005 73.3641 26.4619 81.8627 23.7617 92.209C22.4018 97.4815 22.4018 103.208 22.4311 108.636C22.4457 115.168 22.5432 121.809 23.7813 128.277C24.8828 134.227 27.1444 139.805 29.4158 145.283C30.9365 148.869 33.125 152.329 37.0438 152.467C38.9984 152.585 39.0422 149.275 37.0877 149.157C32.9934 148.899 31.0243 140.34 29.835 137.193C27.9877 132.164 26.7057 127.097 26.1939 121.816C25.2142 111.761 24.7512 100.256 27.6707 90.5373C30.176 82.1784 36.4929 75.0502 42.3954 69.2821C49.7407 62.1687 57.7391 57.9415 66.5272 53.3003C67.117 55.878 67.892 58.4763 68.6669 61.0747C68.5743 61.0643 68.5646 61.1637 68.5646 61.1637C65.3818 64.0218 62.5499 67.1202 59.9666 70.5477C59.333 71.2804 58.6994 72.0131 58.056 72.8452C55.0828 76.43 52.6165 80.5739 50.428 84.749C46.3679 92.7328 44.1014 101.52 43.4922 110.594C42.9219 109.726 42.4443 108.869 42.0787 107.824C41.1818 105.513 38.0039 107.367 38.9105 109.578C40.0364 112.417 41.5913 114.701 43.4825 116.42C43.3801 116.509 43.2777 116.598 43.2583 116.796C41.0649 125.793 40.4459 134.966 39.7246 144.228C38.9837 153.689 37.4192 162.957 35.7522 172.314C34.1779 181.681 33.1495 191.21 32.4087 200.671C32.0334 205.451 31.853 210.153 31.6727 214.854C31.4777 218.75 25.8287 262.019 25.7995 279.496C25.7313 289.735 26.17 308.168 37.0442 314.711C37.7656 316.902 39.4277 318.093 41.3871 319.116C42.0987 319.497 42.9029 319.889 43.6146 320.27C43.5951 320.468 43.6779 320.578 43.8534 320.698C43.946 320.709 43.9363 320.808 44.0289 320.818C49.6341 324.762 55.9607 327.078 62.3556 328.699C62.4385 328.808 62.5116 329.017 62.6968 329.038C69.4426 330.899 76.2371 332.263 83.1633 333.24C86.7457 333.943 90.3185 334.745 93.8084 335.438C93.9741 335.657 94.1495 335.777 94.3348 335.798C95.6215 336.043 96.918 336.188 98.2146 336.333C100.047 336.74 101.797 337.036 103.63 337.442C103.815 337.463 104 337.484 104.103 337.395C120.358 340.623 136.818 341.764 153.326 340.499C156.763 340.784 160.165 340.462 163.513 339.732C165.117 339.61 166.823 339.4 168.436 339.179C169.002 339.141 169.153 338.556 168.914 338.127C171.39 337.701 173.617 336.946 175.533 335.553C177.799 334.401 179.939 332.632 181.811 330.732C187.201 325.408 191.608 318.669 195.005 311.716C198.422 304.564 200.591 296.77 202.111 288.904C203.773 280.551 205.908 249.245 206.449 242.776C207.268 232.52 207.809 222.234 208.443 211.957C209.788 190.609 211.616 169.114 216.923 148.411C217.148 148.035 217.075 147.826 216.899 147.705ZM116.492 58.3966C121.22 57.9218 126.065 58.1633 130.778 58.7919C134.75 59.3374 138.996 60.9182 142.486 63.5194C142.3 63.4986 142.198 63.5876 142.086 63.776C137.144 60.7107 130.271 60.1415 124.797 59.6286C119.962 59.2878 115.181 59.3548 110.297 59.5108C112.402 59.0435 114.508 58.5762 116.492 58.3966ZM123.052 62.1456C126.674 62.4509 130.349 63.1641 133.922 63.9663C136.671 64.5757 139.352 65.8807 142.203 66.4011C142.296 66.4115 142.388 66.4218 142.388 66.4218C142.481 66.4322 142.573 66.4426 142.666 66.453C143.85 66.7866 145.127 67.1306 146.599 67.396C148.495 70.0195 149.602 73.0569 149.519 76.7646C149.188 89.687 127.239 79.5926 122.146 77.1131C115.156 73.9189 107.309 69.9253 102.922 63.1047C102.849 62.8956 102.766 62.7859 102.693 62.5767C103.556 62.372 104.419 62.1673 105.281 61.9626C105.476 61.884 105.671 61.8054 105.866 61.7268C111.593 61.5648 117.301 61.6016 123.052 62.1456ZM110.224 55.4841C109.268 55.6785 108.323 55.7734 107.45 56.0775C107.86 55.7216 108.177 55.3552 108.503 54.8895C108.503 54.8895 108.503 54.8895 108.596 54.8999C108.956 55.0408 109.317 55.1816 109.678 55.3225C109.853 55.4426 110.039 55.4634 110.224 55.4841ZM112.315 40.8502C112.242 40.6411 112.178 40.3326 112.013 40.1131C112.105 40.1235 112.29 40.1443 112.383 40.1546C112.354 40.4527 112.334 40.6515 112.315 40.8502ZM112.49 50.5141C112.48 50.6135 112.471 50.7129 112.461 50.8122C112.368 50.8019 112.183 50.7811 112.091 50.7707L111.998 50.7603C111.915 50.6506 111.915 50.6506 111.822 50.6402C111.925 50.5512 111.925 50.5512 112.027 50.4622C112.334 50.1953 112.188 49.777 111.92 49.6465C112.003 49.7563 112.178 49.8764 112.456 49.9075C112.549 49.9179 112.641 49.9283 112.641 49.9283C112.529 50.1167 112.51 50.3154 112.49 50.5141ZM113.709 49.5456C113.66 50.0424 113.611 50.5393 113.563 51.0361C113.47 51.0257 113.377 51.0154 113.285 51.005L113.294 50.9056C113.343 50.4088 113.29 50.0009 113.246 49.4937C113.255 49.3943 113.255 49.3943 113.265 49.295L113.358 49.3053C113.553 49.2267 113.645 49.2371 113.84 49.1585C113.748 49.1481 113.728 49.3469 113.709 49.5456ZM115.663 49.6641C115.615 50.161 115.566 50.6578 115.527 51.0553C115.249 51.0242 114.971 50.993 114.693 50.9619C114.752 50.3657 114.737 49.5604 114.693 49.0532C115.064 49.0947 115.434 49.1362 115.795 49.277C115.692 49.366 115.673 49.5648 115.663 49.6641ZM117.569 50.2795C117.54 50.5776 117.511 50.8757 117.472 51.2732C117.194 51.2421 116.916 51.211 116.638 51.1798C116.687 50.683 116.745 50.0868 116.701 49.5795L116.711 49.4802C117.082 49.5217 117.452 49.5632 117.905 49.7144C117.618 49.7827 117.598 49.9814 117.569 50.2795ZM119.148 51.3606C118.963 51.3399 118.685 51.3087 118.5 51.288C118.519 51.0892 118.549 50.7911 118.578 50.493C118.597 50.2943 118.534 49.9858 118.461 49.7767C118.471 49.6773 118.378 49.667 118.378 49.667C118.656 49.6981 118.841 49.7188 119.119 49.75C119.09 50.0481 119.153 50.3566 119.329 50.4767C119.197 50.8638 119.177 51.0625 119.148 51.3606ZM121.556 51.6304C121.093 51.5785 120.537 51.5163 120.074 51.4644C120.104 51.1663 120.123 50.9676 120.152 50.6694C120.255 50.5805 120.357 50.4915 120.367 50.3921C120.45 50.5018 120.533 50.6116 120.625 50.622C120.996 50.6635 121.273 50.6946 121.644 50.7361C121.615 51.0342 121.585 51.3323 121.556 51.6304ZM123.779 51.8795C123.408 51.838 122.945 51.7861 122.575 51.7446C122.614 51.3471 122.662 50.8503 122.701 50.4528C123.072 50.4943 123.442 50.5358 123.813 50.5773C123.896 50.687 123.886 50.7864 123.969 50.8962C123.847 51.1839 123.808 51.5814 123.779 51.8795ZM124.705 51.9832C124.734 51.6851 124.68 51.2773 124.71 50.9792C124.812 50.8902 124.905 50.9006 124.914 50.8012C125.1 50.8219 125.192 50.8323 125.377 50.8531C125.645 50.9836 125.914 51.1141 126.284 51.1556C126.255 51.4537 126.216 51.8512 126.279 52.1596C125.816 52.1078 125.26 52.0455 124.705 51.9832ZM128.492 52.5081C128.029 52.4562 127.566 52.4043 127.103 52.3524C127.234 51.9653 127.181 51.5575 127.22 51.16C127.683 51.2119 128.146 51.2637 128.609 51.3156C128.58 51.6137 128.56 51.8125 128.531 52.1106C128.511 52.3093 128.502 52.4087 128.492 52.5081ZM129.325 52.6015C129.335 52.5021 129.335 52.5021 129.345 52.4027C129.374 52.1046 129.321 51.6968 129.35 51.3986L129.442 51.409C129.442 51.409 129.525 51.5188 129.618 51.5291C130.154 51.7901 130.3 52.2084 130.344 52.7156C130.057 52.7838 129.696 52.643 129.325 52.6015ZM132.362 53.1426C131.992 53.1011 131.621 53.0596 131.353 52.9291C131.299 52.5213 131.163 52.0037 130.914 51.6744C131.377 51.7263 131.748 51.7678 132.211 51.8197C132.191 52.0184 132.357 52.2379 132.533 52.3581C132.411 52.6458 132.391 52.8445 132.362 53.1426ZM133.195 53.236C133.225 52.9379 133.244 52.7392 133.181 52.4307C133.376 52.3521 133.488 52.1637 133.498 52.0643C133.488 52.1637 133.581 52.1741 133.663 52.2838C133.922 52.5137 134.18 52.7436 134.336 53.0624C134.419 53.1722 134.492 53.3813 134.482 53.4807C134.112 53.4391 133.659 53.2879 133.195 53.236ZM137.426 54.0115C136.778 53.9388 136.139 53.7668 135.491 53.6942C135.447 53.187 135.218 52.659 134.97 52.3297C135.896 52.4335 136.822 52.5373 137.646 52.73C137.524 53.0178 137.465 53.614 137.426 54.0115ZM138.26 54.1048C138.269 54.0055 138.269 54.0055 138.279 53.9061C138.318 53.5086 138.357 53.1112 138.396 52.7137L138.489 52.7241C138.913 53.1734 139.235 53.7118 139.361 54.3287C138.991 54.2872 138.63 54.1464 138.26 54.1048ZM141.525 53.2652C141.477 53.7621 141.428 54.2589 141.379 54.7558C141.009 54.7143 140.648 54.5734 140.278 54.5319C140.214 54.2234 140.151 53.9149 140.078 53.7058C140.014 53.3973 139.849 53.1778 139.693 52.859C140.341 52.9316 140.989 53.0042 141.637 53.0769C141.535 53.1659 141.535 53.1659 141.525 53.2652ZM142.213 54.8492C142.271 54.2529 142.227 53.7457 141.998 53.2178C142.461 53.2696 142.924 53.3215 143.387 53.3734C143.246 53.8599 143.382 54.3775 143.426 54.8847C143.417 54.9841 143.417 54.9841 143.407 55.0834C143.046 54.9425 142.583 54.8907 142.213 54.8492ZM144.425 55.1976C144.382 54.6903 144.45 53.9948 144.231 53.3674C144.879 53.4401 145.527 53.5127 146.175 53.5853C146.136 53.9828 146.088 54.4797 146.039 54.9765C146.019 55.1752 146.01 55.2746 145.99 55.4733C145.527 55.4215 144.971 55.3592 144.425 55.1976ZM148.296 53.9234C148.237 54.5196 148.076 55.2048 148.008 55.9004C147.638 55.8589 147.267 55.8174 146.906 55.6765C146.926 55.4777 146.863 55.1693 146.882 54.9705C146.828 54.5627 146.775 54.1548 146.721 53.747C147.277 53.8092 147.833 53.8715 148.296 53.9234ZM149.017 56.1139C149.085 55.4183 148.978 54.6026 148.851 53.9856C149.499 54.0583 150.055 54.1205 150.703 54.1932C150.674 54.4913 150.645 54.7894 150.616 55.0875C150.577 55.485 150.621 55.9922 150.674 56.4C150.128 56.2384 149.573 56.1762 149.017 56.1139ZM151.683 56.6136C151.712 56.3154 151.649 56.007 151.678 55.7089C151.625 55.301 151.673 54.8042 151.527 54.3859C151.99 54.4378 152.453 54.4897 152.824 54.5312C152.838 55.3365 152.945 56.1522 153.062 56.8686C152.609 56.7173 152.146 56.6654 151.683 56.6136ZM154.174 56.9931C154.067 56.1774 153.959 55.3617 153.759 54.5356C154.408 54.6082 155.056 54.6809 155.797 54.7639C155.758 55.1614 155.709 55.6582 155.67 56.0557C155.631 56.4532 155.675 56.9604 155.831 57.2793C155.275 57.217 154.729 57.0554 154.174 56.9931ZM158.404 57.7685C157.849 57.7063 157.303 57.5446 156.747 57.4824C156.786 57.0849 156.733 56.6771 156.66 56.4679C156.616 55.9607 156.582 55.3541 156.538 54.8469C157.093 54.9092 157.742 54.9818 158.297 55.0441L158.39 55.0545C158.39 55.0545 158.404 55.8598 158.395 55.9591C158.429 56.5657 158.463 57.1723 158.404 57.7685C158.497 57.7789 158.497 57.7789 158.497 57.7789L158.404 57.7685ZM159.423 57.8827C159.433 57.7833 159.535 57.6943 159.545 57.595C159.584 57.1975 159.628 55.7959 159.326 55.0589C159.974 55.1315 160.53 55.1938 161.178 55.2664C161.037 55.7529 161.071 56.3594 161.022 56.8563C160.983 57.2538 161.037 57.6616 161.183 58.0798C160.525 58.1066 159.979 57.9449 159.423 57.8827ZM162.284 58.3037C162.24 57.7965 162.104 57.2789 162.06 56.7717C162.016 56.2645 162.065 55.7676 162.021 55.2604C162.855 55.3538 163.688 55.4472 164.531 55.4412C164.473 56.0374 164.414 56.6336 164.448 57.2402C164.502 57.6481 164.546 58.1553 164.599 58.5632C163.756 58.5691 163.015 58.4861 162.284 58.3037ZM165.608 58.7767C165.555 58.3688 165.409 57.9506 165.355 57.5427C165.228 56.9258 165.204 56.2198 165.262 55.6236C166.096 55.717 166.939 55.711 167.773 55.8044C167.631 56.2909 167.675 56.7981 167.626 57.2949C167.67 57.8022 167.777 58.6179 168.192 59.1666C167.368 58.9738 166.535 58.8804 165.608 58.7767ZM169.21 59.2807C169.269 58.6845 168.782 57.9267 168.645 57.4091C168.509 56.8915 168.557 56.3946 168.596 55.9972C169.245 56.0698 169.903 56.0431 170.643 56.1261C170.463 57.01 170.307 58.5999 170.507 59.426C170.054 59.2748 169.673 59.3326 169.21 59.2807ZM171.535 59.4408C171.545 59.3414 171.36 59.3207 171.36 59.3207C171.555 59.2421 171.472 57.2235 171.301 56.0994C171.857 56.1616 172.422 56.1245 172.978 56.1868C172.734 56.7622 172.749 57.5676 172.773 58.2735C172.827 58.6814 172.861 59.288 173.017 59.6068C172.554 59.5549 172.091 59.503 171.535 59.4408ZM173.943 59.7106C174.075 59.3235 173.929 58.9053 173.782 58.487C173.665 57.7707 173.743 56.9757 173.626 56.2594C174.089 56.3113 174.552 56.3632 175.118 56.3261C175.05 57.0217 175.074 57.7276 175.201 58.3446C175.245 58.8518 175.196 59.3486 175.435 59.7772C174.879 59.715 174.416 59.6631 173.943 59.7106ZM176.176 59.8603C176.297 59.5725 176.244 59.1647 176.18 58.8562C176.166 58.0509 176.059 57.2352 175.859 56.4091C176.6 56.4921 177.443 56.4861 178.184 56.5691C178.125 57.1654 178.159 57.7719 178.193 58.3785C178.237 58.8858 178.159 59.6807 178.593 60.0307C177.76 59.9373 176.926 59.8439 176.176 59.8603ZM178.881 59.9625C179.29 59.6065 179.173 58.8902 179.139 58.2836C179.105 57.677 179.061 57.1698 179.027 56.5632C179.583 56.6254 180.055 56.5779 180.611 56.6402C180.523 57.5345 180.611 58.549 180.709 59.464C180.699 59.5634 180.772 59.7725 180.752 59.9713C180.094 59.998 179.446 59.9253 178.881 59.9625ZM181.688 59.9757C181.717 59.6775 181.664 59.2697 181.591 59.0606C181.483 58.2449 181.469 57.4396 181.269 56.6135C181.639 56.655 182.01 56.6965 182.483 56.649C182.761 56.6801 182.946 56.7009 183.224 56.732C183.394 57.8562 183.019 58.8188 183.097 59.9326C182.717 59.9904 182.151 60.0275 181.688 59.9757ZM184.208 60.0571C184.145 59.7486 184.091 59.3408 184.13 58.9433C184.198 58.2477 184.174 57.5417 183.862 56.904C184.788 57.0078 185.807 57.1219 186.743 57.1263C186.557 57.1056 186.436 57.3933 186.601 57.6128C186.684 57.7225 186.777 57.7329 186.86 57.8427C186.801 58.4389 186.835 59.0455 186.767 59.7411C186.757 59.8404 186.748 59.9398 186.738 60.0392C185.997 59.9561 185.144 60.0615 184.208 60.0571ZM189.16 59.2055C189.141 59.4043 189.121 59.603 189.092 59.9011C188.712 59.959 188.341 59.9175 187.869 59.9649C187.854 59.1596 187.839 58.3543 187.732 57.5386C187.752 57.3398 187.576 57.2197 187.484 57.2094C188.132 57.282 188.78 57.3546 189.336 57.4169C189.287 57.9137 189.228 58.5099 189.16 59.2055ZM191.568 57.5666C191.475 57.5562 191.466 57.6556 191.466 57.6556C191.334 58.0427 191.295 58.4401 191.349 58.848C191.329 59.0467 191.31 59.2455 191.28 59.5436C190.9 59.6014 190.428 59.6489 190.047 59.7068C190.057 59.6074 190.067 59.508 190.077 59.4087C190.052 58.7027 190.028 57.9967 190.003 57.2908C190.559 57.3531 191.217 57.3263 191.773 57.3886C191.67 57.4776 191.661 57.5769 191.568 57.5666ZM193.727 59.4159C193.162 59.453 192.689 59.5005 192.402 59.5687C192.402 59.5687 192.402 59.5687 192.309 59.5583C192.319 59.459 192.319 59.459 192.328 59.3596C192.285 58.8524 192.324 58.4549 192.27 58.0471C192.835 58.0099 193.401 57.9728 193.956 58.0351C193.825 58.4222 193.683 58.9087 193.727 59.4159ZM194.765 59.3313L194.775 59.2319C194.741 58.6253 194.882 58.1389 194.848 57.5323C195.229 57.4744 195.599 57.5159 195.979 57.4581C195.96 57.6568 196.125 57.8763 196.301 57.9964C196.281 58.1951 196.252 58.4933 196.233 58.692C196.223 58.7914 196.203 58.9901 196.194 59.0895C195.711 59.2363 195.238 59.2838 194.765 59.3313ZM197.417 59.0256C197.427 58.9263 197.427 58.9263 197.437 58.8269C197.476 58.4294 197.422 58.0216 197.368 57.6137L197.378 57.5143C197.368 57.6137 197.451 57.7235 197.534 57.8332C197.875 58.1728 198.216 58.5124 198.567 58.7527C198.177 58.9099 197.797 58.9678 197.417 59.0256ZM202.35 56.464C202.34 56.5634 202.33 56.6628 202.32 56.7622C202.291 57.0603 202.262 57.3584 202.428 57.5779C202.233 57.6565 202.028 57.8345 201.833 57.9131C201.862 57.615 201.809 57.2071 201.735 56.998C201.682 56.5901 201.126 56.5279 200.995 56.915C200.863 57.3021 200.722 57.7885 200.673 58.2854C200.478 58.364 200.19 58.4322 199.995 58.5109C199.913 58.4011 199.922 58.3017 199.747 58.1816C199.211 57.9206 198.787 57.4713 198.363 57.0219C199.411 56.8379 200.376 56.5442 201.258 56.1408C201.35 56.1512 201.341 56.2505 201.433 56.2609C201.794 56.4018 202.072 56.4329 202.35 56.464ZM198.947 45.3335C199.523 45.197 200.088 45.1599 200.58 44.9137C200.522 45.5099 200.454 46.2055 200.488 46.8121C200.493 47.7168 200.312 48.6007 200.502 49.5262C200.575 49.7353 200.761 49.756 200.873 49.5677L200.882 49.4683C200.853 49.7664 200.814 50.1639 200.878 50.4724C200.424 50.3211 199.878 50.1595 199.333 49.9979C199.333 49.9979 199.333 49.9979 199.342 49.8985C199.596 49.2237 199.294 48.4866 199.177 47.7702C199.06 47.0539 199.055 46.1492 198.947 45.3335ZM179.807 50.5224C183.17 50.5979 186.635 50.5844 189.999 50.6598C191.963 50.679 193.825 50.7872 195.77 51.0051C197.159 51.1607 198.538 51.4158 199.917 51.6708C201.316 51.7271 201.969 52.7044 201.701 54.4827C198.923 56.0801 195.94 55.9468 192.865 55.8031C188.946 55.6654 185.027 55.5276 181.118 55.2905C173.855 54.8786 166.51 54.357 159.267 53.7463C152.404 53.0778 145.551 52.3099 138.708 51.4426C138.625 51.3329 138.46 51.1134 138.182 51.0823C137.997 51.0615 137.802 51.1401 137.607 51.2188C134.931 50.8185 132.338 50.5279 129.662 50.1276C129.589 49.9185 129.413 49.7984 129.135 49.7672C128.95 49.7465 128.755 49.8251 128.56 49.9037C123.949 49.1861 119.431 48.4789 114.83 47.662C114.664 47.4425 114.396 47.312 114.108 47.3802C113.514 47.7155 112.939 47.8519 112.373 47.889C112.383 47.7897 112.393 47.6903 112.495 47.6013C112.826 46.1315 112.973 44.641 112.822 43.3181C112.914 43.3285 112.924 43.2291 113.026 43.1401L113.036 43.0407C113.065 42.7426 113.221 41.1527 113.021 40.3266C113.207 40.3474 113.392 40.3681 113.577 40.3889C113.577 40.3889 113.577 40.3889 113.67 40.3993C113.767 41.3143 113.567 42.397 113.757 43.3225C113.748 43.4218 113.923 43.542 114.026 43.453C114.576 42.6105 114.508 41.3974 114.318 40.4719C114.781 40.5238 115.244 40.5757 115.614 40.6172C115.454 41.3024 115.376 42.0973 115.205 42.8819C115.176 43.18 115.147 43.4781 115.108 43.8756C114.83 43.8445 114.645 43.8237 114.367 43.7926C113.626 43.7096 113.314 44.9806 114.055 45.0636C126.518 46.862 139.01 48.3622 151.551 49.3656C151.605 49.7735 152.244 49.9455 152.292 49.4486C154.154 49.5568 155.914 49.754 157.776 49.8621C165.243 50.0961 172.515 50.4086 179.807 50.5224ZM116.96 44.0831C116.682 44.052 116.404 44.0209 116.126 43.9897C116.165 43.5923 116.204 43.1948 116.243 42.7973C116.311 42.1017 116.38 41.4062 116.346 40.7996C116.623 40.8307 116.994 40.8722 117.272 40.9033C116.999 41.7769 116.779 43.0583 116.96 44.0831ZM118.719 44.2803C118.349 44.2388 118.071 44.2077 117.701 44.1662C117.74 43.7687 117.696 43.2615 117.735 42.864C117.71 42.158 117.769 41.5618 117.744 40.8559C118.208 40.9077 118.671 40.9596 119.134 41.0115C118.983 41.5973 118.914 42.2929 118.856 42.8891C118.807 43.386 118.666 43.8724 118.719 44.2803ZM120.654 44.5976C120.284 44.5561 119.913 44.5146 119.543 44.4731C119.592 43.9762 119.631 43.5787 119.68 43.0819C119.738 42.4857 119.806 41.7901 119.772 41.1835C120.235 41.2354 120.698 41.2873 121.161 41.3392C121 42.0244 120.932 42.72 120.864 43.4155C120.732 43.8026 120.601 44.1897 120.654 44.5976ZM122.775 44.9356C122.312 44.8837 121.941 44.8422 121.478 44.7903C121.61 44.4032 121.556 43.9954 121.595 43.5979C121.663 42.9023 121.732 42.2068 121.717 41.4014C122.18 41.4533 122.643 41.5052 123.106 41.5571C123.057 42.0539 122.906 42.6398 122.857 43.1366C122.799 43.7328 122.546 44.4076 122.775 44.9356ZM123.564 42.613C123.593 42.3149 123.623 42.0168 123.569 41.609C124.125 41.6712 124.68 41.7335 125.236 41.7958C125.197 42.1932 125.056 42.6797 125.017 43.0772C124.958 43.6734 124.685 44.5469 124.905 45.1743C124.442 45.1224 123.978 45.0705 123.423 45.0083L123.433 44.9089C123.442 44.8095 123.35 44.7991 123.35 44.7991L123.257 44.7888C123.389 44.4017 123.54 43.8158 123.55 43.7165C123.496 43.3086 123.535 42.9111 123.564 42.613ZM126.591 45.1623C126.674 45.2721 126.757 45.3818 126.942 45.4026C126.572 45.3611 126.108 45.3092 125.738 45.2677L125.748 45.1683C125.748 45.1683 125.758 45.0689 125.665 45.0586L125.582 44.9488C125.582 44.9488 125.675 44.9592 125.684 44.8598C125.704 44.6611 125.733 44.363 125.753 44.1642C125.782 43.8661 125.821 43.4687 125.85 43.1706C125.889 42.7731 125.938 42.2762 125.884 41.8684C126.255 41.9099 126.625 41.9514 126.996 41.9929C126.854 42.4794 126.796 43.0756 126.747 43.5724C126.596 44.1583 126.352 44.7337 126.591 45.1623ZM127.361 44.9472C127.39 44.6491 127.429 44.2517 127.459 43.9536C127.517 43.3573 127.585 42.6618 127.551 42.0552C127.922 42.0967 128.292 42.1382 128.57 42.1693C128.419 42.7552 128.36 43.3514 128.302 43.9476C128.253 44.4444 128.112 44.9309 128.546 45.2809C128.546 45.2809 128.638 45.2913 128.731 45.3016C129.223 45.0554 129.179 44.5482 129.228 44.0513C129.286 43.4551 129.345 42.8589 129.311 42.2523C129.681 42.2938 130.052 42.3353 130.422 42.3769C130.271 42.9627 130.12 43.5485 130.052 44.2441C130.003 44.7409 129.852 45.3268 129.988 45.8444C128.97 45.7302 128.044 45.6265 127.025 45.5123C127.117 45.5227 127.117 45.5227 127.22 45.4337L127.322 45.3447C127.332 45.2453 127.444 45.057 127.361 44.9472ZM131.923 46.1617C131.553 46.1202 131.182 46.0786 130.905 46.0475C130.914 45.9481 130.924 45.8488 130.749 45.7287C130.788 45.3312 130.856 44.6356 130.875 44.4369C130.934 43.8407 131.002 43.1451 130.875 42.5281C131.338 42.58 131.801 42.6319 132.265 42.6838C132.123 43.1702 132.074 43.6671 132.026 44.1639C131.967 44.7601 131.806 45.4453 131.923 46.1617ZM133.312 46.3173C133.035 46.2862 132.849 46.2654 132.572 46.2343C132.815 45.6588 132.791 44.9529 132.757 44.3463C132.806 43.8495 132.864 43.2532 132.82 42.746C133.098 42.7772 133.468 42.8187 133.746 42.8498C133.483 43.624 133.395 44.5183 133.317 45.3133C133.278 45.7107 133.249 46.0088 133.312 46.3173ZM134.702 46.473C134.516 46.4522 134.331 46.4315 134.146 46.4107C134.146 46.4107 134.146 46.4107 134.156 46.3113C134.185 46.0132 134.224 45.6158 134.253 45.3177C134.331 44.5227 134.419 43.6284 134.312 42.8127C134.682 42.8542 135.053 42.8957 135.33 42.9268C135.33 42.9268 135.33 42.9268 135.321 43.0262C135.077 43.6017 135.018 44.1979 134.96 44.7941C134.819 45.2805 134.667 45.8664 134.702 46.473ZM137.212 46.6538C137.212 46.6538 137.202 46.7531 137.212 46.6538C136.646 46.6909 136.183 46.639 135.628 46.5767C135.769 46.0903 135.725 45.5831 135.774 45.0862C135.842 44.3906 135.91 43.695 135.784 43.0781C135.784 43.0781 135.784 43.0781 135.793 42.9787C136.349 43.041 136.812 43.0929 137.377 43.0558C137.451 43.2649 137.533 43.3746 137.616 43.4844C137.334 44.4573 137.217 45.6497 137.212 46.6538ZM139.147 46.9711C138.776 46.9296 138.406 46.888 138.035 46.8465C138.045 46.7472 138.065 46.5484 138.074 46.4491C138.084 46.3497 138.094 46.2503 138.104 46.151C138.182 45.356 138.269 44.4617 138.255 43.6564C138.45 43.5777 138.552 43.4888 138.572 43.29C138.757 43.3108 139.035 43.3419 139.22 43.3627C139.02 44.4453 138.986 45.7475 139.147 46.9711ZM141.379 47.1207C140.916 47.0688 140.453 47.017 139.99 46.9651C140.01 46.7663 140.019 46.667 139.946 46.4579C139.961 45.3544 139.975 44.251 139.99 43.1476C140.453 43.1995 141.018 43.1623 141.481 43.2142C141.321 43.8994 141.252 44.595 141.184 45.2906C141.218 45.8972 140.945 46.7707 141.379 47.1207ZM143.251 45.2208C143.183 45.9164 143.197 46.7217 143.417 47.349C142.861 47.2868 142.305 47.2245 141.75 47.1622C141.852 47.0732 141.852 47.0732 141.862 46.9739L141.871 46.8745C141.881 46.7751 141.891 46.6758 141.798 46.6654C141.798 46.6654 141.984 44.7774 142.027 43.3759C142.49 43.4277 142.953 43.4796 143.324 43.5211C143.368 44.0284 143.309 44.6246 143.251 45.2208ZM145.547 47.5877C145.083 47.5358 144.62 47.4839 144.065 47.4217C144.206 46.9352 144.07 46.4176 144.036 45.811C144.011 45.1051 144.089 44.3101 144.065 43.6041C144.528 43.656 145.083 43.7183 145.547 43.7702C145.337 44.9522 145.191 46.4428 145.547 47.5877ZM147.871 47.7477C147.316 47.6855 146.76 47.6232 146.205 47.561C146.409 47.383 146.438 47.0849 146.273 46.8654C146.312 46.4679 146.268 45.9607 146.307 45.5632C146.273 44.9566 146.331 44.3604 146.39 43.7642C146.945 43.8265 147.418 43.779 147.974 43.8412C147.754 45.1227 147.628 46.4144 147.871 47.7477ZM150.104 47.8974C149.641 47.8455 149.178 47.7937 148.715 47.7418L148.744 47.4437C148.846 47.3547 148.671 47.2346 148.578 47.2242C148.5 46.1104 148.432 44.8972 148.447 43.7938C149.095 43.8664 149.753 43.8397 150.411 43.8129C150.182 45.1937 150.045 46.5849 150.104 47.8974ZM150.957 43.9746C151.512 44.0368 151.985 43.9893 152.541 44.0516C152.312 45.4324 151.99 46.8028 151.854 48.1939C151.576 48.1628 151.298 48.1317 151.02 48.1006C151.04 47.9018 151.059 47.7031 150.893 47.4836C150.928 46.1814 150.942 45.078 150.957 43.9746ZM156.235 48.3836C155.587 48.3109 154.929 48.3376 154.281 48.265C154.218 47.9565 154.388 47.172 154.315 46.9628C154.31 46.0581 154.388 45.2632 154.198 44.3378C154.125 44.1286 153.93 44.2073 153.92 44.3066C153.555 45.1698 153.55 46.1739 153.452 47.1676C153.423 47.4657 153.384 47.8631 153.355 48.1612C153.17 48.1405 152.892 48.1094 152.707 48.0886C152.843 46.6974 152.887 45.2959 152.746 43.8736C154.052 43.9195 155.358 43.9654 156.572 44.001C156.401 44.7855 156.231 45.5701 156.06 46.3547C156.075 47.16 155.914 47.8452 156.235 48.3836ZM158.283 48.5125C157.912 48.471 157.542 48.4295 157.069 48.4769C157.191 48.1892 157.22 47.8911 156.952 47.7606C156.952 47.7606 156.962 47.6612 156.971 47.5619C157.02 47.065 157.059 46.6676 157.108 46.1707C157.176 45.4751 157.152 44.7692 157.127 44.0632C157.313 44.084 157.498 44.1047 157.683 44.1255C157.961 44.1566 158.239 44.1877 158.517 44.2189C158.102 45.5789 157.946 47.1688 158.283 48.5125ZM145.858 40.5904C148.656 40.7029 151.464 40.7161 154.261 40.8287C155.938 40.9161 157.615 41.0035 159.365 41.3001C160.651 41.5447 164.146 43.1418 160.608 42.9463C160.145 42.8944 159.672 42.9419 159.116 42.8796C159.126 42.7802 159.126 42.7802 159.136 42.6809C159.155 42.4821 158.877 42.451 158.858 42.6497C158.848 42.7491 158.838 42.8485 158.746 42.8381C153.243 42.6233 147.686 42.0007 142.227 42.2932C142.247 42.0944 142.266 41.8957 142.183 41.786C142.203 41.5872 141.925 41.5561 141.813 41.7445C141.793 41.9432 141.681 42.1315 141.662 42.3303C141.014 42.2576 140.458 42.1954 139.819 42.0234C139.727 42.013 139.727 42.013 139.634 42.0026L139.542 41.9922C134.921 41.374 130.29 40.8552 125.65 40.4357C125.567 40.326 125.475 40.3156 125.372 40.4046C124.724 40.332 124.076 40.2593 123.428 40.1867C123.437 40.0873 123.16 40.0562 123.15 40.1555C120.094 39.8131 117.121 39.5804 114.065 39.238C113.972 39.2276 113.787 39.2069 113.787 39.2069C113.046 39.1238 112.305 39.0408 111.564 38.9578C111.471 38.9474 111.379 38.9371 111.277 39.026C110.716 38.0591 110.053 37.1811 109.288 36.3922C121.517 38.6666 133.639 40.1253 145.858 40.5904ZM94.8702 34.4753C93.988 34.8787 93.096 35.3815 92.2869 35.9941C92.2138 35.785 92.1309 35.6752 91.9555 35.5551L91.8629 35.5447C92.1797 35.1784 91.8775 34.4413 91.4047 34.4888C90.5615 34.4948 89.7182 34.5007 88.875 34.5067C88.7824 34.4963 88.5972 34.4756 88.5046 34.4652C88.2852 33.8379 88.0562 33.3099 87.8271 32.7819C87.8271 32.7819 87.8368 32.6826 87.9294 32.6929C90.0204 33.3291 92.4721 34.1061 94.8702 34.4753ZM90.3226 22.6136C89.65 25.6525 89.3283 28.9317 89.5915 31.975C89.1382 31.8238 88.6752 31.7719 88.2219 31.6206L88.1293 31.6103C88.3486 30.3288 88.2998 28.9169 88.334 27.6148C88.4071 25.9151 88.5825 24.1265 88.4704 22.4061C89.1187 22.4787 89.6743 22.541 90.3226 22.6136ZM87.9148 22.3438C87.6857 23.7246 87.7247 25.2359 87.5785 26.7264C87.5054 28.4261 87.2275 30.3037 87.3397 32.0241C87.018 31.4857 86.7986 30.8584 86.4672 30.4194C86.4769 30.32 86.4769 30.32 86.4867 30.2207C86.3697 27.5956 86.5305 25.0016 86.7011 22.3083C87.1739 22.2608 87.5443 22.3023 87.9148 22.3438ZM86.3307 22.2668C85.8287 24.5211 85.6776 27.0157 85.9164 29.3531C85.6678 29.0238 85.3266 28.6842 85.078 28.355C85.0927 27.2516 85.0049 26.2371 85.0196 25.1337C85.0244 24.1296 85.1219 23.1359 85.2194 22.1423C85.4972 22.1734 85.8676 22.2149 86.3307 22.2668ZM84.4785 22.0592C84.1178 23.8271 84.0057 25.9242 84.2933 27.7648C83.9424 27.5245 83.684 27.2947 83.3234 27.1538C83.299 26.4478 83.2649 25.8412 83.2405 25.1353C83.2454 24.1312 83.3526 23.0382 83.4501 22.0445C83.7377 21.9762 84.1081 22.0177 84.4785 22.0592ZM82.8944 21.9822C82.4704 23.4416 82.3778 25.34 82.602 26.872C82.1487 26.7208 81.6125 26.4598 80.9643 26.3871C81.0228 25.7909 81.0813 25.1947 81.1397 24.5985C81.2275 23.7042 81.3152 22.8099 81.4029 21.9155C81.8757 21.8681 82.3388 21.9199 82.8944 21.9822ZM79.9212 21.7495C80.1064 21.7703 80.2916 21.791 80.4769 21.8118C80.3891 22.7061 80.3014 23.6004 80.2234 24.3954C80.1649 24.9916 80.1064 25.5878 80.0479 26.184C79.6775 26.1425 79.3071 26.101 78.844 26.0491C78.844 26.0491 78.844 26.0491 78.8538 25.9497C78.961 24.8567 79.0682 23.7636 79.1657 22.7699C79.1755 22.6706 79.1755 22.6706 79.1852 22.5712C79.5751 22.414 79.7896 22.1366 79.9212 21.7495ZM64.8066 48.8882C58.3045 48.3606 52.2996 46.5826 46.5335 43.3245C40.7674 40.0665 32.0232 33.7622 33.7584 25.6184C35.5861 17.485 45.3051 15.7611 51.7 17.3818C57.817 18.9713 62.9739 23.6681 65.9763 29.3289C66.3809 29.977 66.9268 30.1387 67.502 30.0022C67.0828 30.4575 66.7465 31.0226 66.4102 31.5877C63.2907 36.663 64.3241 43.3088 65.5377 49.0706C65.3623 48.9505 65.0844 48.9193 64.8066 48.8882ZM66.1811 40.6035C65.8448 33.5335 69.6319 28.3321 76.2413 27.7667C79.4484 27.5233 83.7084 28.0006 85.3413 31.3983C86.589 33.9492 87.4469 36.6573 88.4997 39.2868C88.7922 40.1233 89.7475 39.9289 90.0009 39.2541C90.0935 39.2645 90.2788 39.2852 90.3909 39.0969C91.2097 38.3849 92.1114 37.7827 93.0131 37.1805C93.2081 37.1019 93.3007 37.1123 93.4957 37.0337C93.598 36.9447 93.7004 36.8557 93.8028 36.7667C95.3917 35.8397 97.044 35.2212 98.7597 34.9111C99.7882 34.9259 100.826 34.8413 101.782 34.6469C103.931 34.6869 106.012 35.4224 107.933 36.8431C115.605 42.6253 109.668 51.6044 104.604 56.4618C96.4495 64.1877 85.4632 69.2858 75.6906 74.4193C75.7003 74.3199 75.6272 74.1108 75.637 74.0115C70.9334 63.7397 66.6539 52.0086 66.1811 40.6035ZM45.744 108.636C46.8651 99.1175 49.7164 90.0941 54.0836 81.8434C56.4573 77.6891 59.3574 73.8952 62.5987 70.4408C64.173 68.7085 65.9228 67.0962 67.7555 65.5938C68.472 64.9708 69.0959 64.3375 69.5443 63.584C70.8506 67.4475 72.3518 71.2323 73.9554 74.9281C74.1114 75.247 74.2868 75.3671 74.5647 75.3982C74.5062 75.9944 75.0862 76.7626 75.7735 76.4378C83.0018 72.4256 90.2301 68.4134 97.2196 63.9726C97.6193 63.716 98.0189 63.4594 98.4186 63.2028C98.4089 63.3022 98.4917 63.412 98.482 63.5113C101.309 72.8696 101.85 81.6703 98.8671 91.0808C96.279 99.33 91.4828 108.135 84.7224 113.104C79.0685 117.293 72.0107 118.612 65.2649 118.659C62.8279 118.688 60.2153 118.596 57.6321 118.206C58.5435 111.778 59.6402 105.371 61.0049 99.0945C61.0147 98.9952 60.8392 98.875 60.8197 99.0738C59.5183 103.75 58.2364 108.228 57.3055 112.945C56.9545 114.614 56.6962 116.293 56.3453 117.961C55.5216 117.769 54.6052 117.565 53.7815 117.373C55.5118 104.507 58.1097 90.4319 65.7571 80.2381C65.8595 80.1491 65.6938 79.9296 65.5817 80.1179C61.619 85.1993 58.6751 90.3947 56.5597 96.6877C54.4248 103.179 53.2063 109.874 52.2559 116.699C52.2461 116.799 52.2364 116.898 52.2266 116.998C51.5979 116.726 50.9594 116.554 50.2477 116.173C51.1641 112.559 51.5345 108.783 52.2656 105.148C53.1771 100.628 54.264 96.2295 55.7213 91.8721C58.3728 83.9314 62.7839 76.1879 68.6767 70.5191C68.7791 70.4301 68.706 70.221 68.511 70.2996C62.2331 75.1215 58.0122 81.8817 54.9268 89.4724C53.3233 93.4117 52.2656 97.5125 51.1982 101.713C50.1112 106.112 49.0048 110.709 48.5564 115.28C47.2258 114.528 46.0999 113.599 44.9934 112.47C45.0032 112.371 45.0958 112.381 45.1055 112.282C45.3882 111.309 45.3736 110.503 45.2664 109.688C45.2859 109.489 45.3151 109.191 45.3346 108.992C45.5198 109.013 45.7245 108.835 45.744 108.636ZM51.189 321.319C51.0963 321.309 51.0963 321.309 51.0037 321.299C49.7462 320.756 48.5813 320.223 47.3335 319.581C49.0443 320.275 50.7552 320.969 52.4757 321.564C52.1053 321.522 51.6423 321.471 51.189 321.319ZM116.405 337.97L116.497 337.98C117.424 338.084 118.35 338.188 119.285 338.192L119.368 338.302C118.442 338.198 117.423 338.084 116.405 337.97ZM213.638 157.085C210.007 174.058 208.404 191.358 207.171 208.7C206.444 218.966 205.913 229.154 205.094 239.41C204.68 244.587 204.183 249.655 203.676 254.822C203.037 260.376 201.785 281.735 200.917 286.761C199.762 293.764 197.876 300.585 195.351 307.234C194.084 310.608 192.548 313.852 190.828 317.075C190.652 316.955 190.282 316.913 190.15 317.3C187.738 321.852 184.53 325.913 180.846 329.117C180.763 329.007 180.587 328.887 180.495 328.876C180.402 328.866 180.402 328.866 180.309 328.856C180.124 328.835 180.022 328.924 179.91 329.112L179.798 329.3C179.686 329.489 179.749 329.797 179.924 329.917C178.092 331.42 176.084 332.802 174.002 333.976C172.145 334.772 170.215 335.359 168.212 335.738C167.257 335.932 166.301 336.126 165.263 336.211C164.327 336.207 163.391 336.202 162.456 336.198C156.192 336.099 150.041 335.811 143.797 335.514C131.948 335.09 120.173 334.876 108.47 332.962C96.5817 331.027 84.7912 328.098 72.9617 325.567C63.4279 323.494 53.6065 321.49 44.76 317.183C45.3254 317.146 45.8761 316.304 45.379 315.645C39.2083 306.013 40.3293 294.585 41.2261 283.535C42.4641 269.006 43.322 254.535 44.4576 240.096C44.4673 239.996 44.2821 239.976 44.2724 240.075C42.7371 254.771 40.9142 269.536 39.4715 284.242C38.4089 295.073 37.244 307.902 44.1312 316.912C44.1312 316.912 44.1312 316.912 44.2141 317.022C43.0589 316.39 41.894 315.857 40.656 315.116C28.1879 308.595 25.7167 285.112 27.4567 272.147C29.4063 257.999 33.0082 222.237 33.1398 218.032C33.3201 213.331 33.5102 208.53 33.7929 203.74C34.3973 193.761 35.3721 183.824 36.9025 173.95C38.3453 164.969 40.056 156.12 40.8603 146.967C41.7522 136.921 42.264 126.932 44.5353 117.14C46.6214 118.781 49.117 120.065 51.6613 120.852C50.8717 126.992 50.2673 133.153 49.5703 139.304C49.1999 143.08 48.8295 146.856 48.5516 150.642C48.2446 154.727 47.4452 159.057 48.1666 163.157C48.2397 163.366 48.5078 163.496 48.6297 163.208C49.4582 160.488 49.6288 157.795 49.8189 154.903C50.1357 150.719 50.5354 146.645 50.9448 142.471C51.6369 135.416 52.4314 128.272 53.3087 121.238C54.1324 121.43 54.9562 121.623 55.7799 121.816C55.4826 123.892 55.1853 125.969 54.8977 127.946C54.3664 132.407 53.918 136.978 53.6646 141.47C53.3526 146.559 52.9286 151.836 53.7475 156.85C53.8108 157.159 54.191 157.101 54.2203 156.803C54.966 152.064 54.888 147.133 55.1707 142.342C55.4826 137.254 55.97 132.285 56.5598 127.228C56.7352 125.439 57.0033 123.661 57.1788 121.872C57.9196 121.955 58.5679 122.028 59.3088 122.111C68.0237 122.987 76.9628 121.578 84.7225 116.922C92.8817 112.009 97.8874 102.022 101.212 92.9509C104.029 85.2296 105.428 75.7421 103.327 67.5703C106.276 70.9146 109.878 73.3274 113.592 75.5519C118.802 78.7477 124.227 81.6662 129.945 83.5123C138.114 86.1355 151.079 89.497 152.512 76.7986C152.946 73.3311 152.127 70.2255 150.621 67.4447C152.029 67.4016 153.448 67.2592 154.534 66.6778C164.21 68.2642 173.987 69.7616 183.721 70.7518C186.684 71.0839 189.657 71.3165 192.723 71.5596C192.704 71.7584 192.694 71.8577 192.86 72.0772C195.341 74.4649 197.329 77.0988 199.001 80.099C200.434 82.6706 200.936 86.1426 202.686 88.3479C202.852 88.5673 203.149 88.3997 203.169 88.201C203.666 85.042 201.331 81.1638 199.796 78.6811C198.27 76.0991 196.252 73.7633 194.103 71.8146C195.584 71.9807 197.076 72.0473 198.475 72.1036C199.308 72.197 200.234 72.3008 201.253 72.4149C208.681 84.4989 214.959 100.673 216.733 115.037C218.517 129.302 216.1 142.492 213.326 156.447C213.268 157.043 213.536 157.174 213.638 157.085Z" fill="#EEEEEE"/>
<path d="M69.9386 33.792C69.7778 34.4772 69.5341 35.0527 69.3732 35.7379C69.2319 36.2243 69.071 36.9096 69.3099 37.3382C69.3001 37.4375 69.3927 37.4479 69.4951 37.3589C69.9873 37.1127 70.1384 36.5269 70.3724 36.0508C70.6258 35.3759 70.8695 34.8004 71.0304 34.1152C71.2936 33.341 70.2018 33.0178 69.9386 33.792Z" fill="#EEEEEE"/>
<path d="M75.3489 30.1791C74.7104 30.0071 74.2912 30.4624 73.7892 30.8079C73.3895 31.0645 73.1653 31.4412 72.8485 31.8076C72.6438 31.9855 72.79 32.4037 73.0776 32.3355C73.5601 32.1887 74.0426 32.0418 74.5349 31.7956C75.0272 31.5494 75.5194 31.3032 75.5779 30.707C75.6072 30.4089 75.5243 30.2992 75.3489 30.1791Z" fill="#EEEEEE"/>
<path d="M81.1101 30.6236C80.5642 30.4618 79.916 30.3892 79.3603 30.3269C79.0825 30.2958 78.7949 30.3641 78.517 30.333C78.2392 30.3019 78.1271 30.4905 77.8493 30.4593C77.664 30.4386 77.5421 30.7267 77.82 30.7578C78.1904 30.7993 78.6144 31.2491 78.9751 31.3901C79.6039 31.6617 80.3447 31.7447 80.9832 31.9169C81.6315 31.9895 81.851 30.7066 81.1101 30.6236Z" fill="#EEEEEE"/>
<path d="M84.9315 35.5724C84.7853 35.1541 84.5367 34.8249 84.2978 34.3963C84.1321 34.1768 83.9566 34.0567 83.7909 33.8372C83.6154 33.717 83.4302 33.6963 83.2645 33.4768C83.1816 33.367 82.9769 33.545 82.9672 33.6444C82.9574 33.7438 83.0013 34.251 82.9915 34.3504C82.972 34.5491 83.1378 34.7686 83.2109 34.9777C83.3571 35.396 83.596 35.8246 83.8445 36.1538C84.2394 36.9013 85.2337 36.3095 84.9315 35.5724Z" fill="#EEEEEE"/>
<path d="M87.656 43.1107C87.0224 41.9347 86.7056 40.3923 85.9696 39.3053C85.8867 39.1955 85.6089 39.1644 85.5894 39.3631C85.1654 40.8225 85.8429 42.5057 86.4667 43.7811C86.9444 44.6383 88.1337 43.9679 87.656 43.1107Z" fill="#EEEEEE"/>
<path d="M92.1257 40.4971C91.531 40.8324 91.0192 41.2774 90.4246 41.6126C90.0249 41.8692 89.5229 42.2148 89.1963 42.6806C89.0745 42.9683 89.1281 43.3762 89.5083 43.3184C90.176 43.1923 90.6781 42.8466 91.2727 42.5114C91.7747 42.1658 92.267 41.9195 92.769 41.5739C93.2711 41.2283 92.7203 40.1619 92.1257 40.4971Z" fill="#EEEEEE"/>
<path d="M97.9502 37.4329C97.4579 37.6791 96.9754 37.826 96.5757 38.0826C95.981 38.4178 95.479 38.7634 94.8746 39.198C94.7722 39.287 94.8356 39.5955 94.938 39.5065C95.4205 39.3596 95.8933 39.3121 96.3661 39.2646C97.0339 39.1385 97.6285 38.8033 98.2134 38.5675C98.891 38.342 98.6277 37.2074 97.9502 37.4329Z" fill="#EEEEEE"/>
<path d="M104.067 37.1138C103.551 36.6541 102.8 36.6704 102.152 36.5978C101.781 36.5563 101.503 36.5252 101.123 36.583C100.753 36.5415 100.455 36.7091 100.075 36.767C99.8901 36.7462 99.8706 36.9449 100.046 37.0651C100.222 37.1852 100.572 37.4254 100.748 37.5455C101.099 37.7858 101.562 37.8377 101.923 37.9785C102.561 38.1505 103.282 38.4323 103.877 38.0971C104.277 37.8405 104.325 37.3437 104.067 37.1138Z" fill="#EEEEEE"/>
<path d="M107.932 38.7524C107.499 38.4024 107.026 38.4499 106.543 38.5968C106.348 38.6754 106.319 38.9735 106.607 38.9053C106.792 38.926 106.894 38.837 106.967 39.0461C107.123 39.365 107.289 39.5845 107.445 39.9034C107.684 40.332 107.718 40.9386 108.162 41.1892C108.337 41.3093 108.532 41.2307 108.634 41.1417C109.185 40.2993 108.449 39.2122 107.932 38.7524Z" fill="#EEEEEE"/>
<path d="M69.7778 40.2034C69.8363 39.6072 69.0954 39.5242 68.7785 39.8905C68.1887 41.1304 67.8281 42.8983 68.0718 44.2316C68.179 45.0473 69.2367 44.764 69.305 44.0684C69.3732 43.3728 69.3488 42.6669 69.4171 41.9713C69.4756 41.3751 69.7193 40.7996 69.7778 40.2034Z" fill="#EEEEEE"/>
<path d="M70.66 49.3437C70.5625 48.4286 70.3724 47.5032 69.8948 46.646C69.8119 46.5362 69.6169 46.6148 69.6072 46.7142C69.3342 47.5878 69.3489 48.3931 69.4561 49.2088C69.5633 50.0245 69.4756 50.9188 70.0751 51.4883C70.2506 51.6084 70.5284 51.6396 70.6503 51.3518C70.9866 50.7868 70.777 50.06 70.66 49.3437Z" fill="#EEEEEE"/>
<path d="M73.1117 55.8471C72.8826 55.3192 72.6438 54.8906 72.4049 54.462C72.2392 54.2425 71.9809 54.0126 71.8152 53.7931C71.7323 53.6834 71.5374 53.762 71.6202 53.8718C71.6738 54.2796 71.6348 54.6771 71.7811 55.0953C71.9273 55.5135 71.9809 55.9214 72.1271 56.3396C72.3367 57.0663 72.6194 58.0021 73.1361 58.4618C73.3944 58.6917 73.7843 58.5345 73.8233 58.137C73.9013 57.3421 73.3213 56.5738 73.1117 55.8471Z" fill="#EEEEEE"/>
<path d="M75.851 64.191C75.6219 63.663 75.3831 63.2344 75.0517 62.7954C74.8957 62.4765 74.73 62.257 74.574 61.9381C74.4083 61.7186 74.1597 61.3894 74.0866 61.1803C74.0134 60.9711 73.7259 61.0394 73.799 61.2485C73.8623 61.557 73.7502 61.7454 73.8136 62.0539C73.8672 62.4617 73.9208 62.8696 74.0671 63.2878C74.2035 63.8055 74.4326 64.3335 74.6715 64.7621C75.0663 65.5096 76.2458 64.9385 75.851 64.191Z" fill="#EEEEEE"/>
<path d="M78.215 69.6798C78.2247 69.5804 78.1419 69.4706 77.9566 69.4499C77.864 69.4395 77.864 69.4395 77.7714 69.4291C77.6983 69.22 77.6154 69.1103 77.4497 68.8908C77.2937 68.5719 77.128 68.3524 76.972 68.0335C76.8892 67.9238 76.7039 67.903 76.6308 67.6939C76.5577 67.4848 76.353 67.6628 76.3432 67.7622C76.4164 67.9713 76.314 68.0603 76.3042 68.1596C76.3676 68.4681 76.3481 68.6669 76.4212 68.876C76.5577 69.3936 76.7039 69.8118 76.933 70.3398C77.0793 70.7581 77.6349 70.8203 77.8591 70.4436C78.1565 70.276 78.176 70.0772 78.215 69.6798Z" fill="#EEEEEE"/>
<path d="M83.3766 65.7374C81.89 66.5755 80.1256 67.3824 78.8876 68.5497C78.5708 68.916 78.9948 69.3654 79.2921 69.1978C80.925 68.778 82.4506 67.5424 83.9371 66.7044C84.6146 66.4789 84.0639 65.4126 83.3766 65.7374Z" fill="#EEEEEE"/>
<path d="M89.6643 62.7247C88.3726 63.4842 86.9153 64.0242 85.8624 65.2123C85.7601 65.3013 85.8332 65.5104 86.0184 65.5312C87.5294 65.3991 88.7382 64.5298 90.1127 63.8801C90.8 63.5553 90.3613 62.3005 89.6643 62.7247Z" fill="#EEEEEE"/>
<path d="M95.7081 60.2878C95.7374 59.9897 95.4888 59.6605 95.1184 59.619C95.0257 59.6086 94.9234 59.6976 94.9234 59.6976C94.6797 60.2731 94.0022 60.4985 93.5099 60.7448C93.3149 60.8234 93.0176 60.991 92.8226 61.0696C92.5253 61.2372 92.3011 61.614 92.0038 61.7816C91.8088 61.8602 91.9746 62.0797 92.1598 62.1004C92.3547 62.0218 92.5302 62.1419 92.7252 62.0633C93.0127 61.9951 93.3003 61.9268 93.5879 61.8586C94.0704 61.7117 94.6553 61.4759 95.055 61.2193C95.3426 61.151 95.6594 60.7847 95.7081 60.2878Z" fill="#EEEEEE"/>
<path d="M100.714 56.0266C100.724 55.9272 100.548 55.8071 100.456 55.7967C100.168 55.865 99.8901 55.8338 99.6757 56.1112C99.4612 56.3886 99.2565 56.5666 99.042 56.8439C98.5205 57.3883 97.8333 57.7131 97.2191 58.2471C97.1168 58.3361 97.1899 58.5452 97.3654 58.6654C98.1062 58.7484 98.8763 58.5333 99.4807 58.0987C99.7878 57.8317 100.095 57.5647 100.402 57.2977C100.728 56.832 100.748 56.6332 100.714 56.0266Z" fill="#EEEEEE"/>
<path d="M105.651 50.5521C105.037 51.086 104.599 51.7401 103.984 52.274C103.78 52.452 103.473 52.719 103.268 52.897C103.063 53.0749 102.941 53.3627 102.839 53.4517C102.737 53.5406 102.81 53.7497 102.902 53.7601C103.097 53.6815 103.365 53.812 103.56 53.7334C104.033 53.6859 104.433 53.4293 104.833 53.1727C105.53 52.7485 106.246 52.1256 106.602 51.3618C106.948 50.6974 106.153 50.2065 105.651 50.5521Z" fill="#EEEEEE"/>
<path d="M109.95 42.997C109.785 42.7775 109.517 42.647 109.219 42.8146L109.127 42.8043C109.024 42.8933 108.922 42.9822 108.902 43.181C108.834 43.8766 108.673 44.5618 108.42 45.2366C108.308 45.425 107.825 47.4806 107.825 47.4806C107.733 47.4702 107.63 47.5592 107.621 47.6585L107.611 47.7579C107.601 47.8573 107.694 47.8677 107.786 47.878C108.703 48.0812 109.024 46.7108 109.37 46.0463C109.736 45.1831 110.613 43.875 109.95 42.997Z" fill="#EEEEEE"/>
<path d="M51.7051 312.236C51.5199 312.215 51.2616 311.985 51.1885 311.776C50.9301 311.546 50.5792 311.306 50.3209 311.076C49.7214 310.507 49.3168 309.858 49.0341 308.923C48.7417 308.086 49.3363 305.842 48.0008 306.094C47.7133 306.163 47.4988 306.44 47.4793 306.639C47.0553 308.098 47.5573 309.661 48.3761 310.858C48.7807 311.506 49.3899 311.976 50.1016 312.358C50.7206 312.728 51.1202 312.472 51.7685 312.544C51.9342 312.764 51.9732 312.366 51.7051 312.236Z" fill="#EEEEEE"/>
<path d="M65.8401 301.764C62.1065 299.739 55.6239 300.921 52.1486 302.943C51.8513 303.11 51.9877 303.628 52.3679 303.57C54.5759 303.014 56.701 302.348 59.065 302.11C61.3364 301.862 63.6126 302.519 65.8937 302.172C65.9766 302.282 66.0155 301.884 65.8401 301.764Z" fill="#EEEEEE"/>
<path d="M100.364 303.925C98.2823 303.189 96.0402 303.139 93.8078 302.989C91.0296 302.678 88.149 302.456 85.361 302.244C82.4804 302.021 79.6095 301.7 76.8215 301.488C74.6818 301.348 72.9125 301.251 70.8702 302.026C70.7679 302.115 70.7581 302.215 70.9433 302.236C73.5022 301.92 76.1684 302.419 78.7614 302.71C81.5397 303.021 84.4203 303.243 87.1985 303.555C91.4683 303.933 96.2254 305.069 100.5 304.442C100.51 304.343 100.539 304.045 100.364 303.925Z" fill="#EEEEEE"/>
<path d="M117.019 304.987C115.391 304.403 113.499 304.593 111.73 304.495C109.683 304.366 107.626 304.337 105.55 304.506C105.364 304.486 105.428 304.794 105.52 304.805C107.538 305.232 109.493 305.35 111.54 305.479C113.309 305.577 115.142 305.983 116.867 305.574C117.257 305.416 117.296 305.019 117.019 304.987Z" fill="#EEEEEE"/>
<path d="M63.8953 316.816C62.5452 316.263 61.0635 316.097 59.6841 315.842C58.0366 315.457 56.3989 314.972 54.7612 314.487C54.3079 314.336 54.1373 315.12 54.4883 315.36C57.1788 316.566 60.888 317.886 63.8076 317.71C64.0952 317.642 64.3389 317.067 63.8953 316.816Z" fill="#EEEEEE"/>
<path d="M103.878 326.32C101.27 325.224 98.1849 325.179 95.509 324.779C92.7405 324.368 89.9818 323.858 87.2328 323.249C81.0767 322.057 75.0718 320.279 68.8963 319.285C68.6185 319.254 68.5795 319.652 68.7647 319.673C74.3505 321.906 80.331 322.978 86.1068 324.228C89.2263 324.879 92.2628 325.42 95.392 325.972C98.0679 326.372 101.075 327.211 103.727 326.905C104.2 326.858 104.239 326.46 103.878 326.32Z" fill="#EEEEEE"/>
<path d="M124.715 328.655C122.541 327.908 120.104 327.937 117.881 327.688C115.288 327.397 112.695 327.107 110.073 327.115C109.795 327.083 109.839 327.591 110.024 327.612C112.588 328.201 115.181 328.491 117.774 328.782C119.997 329.031 122.375 329.599 124.647 329.351C124.934 329.282 124.983 328.785 124.715 328.655Z" fill="#EEEEEE"/>
<path d="M71.9714 134.28C66.2053 131.022 55.9112 132.882 50.4375 136.187C49.9453 136.433 50.2377 137.269 50.7202 137.123C54.2637 136.314 57.5489 135.276 61.146 134.875C64.743 134.474 68.2963 135.475 71.8008 135.064C72.1809 135.006 72.2394 134.41 71.9714 134.28Z" fill="#EEEEEE"/>
<path d="M68.9007 157.946C66.839 157.012 64.4214 156.841 62.2183 156.393C59.5619 155.794 57.0176 155.007 54.4636 154.319C53.7325 154.136 53.4303 155.308 54.1419 155.689C58.358 157.568 64.1387 159.723 68.6716 159.327C69.2468 159.19 69.5295 158.217 68.9007 157.946Z" fill="#EEEEEE"/>
<path d="M131.587 172.705C127.537 171.046 122.672 171.003 118.432 170.327C114.099 169.641 109.775 168.855 105.462 167.97C95.9083 166.095 86.4525 163.228 76.7773 161.641C76.4069 161.6 76.2558 162.185 76.6165 162.326C85.2632 165.807 94.7336 167.571 103.814 169.493C108.674 170.54 113.46 171.377 118.339 172.225C122.58 172.902 127.225 174.226 131.499 173.6C131.972 173.552 132.03 172.956 131.587 172.705Z" fill="#EEEEEE"/>
<path d="M42.4148 191.245C42.4343 191.046 42.1564 191.015 42.1369 191.214C41.0549 206.061 39.3052 221.034 37.5749 235.809C36.7707 243.053 35.8739 250.286 34.8844 257.509C34.319 261.363 33.856 265.129 33.2906 268.983C32.9056 271.954 31.5993 275.726 32.4377 278.632C32.501 278.941 33.0469 279.103 33.2711 278.726C34.8016 276.486 34.6798 272.957 35.0356 270.284C35.5912 266.529 36.0542 262.763 36.6196 258.909C37.5554 251.278 38.4912 243.647 39.2321 236.095C40.6943 221.19 41.5082 206.212 42.4148 191.245Z" fill="#EEEEEE"/>
<path d="M40.2899 312.162C39.2517 310.338 37.9162 308.681 36.9706 306.868C35.7131 304.416 34.9673 301.52 34.5823 298.764C33.7634 293.75 34.5384 288.713 34.1826 283.751C34.129 283.343 33.6562 283.39 33.6269 283.688C32.3499 289.071 32.3109 295.194 33.0908 300.606C33.7098 304.794 35.7277 310.948 39.4613 312.973C39.8951 313.323 40.6018 312.8 40.2899 312.162Z" fill="#EEEEEE"/>
<path d="M51.5443 316.739C47.4159 313.966 46.4216 308.831 45.7782 303.937C45.164 298.745 45.5783 293.567 45.9 288.379C46.6701 276.711 47.0795 264.903 47.9422 253.246C47.9617 253.047 47.6839 253.016 47.6644 253.215C46.6116 265.855 45.0129 278.334 44.0527 290.985C43.5994 296.56 43.5068 302.276 44.5548 307.818C45.3054 311.619 46.8652 316.717 50.667 318.047C51.481 318.339 52.3388 317.23 51.5443 316.739Z" fill="#EEEEEE"/>
<path d="M46.6161 127.42C46.7867 124.727 47.2351 122.064 47.3131 119.361C47.3228 119.261 47.1376 119.241 47.1279 119.34C46.309 121.961 46.0458 124.644 45.7729 127.426C45.5779 129.414 45.2611 131.689 45.8265 133.56C45.8996 133.769 46.1774 133.801 46.1969 133.602C46.6795 131.546 46.4211 129.408 46.6161 127.42Z" fill="#EEEEEE"/>
<path d="M44.1158 161.498C44.764 153.935 45.0418 146.331 45.5146 138.649C45.5341 138.45 45.2562 138.419 45.2367 138.618C44.5251 145.872 43.4431 153.084 42.7315 160.338C41.9907 167.89 41.2498 175.442 40.4164 182.984C40.3092 184.077 41.8737 184.353 41.981 183.26C42.6828 176.105 43.4968 168.762 44.1158 161.498Z" fill="#EEEEEE"/>
<path d="M56.8178 161.816C57.12 158.735 57.4222 155.655 57.7244 152.575C58.3677 146.016 59.2987 139.39 59.0062 132.827C59.0257 132.628 58.7479 132.597 58.7284 132.796C57.4855 138.785 57.2321 145.186 56.6374 151.247C56.3352 154.328 56.0233 157.507 55.7211 160.588C55.4189 163.668 54.7268 166.906 55.1752 169.97C55.2386 170.279 55.5164 170.31 55.6383 170.022C56.4474 167.501 56.5546 164.499 56.8178 161.816Z" fill="#EEEEEE"/>
<path d="M61.5651 142.055C61.6723 139.053 62.1402 136.192 62.2475 133.19C62.2865 132.793 61.7406 132.631 61.609 133.018C60.8925 135.55 60.6293 138.233 60.4587 140.926C60.215 143.411 59.7179 146.57 60.6049 148.98C60.6781 149.189 61.0485 149.23 61.1606 149.042C61.7455 146.897 61.4335 144.351 61.5651 142.055Z" fill="#EEEEEE"/>
<path d="M65.6253 134.071C65.6838 133.475 64.8503 133.381 64.7918 133.978C64.1435 137.722 63.661 141.687 63.8462 145.525C63.817 145.823 64.2898 145.776 64.3093 145.577C65.3182 141.973 65.5229 137.977 65.6253 134.071Z" fill="#EEEEEE"/>
</svg>
