<svg width="249" height="477" fill="none" xmlns="http://www.w3.org/2000/svg"><path d="M95.296 2.268a1 1 0 0 0 1.109 1.665l-1.109-1.665zm152.316 223.405l.996-.093-.996.093zM.439 466.866a1 1 0 0 0-.267 1.389l5.047 7.451a1 1 0 1 0 1.656-1.121l-4.486-6.624 6.623-4.486a1 1 0 0 0-1.121-1.656l-7.452 5.047zm7.603 2.818a1 1 0 1 0 .178-1.992l-.178 1.992zm14.411-1.972a1 1 0 0 0 .157 1.994l-.157-1.994zm14.596-.129a1 1 0 1 0-.413-1.957l.413 1.957zm13.416-5.635a1 1 0 1 0 .606 1.905l-.606-1.905zm14.241-3.072a1 1 0 0 0-.759-1.851l.76 1.851zm12.368-7.77a1 1 0 1 0 .882 1.795l-.882-1.795zm13.708-4.973a1.001 1.001 0 0 0-.982-1.742l.982 1.742zm11.355-9.121a1 1 0 1 0 1.068 1.691l-1.068-1.691zm13.131-6.324a1 1 0 1 0-1.144-1.64l1.144 1.64zm10.498-10.12a1 1 0 1 0 1.21 1.592l-1.21-1.592zm12.567-7.398a1 1 0 1 0-1.271-1.544l1.271 1.544zm9.68-10.91a1 1 0 0 0 1.327 1.496l-1.327-1.496zm11.981-8.313a1 1 0 1 0-1.381-1.446l1.381 1.446zm8.86-11.581a1 1 0 0 0 1.432 1.397l-1.432-1.397zm11.35-9.151a1 1 0 1 0-1.482-1.343l1.482 1.343zm7.991-12.189a1 1 0 0 0 1.531 1.287l-1.531-1.287zm10.637-9.976a.999.999 0 1 0-1.58-1.227l1.58 1.227zm7.022-12.785a1 1 0 1 0 1.629 1.161l-1.629-1.161zm9.773-10.83a1 1 0 0 0-1.679-1.086l1.679 1.086zm5.84-13.366a1 1 0 1 0 1.731 1.001l-1.731-1.001zm8.64-11.744a1 1 0 1 0-1.785-.902l1.785.902zm4.289-13.915a1 1 0 1 0 1.839.786l-1.839-.786zm7.042-12.755a1 1 0 1 0-1.894-.644l1.894.644zm2.128-14.445a1 1 0 1 0 1.945.468l-1.945-.468zm4.58-13.821a1 1 0 1 0-1.984-.249l1.984.249zm-1.154-14.518a1 1 0 1 0 1.999-.026l-1.999.026zm.854-14.546a1 1 0 1 0-1.987.231l1.987-.231zm-3.971-14.059a1 1 0 1 0 1.974-.319l-1.974.319zm-.662-14.593a1 1 0 1 0-1.958.407l1.958-.407zm-5.209-13.646a1 1 0 1 0 1.938-.494l-1.938.494zm-1.962-14.469a1 1 0 0 0-1.914.581l1.914-.581zm-6.407-13.118a1 1 0 0 0 1.886-.665l-1.886.665zm-3.259-14.261a1 1 0 0 0-1.855.75l1.855-.75zm-7.568-12.512a.999.999 0 1 0 1.818-.832l-1.818.832zm-4.522-13.893a1 1 0 0 0-1.779.914l1.779-.914zm-8.654-11.75a1 1 0 0 0 1.735-.993l-1.735.994zm-5.78-13.433a1 1 0 0 0-1.687 1.074l1.687-1.074zm-9.728-10.918a1 1 0 0 0 1.634-1.154l-1.634 1.154zm-7.009-12.779a1 1 0 0 0-1.575 1.233l1.575-1.233zm-10.789-9.916a1 1 0 0 0 1.507-1.315l-1.507 1.315zm-8.334-11.966a1 1 0 1 0-1.428 1.4l1.428-1.4zm-11.849-8.573a1 1 0 1 0 1.333-1.49l-1.333 1.49zm-9.891-10.776a1.001 1.001 0 0 0-1.21 1.592l1.21-1.592zM129.19 11.16a1 1 0 0 0 1.032-1.713l-1.032 1.713zm-12.068-8.265a1 1 0 0 0-.719 1.867l.719-1.867zm-14.396-.866a1 1 0 1 0-.112-1.997l.112 1.997zM.811 468.676a72.33 72.33 0 0 0 7.23 1.008l.179-1.992a70.402 70.402 0 0 1-7.031-.98l-.378 1.964zm21.8 1.03c4.7-.37 9.522-1.086 14.438-2.123l-.413-1.957c-4.84 1.021-9.576 1.723-14.183 2.086l.157 1.994zm28.46-5.853a179.723 179.723 0 0 0 13.635-4.977l-.759-1.851a178.054 178.054 0 0 1-13.482 4.923l.606 1.905zm26.885-10.952c4.26-2.091 8.54-4.352 12.826-6.768l-.982-1.742a252.278 252.278 0 0 1-12.726 6.715l.882 1.795zm25.249-14.198a320.496 320.496 0 0 0 12.063-8.015l-1.144-1.64a320.11 320.11 0 0 1-11.987 7.964l1.068 1.691zm23.771-16.543a373.75 373.75 0 0 0 11.357-8.99l-1.271-1.544a373.473 373.473 0 0 1-11.296 8.942l1.21 1.592zm22.364-18.404a399.05 399.05 0 0 0 10.654-9.809l-1.381-1.446a398.215 398.215 0 0 1-10.6 9.759l1.327 1.496zm20.946-19.993a400.723 400.723 0 0 0 9.918-10.548l-1.482-1.343a396.563 396.563 0 0 1-9.868 10.494l1.432 1.397zm19.44-21.45a371.505 371.505 0 0 0 9.106-11.263l-1.58-1.227a370.01 370.01 0 0 1-9.057 11.203l1.531 1.287zm17.757-22.887a322.919 322.919 0 0 0 8.144-11.991l-1.679-1.086a320.979 320.979 0 0 1-8.094 11.916l1.629 1.161zm15.715-24.356a258.169 258.169 0 0 0 6.909-12.745l-1.785-.902a257.256 257.256 0 0 1-6.855 12.646l1.731 1.001zm13.037-25.874a191.17 191.17 0 0 0 5.203-13.541l-1.894-.644a188.946 188.946 0 0 1-5.148 13.399l1.839.786zm9.276-27.518c1.161-4.824 2.047-9.594 2.635-14.289l-1.984-.249c-.578 4.616-1.45 9.312-2.596 14.07l1.945.468zm3.48-28.833a90.607 90.607 0 0 0-.383-7.265l-1.992.187c.219 2.337.343 4.706.376 7.104l1.999-.026zm-.383-7.265a334.92 334.92 0 0 0-.762-7.255l-1.987.231c.278 2.388.53 4.792.757 7.211l1.992-.187zm-2.759-21.633a323.41 323.41 0 0 0-2.636-14.274l-1.958.407a324.107 324.107 0 0 1 2.62 14.186l1.974-.319zm-5.907-28.414a324.318 324.318 0 0 0-3.9-13.975l-1.914.581c1.38 4.549 2.675 9.18 3.876 13.888l1.938-.494zm-8.421-27.758a324.126 324.126 0 0 0-5.145-13.596l-1.855.75a321.138 321.138 0 0 1 5.114 13.511l1.886-.665zm-10.895-26.94a319.678 319.678 0 0 0-6.34-13.061l-1.779.914a319.567 319.567 0 0 1 6.301 12.979l1.818-.832zm-13.259-25.804a312.313 312.313 0 0 0-7.515-12.44l-1.687 1.074a310.21 310.21 0 0 1 7.467 12.36l1.735-.994zm-15.609-24.512a291.332 291.332 0 0 0-8.643-11.625l-1.575 1.233c2.889 3.69 5.756 7.54 8.584 11.546l1.634-1.154zm-17.925-22.856a250.726 250.726 0 0 0-9.841-10.651l-1.428 1.4a249.006 249.006 0 0 1 9.762 10.566l1.507-1.315zm-20.357-20.715a182.549 182.549 0 0 0-11.224-9.285l-1.21 1.592c3.62 2.75 7.332 5.814 11.101 9.184l1.333-1.49zm-23.254-17.5c-4.627-2.788-9.025-4.983-13.1-6.552l-.719 1.867c3.946 1.52 8.239 3.658 12.787 6.398l1.032-1.713zM102.614.033c-2.804.157-5.282.88-7.318 2.235l1.109 1.665c1.677-1.117 3.79-1.762 6.321-1.903l-.112-1.997z" fill="#DCDCDC"/></svg>