<svg width="436" height="335" fill="none" xmlns="http://www.w3.org/2000/svg"><path d="M301.768 5.027a1 1 0 1 0 .464 1.946l-.464-1.946zM424 38l-.903.43L424 38zm-79 158.886l-.582-.813.582.813zM.287 326.185a1 1 0 0 0 .012 1.414l6.414 6.313a1 1 0 1 0 1.403-1.425l-5.702-5.612 5.612-5.701a1.001 1.001 0 0 0-1.425-1.403l-6.314 6.414zm8.497 1.547a1 1 0 0 0-.064-1.999l.064 1.999zm15.403-2.84a1 1 0 0 0 .152 1.995l-.152-1.995zm15.65.486a1 1 0 0 0-.233-1.987l.234 1.987zm15.11-4.092a1 1 0 1 0 .308 1.976l-.308-1.976zm15.64-.697a1 1 0 1 0-.377-1.964l.378 1.964zm14.795-5.135a1 1 0 0 0 .44 1.951l-.44-1.951zm15.566-1.704a1 1 0 1 0-.498-1.936l.498 1.936zm14.46-6.009a1 1 0 1 0 .552 1.922l-.552-1.922zm15.446-2.567a1 1 0 0 0-.601-1.908l.601 1.908zm14.129-6.755a1 1 0 1 0 .648 1.892l-.648-1.892zm15.303-3.318a1 1 0 0 0-.692-1.877l.692 1.877zm13.797-7.396a1 1 0 0 0 .732 1.861l-.732-1.861zm15.144-3.982a1 1 0 1 0-.77-1.845l.77 1.845zm13.491-7.966a1 1 0 0 0 .807 1.83l-.807-1.83zm14.976-4.58a1 1 0 0 0-.841-1.814l.841 1.814zm13.16-8.466a1 1 0 1 0 .875 1.798l-.875-1.798zm14.798-5.13a1 1 0 0 0-.907-1.782l.907 1.782zm12.869-8.947a1 1 0 0 0 .939 1.766l-.939-1.766zm14.588-5.641a1 1 0 1 0-.97-1.749l.97 1.749zm12.548-9.397a1 1 0 1 0 1 1.732l-1-1.732zm14.386-6.162a1 1 0 0 0-1.032-1.714l1.032 1.714zm12.194-9.852a1 1 0 0 0 1.065 1.693l-1.065-1.693zm14.117-6.704a1 1 0 1 0-1.1-1.67l1.1 1.67zm11.735-10.344a1 1 0 0 0 1.141 1.643l-1.141-1.643zm13.229-6.994a1 1 0 0 0-1.184-1.612l1.184 1.612zm9.943-10.012a1 1 0 0 0 1.227 1.58l-1.227-1.58zm12.207-7.228a1 1 0 1 0-1.277-1.539l1.277 1.539zm9.299-10.653a1 1 0 1 0 1.335 1.489l-1.335-1.489zm11.593-8.146a1 1 0 1 0-1.404-1.424l1.404 1.424zm8.23-11.484a.999.999 0 1 0 1.486 1.338l-1.486-1.338zm10.522-9.457a.999.999 0 1 0-1.583-1.222l1.583 1.222zm6.405-12.626a1 1 0 0 0 1.694 1.063l-1.694-1.063zm8.456-11.332a1 1 0 1 0-1.815-.84l1.815.84zm3.009-13.812a.999.999 0 1 0 1.926.539l-1.926-.539zm4.467-13.405a1 1 0 0 0-1.993-.169l1.993.17zm-2.171-13.96a1 1 0 1 0 1.988-.216l-1.988.216zm-.756-14.11a1 1 0 1 0-1.924.544l1.924-.543zm-6.567-12.534a1 1 0 1 0 1.842-.778l-1.842.778zm-5.409-14.628a1 1 0 1 0-1.63 1.158l1.63-1.158zm-13.222-10.57a1 1 0 1 0 1.195-1.603l-1.195 1.604zM393.683 9.54a1 1 0 0 0-.791 1.837l.791-1.837zm-16.641-3.378a1 1 0 1 0 .472-1.944l-.472 1.944zm-16.268-4.85a1 1 0 0 0-.221 1.988l.221-1.988zm-16.958 1.025a1 1 0 0 0 .014-2l-.014 2zm-16.933-1.314a1 1 0 0 0 .173 1.992l-.173-1.992zM310.434 5.25a1 1 0 1 0-.361-1.967l.361 1.967zM1.008 327.886c2.586-.02 5.179-.072 7.776-.154l-.064-1.999c-2.581.082-5.158.133-7.728.153l.016 2zm23.331-.999c5.155-.394 10.323-.9 15.499-1.509l-.234-1.987a376.13 376.13 0 0 1-15.417 1.501l.152 1.995zm30.916-3.625a447.594 447.594 0 0 0 15.333-2.673l-.378-1.964a446.85 446.85 0 0 1-15.263 2.661l.308 1.976zm30.567-5.857a517.871 517.871 0 0 0 15.126-3.655l-.498-1.936a521.824 521.824 0 0 1-15.068 3.64l.44 1.951zm30.138-7.742a603.244 603.244 0 0 0 14.894-4.489l-.601-1.908a596.316 596.316 0 0 1-14.845 4.475l.552 1.922zm29.671-9.352a680.579 680.579 0 0 0 14.655-5.21l-.692-1.877a673.063 673.063 0 0 1-14.611 5.195l.648 1.892zm29.184-10.745a745.566 745.566 0 0 0 14.412-5.843l-.77-1.845a750.672 750.672 0 0 1-14.374 5.827l.732 1.861zm28.71-11.979a808.224 808.224 0 0 0 14.169-6.41l-.841-1.814a815.162 815.162 0 0 1-14.135 6.394l.807 1.83zm28.204-13.078a852.406 852.406 0 0 0 13.923-6.928l-.907-1.782a869.04 869.04 0 0 1-13.891 6.912l.875 1.798zM259.46 250.4a883.324 883.324 0 0 0 13.649-7.407l-.97-1.749a870.2 870.2 0 0 1-13.618 7.39l.939 1.766zm27.197-15.072a854.5 854.5 0 0 0 13.386-7.894l-1.032-1.714a850.352 850.352 0 0 1-13.354 7.876l1 1.732zm26.645-16.053a736.16 736.16 0 0 0 13.052-8.397l-1.1-1.67a734.285 734.285 0 0 1-13.017 8.374l1.065 1.693zm25.928-17.098a535.807 535.807 0 0 0 6.352-4.478l-1.164-1.626a524.047 524.047 0 0 1-6.329 4.461l1.141 1.643zm6.352-4.478a572.426 572.426 0 0 0 5.736-4.159l-1.184-1.612a580.056 580.056 0 0 1-5.716 4.145l1.164 1.626zm16.906-12.591a436.847 436.847 0 0 0 10.98-8.808l-1.277-1.539a433.773 433.773 0 0 1-10.93 8.767l1.227 1.58zm21.614-17.972c3.644-3.269 7.06-6.48 10.258-9.635l-1.404-1.424a294.966 294.966 0 0 1-10.189 9.57l1.335 1.489zm19.974-19.781a186.628 186.628 0 0 0 9.036-10.795l-1.583-1.222a185.258 185.258 0 0 1-8.939 10.679l1.486 1.338zm17.135-22.358c2.651-4.227 4.893-8.355 6.762-12.395l-1.815-.84c-1.831 3.958-4.032 8.011-6.641 12.172l1.694 1.063zm11.697-25.668a75.235 75.235 0 0 0 2.541-13.944l-1.993-.169a73.167 73.167 0 0 1-2.474 13.574l1.926.539zm2.358-28.12c-.514-4.727-1.46-9.35-2.744-13.893l-1.924.543c1.257 4.45 2.179 8.962 2.68 13.566l1.988-.216zm-7.469-27.206c-.91-2.156-1.878-4.3-2.894-6.433l-1.806.86a154.05 154.05 0 0 1 2.858 6.35l1.842-.777zm-2.894-6.433a49.679 49.679 0 0 0-4.357-7.417l-1.63 1.158a47.737 47.737 0 0 1 4.181 7.118l1.806-.86zm-16.384-19.59c-4.463-3.329-9.46-6.126-14.836-8.44l-.791 1.837c5.254 2.262 10.11 4.984 14.432 8.207l1.195-1.604zM377.514 4.218c-5.414-1.314-11.03-2.27-16.74-2.906l-.221 1.988c5.634.627 11.166 1.57 16.489 2.862l.472-1.944zM343.83.337c-5.694-.039-11.377.2-16.947.686l.173 1.992c5.51-.48 11.131-.716 16.76-.678l.014-2zm-33.757 2.945a162.71 162.71 0 0 0-8.305 1.745l.464 1.946c2.658-.633 5.398-1.21 8.202-1.724l-.361-1.967z" fill="#DCDCDC"/></svg>