<svg width="106" height="127" fill="none" xmlns="http://www.w3.org/2000/svg"><path d="M103.928 8.408a1 1 0 0 0 .994-1.736l-.994 1.736zM12.675 126.486a1 1 0 0 0 1.27-.621l2.923-8.512a1 1 0 0 0-1.892-.65l-2.597 7.567-7.567-2.598a1 1 0 0 0-.65 1.892l8.513 2.922zm-1.705-7.78a1 1 0 0 0-1.84.785l1.84-.785zm-6.66-12.568a1 1 0 0 0 1.918-.566l-1.918.566zm-1.111-14.14a1 1 0 1 0-1.978.296l1.978-.297zM.21 78.113a1 1 0 0 0 2 .02l-2-.02zM3.561 64.31a1 1 0 1 0-1.965-.372l1.965.372zm1.977-14.066a1 1 0 0 0 1.862.732l-1.862-.732zm8.125-11.643a1 1 0 1 0-1.693-1.066l1.693 1.066zm6.967-12.37a1 1 0 0 0 1.471 1.354l-1.471-1.354zm11.74-8.005a1 1 0 1 0-1.213-1.589l1.214 1.59zm10.792-9.233a1 1 0 0 0 .926 1.773l-.926-1.773zm13.752-3.579a1 1 0 0 0-.605-1.906l.605 1.906zM70.227.477a1 1 0 1 0 .235 1.986L70.227.477zm14.075 1.83a1 1 0 1 0 .204-1.989l-.204 1.99zm14.13 1.285a1 1 0 0 0-.72 1.866l.72-1.866zM13.898 125.101a136.46 136.46 0 0 1-2.928-6.395l-1.84.785a138.623 138.623 0 0 0 2.972 6.488l1.796-.878zm-7.67-19.529a101.108 101.108 0 0 1-3.03-13.575l-1.978.297c.674 4.49 1.693 9.107 3.089 13.844l1.918-.566zM2.21 78.134a78.45 78.45 0 0 1 1.35-13.823l-1.965-.372A80.448 80.448 0 0 0 .21 78.114l2 .02zM7.4 50.977a73.912 73.912 0 0 1 6.263-12.375l-1.693-1.066a75.913 75.913 0 0 0-6.432 12.71l1.862.73zm14.7-23.39a79.755 79.755 0 0 1 10.27-9.36l-1.214-1.589a81.75 81.75 0 0 0-10.527 9.594l1.471 1.354zm21.987-16.82a79.881 79.881 0 0 1 12.826-5.352l-.605-1.906a81.881 81.881 0 0 0-13.147 5.485l.926 1.773zm26.374-8.304c4.696-.556 9.345-.616 13.84-.155l.204-1.99c-4.651-.476-9.447-.413-14.279.16l.235 1.985zm27.25 2.995a45.393 45.393 0 0 1 6.216 2.95l.994-1.736a47.39 47.39 0 0 0-6.49-3.08l-.72 1.866z" fill="#DCDCDC"/></svg>