<svg width="162" height="174" fill="none" xmlns="http://www.w3.org/2000/svg"><path d="M122.429 4.035a1 1 0 0 1 1.632-1.156l-1.632 1.156zm-94.68 152.664a1 1 0 0 1 .508-1.319l8.226-3.652a1 1 0 0 1 .812 1.828l-7.312 3.246 3.245 7.312a1 1 0 1 1-1.828.811l-3.651-8.226zm8.402 1.178a1 1 0 0 1-.61 1.905l.61-1.905zm14.147 5.579a1 1 0 0 1 .343-1.97l-.343 1.97zm15.135-.656a1 1 0 0 1 .003 2l-.003-2zm15.185.397a.999.999 0 1 1-.425-1.954l.425 1.954zm13.592-6.782a1 1 0 1 1 .872 1.8l-.872-1.8zm13.748-6.437a1 1 0 0 1-1.264-1.55l1.264 1.55zm9.187-12.102a1 1 0 0 1 1.555 1.258l-1.555-1.258zm10.045-11.402a1 1 0 1 1-1.749-.97l1.749.97zm4.499-14.533a1 1 0 0 1 1.871.707l-1.871-.707zm6.319-13.837a1 1 0 0 1-1.945-.466l1.945.466zm.701-15.202a1 1 0 0 1 1.985.243l-1.985-.243zm3.005-14.918a1 1 0 1 1-2-.026l2 .026zm-2.62-14.99a1 1 0 1 1 1.99-.194l-1.99.194zm-.355-15.215a1 1 0 0 1-1.954.427l1.954-.427zm-6.102-13.93a1 1 0 0 1 1.878-.688l-1.878.688zm-4.486-14.526a1 1 0 0 1-1.738.989l1.738-.99zM29.022 155.36c2.418.932 4.794 1.769 7.129 2.517l-.61 1.905a133.564 133.564 0 0 1-7.237-2.555l.718-1.867zm21.619 6.126c5.165.899 10.095 1.323 14.792 1.314l.003 2c-4.82.009-9.865-.426-15.138-1.344l.343-1.97zm29.552-.243a62.578 62.578 0 0 0 14.017-4.828l.872 1.8a64.575 64.575 0 0 1-14.464 4.982l-.425-1.954zm26.501-12.815c3.815-3.112 7.299-6.655 10.451-10.552l1.555 1.258c-3.233 3.997-6.812 7.639-10.742 10.844l-1.264-1.55zm18.747-22.924c2.381-4.292 4.463-8.836 6.248-13.563l1.871.707c-1.816 4.811-3.939 9.443-6.37 13.826l-1.749-.97zm10.622-27.866a132 132 0 0 0 2.646-14.736l1.985.243a134.073 134.073 0 0 1-2.686 14.96l-1.945-.467zm3.651-29.68a136.706 136.706 0 0 0-.62-14.964l1.99-.194c.486 5.006.697 10.088.63 15.184l-2-.026zm-2.929-29.752c-1.086-4.966-2.469-9.775-4.148-14.357l1.878-.688c1.712 4.673 3.12 9.57 4.224 14.618l-1.954.427zm-10.372-27.894a75.227 75.227 0 0 0-3.984-6.277l1.632-1.156a77.224 77.224 0 0 1 4.09 6.444l-1.738.989z" fill="#DCDCDC"/></svg>