<svg width="388" height="401" fill="none" xmlns="http://www.w3.org/2000/svg"><path d="M248.768 6.027a1 1 0 1 0 .464 1.946l-.464-1.946zM345 29l-.762.648L345 29zm0 234l-.81-.586.81.586zM.287 392.299a1 1 0 0 0 .012 1.414l6.414 6.313a1 1 0 1 0 1.403-1.425l-5.702-5.612 5.612-5.702a1 1 0 1 0-1.425-1.403l-6.314 6.415zm7.947 1.576a1 1 0 1 0-.052-1.999l.052 1.999zm14.374-2.634a1 1 0 0 0 .122 1.996l-.122-1.996zm14.587.88a1 1 0 1 0-.185-1.991l.185 1.991zm14.178-3.539a1 1 0 0 0 .243 1.985l-.242-1.985zm14.608.027a1 1 0 1 0-.297-1.978l.297 1.978zm13.955-4.303a1 1 0 0 0 .347 1.97l-.347-1.97zm14.589-.717a1 1 0 1 0-.394-1.961l.394 1.961zm13.736-4.972a1 1 0 1 0 .439 1.951l-.439-1.951zm14.542-1.389a1 1 0 1 0-.482-1.941l.482 1.941zm13.503-5.576a1 1 0 0 0 .524 1.93l-.524-1.93zm14.471-2.015a1 1 0 0 0-.565-1.918l.565 1.918zm13.255-6.142a1 1 0 0 0 .605 1.907l-.605-1.907zm14.373-2.616a1 1 0 0 0-.644-1.894l.644 1.894zm12.985-6.689a1 1 0 1 0 .683 1.879l-.683-1.879zm14.244-3.218a1 1 0 1 0-.724-1.864l.724 1.864zm12.676-7.238a1.001 1.001 0 0 0 .765 1.848l-.765-1.848zm14.102-3.854a1 1 0 1 0-.808-1.829l.808 1.829zm12.347-7.83a1 1 0 0 0 .853 1.809l-.853-1.809zm13.89-4.548a1 1 0 0 0-.901-1.786l.901 1.786zm11.888-8.471a1 1 0 1 0 .953 1.758l-.953-1.758zm13.571-5.35a1 1 0 0 0-1.011-1.725l1.011 1.725zm11.332-9.274a1 1 0 0 0 1.078 1.685l-1.078-1.685zm13.107-6.391a1 1 0 0 0-1.154-1.633l1.154 1.633zm10.399-10.297a1 1 0 0 0 1.249 1.563l-1.249-1.563zm12.241-7.903a1 1 0 1 0-1.366-1.461l1.366 1.461zm8.577-11.792a1 1 0 0 0 1.522 1.297l-1.522-1.297zm10.618-10.958a1 1 0 0 0-1.655-1.123l1.655 1.123zm6.735-14.386a1 1 0 1 0 1.724 1.013l-1.724-1.013zm9.283-12.939a1 1 0 1 0-1.791-.89l1.791.89zm4.665-15.192a1 1 0 1 0 1.853.753l-1.853-.753zm7.241-14.155a1 1 0 0 0-1.907-.604l1.907.604zm2.214-15.761a1 1 0 0 0 1.95.444l-1.95-.444zm4.805-15.158a1 1 0 0 0-1.981-.275l1.981.275zm-.503-15.891a1 1 0 0 0 1.998.102l-1.998-.102zm2.106-15.76a1 1 0 0 0-1.998.073l1.998-.073zm-3.261-15.567a1 1 0 0 0 1.985-.248l-1.985.248zm-.654-15.895a1 1 0 0 0-1.956.417l1.956-.417zm-5.875-14.784a1 1 0 1 0 1.914-.58l-1.914.58zm-3.321-15.553a1 1 0 0 0-1.859.738l1.859-.738zm-8.257-13.583a1 1 0 1 0 1.79-.893l-1.79.893zm-5.907-14.785a1 1 0 1 0-1.704 1.046l1.704-1.046zm-10.534-11.919a1 1 0 1 0 1.594-1.207l-1.594 1.207zM341.316 23.4a1 1 0 1 0-1.449 1.379l1.449-1.379zm-11.042-7.42a1.001 1.001 0 0 0 1.236-1.573l-1.236 1.573zm-9.969-8.81a1 1 0 0 0-.913 1.78l.913-1.78zM307.32 4.326a.999.999 0 1 0 .509-1.934l-.509 1.934zM294.653.293a1 1 0 0 0-.131 1.996l.131-1.996zm-13.157 2.11a1 1 0 1 0-.147-1.994l.147 1.995zm-13.302-.381a1 1 0 1 0 .324 1.973l-.324-1.973zm-12.549 4.48a1 1 0 1 0-.43-1.954l.43 1.953zM1.008 394a390.41 390.41 0 0 0 7.226-.125l-.052-1.999c-2.408.064-4.805.105-7.19.124l.016 2zm21.722-.763c4.79-.292 9.614-.665 14.465-1.116l-.185-1.991c-4.83.448-9.634.82-14.402 1.111l.122 1.996zm28.886-2.67a536.619 536.619 0 0 0 14.365-1.958l-.297-1.978a533.228 533.228 0 0 1-14.31 1.951l.242 1.985zm28.667-4.291a598.56 598.56 0 0 0 14.242-2.687l-.394-1.961a595.343 595.343 0 0 1-14.195 2.678l.347 1.97zm28.417-5.708c4.71-1.06 9.413-2.174 14.103-3.34l-.482-1.941a653.134 653.134 0 0 1-14.06 3.33l.439 1.951zm28.13-6.986a690.182 690.182 0 0 0 13.947-3.945l-.565-1.918a686.123 686.123 0 0 1-13.906 3.933l.524 1.93zm27.807-8.18a704.015 704.015 0 0 0 13.768-4.523l-.644-1.894a691.257 691.257 0 0 1-13.729 4.51l.605 1.907zm27.436-9.333a673.563 673.563 0 0 0 13.561-5.097l-.724-1.864a677.903 677.903 0 0 1-13.52 5.082l.683 1.879zm27.002-10.487a622.25 622.25 0 0 0 13.337-5.702l-.808-1.829a621.146 621.146 0 0 1-13.294 5.683l.765 1.848zm26.537-11.723a541.092 541.092 0 0 0 13.037-6.357l-.901-1.786a539.028 539.028 0 0 1-12.989 6.334l.853 1.809zm25.878-13.07a433.23 433.23 0 0 0 12.618-7.108l-1.011-1.725a437.372 437.372 0 0 1-12.56 7.075l.953 1.758zm25.028-14.697a312.802 312.802 0 0 0 12.029-8.076l-1.154-1.633a310.373 310.373 0 0 1-11.953 8.024l1.078 1.685zm23.677-16.81c3.955-3.16 7.627-6.319 10.992-9.466l-1.366-1.461c-3.323 3.108-6.955 6.233-10.875 9.364l1.249 1.563zm21.091-19.961a92.749 92.749 0 0 0 4.524-5.734l-1.62-1.173a90.289 90.289 0 0 1-4.426 5.61l1.522 1.297zm4.524-5.734a261.369 261.369 0 0 0 4.572-6.521l-1.655-1.123a257.38 257.38 0 0 1-4.537 6.471l1.62 1.173zm13.031-19.894a226.114 226.114 0 0 0 7.559-13.952l-1.791-.89a224.06 224.06 0 0 1-7.492 13.829l1.724 1.013zm14.077-28.391a200.117 200.117 0 0 0 5.388-14.908l-1.907-.604a197.788 197.788 0 0 1-5.334 14.759l1.853.753zm9.552-30.225a185.014 185.014 0 0 0 2.855-15.602l-1.981-.275a183.012 183.012 0 0 1-2.824 15.433l1.95.444zm4.35-31.391c.273-5.38.3-10.671.108-15.862l-1.998.073c.19 5.134.162 10.367-.108 15.687l1.998.102zm-1.168-31.677a184.82 184.82 0 0 0-2.639-15.647l-1.956.417a182.705 182.705 0 0 1 2.61 15.478l1.985-.248zm-6.6-31.012a189.852 189.852 0 0 0-5.235-14.972l-1.859.738a187.658 187.658 0 0 1 5.18 14.815l1.914-.58zM367.35 61.55a181.017 181.017 0 0 0-7.697-13.892l-1.704 1.046a179.32 179.32 0 0 1 7.611 13.739l1.79-.893zm-16.637-27.018a140.105 140.105 0 0 0-4.951-6.179l-1.524 1.296a138.016 138.016 0 0 1 4.881 6.09l1.594-1.207zm-4.951-6.179a118.969 118.969 0 0 0-4.446-4.952l-1.449 1.379a117.329 117.329 0 0 1 4.371 4.869l1.524-1.296zM331.51 14.407c-3.677-2.888-7.4-5.285-11.205-7.236l-.913 1.78c3.684 1.889 7.3 4.214 10.882 7.029l1.236-1.573zM307.829 2.391c-4.255-1.122-8.633-1.8-13.176-2.098l-.131 1.996c4.428.29 8.679.95 12.798 2.036l.509-1.934zM281.349.409c-4.224.312-8.6.863-13.155 1.613l.324 1.973c4.509-.742 8.825-1.284 12.978-1.591l-.147-1.995zm-26.134 4.139c-2.11.464-4.258.958-6.447 1.48l.464 1.945a383.74 383.74 0 0 1 6.413-1.472l-.43-1.953z" fill="#DCDCDC"/></svg>