<svg width="47" height="112" fill="none" xmlns="http://www.w3.org/2000/svg"><path d="M8.04.269A1 1 0 0 0 6.678 1.73L8.04.27zm38.658 104.447a1 1 0 0 0 .018-1.414l-6.281-6.446a1 1 0 0 0-1.432 1.396l5.583 5.73-5.73 5.583a1 1 0 1 0 1.396 1.432l6.446-6.281zM12.528 8.587a1 1 0 0 0 1.644-1.138l-1.644 1.138zM21.73 24.64a1 1 0 0 0-1.954.426l1.954-.426zm-2.039 18.336a1 1 0 1 0 1.95.448l-1.95-.448zm-5.751 17.55a1 1 0 0 0-1.651-1.128l1.65 1.128zM.933 74.131a1 1 0 0 0 1.732 1l-1.732-1zm2.077 17.02a1 1 0 0 0-1.491 1.333l1.49-1.334zm15.192 10.195a1 1 0 0 0 .54-1.926l-.54 1.926zm18.623 1.191a1 1 0 1 0-.174 1.992l.174-1.992zM6.677 1.731c1.89 1.763 3.928 4.079 5.85 6.856l1.645-1.138c-2-2.89-4.131-5.315-6.131-7.18L6.677 1.73zm13.1 23.334c1.192 5.471 1.383 11.516-.086 17.91l1.95.448c1.54-6.708 1.339-13.052.09-18.784l-1.955.426zm-7.49 34.333a66.412 66.412 0 0 1-5.669 7.144L8.1 67.886a68.393 68.393 0 0 0 5.84-7.36l-1.651-1.128zm-5.669 7.144C4.181 69.23 2.303 71.755.933 74.131l1.732 1c1.284-2.227 3.07-4.638 5.434-7.245l-1.48-1.344zm-5.1 25.942c3.672 4.105 9.833 6.94 16.684 8.862l.54-1.926c-6.741-1.891-12.448-4.597-15.732-8.27l-1.491 1.334zm35.133 12.045c3.266.284 6.429.433 9.336.471l.026-2a125.45 125.45 0 0 1-9.188-.463l-.174 1.992z" fill="#DCDCDC"/></svg>