<svg width="463" height="293" fill="none" xmlns="http://www.w3.org/2000/svg"><path d="M.293 284.293a1 1 0 0 0 0 1.414l6.364 6.364a1 1 0 1 0 1.414-1.414L2.414 285l5.657-5.657a1 1 0 1 0-1.414-1.414l-6.364 6.364zM194 263l-.535-.845.535.845zM379.577 4.094a1 1 0 0 0 .846 1.812l-.846-1.812zM444 169l.797.604L444 169zM8.052 286.108a.999.999 0 1 0 .06-1.999l-.06 1.999zm14.26-1.257a1 1 0 0 0-.142 1.995l.141-1.995zm13.963 3.159a1 1 0 0 0 .18-1.992l-.18 1.992zm14.3-.683a1 1 0 0 0-.182 1.992l.183-1.992zm13.956 3.197a1 1 0 0 0 .152-1.994l-.152 1.994zm14.27-1.121a1 1 0 0 0-.09 1.998l.09-1.998zm14.127 2.341a1 1 0 0 0 .002-2l-.002 2zm14.11-2.378a1 1 0 0 0 .112 1.997l-.112-1.997zm14.296.727a1 1 0 0 0-.247-1.984l.247 1.984zm13.67-4.252a1 1 0 0 0 .398 1.961l-.398-1.961zm14.241-1.437a1 1 0 1 0-.556-1.921l.556 1.921zm12.796-6.398a1 1 0 1 0 .715 1.868l-.715-1.868zm13.804-3.774a1 1 0 1 0-.867-1.802l.867 1.802zm11.587-8.412a1 1 0 0 0 1.006 1.729l-1.006-1.729zm13.525-5.719a1 1 0 0 0-.948-1.761l.948 1.761zm12.742-8.197a1.001 1.001 0 0 0 .765 1.848l-.765-1.848zm14.802-3.381a1 1 0 0 0-.64-1.895l.64 1.895zm13.752-6.375a1 1 0 0 0 .555 1.922l-.555-1.922zm15.03-2.007a1 1 0 1 0-.498-1.937l.498 1.937zm14.134-5.533a1 1 0 0 0 .46 1.946l-.46-1.946zm15.107-1.429a1 1 0 1 0-.44-1.951l.44 1.951zm14.239-5.231a1 1 0 1 0 .434 1.952l-.434-1.952zm15.117-1.333a1 1 0 0 0-.442-1.951l.442 1.951zm14.204-5.335a1 1 0 0 0 .462 1.946l-.462-1.946zm15.082-1.646a.999.999 0 1 0-.495-1.937l.495 1.937zm14.006-5.832a1 1 0 0 0 .545 1.925l-.545-1.925zm14.984-2.431a1 1 0 1 0-.613-1.904l.613 1.904zm13.533-6.828a1 1 0 0 0 .705 1.871l-.705-1.871zm14.654-3.899a.999.999 0 1 0-.828-1.82l.828 1.82zm12.5-8.597a1 1 0 0 0 .991 1.737l-.991-1.737zm13.682-6.545a1 1 0 1 0-1.201-1.599l1.201 1.599zm9.892-11.454a1 1 0 1 0 1.458 1.369l-1.458-1.369zm10.764-10.957a1 1 0 1 0-1.718-1.024l1.718 1.024zm4.758-14.854a1 1 0 1 0 1.882.676l-1.882-.676zm5.97-14.413a1 1 0 0 0-1.964-.377l1.964.377zm-.07-15.618a1 1 0 0 0 1.997.123l-1.997-.123zm2.083-15.477a1 1 0 1 0-1.997.096l1.997-.096zm-3.51-15.223a1 1 0 0 0 1.978-.294l-1.978.294zm-1.047-15.586a1 1 0 1 0-1.941.48l1.941-.48zm-6.368-14.264a1 1 0 0 0 1.885-.67l-1.885.67zm-4.11-15.068a1 1 0 1 0-1.8.87l1.8-.87zm-9.335-12.49a1 1 0 1 0 1.67-1.1l-1.67 1.1zm-8-13.434a1 1 0 1 0-1.453 1.375l1.453-1.375zM416.434 8.33a1 1 0 0 0 1.058-1.697l-1.058 1.697zM402.829.793a1.001 1.001 0 0 0-.36 1.967l.36-1.967zm-15.271 2.533a1 1 0 0 0-.497-1.937l.497 1.937zM1 286c2.335 0 4.686.038 7.052.108l.06-1.999A242.3 242.3 0 0 0 1 284v2zm21.17.846c4.649.33 9.35.732 14.105 1.164l.18-1.992c-4.76-.432-9.476-.836-14.143-1.167l-.142 1.995zm28.223 2.473c4.667.428 9.38.843 14.138 1.205l.152-1.994a908.606 908.606 0 0 1-14.107-1.203l-.183 1.992zm28.318 2.082c4.699.213 9.439.339 14.217.343l.002-2a317.642 317.642 0 0 1-14.129-.341l-.09 1.998zm28.439-.038a209.53 209.53 0 0 0 14.184-1.27l-.247-1.984c-4.713.587-9.397.995-14.049 1.257l.112 1.997zm28.252-3.561a174.726 174.726 0 0 0 13.843-3.398l-.556-1.921a172.591 172.591 0 0 1-13.685 3.358l.398 1.961zm27.354-7.928a172.79 172.79 0 0 0 13.089-5.642l-.867-1.802a170.39 170.39 0 0 1-12.937 5.576l.715 1.868zm25.682-12.325a188.8 188.8 0 0 0 6.097-3.704l-1.07-1.69a184.852 184.852 0 0 1-6.033 3.665l1.006 1.729zm6.097-3.704a105.04 105.04 0 0 1 6.422-3.744l-.948-1.761a106.92 106.92 0 0 0-6.544 3.815l1.07 1.69zm19.929-10.093c4.45-1.841 9.142-3.577 14.037-5.229l-.64-1.895c-4.93 1.664-9.664 3.416-14.162 5.276l.765 1.848zm28.344-9.682a503.448 503.448 0 0 1 14.475-3.929l-.498-1.937a508.898 508.898 0 0 0-14.532 3.944l.555 1.922zm29.069-7.516c4.824-1.141 9.714-2.261 14.647-3.375l-.44-1.951a1478.095 1478.095 0 0 0-14.667 3.38l.46 1.946zm29.32-6.654c4.883-1.086 9.785-2.177 14.683-3.285l-.442-1.951a4117.033 4117.033 0 0 1-14.675 3.284l.434 1.952zm29.349-6.674a865.193 865.193 0 0 0 14.62-3.592l-.495-1.937a871.157 871.157 0 0 1-14.587 3.583l.462 1.946zm29.171-7.499a423.943 423.943 0 0 0 14.439-4.356l-.613-1.904a418.821 418.821 0 0 1-14.371 4.335l.545 1.925zm28.677-9.313a226.332 226.332 0 0 0 13.949-5.77l-.828-1.82a225.263 225.263 0 0 1-13.826 5.719l.705 1.871zm27.44-12.63c4.519-2.578 8.765-5.33 12.691-8.282l-1.201-1.599c-3.851 2.895-8.025 5.602-12.481 8.144l.991 1.737zm24.041-18.367a72.37 72.37 0 0 0 4.922-5.813l-1.594-1.208a70.32 70.32 0 0 1-4.786 5.652l1.458 1.369zm4.922-5.813a70.384 70.384 0 0 0 4.384-6.513l-1.718-1.024a68.539 68.539 0 0 1-4.26 6.329l1.594 1.208zm11.024-20.691c1.735-4.827 3.089-9.881 4.088-15.089l-1.964-.377c-.981 5.115-2.309 10.068-4.006 14.79l1.882.676zm6.015-30.584c.317-5.143.339-10.363.086-15.6l-1.997.096c.249 5.168.227 10.315-.086 15.381l1.997.123zm-1.446-31.117a163.396 163.396 0 0 0-3.025-15.292l-1.941.48a161.465 161.465 0 0 1 2.988 15.106l1.978-.294zm-7.508-30.225a143.26 143.26 0 0 0-5.995-14.4l-1.8.871a141.453 141.453 0 0 1 5.91 14.198l1.885-.67zm-13.66-27.989c-2.991-4.546-6.224-8.692-9.67-12.334l-1.453 1.375c3.355 3.546 6.518 7.598 9.453 12.058l1.67-1.099zm-21.73-22.365c-4.645-2.895-9.553-4.906-14.663-5.84l-.36 1.967c4.831.883 9.504 2.79 13.965 5.57l1.058-1.697zM387.061 1.39a42.967 42.967 0 0 0-7.484 2.705l.846 1.812a40.954 40.954 0 0 1 7.135-2.58l-.497-1.937z" fill="#DCDCDC"/></svg>