<svg width="1254" height="783" fill="none" xmlns="http://www.w3.org/2000/svg"><path d="M873.439 0a1 1 0 0 0 0 2V0zm205.621 130.03l.73.682-.73-.682zm89.59 70.758l.29-.957-.21-.063-.21.03.13.99zm31.63 309.239l-.84-.553.84.553zM9.823 746.432a1 1 0 0 0-1.391-.255l-7.407 5.112a1 1 0 1 0 1.136 1.646l6.584-4.544 4.544 6.584a1 1 0 1 0 1.646-1.136l-5.112-7.407zm-2.764 8.38a1 1 0 0 0 1.998.095l-1.998-.095zm4.425 14.224a1 1 0 0 0-1.788.898l1.788-.898zm9.907 11.066a1 1 0 0 0 .713-1.868l-.713 1.868zm15.177.435a1 1 0 1 0-.013 2l.013-2zm15.382.722a1 1 0 1 0-.307-1.976l.307 1.976zm14.508-5.005a1 1 0 1 0 .48 1.941l-.48-1.941zm15.108-2.134a1 1 0 1 0-.587-1.912l.587 1.912zm13.752-6.638a1 1 0 0 0 .66 1.888l-.66-1.888zm14.962-3.366a1 1 0 0 0-.715-1.868l.715 1.868zm13.494-7.505a1 1 0 1 0 .758 1.851l-.758-1.851zm14.734-4.021a1 1 0 0 0-.79-1.837l.79 1.837zm13.067-7.922a1 1 0 0 0 .817 1.826l-.817-1.826zm14.754-4.515a1 1 0 1 0-.839-1.815l.839 1.815zm12.849-8.224a1 1 0 0 0 .856 1.807l-.856-1.807zm14.573-4.769a1 1 0 1 0-.872-1.799l.872 1.799zm12.817-8.493a.999.999 0 1 0 .885 1.793l-.885-1.793zm14.447-4.949a1 1 0 1 0-.895-1.788l.895 1.788zm12.73-8.656a1 1 0 1 0 .905 1.783l-.905-1.783zm14.397-5.097a1 1 0 0 0-.912-1.78l.912 1.78zm12.62-8.747a1 1 0 0 0 .919 1.776l-.919-1.776zM275.158 686a1 1 0 0 0-.923-1.774l.923 1.774zm12.553-8.812a.999.999 0 1 0 .927 1.772l-.927-1.772zm14.383-5.29a1 1 0 0 0-.931-1.77l.931 1.77zm12.52-8.854a1 1 0 1 0 .933 1.769l-.933-1.769zm14.362-5.319a1 1 0 0 0-.934-1.768l.934 1.768zm12.522-8.876a1 1 0 1 0 .934 1.768l-.934-1.768zm14.337-5.309a1 1 0 1 0-.934-1.769l.934 1.769zm12.553-8.877a1 1 0 1 0 .931 1.77l-.931-1.77zm14.357-5.283a1 1 0 1 0-.929-1.771l.929 1.771zm12.563-8.824a1 1 0 0 0 .925 1.774l-.925-1.774zm14.415-5.232a1 1 0 0 0-.919-1.776l.919 1.776zm12.556-8.713a1 1 0 0 0 .911 1.78l-.911-1.78zm14.515-5.145a1 1 0 1 0-.902-1.785l.902 1.785zm12.605-8.566a1 1 0 1 0 .891 1.79l-.891-1.79zm14.571-4.958a1 1 0 1 0-.878-1.797l.878 1.797zm12.854-8.421a1 1 0 1 0 .86 1.806l-.86-1.806zm14.498-4.589a1 1 0 0 0-.837-1.817l.837 1.817zm13.079-8.105a1 1 0 0 0 .809 1.83l-.809-1.83zm14.829-4.195a1 1 0 1 0-.769-1.846l.769 1.846zm13.38-7.508a1 1 0 1 0 .714 1.868l-.714-1.868zm14.968-3.247a1 1 0 0 0-.63-1.898l.63 1.898zm14.031-6.24a1.001 1.001 0 0 0 .49 1.939l-.49-1.939zm14.652-.82a1 1 0 1 0-.274-1.981l.274 1.981zm14.56-3.416a1 1 0 0 0 .122 1.996l-.122-1.996zm14.871 1.486a1 1 0 0 0-.022-2l.022 2zm14.811-1.893a1 1 0 0 0-.047 1.999l.047-1.999zm14.736 2.548a1 1 0 1 0 .098-1.998l-.098 1.998zm14.952-1.117a1 1 0 0 0-.137 1.996l.137-1.996zm14.689 3.125a1 1 0 1 0 .165-1.993l-.165 1.993zm14.832-.686a.999.999 0 1 0-.188 1.991l.188-1.991zm14.534 3.447a1 1 0 1 0 .205-1.99l-.205 1.99zm15.008-.414a1 1 0 0 0-.218 1.988l.218-1.988zm14.452 3.633a1 1 0 0 0 .227-1.987l-.227 1.987zm14.927-.281a1 1 0 1 0-.233 1.986l.233-1.986zm14.531 3.738a1 1 0 1 0 .237-1.986l-.237 1.986zm14.895-.226a1 1 0 1 0-.239 1.985l.239-1.985zm14.472 3.756a1 1 0 0 0 .238-1.986l-.238 1.986zm14.967-.224a1 1 0 1 0-.237 1.986l.237-1.986zm14.447 3.717a1 1 0 0 0 .232-1.986l-.232 1.986zm14.96-.288a1 1 0 0 0-.226 1.988l.226-1.988zm14.486 3.633a1 1 0 0 0 .219-1.988l-.219 1.988zm14.943-.405a1 1 0 1 0-.209 1.989l.209-1.989zm14.53 3.496a1 1 0 0 0 .197-1.99l-.197 1.99zm14.937-.574a1 1 0 1 0-.185 1.991l.185-1.991zm14.571 3.304a1 1 0 0 0 .169-1.993l-.169 1.993zm14.925-.801a1 1 0 0 0-.152 1.995l.152-1.995zm14.639 3.053a1 1 0 1 0 .133-1.996l-.133 1.996zm14.872-1.094a1 1 0 1 0-.11 1.997l.11-1.997zm14.732 2.731a1 1 0 0 0 .086-1.998l-.086 1.998zm14.856-1.463a1 1 0 0 0-.058 2l.058-2zm14.757 2.318a1.001 1.001 0 0 0 .027-2l-.027 2zm14.847-1.929a.998.998 0 0 0-.99 1.004c0 .553.45.999 1 .996l-.01-2zm14.8 1.793a.999.999 0 0 0 .97-1.024.995.995 0 0 0-1.02-.975l.05 1.999zm14.75-2.523c-.56.026-.98.494-.96 1.046.03.552.5.978 1.05.952l-.09-1.998zm14.93 1.111c.55-.04.96-.519.92-1.07a1 1 0 0 0-1.07-.924l.15 1.994zm14.53-3.282a.996.996 0 0 0-.89 1.098c.05.549.54.949 1.09.892l-.2-1.99zm14.94.221c.54-.075.93-.58.85-1.127a.998.998 0 0 0-1.13-.854l.28 1.981zm14.36-4.294c-.54.098-.9.617-.81 1.161.1.543.62.905 1.17.808l-.36-1.969zm14.91-.985a1 1 0 1 0-.45-1.949l.45 1.949zm13.79-5.605a.991.991 0 0 0-.68 1.237c.15.531.7.837 1.23.685l-.55-1.922zm14.68-2.634a1 1 0 0 0-.68-1.881l.68 1.881zm13.01-7.424c-.5.228-.73.821-.5 1.324.23.503.82.726 1.33.497l-.83-1.821zm14.11-4.958c.48-.275.64-.886.37-1.365a1.007 1.007 0 0 0-1.37-.37l1 1.735zm11.31-9.729a1.001 1.001 0 0 0 1.19 1.612l-1.19-1.612zm12.61-7.964a.992.992 0 0 0 .03-1.414.995.995 0 0 0-1.41-.03l1.38 1.444zm8.43-12.289a.994.994 0 0 0 .17 1.403.995.995 0 0 0 1.4-.174l-1.57-1.229zm10-11.095a1 1 0 0 0-.3-1.38.998.998 0 0 0-1.38.308l1.68 1.072zm5.94-13.661a.996.996 0 0 0 .37 1.366.996.996 0 0 0 1.36-.367l-1.73-.999zm8.85-11.98c.25-.49.06-1.093-.43-1.348a.988.988 0 0 0-1.34.425l1.77.923zm4.73-14.124a.992.992 0 0 0 .48 1.328c.5.233 1.1.015 1.33-.486l-1.81-.842zm7.74-12.724a1.003 1.003 0 0 0-.55-1.305.996.996 0 0 0-1.3.547l1.85.758zm3.4-14.499a.996.996 0 0 0 .61 1.276.99.99 0 0 0 1.27-.608l-1.88-.668zm6.49-13.4a.999.999 0 0 0-.67-1.246.994.994 0 0 0-1.24.67l1.91.576zm1.96-14.756a.99.99 0 0 0 .73 1.21.999.999 0 0 0 1.21-.733l-1.94-.477zm5.09-13.98a1 1 0 0 0-.8-1.169 1.005 1.005 0 0 0-1.17.795l1.97.374zm.39-14.91c-.07.548.31 1.051.86 1.124a.993.993 0 0 0 1.12-.858l-1.98-.266zm3.53-14.482a.994.994 0 0 0-.92-1.073.997.997 0 0 0-1.07.921l1.99.152zm-1.31-14.834a.997.997 0 0 0 .98 1.016.999.999 0 0 0 1.02-.983l-2-.033zm1.78-14.766c-.03-.552-.5-.978-1.05-.953a.997.997 0 0 0-.95 1.046l2-.093zm-3.17-14.573a1 1 0 1 0 1.99-.226l-1.99.226zm-.2-14.897a.996.996 0 0 0-1.16-.801c-.54.101-.9.623-.8 1.166l1.96-.365zm-5.18-13.94c.15.534.69.852 1.23.71.53-.142.85-.689.71-1.223l-1.94.513zm-2.45-14.715c-.19-.52-.76-.792-1.28-.607-.52.185-.79.756-.61 1.277l1.89-.67zm-7.39-12.899a1.001 1.001 0 1 0 1.82-.835l-1.82.835zm-5.04-14.04a1.001 1.001 0 0 0-1.37-.358c-.47.279-.63.891-.36 1.368l1.73-1.01zm-9.78-11.211a1.002 1.002 0 0 0 1.61-1.192l-1.61 1.192zm-7.95-12.588a.996.996 0 0 0-1.41-.037c-.4.381-.42 1.014-.04 1.414l1.45-1.377zm-12.2-8.539c.43.345 1.06.277 1.41-.154.34-.43.28-1.06-.15-1.405l-1.26 1.559zm-11-10.022c-.47-.28-1.09-.12-1.37.357-.27.476-.11 1.089.36 1.368l1.01-1.725zm-14.13-4.655a1 1 0 1 0 .73-1.862l-.73 1.862zm-14.1-3.207a1 1 0 1 0 .32 1.973l-.32-1.973zm-14.44 4.492a1 1 0 0 0-.33-1.972l.33 1.972zm-15.11.451a.997.997 0 0 0-.83 1.141c.08.546.6.92 1.14.835l-.31-1.976zm-14.55 4.089a1 1 0 0 0-.25-1.984l.25 1.984zm-15.09-.389a.997.997 0 0 0-.91 1.081c.04.55.53.959 1.08.912l-.17-1.993zm-14.84 2.819a1.001 1.001 0 0 0-.04-2l.04 2zm-14.92-2.438a.994.994 0 0 0-1.08.905.995.995 0 0 0 .9 1.086l.18-1.991zm-15.05-.865c.53.175 1.09-.109 1.27-.632a1.003 1.003 0 0 0-.64-1.265l-.63 1.897zm-11.16-9.648a.994.994 0 0 0-1.39-.229 1 1 0 0 0-.23 1.395l1.62-1.166zm-4.49-13.896a1 1 0 0 0 .83 1.149.99.99 0 0 0 1.14-.825l-1.97-.324zm6.83-13.364a1.002 1.002 0 0 0-1.79-.904l1.79.904zm6.07-13.88a1 1 0 0 0 .26 1.391 1 1 0 0 0 1.39-.253l-1.65-1.138zm10.53-10.639c.35-.429.28-1.058-.14-1.406a1.004 1.004 0 0 0-1.41.147l1.55 1.259zm8.18-12.633a1.01 1.01 0 0 0 .08 1.412.997.997 0 0 0 1.41-.076l-1.49-1.336zm11.65-9.885a.999.999 0 1 0-1.52-1.299l1.52 1.299zm7.15-12.606a.997.997 0 0 0 .27 1.388.99.99 0 0 0 1.38-.269l-1.65-1.119zm8.74-11.423a1 1 0 0 0-1.82-.821l1.82.821zm2.35-14.392a.996.996 0 0 0 .83 1.14.995.995 0 0 0 1.14-.835l-1.97-.305zm1.57-14.337a1.005 1.005 0 0 0-1.2-.758.995.995 0 0 0-.75 1.194l1.95-.436zm-7.51-12.33c.3.46.92.584 1.38.278a.997.997 0 0 0 .28-1.386l-1.66 1.108zm-8.07-12.04a.999.999 0 0 0-1.41.09c-.36.414-.32 1.046.09 1.411l1.32-1.5zm-12.81-6.92c.47.29 1.09.145 1.38-.324.29-.47.14-1.086-.33-1.377l-1.05 1.7zm-11.69-8.59a.995.995 0 0 0-1.33.474.995.995 0 0 0 .47 1.333l.86-1.807zm-14.06-3.8a.999.999 0 0 0 1.29-.579.995.995 0 0 0-.58-1.29l-.71 1.868zm-12.99-6.614a1.007 1.007 0 0 0-1.26.653c-.16.527.13 1.089.66 1.254l.6-1.907zm-14.38-2.071a.998.998 0 0 0 1.22-.71 1.004 1.004 0 0 0-.71-1.224l-.51 1.934zm-13.53-5.362a1.004 1.004 0 0 0-1.2.756c-.12.538.22 1.074.76 1.195l.44-1.951zm-14.528-.983a1 1 0 0 0 .378-1.964l-.378 1.964zM981.171 9.18a1 1 0 0 0-.325 1.974l.325-1.974zm-14.554-.194a1 1 0 0 0 .278-1.98l-.278 1.98zm-14.055-3.838a1 1 0 1 0-.236 1.986l.236-1.986zm-14.554.426a1 1 0 1 0 .198-1.99l-.198 1.99zm-14.139-3.278a1 1 0 0 0-.16 1.994l.16-1.994zm-14.578.967a1 1 0 0 0 .124-1.997l-.124 1.997zM895.064.515a1 1 0 1 0-.084 1.999l.084-1.999zm-14.508 1.553a1 1 0 1 0 .035-2l-.035 2zM8.016 746.82c-.521 2.844-.839 5.506-.957 7.992l1.998.095c.113-2.384.419-4.958.927-7.727l-1.968-.36zm1.68 23.114c2.42 4.816 6.404 8.15 11.695 10.168l.713-1.868c-4.89-1.866-8.455-4.887-10.62-9.198l-1.788.898zm26.86 12.603c4.664.031 9.813-.411 15.394-1.278l-.307-1.976c-5.503.855-10.541 1.284-15.075 1.254l-.013 2zm30.381-4.342c4.66-1.15 9.543-2.514 14.63-4.075l-.587-1.912c-5.057 1.552-9.903 2.906-14.522 4.046l.48 1.941zm29.042-8.825a525.54 525.54 0 0 0 14.301-5.254l-.715-1.868a523.006 523.006 0 0 1-14.247 5.234l.66 1.888zm28.553-10.908a857.439 857.439 0 0 0 13.976-5.872l-.79-1.837a855.715 855.715 0 0 1-13.944 5.858l.758 1.851zm27.86-11.968c4.581-2.05 9.229-4.166 13.937-6.341l-.839-1.815a1272.926 1272.926 0 0 1-13.915 6.33l.817 1.826zm27.642-12.758c4.527-2.146 9.101-4.34 13.717-6.576l-.872-1.799c-4.611 2.233-9.18 4.424-13.701 6.568l.856 1.807zm27.419-13.276c4.489-2.214 9.012-4.463 13.562-6.742l-.895-1.788a2569.75 2569.75 0 0 1-13.552 6.737l.885 1.793zm27.197-13.615c4.476-2.27 8.975-4.565 13.492-6.88l-.912-1.78a3558.898 3558.898 0 0 1-13.485 6.877l.905 1.783zm27.031-13.851c4.481-2.317 8.974-4.649 13.477-6.994l-.923-1.774a5386.613 5386.613 0 0 1-13.473 6.992l.919 1.776zm26.957-14.034c4.482-2.347 8.969-4.702 13.456-7.062l-.931-1.77a8819.903 8819.903 0 0 1-13.452 7.06l.927 1.772zm26.909-14.147c4.481-2.363 8.959-4.727 13.429-7.088l-.934-1.768c-4.47 2.361-8.947 4.724-13.428 7.087l.933 1.769zm26.885-14.196c4.481-2.367 8.95-4.727 13.403-7.077l-.934-1.769c-4.453 2.35-8.922 4.711-13.403 7.078l.934 1.768zm26.887-14.184c4.498-2.367 8.975-4.719 13.426-7.053l-.929-1.771a9304.798 9304.798 0 0 0-13.428 7.054l.931 1.77zm26.914-14.103a4644.94 4644.94 0 0 1 13.49-7.006l-.919-1.776a4780.003 4780.003 0 0 0-13.496 7.008l.925 1.774zm26.957-13.939a2993.63 2993.63 0 0 1 13.604-6.925l-.902-1.785c-4.489 2.27-9.028 4.582-13.613 6.93l.911 1.78zm27.1-13.701c4.626-2.304 9.188-4.555 13.68-6.748l-.878-1.797a1929.933 1929.933 0 0 0-13.693 6.755l.891 1.79zm27.394-13.363c4.637-2.208 9.186-4.342 13.638-6.395l-.837-1.817c-4.46 2.057-9.017 4.195-13.661 6.406l.86 1.806zm27.526-12.67a712.61 712.61 0 0 1 14.02-6.025l-.769-1.846a714.732 714.732 0 0 0-14.06 6.041l.809 1.83zm28.114-11.665a346.143 346.143 0 0 1 14.254-5.115l-.63-1.898a347.882 347.882 0 0 0-14.338 5.145l.714 1.868zm28.775-9.416a128.658 128.658 0 0 1 7.091-1.594l-.38-1.964c-2.292.444-4.694.985-7.201 1.619l.49 1.939zm7.091-1.594c2.258-.437 4.616-.825 7.071-1.165l-.274-1.981c-2.487.345-4.88.738-7.177 1.182l.38 1.964zm21.753-2.585a297.07 297.07 0 0 1 14.749-.51l-.022-2c-5.18.058-10.136.225-14.849.514l.122 1.996zm29.513-.404c4.775.113 9.706.299 14.783.549l.098-1.998a578.687 578.687 0 0 0-14.834-.55l-.047 1.999zm29.598 1.428c4.835.331 9.779.709 14.826 1.129l.165-1.993c-5.054-.42-10.009-.8-14.854-1.132l-.137 1.996zm29.47 2.434c4.83.456 9.74.943 14.722 1.456l.205-1.99c-4.987-.513-9.902-1.001-14.739-1.457l-.188 1.991zm29.512 3.03c4.833.53 9.725 1.079 14.67 1.645l.227-1.987c-4.948-.566-9.843-1.116-14.679-1.646l-.218 1.988zm29.364 3.35c4.878.574 9.801 1.159 14.764 1.752l.237-1.986c-4.964-.593-9.888-1.179-14.768-1.752l-.233 1.986zm29.42 3.511l14.711 1.771.238-1.986-14.71-1.77-.239 1.985zm29.441 3.533c4.874.579 9.769 1.157 14.684 1.731l.232-1.986c-4.913-.574-9.807-1.152-14.679-1.731l-.237 1.986zm29.418 3.431c4.892.556 9.797 1.105 14.712 1.645l.219-1.988c-4.912-.539-9.815-1.088-14.705-1.645l-.226 1.988zm29.446 3.229c4.909.516 9.823 1.019 14.739 1.507l.197-1.99c-4.911-.488-9.822-.991-14.727-1.506l-.209 1.989zm29.491 2.924c4.923.457 9.842.895 14.756 1.313l.169-1.993c-4.908-.417-9.822-.855-14.74-1.311l-.185 1.991zm29.529 2.507c4.942.377 9.874.731 14.791 1.058l.133-1.996c-4.91-.326-9.835-.68-14.772-1.057l-.152 1.995zm29.553 1.961c4.968.276 9.917.522 14.842.734l.086-1.998c-4.916-.212-9.857-.457-14.818-.733l-.11 1.997zm29.64 1.271c4.97.145 9.91.252 14.815.318l.027-2a939.753 939.753 0 0 1-14.784-.318l-.058 2zm29.672.389c4.97-.021 9.9-.089 14.79-.207l-.05-1.999c-4.87.117-9.79.185-14.75.206l.01 2zm29.63-.732c5.01-.235 9.95-.53 14.84-.887l-.15-1.994c-4.86.355-9.79.649-14.78.883l.09 1.998zm29.57-2.179c4.99-.514 9.91-1.102 14.74-1.769l-.28-1.981c-4.8.663-9.69 1.248-14.66 1.76l.2 1.99zm29.46-4.094c4.95-.888 9.8-1.871 14.55-2.954l-.45-1.949a312.922 312.922 0 0 1-14.46 2.934l.36 1.969zm28.89-6.637c4.85-1.394 9.56-2.91 14.13-4.556l-.68-1.881c-4.52 1.63-9.19 3.132-14 4.515l.55 1.922zm27.97-10.159c4.61-2.094 9.05-4.35 13.28-6.779l-1-1.735a154.793 154.793 0 0 1-13.11 6.693l.83 1.821zm25.78-14.896c4.06-2.982 7.87-6.17 11.42-9.576l-1.38-1.444a111.718 111.718 0 0 1-11.23 9.408l1.19 1.612zm21.42-20.636c1.54-1.966 3-3.992 4.38-6.078l-1.67-1.106a94.634 94.634 0 0 1-4.28 5.955l1.57 1.229zm4.38-6.078a351.72 351.72 0 0 0 4.05-6.246l-1.68-1.072a348.783 348.783 0 0 1-4.04 6.212l1.67 1.106zm11.72-18.908c2.5-4.324 4.87-8.651 7.12-12.979l-1.77-.923c-2.24 4.302-4.6 8.604-7.08 12.903l1.73.999zm13.66-26.261c2.1-4.528 4.08-9.052 5.93-13.566l-1.85-.758c-1.84 4.485-3.8 8.981-5.89 13.482l1.81.842zm11.21-27.397c1.67-4.707 3.21-9.398 4.61-14.068l-1.91-.576c-1.4 4.639-2.92 9.299-4.58 13.976l1.88.668zm8.51-28.347c1.19-4.85 2.24-9.671 3.15-14.457l-1.97-.374c-.9 4.751-1.94 9.538-3.12 14.354l1.94.477zm5.52-29.101c.67-4.965 1.18-9.883 1.55-14.748l-1.99-.152c-.37 4.827-.88 9.707-1.54 14.634l1.98.266zm2.24-29.549c.08-5.004 0-9.939-.22-14.799l-2 .093c.22 4.817.3 9.711.22 14.673l2 .033zm-1.4-29.598c-.57-4.989-1.3-9.883-2.19-14.671l-1.96.365c.88 4.741 1.6 9.588 2.16 14.532l1.99-.226zm-5.43-29.124c-1.29-4.87-2.76-9.609-4.39-14.202l-1.89.67c1.62 4.54 3.07 9.226 4.34 14.045l1.94-.513zm-9.96-27.936c-2.11-4.588-4.4-8.994-6.86-13.205l-1.73 1.01c2.43 4.152 4.69 8.5 6.77 13.03l1.82-.835zm-15.03-25.608a124.81 124.81 0 0 0-9.56-11.396l-1.45 1.377c3.31 3.483 6.44 7.226 9.4 11.211l1.61-1.192zm-20.5-21.494c-3.91-3.14-8-5.969-12.26-8.463l-1.01 1.725a99.145 99.145 0 0 1 12.01 8.297l1.26-1.559zm-25.66-14.98a92.82 92.82 0 0 0-7.05-2.446l-.58 1.914c2.34.708 4.64 1.506 6.9 2.394l.73-1.862zm-7.47-2.479c-2.15.293-4.62.681-7.36 1.134l.32 1.973c2.74-.452 5.19-.836 7.31-1.126l-.27-1.981zm-22.13 3.654c-4.65.792-9.62 1.622-14.78 2.423l.31 1.976c5.17-.802 10.16-1.635 14.8-2.427l-.33-1.972zm-29.58 4.528c-4.94.627-9.92 1.177-14.84 1.595l.17 1.993c4.95-.421 9.97-.974 14.92-1.604l-.25-1.984zm-29.72 2.414c-5.23.106-10.23-.017-14.88-.438l-.18 1.991c4.74.43 9.82.554 15.1.447l-.04-2zm-29.3-3.2c-5.27-1.758-9.3-4.291-11.79-7.751l-1.62 1.166c2.81 3.924 7.28 6.648 12.78 8.482l.63-1.897zm-14.31-21.323c.65-3.923 2.21-8.46 4.86-13.688l-1.79-.904c-2.71 5.353-4.35 10.088-5.04 14.268l1.97.324zm12.58-26.43c2.54-3.674 5.49-7.595 8.88-11.777l-1.55-1.259c-3.42 4.215-6.4 8.176-8.98 11.898l1.65 1.138zm18.55-23.074c1.66-1.842 3.38-3.726 5.18-5.655l-1.46-1.365a439.369 439.369 0 0 0-5.21 5.684l1.49 1.336zm5.18-5.655c1.76-1.881 3.42-3.736 4.98-5.566l-1.52-1.299c-1.54 1.806-3.18 3.64-4.92 5.5l1.46 1.365zm13.78-17.053c2.93-4.331 5.28-8.509 7.09-12.542l-1.82-.821c-1.77 3.916-4.06 7.995-6.92 12.244l1.65 1.119zm11.41-26.63c.8-5.157.63-10.034-.4-14.64l-1.95.435c.97 4.353 1.13 8.979.38 13.901l1.97.305zm-6.25-28.08c-2.59-3.898-5.87-7.536-9.73-10.93l-1.32 1.5c3.75 3.3 6.9 6.809 9.39 10.539l1.66-1.108zm-21.49-19.552c-3.94-2.441-8.21-4.735-12.74-6.889l-.86 1.807c4.48 2.127 8.68 4.385 12.55 6.782l1.05-1.7zm-26.09-12.558a246.452 246.452 0 0 0-13.7-4.745l-.6 1.907a244.57 244.57 0 0 1 13.59 4.706l.71-1.869zm-27.57-8.75c-4.61-1.219-9.3-2.36-14.04-3.428l-.44 1.95c4.72 1.064 9.39 2.2 13.97 3.412l.51-1.934zm-28.19-6.375a537.965 537.965 0 0 0-14.219-2.534l-.325 1.974c4.728.778 9.46 1.619 14.166 2.524l.378-1.964zm-28.495-4.709a680.839 680.839 0 0 0-14.333-1.857l-.236 1.986c4.708.56 9.482 1.176 14.291 1.852l.278-1.98zm-28.689-3.421a777.755 777.755 0 0 0-14.337-1.288l-.16 1.994c4.627.372 9.406.798 14.299 1.284l.198-1.99zm-28.791-2.318a738.65 738.65 0 0 0-14.351-.75l-.084 1.998c4.449.188 9.242.435 14.311.749l.124-1.997zM880.591.07a401.01 401.01 0 0 0-7.152-.07v2c2.123 0 4.504.022 7.117.07l.035-2z" fill="#DCDCDC"/></svg>