<svg width="673" height="310" fill="none" xmlns="http://www.w3.org/2000/svg"><path d="M100.999.049a1 1 0 0 1 .618 1.902L100.999.05zm.309 255.254l.349-.937-.349.937zm561.884 54.636a1.001 1.001 0 0 1-1.284-.594l-3.106-8.447a1 1 0 1 1 1.877-.69l2.761 7.508 7.508-2.761a1 1 0 0 1 .691 1.877l-8.447 3.107zm1.44-8.492a1 1 0 1 1 1.923.552l-1.923-.552zm2.804-14.633a1 1 0 1 1-1.957.41l1.957-.41zm-8.842-12.1a1 1 0 1 1 1.439-1.389l-1.439 1.389zm-10.879-10.3a.999.999 0 1 1-.934 1.768l.934-1.768zm-14.611-3.946a1.001 1.001 0 0 1 .632-1.897l-.632 1.897zm-13.962-5.931a1.001 1.001 0 0 1-.446 1.95l.446-1.95zm-15.169-.897a1 1 0 0 1 .32-1.974l-.32 1.974zm-14.68-4.047a1 1 0 1 1-.232 1.986l.232-1.986zm-15.287.505a1 1 0 1 1 .164-1.993l-.164 1.993zm-14.777-3.014a1.001 1.001 0 0 1-.112 1.997l.112-1.997zm-15.082 1.325a1 1 0 0 1 .069-1.999l-.069 1.999zm-15.067-2.389a1.001 1.001 0 0 1-.035 2l.035-2zm-15.055 1.848a1 1 0 1 1 .006-2l-.006 2zm-15.016-1.955a1 1 0 1 1 .018 2l-.018-2zm-15.097 2.212a1 1 0 1 1-.038-1.999l.038 1.999zm-15.034-1.648a1 1 0 0 1 .056 1.999l-.056-1.999zm-14.992 2.472a1 1 0 1 1-.07-1.999l.07 1.999zm-15.134-1.423a1 1 0 0 1 .083 1.998l-.083-1.998zm-14.924 2.659a1 1 0 1 1-.093-1.998l.093 1.998zm-15.159-1.261a1 1 0 0 1 .102 1.998l-.102-1.998zm-14.902 2.793a1 1 0 1 1-.11-1.997l.11 1.997zm-15.148-1.149a1 1 0 1 1 .115 1.997l-.115-1.997zm-14.901 2.882a.999.999 0 1 1-.12-1.996l.12 1.996zm-15.156-1.08a1 1 0 0 1 .124 1.997l-.124-1.997zm-14.87 2.93a1 1 0 0 1-.125-1.996l.125 1.996zm-15.182-1.05a1 1 0 0 1 .125 1.996l-.125-1.996zm-14.861 2.937a1 1 0 0 1-.125-1.997l.125 1.997zm-15.174-1.065a1 1 0 0 1 .122 1.997l-.122-1.997zm-14.914 2.903a1 1 0 1 1-.118-1.997l.118 1.997zm-15.072-1.133a1 1 0 1 1 .112 1.996l-.112-1.996zm-15.008 2.814a1 1 0 1 1-.104-1.997l.104 1.997zm-15.099-1.259a1 1 0 1 1 .093 1.998l-.093-1.998zm-14.899 2.639a1 1 0 0 1-.078-1.999l.078 1.999zm-15.209-1.479a1 1 0 0 1 .058 1.999l-.058-1.999zm-14.999 2.349a1 1 0 1 1-.033-2l.033 2zm-14.971-1.874a1.001 1.001 0 0 1-.001 2l.001-2zm-15.014 1.824a1 1 0 0 1 .049-1.999l-.049 1.999zm-15.004-2.618a1 1 0 1 1-.12 1.997l.12-1.997zm-15.126.689a1 1 0 1 1 .238-1.986l-.238 1.986zm-14.598-4.538a1 1 0 1 1-.473 1.943l.473-1.943zm-14.365-2.892a1 1 0 0 1 .78-1.841l-.78 1.841zm-12.14-8.001a1 1 0 1 1-.94 1.765l.94-1.765zm-13.43-5.615a1 1 0 0 1 1.094-1.675l-1.094 1.675zm-10.54-10.044a1 1 0 0 1-1.241 1.569l1.24-1.569zm-12.196-7.931a1 1 0 1 1 1.378-1.449l-1.378 1.449zm-8.535-11.785a1 1 0 0 1-1.506 1.316l1.506-1.316zM26.82 200.12a1 1 0 1 1 1.624-1.168l-1.623 1.168zm-6.171-13.168a1 1 0 1 1-1.728 1.007l1.728-1.007zm-8.412-11.886a1 1 0 0 1 1.82-.83l-1.82.83zM8.79 160.932a1 1 0 0 1-1.895.639l1.895-.639zM3 147.582a1 1 0 0 1 1.952-.431l-1.953.431zm-.342-14.547a1 1 0 1 1-1.99.208l1.99-.208zM.013 118.73a1 1 0 0 1 2 .03l-2-.03zm3.092-14.215a1 1 0 1 1-1.98-.277l1.98.277zm.95-14.517a1 1 0 1 1 1.93.528l-1.93-.528zm6.59-12.96a1 1 0 0 1-1.844-.774l1.844.775zm4.66-13.8a1 1 0 1 1 1.727 1.008l-1.727-1.008zm9.669-10.83a1 1 0 0 1-1.589-1.214l1.588 1.215zm7.919-12.205a1 1 0 1 1 1.433 1.395l-1.433-1.395zm11.992-8.306a1 1 0 0 1-1.271-1.544l1.271 1.544zm10.351-10.164a1 1 0 0 1 1.111 1.663l-1.11-1.663zm13.353-5.732a1 1 0 0 1-.957-1.755L68.589 16zm12.032-8.165a1 1 0 1 1 .814 1.827l-.814-1.827zm14.115-3.524a1 1 0 1 1-.68-1.88l.68 1.88zM661.94 308.58c1.146-2.479 2.039-4.855 2.693-7.133l1.923.552c-.686 2.387-1.617 4.86-2.801 7.421l-1.815-.84zm3.54-21.356c-.974-4.649-3.302-8.8-6.885-12.51l1.439-1.389c3.809 3.944 6.342 8.425 7.403 13.489l-1.957.41zm-18.698-21.042c-3.999-2.113-8.573-4.013-13.677-5.714l.632-1.897c5.185 1.728 9.864 3.669 13.979 5.843l-.934 1.768zm-28.085-9.695c-4.629-1.059-9.545-2.005-14.723-2.847l.32-1.974c5.215.847 10.173 1.802 14.849 2.871l-.446 1.95zm-29.635-4.908a444.913 444.913 0 0 0-15.055-1.481l.164-1.993a447.61 447.61 0 0 1 15.123 1.488l-.232 1.986zm-29.944-2.498a713.752 713.752 0 0 0-14.97-.672l.069-1.999c5.112.178 10.12.401 15.013.674l-.112 1.997zm-30.072-1.061c-4.927-.086-9.937-.136-15.02-.152l.006-2c5.092.016 10.111.066 15.049.152l-.035 2zm-30.018-.107c-4.982.044-10.023.116-15.115.212l-.038-1.999c5.098-.097 10.146-.169 15.135-.213l.018 2zm-30.093.563c-4.978.138-9.997.296-15.048.473l-.07-1.999c5.056-.177 10.079-.335 15.062-.473l.056 1.999zm-30.099 1.048c-4.979.206-9.984.427-15.007.661l-.093-1.998a2887.64 2887.64 0 0 1 15.017-.661l.083 1.998zm-30.064 1.398c-4.991.255-9.995.521-15.004.795l-.11-1.997c5.012-.274 10.018-.54 15.012-.796l.102 1.998zm-30.037 1.643c-5.007.289-10.015.585-15.016.885l-.12-1.996c5.003-.301 10.012-.597 15.021-.886l.115 1.997zm-30.048 1.802c-5.012.309-10.012.621-14.994.933l-.125-1.996c4.982-.313 9.983-.624 14.995-.934l.124 1.997zm-30.051 1.879l-14.986.941-.125-1.997c4.966-.31 9.963-.624 14.986-.94l.125 1.996zm-30.038 1.873c-5.055.309-10.069.612-15.036.906l-.118-1.997c4.965-.293 9.978-.596 15.032-.906l.122 1.997zm-29.996 1.769c-5.104.287-10.146.56-15.12.818l-.104-1.997c4.971-.258 10.011-.531 15.112-.817l.112 1.996zm-30.126 1.557c-5.086.235-10.087.45-14.992.641l-.078-1.999c4.9-.19 9.896-.405 14.977-.64l.093 1.998zm-30.143 1.161c-5.149.151-10.173.269-15.057.35l-.033-2c4.875-.081 9.889-.198 15.032-.349l.058 1.999zm-30.029.476a626.86 626.86 0 0 1-15.013-.176l.049-1.999c4.777.116 9.771.173 14.965.175l-.001 2zm-30.137-.797c-5.382-.325-10.397-.757-15.006-1.308l.238-1.986c4.562.546 9.537.974 14.888 1.297l-.12 1.997zm-30.077-3.903c-2.618-.636-5.001-1.348-7.131-2.143l.699-1.873c2.041.761 4.346 1.451 6.905 2.073l-.473 1.943zm-7.131-2.143a165.77 165.77 0 0 1-6.761-2.692l.78-1.841c2.195.93 4.422 1.817 6.68 2.66l-.699 1.873zm-19.841-8.928a162.08 162.08 0 0 1-12.49-7.38l1.094-1.675a160.298 160.298 0 0 0 12.336 7.29l-.94 1.765zm-24.271-15.855a158.973 158.973 0 0 1-10.955-9.5l1.378-1.449a157.226 157.226 0 0 0 10.817 9.38l-1.24 1.569zM35.85 211.487a154.21 154.21 0 0 1-9.029-11.367l1.624-1.168a152.208 152.208 0 0 0 8.91 11.219l-1.505 1.316zm-16.928-23.528a146.24 146.24 0 0 1-6.684-12.893l1.82-.83c1.97 4.315 4.17 8.56 6.592 12.716l-1.728 1.007zM6.894 161.571a134.735 134.735 0 0 1-3.896-13.989l1.953-.431a132.763 132.763 0 0 0 3.838 13.781l-1.895.639zM.668 133.243a122.286 122.286 0 0 1-.655-14.513l2 .03c-.07 4.753.147 9.519.644 14.275l-1.99.208zm.456-29.005a113.22 113.22 0 0 1 2.932-14.24l1.929.528a111.234 111.234 0 0 0-2.88 13.989l-1.98-.277zm7.677-27.974a112.148 112.148 0 0 1 6.504-13.026l1.727 1.008a110.175 110.175 0 0 0-6.387 12.793l-1.844-.775zm14.584-25.07a122.37 122.37 0 0 1 9.508-10.991l1.433 1.395a120.374 120.374 0 0 0-9.352 10.81l-1.589-1.214zm20.229-20.841a145.24 145.24 0 0 1 11.622-8.62l1.111 1.663a143.222 143.222 0 0 0-11.462 8.501l-1.271-1.544zm24.018-16.107a180.63 180.63 0 0 1 12.989-6.41l.814 1.827a178.325 178.325 0 0 0-12.846 6.338l-.957-1.755zM94.055 2.432C96.325 1.61 98.64.815 101 .049l.618 1.902c-2.339.76-4.632 1.547-6.88 2.361l-.682-1.88z" fill="#DCDCDC"/></svg>