<svg width="577" height="252" fill="none" xmlns="http://www.w3.org/2000/svg"><path d="M9.15 1.634A1 1 0 1 0 7.606.366L9.15 1.634zm26.894 39.311l-.088.996.088-.996zm505.165 24.966l-.622.783.622-.783zM407.066 243.317a1 1 0 0 0 .047 1.413l6.572 6.149a1.001 1.001 0 0 0 1.367-1.461l-5.842-5.465 5.465-5.842a1.001 1.001 0 0 0-1.46-1.367l-6.149 6.573zM3.038 7.366a1 1 0 1 0 1.786.898l-1.786-.898zM2.6 23.306a1 1 0 0 0-1.921.556l1.921-.556zm9.331 12.788a1 1 0 1 0 .906-1.783l-.906 1.783zm16.182 2.844a1 1 0 1 0-.332 1.972l.332-1.972zM43.415 42.3a1 1 0 0 0 .04-2l-.04 2zm15.07-2.107a1 1 0 1 0 .05 2l-.05-2zm15.04 1.475a1 1 0 1 0-.084-1.998l.084 1.998zm14.9-2.703a1 1 0 1 0 .1 1.997l-.1-1.997zm15.127 1.2a1 1 0 1 0-.11-1.998l.11 1.997zm14.912-2.84a1 1 0 0 0 .114 1.996l-.114-1.997zm15.142 1.137a1 1 0 0 0-.115-1.997l.115 1.997zm14.924-2.853a1 1 0 0 0 .113 1.996l-.113-1.996zm15.165 1.157a1 1 0 1 0-.11-1.997l.11 1.997zm14.914-2.806a1 1 0 1 0 .105 1.997l-.105-1.997zm15.082 1.23a1 1 0 1 0-.099-1.998l.099 1.998zm14.92-2.72a1 1 0 0 0 .092 1.998l-.092-1.998zm15.13 1.33a1 1 0 0 0-.085-1.998l.085 1.998zm14.973-2.602a1 1 0 0 0 .075 1.999l-.075-1.999zm15.075 1.469a1 1 0 0 0-.065-2l.065 2zm14.972-2.45a1 1 0 1 0 .054 2l-.054-2zm15.09 1.638a1 1 0 0 0-.042-2l.042 2zm14.998-2.262a1 1 0 0 0 .028 2l-.028-2zm15.063 1.847a1 1 0 0 0-.012-2l.012 2zm15.043-2.03a1 1 0 0 0-.005 2l.005-2zm15.017 2.106a1 1 0 0 0 .024-2l-.024 2zm15.053-1.742a1.001 1.001 0 0 0-.045 2l.045-2zm15.004 2.428a1 1 0 0 0 .069-1.998l-.069 1.998zm15.123-1.375a1 1 0 1 0-.097 1.998l.097-1.998zm14.892 2.84a1 1 0 0 0 .128-1.996l-.128 1.995zm15.104-.901a1 1 0 0 0-.164 1.993l.164-1.993zm14.791 3.383a1 1 0 0 0 .207-1.989l-.207 1.99zm15.204-.24a1 1 0 1 0-.258 1.984l.258-1.983zm14.614 4.147a1 1 0 1 0 .32-1.974l-.32 1.974zm15.165.718a1 1 0 1 0-.396 1.96l.396-1.96zm14.219 5.286a1 1 0 0 0 .495-1.937l-.495 1.937zm14.986 2.268a1 1 0 0 0-.626 1.9l.626-1.9zm13.27 7.188a1 1 0 0 0 .807-1.83l-.807 1.83zm14.288 5.264a1 1 0 0 0-1.071 1.689l1.071-1.69zm10.541 10.827a1 1 0 0 0 1.381-1.447l-1.381 1.447zm11.518 10.014a1 1 0 0 0-1.602 1.197l1.602-1.197zm6.393 13.87a1 1 0 0 0 1.77-.932l-1.77.932zm7.827 13.115a1.001 1.001 0 0 0-1.893.647l1.893-.647zm1.797 15.163a1 1 0 1 0 1.972-.333l-1.972.333zm3.238 14.922a1 1 0 0 0-2-.007l2 .007zm-3.401 14.88a1 1 0 0 0 1.966.369l-1.966-.369zm-2.251 15.096a1 1 0 0 0-1.862-.728l1.862.728zm-8.563 12.626a1 1 0 0 0 1.699 1.056l-1.699-1.056zm-7.456 13.292a.999.999 0 1 0-1.496-1.327l1.496 1.327zm-12.268 9.086a1 1 0 0 0 1.281 1.536l-1.281-1.536zm-11.075 10.538a1 1 0 1 0-1.075-1.687l1.075 1.687zm-14.161 5.672a1 1 0 1 0 .888 1.792l-.888-1.792zm-13.034 7.909a1 1 0 0 0-.724-1.865l.724 1.865zm-14.991 3.044a1.001 1.001 0 0 0 .58 1.914l-.58-1.914zm-14.138 5.855a1 1 0 1 0-.457-1.947l.457 1.947zm-15.251 1.085a.999.999 0 1 0 .349 1.969l-.349-1.969zm-14.659 4.255a1 1 0 0 0-.255-1.984l.255 1.984zm-15.244-.376a1 1 0 1 0 .173 1.993l-.173-1.993zm-14.947 3.024a1 1 0 0 0-.101-1.998l.101 1.998zM7.605.366a38.255 38.255 0 0 0-4.567 7l1.786.898a36.256 36.256 0 0 1 4.327-6.63L7.605.366zM.679 23.862c1.352 4.672 4.814 8.962 11.252 12.232l.906-1.783C6.795 31.24 3.77 27.349 2.6 23.306l-1.921.556zM27.781 40.91c2.515.425 5.235.77 8.175 1.031l.176-1.992c-2.892-.256-5.56-.596-8.019-1.01l-.332 1.971zm8.175 1.031c2.089.185 4.587.302 7.459.36l.04-2c-2.846-.057-5.295-.172-7.323-.352l-.176 1.992zm22.58.252c4.555-.116 9.567-.295 14.99-.525l-.085-1.998a888.67 888.67 0 0 1-14.956.523l.05 2zm29.99-1.23c4.786-.244 9.802-.512 15.026-.799l-.11-1.997c-5.222.287-10.235.555-15.018.798l.102 1.997zm30.052-1.642c4.871-.277 9.885-.565 15.028-.86l-.115-1.996-15.027.86.114 1.996zm30.065-1.716c4.925-.278 9.945-.559 15.052-.84l-.11-1.996c-5.108.28-10.13.561-15.055.84l.113 1.996zm30.071-1.648c4.93-.26 9.925-.516 14.977-.767l-.099-1.998c-5.054.252-10.052.508-14.983.768l.105 1.997zm29.989-1.49c4.971-.23 9.986-.453 15.038-.667l-.085-1.998c-5.054.214-10.072.437-15.045.668l.092 1.998zm30.086-1.27c4.976-.189 9.978-.366 15-.53l-.065-2c-5.026.165-10.031.343-15.01.531l.075 1.999zm30.026-.98a2329.03 2329.03 0 0 1 15.036-.362l-.042-2c-5.023.105-10.042.226-15.048.362l.054 2zm30.062-.624c5.017-.07 10.031-.122 15.035-.153l-.012-2c-5.01.031-10.029.083-15.051.153l.028 2zm30.073-.183c5.028.012 10.037.047 15.022.106l.024-2c-4.991-.06-10.007-.094-15.041-.106l-.005 2zm30.03.363c5.053.114 10.072.257 15.049.43l.069-2c-4.985-.172-10.012-.315-15.073-.43l-.045 2zm30.075 1.052c5.054.245 10.053.524 14.989.841l.128-1.995a958.653 958.653 0 0 0-15.02-.844l-.097 1.998zm29.929 1.934c5.07.418 10.058.88 14.955 1.39l.207-1.989a705.219 705.219 0 0 0-14.998-1.394l-.164 1.993zm29.901 3.134a481.803 481.803 0 0 1 14.872 2.163l.32-1.974a483.49 483.49 0 0 0-14.934-2.172l-.258 1.983zm29.641 4.841a297.427 297.427 0 0 1 14.615 3.326l.495-1.937a299.461 299.461 0 0 0-14.714-3.35l-.396 1.961zm28.975 7.493c4.957 1.634 9.599 3.394 13.896 5.289l.807-1.83c-4.365-1.925-9.068-3.708-14.077-5.358l-.626 1.9zm27.113 12.242a69.194 69.194 0 0 1 5.973 4.225l1.244-1.566a71.378 71.378 0 0 0-6.146-4.348l-1.071 1.689zm5.973 4.225a81.91 81.91 0 0 1 5.639 4.913l1.381-1.447a84.59 84.59 0 0 0-5.776-5.032l-1.244 1.566zm15.555 16.124a95.561 95.561 0 0 1 7.995 12.673l1.77-.932a97.534 97.534 0 0 0-8.163-12.938l-1.602 1.197zm13.929 26.435a92.94 92.94 0 0 1 3.69 14.516l1.972-.333a94.97 94.97 0 0 0-3.769-14.83l-1.893.647zm4.928 29.431a82.317 82.317 0 0 1-1.401 14.887l1.966.369a84.383 84.383 0 0 0 1.435-15.249l-2-.007zm-5.514 29.255a81.475 81.475 0 0 1-6.701 13.354l1.699 1.056a83.437 83.437 0 0 0 6.864-13.682l-1.862-.728zm-15.653 25.319c-3.185 3.591-6.768 7.072-10.772 10.413l1.281 1.536c4.079-3.403 7.733-6.954 10.987-10.622l-1.496-1.327zm-22.922 19.264a140.03 140.03 0 0 1-13.086 7.359l.888 1.792a142.016 142.016 0 0 0 13.273-7.464l-1.075-1.687zm-26.844 13.403a198.591 198.591 0 0 1-14.267 4.909l.58 1.914a201.472 201.472 0 0 0 14.411-4.958l-.724-1.865zm-28.862 8.817a274.587 274.587 0 0 1-14.794 3.032l.349 1.969a277.056 277.056 0 0 0 14.902-3.054l-.457-1.947zm-29.708 5.303a363.54 363.54 0 0 1-14.989 1.608l.173 1.993a367.901 367.901 0 0 0 15.071-1.617l-.255-1.984zm-30.037 2.634c-2.529.128-5.095.235-7.696.322l.067 1.998c2.612-.087 5.189-.194 7.73-.322l-.101-1.998z" fill="#DCDCDC"/></svg>