<svg width="283" height="226" fill="none" xmlns="http://www.w3.org/2000/svg"><path d="M58.171 2.16a1 1 0 1 0-1.974-.32l1.974.32zm199.661 159.395a1 1 0 0 0-.277-1.387l-7.489-4.992a1 1 0 1 0-1.109 1.664l6.656 4.437-4.437 6.657a1 1 0 1 0 1.664 1.109l4.992-7.488zm-8.836-.012a1 1 0 1 0 .373 1.964l-.373-1.964zm-14.87 4.701a1 1 0 1 0-.332-1.972l.332 1.972zm-15.688.432a1.001 1.001 0 0 0 .285 1.98l-.285-1.98zm-15.253 3.998a1 1 0 0 0-.228-1.987l.228 1.987zm-15.711-.461a.999.999 0 1 0 .161 1.993l-.161-1.993zm-15.419 2.949a1.001 1.001 0 0 0-.081-1.999l.081 1.999zm-15.584-1.749a1 1 0 0 0-.019 2l.019-2zm-15.594 1.377a1 1 0 1 0 .145-1.995l-.145 1.995zm-15.196-3.713a1.001 1.001 0 0 0-.306 1.977l.306-1.977zm-15.722-1.233a1 1 0 0 0 .518-1.932l-.518 1.932zm-14-6.9a1 1 0 0 0-.788 1.839l.787-1.839zm-14.644-5.631a1 1 0 0 0 1.115-1.66l-1.115 1.66zm-10.573-11.552a1 1 0 1 0-1.459 1.368l1.46-1.368zm-10.82-11.316a1 1 0 1 0 1.735-.995l-1.735.995zm-4.467-15.036a1 1 0 0 0-1.899.627l1.9-.627zm-5.598-14.644a1 1 0 0 0 1.973-.327l-1.973.327zm.35-15.685a1 1 0 1 0-1.998.106l1.997-.106zM48.04 71.548a1 1 0 0 0 2 .054l-2-.054zm2.871-15.442a1 1 0 1 0-1.993-.164l1.993.164zm-.39-15.712a1 1 0 0 0 1.985.24l-1.986-.24zm4.055-15.158a1 1 0 0 0-1.98-.289l1.98.289zm.384-15.702a1 1 0 0 0 1.975.314l-1.975-.314zm201.843 150.485a842.595 842.595 0 0 1-7.808 1.524l.373 1.964a814.23 814.23 0 0 0 7.827-1.526l-.392-1.962zm-23.01 4.253a644.025 644.025 0 0 1-15.356 2.404l.285 1.98a646.449 646.449 0 0 0 15.403-2.412l-.332-1.972zm-30.837 4.415a464.488 464.488 0 0 1-15.483 1.526l.161 1.993a464.766 464.766 0 0 0 15.55-1.532l-.228-1.987zm-30.983 2.476a309.5 309.5 0 0 1-15.503.25l-.019 2c4.983.049 10.181-.033 15.603-.251l-.081-1.999zm-30.952-.368c-5.412-.394-10.521-.97-15.341-1.718l-.306 1.977c4.878.756 10.04 1.338 15.502 1.736l.145-1.995zm-30.545-4.883c-5.258-1.409-10.087-3.071-14.519-4.968l-.787 1.839c4.526 1.937 9.446 3.63 14.788 5.061l.518-1.932zM82.43 153.653c-4.43-2.978-8.307-6.287-11.688-9.892l-1.459 1.368c3.487 3.718 7.48 7.124 12.032 10.184l1.115-1.66zM61.657 131.45c-2.52-4.396-4.567-9.088-6.202-14.041l-1.899.627c1.673 5.068 3.773 9.885 6.366 14.409l1.735-.995zm-9.827-29.012c-.82-4.942-1.345-10.07-1.624-15.358l-1.997.106c.282 5.35.814 10.553 1.648 15.579l1.973-.327zm-1.79-30.836c.136-5.066.438-10.238.872-15.496l-1.993-.164a281.115 281.115 0 0 0-.877 15.606l1.999.054zm2.467-30.968a639.443 639.443 0 0 1 2.07-15.398l-1.98-.289a641.553 641.553 0 0 0-2.076 15.447l1.986.24zm4.43-30.786c.406-2.56.82-5.123 1.234-7.688l-1.974-.32c-.415 2.567-.829 5.132-1.236 7.694l1.975.314z" fill="#DCDCDC"/></svg>