<svg width="563" height="805" fill="none" xmlns="http://www.w3.org/2000/svg"><path d="M2.933 1.359A1 1 0 0 0 1.067.641l1.866.718zM180 29l-.011 1 .011-1zm360 214l-.956.294L540 243zM155.29 796.296a1 1 0 0 0 .006 1.414l6.391 6.337a1 1 0 1 0 1.408-1.42l-5.681-5.633 5.634-5.68a1 1 0 0 0-1.42-1.409l-6.338 6.391zM1.995 9.043a1 1 0 0 0 1.631-1.157L1.995 9.043zm14.448 6.266a1 1 0 0 0-.628 1.899l.628-1.9zM31.19 21.01a1 1 0 1 0 .373-1.965l-.373 1.965zm15.793.443a1 1 0 1 0-.257 1.984l.257-1.984zm15.352 3.712a1 1 0 0 0 .189-1.99l-.189 1.99zm15.793-.7a1 1 0 1 0-.144 1.994l.144-1.995zm15.549 2.989a1 1 0 1 0 .11-1.997l-.11 1.997zm15.757-1.228a1 1 0 0 0-.087 1.998l.087-1.998zm15.581 2.598a1 1 0 0 0 .067-1.999l-.067 1.999zm15.752-1.535a1 1 0 1 0-.051 1.999l.051-2zm15.656 2.352a1 1 0 1 0 .038-2l-.038 2zm15.682-1.741a.999.999 0 1 0-.027 2l.027-2zm15.25 2.173a1 1 0 0 0 .017-2l-.017 2zm14.653-1.913a1 1 0 1 0-.008 2l.008-2zm14.633 2.04a1 1 0 1 0 .004-2l-.004 2zm14.645-1.97a1 1 0 0 0-.006 2l.006-2zm14.631 2.066a1 1 0 0 0 .014-2l-.014 2zm14.663-1.85a1 1 0 0 0-.029 2l.029-2zm14.601 2.293a1 1 0 1 0 .053-1.999l-.053 2zm14.707-1.498a1 1 0 0 0-.086 1.998l.086-1.998zm14.517 2.778a1 1 0 0 0 .13-1.996l-.13 1.996zm14.757-.848a1 1 0 1 0-.185 1.991l.185-1.991zm14.333 3.59a1 1 0 0 0 .254-1.984l-.254 1.984zm14.77.184a1 1 0 1 0-.338 1.971l.338-1.971zm13.965 4.79a1 1 0 0 0 .438-1.95l-.438 1.95zm14.68 1.676a1 1 0 1 0-.552 1.922l.552-1.922zm13.32 6.401a1 1 0 1 0 .679-1.88l-.679 1.88zm14.323 3.615a1 1 0 1 0-.816 1.825l.816-1.825zm12.229 8.282a1 1 0 0 0 .958-1.756l-.958 1.756zm13.587 5.82a.999.999 0 1 0-1.098 1.671l1.098-1.671zm10.727 10.151a1 1 0 0 0 1.231-1.577l-1.231 1.577zm12.449 7.917a1 1 0 1 0-1.35 1.475l1.35-1.475zm9.007 11.692a1 1 0 0 0 1.456-1.371l-1.456 1.371zm11.162 9.662a.999.999 0 1 0-1.545 1.27l1.545-1.27zm7.356 12.806a1 1 0 0 0 1.619-1.174l-1.619 1.174zm9.907 10.955a1 1 0 0 0-1.681 1.084l1.681-1.084zm5.923 13.543a1 1 0 0 0 1.732-1.001l-1.732 1.001zm8.815 11.89a1 1 0 0 0-1.773.926l1.773-.926zm4.765 14.057a1 1 0 1 0 1.807-.858l-1.807.858zm7.847 12.441a1 1 0 0 0-1.834.798l1.834-.798zm3.764 14.233a1 1 0 0 0 1.857-.742l-1.857.742zm7.122 12.965a1 1 0 1 0-1.876.693l1.876-.693zm3.061 14.587a1 1 0 0 0 1.893-.648l-1.893.648zm6.447 13.143a1 1 0 0 0-1.906.608l1.906-.608zm2.36 14.669a1 1 0 1 0 1.926-.54l-1.926.54zm5.702 14.076a1 1 0 0 0-1.946.465l1.946-.465zm1.298 15.055a1 1 0 1 0 1.958-.405l-1.958.405zm4.788 14.269a1 1 0 1 0-1.968.354l1.968-.354zm.479 15.037a1 1 0 1 0 1.976-.305l-1.976.305zm4.082 14.509a1 1 0 0 0-1.983.259l1.983-.259zm-.221 15.118a1 1 0 0 0 1.989-.213l-1.989.213zm3.419 14.779a1 1 0 1 0-1.993.167l1.993-.167zm-.92 14.99a1 1 0 0 0 1.996-.122l-1.996.122zm2.733 14.817a1 1 0 1 0-1.998.075l1.998-.075zm-1.611 15.049a.999.999 0 1 0 1.999-.028l-1.999.028zm2.026 14.936a1 1 0 1 0-2-.021l2 .021zm-2.341 14.88a1 1 0 0 0 1.999.071l-1.999-.071zm1.272 15.071a1 1 0 1 0-1.996-.123l1.996.123zm-3.112 14.74a1 1 0 0 0 1.992.176l-1.992-.176zm.461 15.072a.999.999 0 1 0-1.986-.232l1.986.232zm-3.942 14.598a.998.998 0 1 0 1.978.29l-1.978-.29zm-.42 15.046a1 1 0 1 0-1.969-.351l1.969.351zm-4.824 14.3a1 1 0 0 0 1.957.415l-1.957-.415zm-1.391 15.026a.999.999 0 1 0-1.941-.479l1.941.479zm-5.767 13.925a1 1 0 1 0 1.924.547l-1.924-.547zm-2.445 14.899a1 1 0 0 0-1.902-.618l1.902.618zm-6.774 13.462a.999.999 0 1 0 1.877.69l-1.877-.69zm-3.577 14.652a1 1 0 0 0-1.848-.766l1.848.766zm-7.841 12.894a1 1 0 0 0 1.815.842l-1.815-.842zm-4.78 14.286a1 1 0 0 0-1.776-.92l1.776.92zm-8.935 12.173a1 1 0 1 0 1.733.999l-1.733-.999zm-6.043 13.794a1 1 0 1 0-1.685-1.078l1.685 1.078zm-10.012 11.276a.999.999 0 1 0 1.631 1.157l-1.631-1.157zm-7.347 13.183a1 1 0 1 0-1.573-1.235l1.573 1.235zm-11.037 10.227a1 1 0 1 0 1.51 1.311l-1.51-1.311zm-8.644 12.433a1 1 0 0 0-1.443-1.385l1.443 1.385zm-11.965 9.047a.999.999 0 1 0 1.372 1.454l-1.372-1.454zm-9.834 11.509a1 1 0 1 0-1.298-1.521l1.298 1.521zm-12.809 7.825a1 1 0 0 0 1.222 1.583l-1.222-1.583zm-10.895 10.481a1 1 0 0 0-1.145-1.64l1.145 1.64zm-13.521 6.57a.999.999 0 1 0 1.066 1.692l-1.066-1.692zm-11.819 9.405a1 1 0 0 0-.988-1.739l.988 1.739zm-14.07 5.314a1 1 0 0 0 .911 1.781l-.911-1.781zm-12.611 8.332a1 1 0 0 0-.834-1.818l.834 1.818zm-14.445 4.093a.999.999 0 1 0 .759 1.85l-.759-1.85zm-13.304 7.302a1 1 0 0 0-.686-1.879l.686 1.879zm-14.652 2.936a1 1 0 0 0 .617 1.902l-.617-1.902zm-13.937 6.338a1 1 0 1 0-.549-1.923l.549 1.923zm-14.707 1.867a1 1 0 1 0 .485 1.94l-.485-1.94zm-14.234 5.375a1 1 0 1 0-.424-1.955l.424 1.955zm-14.956.968a.999.999 0 1 0 .365 1.966l-.365-1.966zm-14.351 4.483a1 1 0 0 0-.31-1.975l.31 1.975zm-15.31.164a1 1 0 1 0 .256 1.984l-.256-1.984zm-14.342 3.679a1 1 0 1 0-.206-1.989l.206 1.989zm-15.166-.623a1 1 0 0 0 .158 1.994l-.158-1.994zm-14.838 3.009a1 1 0 1 0-.113-1.997l.113 1.997zm-14.827-1.327a1 1 0 0 0 .07 1.999l-.07-1.999zm-15.057 2.37a1 1 0 1 0-.028-2l.028 2zM1.067.641c-1.141 2.967-.91 5.81.928 8.402l1.631-1.157C2.214 5.894 2.01 3.763 2.933 1.359L1.067.641zm14.748 16.567c4.19 1.384 9.296 2.65 15.376 3.802l.373-1.965c-6.024-1.141-11.04-2.388-15.121-3.736l-.628 1.899zm30.912 6.229a461.77 461.77 0 0 0 15.61 1.728l.188-1.99a459.771 459.771 0 0 1-15.541-1.722l-.257 1.984zm31.258 3.022c4.96.357 10.189.689 15.693.995l.11-1.997a963.988 963.988 0 0 1-15.66-.993l-.143 1.995zm31.363 1.765c5.024.218 10.244.418 15.668.6l.067-1.999c-5.417-.182-10.632-.382-15.648-.599l-.087 1.998zm31.369 1.064c5.076.13 10.311.248 15.707.353l.038-2c-5.391-.104-10.622-.222-15.694-.352l-.051 1.999zm31.362.612c2.602.036 5.239.07 7.91.1l.023-2c-2.67-.03-5.305-.064-7.906-.1l-.027 2zm7.91.1c2.468.028 4.923.052 7.367.073l.017-2c-2.442-.02-4.896-.045-7.361-.073l-.023 2zm22.012.16c4.931.02 9.811.03 14.641.04l.004-2c-4.83-.01-9.709-.02-14.637-.04l-.008 2zm29.28.07c4.933.014 9.812.033 14.637.066l.014-2c-4.829-.033-9.711-.052-14.645-.066l-.006 2zm29.271.216c4.935.072 9.811.167 14.63.293l.053-1.999a1229.35 1229.35 0 0 0-14.654-.293l-.029 2zm29.251.793c4.931.212 9.798.468 14.603.78l.13-1.996c-4.822-.313-9.704-.57-14.647-.782l-.086 1.998zm29.175 1.923c4.907.457 9.746.986 14.518 1.599l.254-1.984a421.07 421.07 0 0 0-14.587-1.606l-.185 1.991zm28.95 3.754c4.84.831 9.608 1.767 14.303 2.82l.438-1.952a290.822 290.822 0 0 0-14.403-2.84l-.338 1.972zm28.431 6.417a217.47 217.47 0 0 1 13.872 4.48l.679-1.882a219.544 219.544 0 0 0-13.999-4.52l-.552 1.922zm27.379 9.92a183.938 183.938 0 0 1 13.045 6.456l.958-1.756a185.964 185.964 0 0 0-13.187-6.526l-.816 1.825zM429.272 67.2a178.412 178.412 0 0 1 11.825 8.48l1.231-1.577a180.5 180.5 0 0 0-11.958-8.574l-1.098 1.671zm22.924 17.872a197.634 197.634 0 0 1 10.357 10.217l1.456-1.371a199.627 199.627 0 0 0-10.463-10.321l-1.35 1.475zm19.974 21.149a238.476 238.476 0 0 1 8.901 11.536l1.619-1.174a240.537 240.537 0 0 0-8.975-11.632l-1.545 1.27zm17.127 23.575a301.236 301.236 0 0 1 7.604 12.459l1.732-1.001a303.737 303.737 0 0 0-7.655-12.542l-1.681 1.084zm14.646 25.275c2.21 4.232 4.39 8.607 6.538 13.131l1.807-.858a389.384 389.384 0 0 0-6.572-13.199l-1.773.926zm12.551 26.37a488.239 488.239 0 0 1 5.598 13.435l1.857-.742a491.802 491.802 0 0 0-5.621-13.491l-1.834.798zm10.844 27.093a611.372 611.372 0 0 1 4.937 13.894l1.893-.648a618.796 618.796 0 0 0-4.954-13.939l-1.876.693zm9.478 27.645c.748 2.345 1.49 4.716 2.228 7.115l1.912-.588a762.844 762.844 0 0 0-2.234-7.135l-1.906.608zm2.228 7.115a287.498 287.498 0 0 1 2.038 6.946l1.926-.54c-.694-2.476-1.38-4.81-2.052-6.994l-1.912.588zm5.794 21.487a492.586 492.586 0 0 1 3.244 14.59l1.958-.405a491.154 491.154 0 0 0-3.256-14.65l-1.946.465zm6.064 29.213a613.625 613.625 0 0 1 2.447 14.683l1.976-.305a613.555 613.555 0 0 0-2.455-14.732l-1.968.354zm4.546 29.451c.63 4.834 1.22 9.791 1.762 14.859l1.989-.213a653.22 653.22 0 0 0-1.768-14.905l-1.983.259zm3.188 29.805a654.39 654.39 0 0 1 1.073 14.823l1.996-.122a652.599 652.599 0 0 0-1.076-14.868l-1.993.167zm1.808 29.715c.186 4.932.316 9.926.387 14.974l1.999-.028a627.265 627.265 0 0 0-.388-15.021l-1.998.075zm.413 29.889a591.675 591.675 0 0 1-.341 14.901l1.999.071c.178-5.022.291-10.008.342-14.951l-2-.021zm-1.065 29.849a552.875 552.875 0 0 1-1.116 14.863l1.992.176c.444-4.996.815-9.97 1.12-14.916l-1.996-.123zm-2.641 29.703a511.917 511.917 0 0 1-1.956 14.83l1.978.29a509.009 509.009 0 0 0 1.964-14.888l-1.986-.232zm-4.345 29.525a463.674 463.674 0 0 1-2.855 14.651l1.957.415a468.285 468.285 0 0 0 2.867-14.715l-1.969-.351zm-6.187 29.198a425.986 425.986 0 0 1-3.826 14.404l1.924.547a425.27 425.27 0 0 0 3.843-14.472l-1.941-.479zm-8.173 28.685a387.885 387.885 0 0 1-4.872 14.08l1.877.69a389.933 389.933 0 0 0 4.897-14.152l-1.902-.618zm-10.297 27.966a354.475 354.475 0 0 1-5.993 13.66l1.815.842a358.23 358.23 0 0 0 6.026-13.736l-1.848-.766zM515.6 614.806a331.297 331.297 0 0 1-7.159 13.093l1.733.999a334.708 334.708 0 0 0 7.202-13.172l-1.776-.92zm-14.887 25.809a312.67 312.67 0 0 1-8.327 12.354l1.631 1.157a313.761 313.761 0 0 0 8.381-12.433l-1.685-1.078zm-17.247 24.302a302.164 302.164 0 0 1-9.464 11.462l1.51 1.311a304.267 304.267 0 0 0 9.527-11.538l-1.573-1.235zm-19.551 22.51a299.518 299.518 0 0 1-10.522 10.432l1.372 1.454a300.074 300.074 0 0 0 10.593-10.501l-1.443-1.385zm-21.654 20.42a303.936 303.936 0 0 1-11.511 9.346l1.222 1.583a305.389 305.389 0 0 0 11.587-9.408l-1.298-1.521zm-23.551 18.187a316.695 316.695 0 0 1-12.376 8.21l1.066 1.692c4.26-2.685 8.411-5.44 12.455-8.262l-1.145-1.64zm-25.183 15.876a337.23 337.23 0 0 1-13.082 7.053l.911 1.781a341.217 341.217 0 0 0 13.159-7.095l-.988-1.739zM367 755.477a367.409 367.409 0 0 1-13.611 5.911l.759 1.85a369.768 369.768 0 0 0 13.686-5.943l-.834-1.818zm-27.601 11.334a403.484 403.484 0 0 1-13.966 4.815l.617 1.902a403.903 403.903 0 0 0 14.035-4.838l-.686-1.879zm-28.452 9.23a446.095 446.095 0 0 1-14.158 3.79l.485 1.94a447.446 447.446 0 0 0 14.222-3.807l-.549-1.923zm-28.816 7.21a500.132 500.132 0 0 1-14.532 2.923l.365 1.966a500.862 500.862 0 0 0 14.591-2.934l-.424-1.955zm-29.193 5.431a557.413 557.413 0 0 1-15 2.139l.256 1.984a558.524 558.524 0 0 0 15.054-2.148l-.31-1.975zm-29.548 3.829c-4.918.51-9.904.966-14.96 1.366l.158 1.994a620.045 620.045 0 0 0 15.008-1.371l-.206-1.989zm-29.911 2.378a691.77 691.77 0 0 1-14.714.67l.07 1.999c4.98-.174 9.899-.399 14.757-.672l-.113-1.997zm-29.799 1.04c-2.546.037-5.107.06-7.684.071l.008 2c2.584-.011 5.152-.034 7.704-.071l-.028-2z" fill="#DCDCDC"/></svg>