<svg width="207" height="247" fill="none" xmlns="http://www.w3.org/2000/svg"><path d="M204.559 56.897a1 1 0 1 0 .882-1.795l-.882 1.795zM97.321 230.947a1 1 0 0 0 .626-1.268l-2.893-8.523a1 1 0 1 0-1.894.643l2.572 7.575-7.576 2.572a1 1 0 1 0 .643 1.894l8.522-2.893zm-6.841-5.46a1 1 0 1 0-.96 1.755l.96-1.755zm-14.244-6.333a1 1 0 0 0 1.124-1.655l-1.124 1.655zM65.2 208.208a1 1 0 1 0-1.307 1.513l1.307-1.513zm-12.39-9.462a1 1 0 1 0 1.506-1.316l-1.507 1.316zm-7.595-13.643a1 1 0 0 0-1.706 1.044l1.706-1.044zm-8.578-12.976a1.001 1.001 0 0 0 1.873-.702l-1.873.702zm-1.993-15.458a1 1 0 1 0-1.977.304l1.977-.304zm-2.758-15.332a1 1 0 0 0 1.997.104l-1.997-.104zm4.26-14.996a1 1 0 0 0-1.941-.481l1.941.481zm3.14-15.271a1 1 0 0 0 1.83.808l-1.83-.808zm9.098-12.665a1 1 0 0 0-1.683-1.08l1.683 1.08zm7.681-13.594a1 1 0 0 0 1.514 1.307l-1.514-1.307zm12.278-9.612a1 1 0 0 0-1.33-1.493l1.33 1.493zM79.3 64.082a1 1 0 0 0 1.132 1.648L79.3 64.082zm14.293-6.248a1 1 0 1 0-.922-1.775l.922 1.775zm13.343-8.104a1 1 0 1 0 .697 1.875l-.697-1.875zm15.381-2.57a1 1 0 1 0-.458-1.946l.458 1.946zm14.938-4.561a1 1 0 1 0 .209 1.989l-.209-1.99zm15.52 1.366a1 1 0 0 0 .047-2l-.047 2zm15.595-.63a1 1 0 1 0-.303 1.976l.303-1.977zm14.697 5.256a1 1 0 1 0 .549-1.923l-.549 1.923zm15.226 3.25a1 1 0 0 0-.777 1.844l.777-1.843zM97.442 229.104a184.796 184.796 0 0 1-6.962-3.616l-.96 1.755a187.926 187.926 0 0 0 7.038 3.655l.884-1.794zM77.36 217.499c-4.421-3.001-8.47-6.104-12.161-9.291l-1.307 1.513c3.753 3.241 7.863 6.391 12.344 9.433l1.124-1.655zM54.315 197.43c-3.512-4.022-6.537-8.141-9.101-12.327l-1.706 1.044c2.626 4.286 5.717 8.495 9.3 12.599l1.507-1.316zm-15.806-26.005a74.2 74.2 0 0 1-3.866-14.756l-1.977.304a76.21 76.21 0 0 0 3.97 15.154l1.873-.702zm-4.627-29.984a79.877 79.877 0 0 1 2.263-15.1l-1.941-.481a81.865 81.865 0 0 0-2.32 15.477l1.998.104zm7.233-29.563a98.916 98.916 0 0 1 7.268-13.473l-1.683-1.08a100.898 100.898 0 0 0-7.415 13.745l1.83.808zm16.463-25.76A117.007 117.007 0 0 1 68.342 75.2l-1.33-1.494A119.026 119.026 0 0 0 56.064 84.81l1.514 1.307zm22.855-20.39a124.956 124.956 0 0 1 13.16-7.895l-.921-1.775A126.944 126.944 0 0 0 79.3 64.08l1.132 1.648zm27.201-14.124a123.33 123.33 0 0 1 14.684-4.445l-.458-1.946a125.32 125.32 0 0 0-14.923 4.516l.697 1.875zm29.831-7.017c5.028-.528 10.14-.745 15.311-.623l.047-2a121.629 121.629 0 0 0-15.567.634l.209 1.989zm30.603.723c4.974.762 9.981 1.848 15 3.28l.549-1.923a123.78 123.78 0 0 0-15.246-3.334l-.303 1.977zm29.449 8.374c2.349.99 4.697 2.06 7.042 3.213l.882-1.795a134.756 134.756 0 0 0-7.147-3.261l-.777 1.843z" fill="#DCDCDC"/></svg>