<svg width="49" height="48" fill="none" xmlns="http://www.w3.org/2000/svg"><path d="M21.102.238l-.516.314c-.461.28-.648.665-.655 1.052-1.734 2.314-3.045 4.994-4.498 7.52-1.87 3.245-3.641 6.547-5.007 10.084-.572 1.48 1.358 2.304 2.264 1.433.625-.6.94-1.291 1.338-2.089a.77.77 0 0 0 .069-.505c1.068-2.114 2.087-4.271 3.135-6.384 1.387-2.793 2.769-6.02 4.566-8.607.204-.109.394-.292.548-.592l.29-.56-.017-.015c.482-1.011-.457-2.296-1.517-1.651zm-7.425 23.279c-.385-.285-.937-.362-1.47-.376a.566.566 0 0 0-.11-.182c-1.429-1.574-3.8 1.063-4.245 2.472-.664 2.112 1.697 3.42 3.22 3.625.813.11 1.723-.165 2.401-.646.686-.486.846-1.621.933-2.425.092-.866-.027-1.948-.73-2.468zm-.879 2.23c-.047.26-.15.966-.38 1.106-.334.2-.768.183-1.133.17-.53-.015-1.88-.44-1.525-1.252.302-.691.894-.971 1.45-1.296.03.005.054.02.089.022.423.013.84.035 1.252.145.484.129.335.614.247 1.106zm26.79-1.474c-.592-.503-2.157-1.044-2.644-.276-.097-.063-.218-.081-.32-.005-.717.525-1.667.717-2.188 1.535-.55.864-.318 2.133.307 2.886 1.218 1.465 3.22 1.227 4.597.163 1.45-1.119 1.717-3.058.248-4.303zm-1.803 3.113c-.731.305-1.434.202-1.867-.535-.345-.586.415-1.476.895-2.056.067.461.679.593.807.088.114-.447 1.227.65 1.351.867.433.753-.656 1.415-1.186 1.636zm-6.181-8.494c-5.299-.103-11.359-.606-16.54.689-.447.111-.447.864 0 .976 5.181 1.296 11.241.793 16.54.69 1.397-.028 1.397-2.328 0-2.355z" fill="#9DB9C1"/><path d="M47.65 17.205c.001-.025 0-.05.002-.074-2.997-.743-7.07-.14-9.136.147-.594.084-.85.581-.79 1.039-2.257-3.492-4.112-7.427-5.964-11.16-.92-1.853-2.07-3.551-2.831-5.496-.335-.854-.616-1.412-1.446-1.638-.441-.12-1.01.245-.96.796.013.156.028.313.04.47.029.34.197.556.406.667.266.74.456 1.696.713 2.303a83.04 83.04 0 0 0 3.047 6.405c1.823 3.44 2.962 7.534 5.53 10.447 1.045 1.186 3.055-.419 2.13-1.786-.076-.109-.146-.223-.22-.333.1.054.214.094.345.113 2.713.376 5.69-.165 8.37.542.03.894-.23 2.15-.52 3.33-.073.144-.148.286-.218.435a1.669 1.669 0 0 0-.504-.026c-.605.06-1.19.321-1.638.771-.75.751.376 1.975 1.116 1.214a.582.582 0 0 0 .038-.037 1.442 1.442 0 0 1 .255-.157 43.569 43.569 0 0 0-.86 2.608c-.091-.025-.184-.044-.277-.071a4.105 4.105 0 0 0-1.44-.115c-.435.038-.603.807-.11.888.498.08.957.293 1.447.417l.046.014c-.196.675-.39 1.349-.591 2.016-.06.204-.133.401-.2.603-.192-.064-.383-.127-.555-.205-.514-.229-1.233-.005-1.766.037-.273-.02-.398.209-.384.438-.014.23.111.46.384.44.588.045 1.175.05 1.73.278.071.03.144.059.217.085a44.982 44.982 0 0 1-.763 1.892c-.1 0-.197.002-.291-.003-.44-.02-.887.056-1.325.1-.587.059-.587.932 0 .99.363.036.736.096 1.102.1-.233.529-.466 1.056-.698 1.586-.131-.019-.262-.035-.394-.056-.351-.053-.733-.338-1.068-.138a.212.212 0 0 0 .022.018.453.453 0 0 0-.199.23l-.017.05a.543.543 0 0 0 .125.514c.286.282.644.49 1.029.554-.296.71-.567 1.43-.818 2.158-.236-.01-.479.012-.713.018.036 0-.368-.284-.45-.314-.23-.082-.481-.01-.688.096l.008.01c-.192.151-.29.49-.008.638.183.095.332.098.467.265.22.275.312.44.671.455.132.005.263.007.394.01a6.29 6.29 0 0 0-.169.858l.119.017c-.321.785-.508 1.596-.445 2.385-4.729.013-9.464.125-14.214.242-4.527.112-9.836-.673-14.429.24a5.037 5.037 0 0 1-.094-1.176c-.857-3.532-3.275-6.487-4.365-9.997-.723-2.334-1.237-4.794-1.814-7.176-.473-1.953-1.382-6.772-1.376-7.054.841.048 1.685-.008 2.532-.005.924.004 2.228.155 2.93-.605a.52.52 0 0 0 .126-.494c-.315-.95-1.402-1.27-2.283-1.343-1.37-.112-2.846-.088-4.2.166a.875.875 0 0 0-.55.355c-.364-.08-.807.118-.945.528-.708 2.106.19 4.12.518 6.222.26 1.667.647 3.378 1.327 4.93.251 1.003.506 1.99.745 2.94.513 2.033 1.055 3.957 1.847 5.884.974 2.369 2.874 4.531 3.102 7.193.019.225.077.438.162.631.001.015 0 .029.003.044.003.167.087.328.301.41.223.225.515.368.87.367.118 0 .236-.007.354-.009 4.734 1.189 10.498.417 15.238.425 4.877.008 9.774-.205 14.628-.197.74.001 1.125-.566 1.165-1.163a.819.819 0 0 0 .26-.281c.485-.916.606-2.06.96-3.046.337-.934.561-1.801.7-2.746 1.348-3.599 2.952-7.023 4.016-10.762a34.15 34.15 0 0 1 .985-2.945c.012-.118.02-.235.033-.353 1.36-1.892 2.524-8.016.171-9.063z" fill="#9DB9C1"/><path d="M35.06 35.002c-7.22-.758-14.785-.13-22.033.066-.587.015-.587.974 0 .99 7.248.195 14.813.823 22.033.066.664-.07.664-1.052 0-1.122zm-1.2 4.405c-2.608-.658-5.382-.03-8.034.102-3.544.178-7.1-.053-10.638.276-.56.052-.56.894 0 .946 5.814.54 12.989 1.088 18.673-.56.34-.1.356-.675 0-.764zm-5.186-8.91c-3.454-1.558-8.112-.71-11.758-.56-.549.021-.549.901 0 .923 2.16.09 4.318.185 6.48.212 1.78.022 3.56.79 5.278.168.355-.129.317-.6 0-.743zm-.87-6.082c-1.318-.582-2.861-.304-4.246-.168-1.53.15-3.098.162-4.599.53-.498.121-.321.765.003.912l-.003.004.03.005a.303.303 0 0 0 .1.018c1.474.299 2.979.128 4.47.036 1.43-.088 2.993-.05 4.325-.673.3-.141.149-.564-.08-.665z" fill="#9DB9C1"/></svg>