<svg width="54" height="85" fill="none" xmlns="http://www.w3.org/2000/svg"><path d="M41.71.224a1 1 0 1 0-1.262 1.552L41.711.224zM8.61 84.882a1 1 0 0 0 1.352-.411l4.235-7.942a1 1 0 0 0-1.764-.94l-3.765 7.058-7.059-3.765a1 1 0 1 0-.941 1.765l7.941 4.235zm1.426-1.173a49.49 49.49 0 0 1-1.524-6.468l-1.974.32a51.488 51.488 0 0 0 1.585 6.73l1.913-.582zM8.753 64.257c1.013-4.44 2.99-8.27 5.582-11.655l-1.587-1.216c-2.741 3.578-4.86 7.666-5.945 12.426l1.95.445zm15.062-20.79c3.59-2.722 7.43-5.125 11.138-7.399l-1.046-1.705c-3.71 2.275-7.624 4.723-11.3 7.51l1.208 1.594zm22.51-14.811c4.345-3.343 7.531-7.049 7.329-11.762l-1.998.086c.157 3.657-2.282 6.807-6.55 10.09l1.22 1.586zm.54-23.814c-1.454-1.463-3.166-3-5.154-4.618l-1.263 1.552c1.945 1.583 3.603 3.072 5 4.476l1.418-1.41z" fill="#DCDCDC"/></svg>