<svg width="21" height="13" fill="none" xmlns="http://www.w3.org/2000/svg"><path d="M19.87 1.368c.135-.464 0-.806-.65-.806h-2.146c-.547 0-.799.294-.934.62 0 0-1.094 2.713-2.64 4.472-.499.508-.729.672-1.002.672-.135 0-.343-.164-.343-.628v-4.33c0-.557-.153-.806-.605-.806H8.174c-.343 0-.547.26-.547.501 0 .527.773.65.853 2.134v3.221c0 .705-.124.835-.397.835-.73 0-2.501-2.724-3.551-5.84-.212-.606-.42-.85-.97-.85H1.415c-.613 0-.737.293-.737.62 0 .578.73 3.454 3.394 7.254 1.776 2.594 4.277 4 6.552 4 1.367 0 1.535-.311 1.535-.85 0-2.478-.124-2.712.561-2.712.318 0 .864.163 2.14 1.414 1.459 1.484 1.7 2.149 2.516 2.149h2.147c.613 0 .923-.312.744-.928-.408-1.295-3.168-3.96-3.292-4.138-.317-.416-.226-.601 0-.972.004-.004 2.625-3.76 2.895-5.032z" fill="#fff"/></svg>