<svg xmlns="http://www.w3.org/2000/svg" viewBox="0 0 127.8 93.5" fill="#fff"><path class="st0" d="M0 47.5C9.4 31.7 18.6 15.8 28 0c4.8 2.9 9.7 5.5 14.5 8.4-.7 1.4-1.5 2.8-2.2 4.1 7.7-1.4 16.1-4.5 23.6-.9 7.7-2.9 15.9-.5 23.7.9-.8-1.4-1.5-2.8-2.2-4.2 4.9-2.8 9.7-5.6 14.6-8.4 9.2 15.9 18.6 31.7 27.9 47.5-4.8 2.9-9.7 5.7-14.6 8.5-1-1.6-2-3.2-2.9-4.8-1 2.5-2.3 5-3.9 7.2 1.7 5.2-2.1 10.7-7.2 11.9-.7 4.2-3.8 7.5-8 8.4-1 5-5.2 8.3-10.1 8.9-1.7 2.4-3.8 4.9-6.9 5.5-4 1.4-7.9-1-11.4-2.7-4.8 1.9-10.9.4-13-4.6-4.9 1.5-10.4-1.2-11.4-6.3-5.5 1.4-11.7-2.5-11.1-8.4-3.5-.1-6.9-2.2-8.2-5.5-1.4-2.9-.2-6.1.8-8.9-.6-1.8-1.6-3.5-2.5-5.2-.9 1.5-1.9 3-2.8 4.6-5-2.7-9.8-5.6-14.7-8.5zm42.3-30.1c-3.2.9-6.6 2.5-8.3 5.6L21.7 44c-.7 3.2.1 6.5 1.9 9.2 5.9-2.7 13.1 1.6 13.6 8 4.4-.1 8.1 3.3 8.9 7.5 6 0 11.1 5.6 9.6 11.6 4.5 2.3 8.6 5.2 13.1 7.5 2.2 1.5 4.8.1 6.8-1.2-2.5-2.1-5.8-3.3-7.9-5.9-.7-2.1 1.9-4.1 3.7-2.8 2.6 1.7 5.1 3.6 8 4.7 2.8-.4 5.6-1.4 6.5-4.4-3.1-1.8-6.6-3.2-8.8-6.1-1.1-1.2.3-2.5.7-3.7 4.8.3 7.8 5.8 12.8 5 1.8-.2 2.5-2 3.2-3.4-3.2-1.9-7.1-3.4-9.1-6.8-.5-1.5 1-2.3 1.9-3.2 3.2 1.3 5.8 3.8 9.1 5 2.5 1 5.4-1 5.8-3.5-.3-2.4-2.7-3.6-4.3-5.2-9-7.5-16.9-16.2-25-24.6-4.7-.1-8.1 3.5-11.9 5.6-4.4 2.5-8.1 6.3-12.9 7.9-6.2 1.2-11.5-6.6-8.2-11.9C44.5 26 51.6 20.4 58.6 15c-5.5.1-10.9 1.2-16.3 2.4zm23.7-.8C57.3 21 50.6 28.2 44.1 35.3c-2 2.2 1 6.3 3.6 4.5 6.7-4 12.6-9.3 19.7-12.5 5.5-1 11.2-.4 16.6 1.3 1.5.3 1.6 2 2.1 3.2-.5.4-1.6 1.2-2.2 1.6-.9-.2-2.8-.5-3.7-.6 7.2 7.7 14.8 15 22.7 21.8 1.9-3.3 3.5-7 2.8-10.9-4-7.2-8.3-14.1-12.4-21.3-2.2-4.1-7.3-4.9-11.5-5.6-5.1-.9-10.8-2.7-15.8-.2zM23.9 63.8c1.9 4.2 9 1.3 8.2-2.9-.2-1.4-1.5-2.2-2.2-3.2-3.6-1-7.4 2.4-6 6.1zm11.5 3.5c-2 1.5-2.9 4-2.7 6.4 3.3 2.5 8.3-.2 8.6-4.1.1-2.9-3.9-4.2-5.9-2.3zm10.9 6.9c-2.2.9-3.9 4.2-2.1 6.2 2.8 2.3 7.7-.6 6.6-4.2-.9-1.4-2.7-2.5-4.5-2z"/></svg>