<svg xmlns="http://www.w3.org/2000/svg" viewBox="0 0 127.6 71.8" fill="#f59f00"><path class="st0" d="M17.7 2.8c2.4-1.4 5.1-3.5 8.1-2.5 17 4.1 34 8.5 51 12.7 2-.5 3.9-1.6 5.8-2.4 10.5-5.2 22.5-7.7 34.1-5.8l.3-1.3c.1.3.2.9.2 1.2-4.7 1.2-10 1.8-13.9 5-1.5 1.4-.1 3.1 1.1 4.1 7.1-2.6 14.4-5.2 22-5 1.9 3.5.9 7.6-1.5 10.6-5 6.6-12.8 10.3-20.2 13.6-11.4 4.6-23.2 8.2-34.9 12.1-12.5 4.2-25 8.3-37.7 11.5-7.1 1.4-14.3 3.7-21.7 3.1-2.5-.5-5.9-.9-6.5-3.9-.9-3.2 2-5.8 3.9-7.9-2.6-5.1-5.6-10-8-15.2-.5-1.7 1.6-2.2 2.7-2.9 1.9-.9 4.2-2.6 6.3-1.2 6.1 2.8 12 6.1 18.1 8.9 5.8-2.8 11.6-5.6 17.3-8.5-10.9-7.1-22.3-13.5-33-21.1 1.4-2.6 4.3-3.6 6.5-5.1zm55 46.7c9.2-3 18.4-6.1 27.7-9.2.9 8.3 2.4 16.6 3.4 24.9.4 3.7-3.8 4.6-6.5 5.5-2.1.5-4.7 2.2-6.5.3-6.2-7.1-12-14.5-18.1-21.5z"/></svg>