<svg xmlns="http://www.w3.org/2000/svg" viewBox="0 0 19.5 33.1" fill="#ffa0f1"><path class="st0" d="M19.4 10.9c-.1-.1-.1-.2-.2-.2 0-.1.1-.1.1-.2 0-.3 0-.6.1-.8.1-.5-.4-.4-.7-.2 0-.1-.1-.1-.2-.2-.1 0-.2-.1-.4-.1-.1-.2-.2-.3-.3-.5-.3-.8-.9-1.6-1.4-2.4-1.1-2-2.1-4-3.3-6-.5-.7-1.9.5-1.4 1.2.9 1.4 1.3 2.9 2.2 4.3 0 .2.1.3.2.5.4.7.8 1.5 1.2 2.2-6-.3-12 4.8-14.4 10-1.6 3.3-1.1 6.8.9 9.8 2.9 4.5 8.7 4.9 13.6 4.8.5 0 1.1-1 .4-1C8.9 31.7.2 28.9 1.9 20.3 3.1 14.3 10 9.5 16 10.1c.2.9.1 1.9-.3 3-1.1 2.7-2.8 4.7-1.8 7.6.3.8 1.5-.1 1.5-.7.1-2.4.9-4 2.2-6 .5-.7.5-1.3.7-2 .7.2 1.6-.6 1.1-1.1z"/></svg>