<svg xmlns="http://www.w3.org/2000/svg" viewBox="0 0 107.5 128" fill="#fff"><path class="st0" d="M60.2 3.1C61.6-1 66.7.3 70.1.1c2.4-.3 5.1.5 5.8 3.1.4 4.3 0 8.6.2 12.9 2.7 0 5.4-.1 8.1 0 2.9-.2 5.1 3.8 3 6-4.9 5.5-9.9 10.8-15 16.2-1.9 2.2-5.5 2.5-7.6.5-5.4-5-9.9-10.9-15.2-16-2.4-1.9-1.1-5.9 1.7-6.5 3-.3 6-.1 9-.1 0-4.4-.3-8.8.1-13.1z"/><path class="st0" d="M.8 29.9c1.3-2.2 4.1-1.8 6.3-1.8 4.7-.1 9.6.5 13.4 3.6 3.8 3.3 5.9 8 7.8 12.5H97c3.6 0 7.9.9 9.5 4.5 1.9 4 .3 8.5-.7 12.5-1.9 7.5-4.6 15.1-9.6 21.1-3 3.5-7.5 5.9-12.1 5.9H43.7c1.4 3.2 2.9 7.8 7.1 8 15.1.1 30.1 0 45.2 0 2.6-.1 4.9 3.2 3.5 5.5-.8 1.7-2.7 2.6-4.5 2.4-14.7 0-29.4.1-44.1 0-6.9 0-11.7-5.9-14-11.8-6-15.9-11.3-32.1-17.1-48-1.2-2.6-2.5-5.4-5-6.9-3.6-2.6-8.4-.3-12.3-1.7-2.1-1-3.4-3.9-1.7-5.8zm41.5 26.4c-2.4 1.2-3.3 4.8-1.1 6.6 2.2 2.7 7 .5 6.9-2.8.2-2.9-3.2-5-5.8-3.8zm16.1.1C56 57.6 55 61.2 57.2 63c2.2 2.7 7.1.6 6.9-2.8.2-2.9-3.2-5.2-5.7-3.8zm16.1 0c-2.2 1-3.2 3.9-1.8 5.9 1.4 2.4 5.2 2.4 6.6 0 2.6-2.9-1.4-7.7-4.8-5.9zm15.9-.1c-1.2.8-2.6 2.1-2.4 3.8-.1 3.3 4.7 5.6 6.9 2.8 3.3-2.8-.8-8.4-4.5-6.6zm-40.1 12c-2.7 1.3-3.3 5.5-.6 7.1 2.4 2.1 6.5-.3 6.3-3.3.2-2.9-3.1-5-5.7-3.8zm16.1 0C64 69.5 63 73 65.2 74.9c1.6 1.9 4.9 1.5 6.2-.6 2.5-3-1.5-7.8-5-6zm16 .1c-2.2 1-3.2 3.9-1.7 5.9 1.4 2.4 5.2 2.4 6.6 0 2.6-3-1.4-7.7-4.9-5.9zm-35.8 40.4c5.3-2.2 12.1 1.5 13.2 7.1 1.3 5.1-2.5 10.8-7.6 11.8-5 1.3-10.4-2.3-11.7-7.2-1.4-4.6 1.4-10.2 6.1-11.7zm39.9 0c5.3-2.2 12.2 1.5 13.2 7.1 1.2 4.8-2.1 10.2-6.8 11.6-4.7 1.7-10.1-1.1-12-5.6-2.3-4.8.4-11.5 5.6-13.1z"/></svg>