<svg xmlns="http://www.w3.org/2000/svg" viewBox="0 0 124 84" fill="#fff"><path class="st0" d="M.2 9.2C0 5.1 2.7.8 6.9.2c9.7-.6 19.3.2 29-.2 11.6.4 23.2-.2 34.9.2 3.6.5 6.2 4.2 6 7.8.2 17.3-.2 34.7.2 52-11-.2-22 .2-32.9-.2-4.6-4.1-10.9-7-17-4.8-4 .5-6 5.4-10.2 5-5.6 0-11.2.1-16.8 0 .1-17 0-33.9.1-50.8z"/><path class="st0" d="M78.9 23.1h26c7 .3 12.7 6.3 13.9 13.1.1 7.9 0 15.9 0 23.8 1.8.1 5-.3 5 2.3-.3 2.5 1 6-1.3 7.7-2.8.3-5.7.1-8.5.1.3-6.6-4.4-12.6-10.5-14.8-5.2-.9-11.3-.8-15.2 3.3-3.6 2.8-4.5 7.3-5.3 11.5-12-.1-24 0-36-.1.1-2.8-.6-5.6-2-8 9.6-.7 19.3.5 28.9-.3 1.7-.1 3.3.2 5 .3V23.1zm8 8v15c8 .1 16 .2 24 0-.2-4.6 1.2-10.7-3.3-13.8-6.6-2.4-13.9-.7-20.7-1.2z"/><path class="st0" d="M28.2 56.5c9-2.8 18.2 5.5 17.7 14.5-.8 5.2-4 10.1-9.1 11.9-8.1 3.8-18.4-3.1-18.9-11.9-.7-6.5 4.2-12.6 10.3-14.5zm.7 8.6c-1.9.9-2.3 3.2-3.2 4.9 1 2.3 2.3 5.2 5.2 5.4 3.9 1 8-3.8 6.1-7.4-.8-3.4-5.4-5-8.1-2.9zm66.3-8.6c9.3-2.9 19.6 6.8 17.1 16.2-1.1 5.7-6 10.2-11.8 11-9.2 1.7-18.2-8.2-15.4-17.2 1.6-4.7 5.4-8.6 10.1-10zm2 7.8c-3.2.9-5.7 5.1-3.6 8.1 1.9 4.6 10.2 3.8 10.5-1.4 1-3.9-3-8.1-6.9-6.7zM0 62.1c6.1.4 12.2-.7 18.2 0-.8 2.6-1.4 5.2-1.7 7.9-3.4.1-6.9.3-10.3 0C2.8 68.7.6 65.5 0 62.1z"/></svg>