<svg xmlns="http://www.w3.org/2000/svg" viewBox="0 0 111.9 111.9" fill="#f59f00"><path class="st0" d="M32.6 10.8C36.5 8 37.2 2 42.1.3c4.8-1.5 8.5 2.9 12.7 4.5 3.5.6 6.1-2.6 9.2-3.8 3-1.9 7.1-1.1 9.2 1.7 2 2.7 3.6 5.8 5.9 8.2 4.8.9 10.8-1.8 14.6 2.3 3.4 3.7 1.1 9.3 3.4 13.5 3.3 3.5 9.5 3.5 11.5 8.3 1.8 4.9-2.8 9.1-3.1 13.9.9 3.9 4.5 6.2 6 9.9 1.5 3-.3 6.7-2.9 8.5-2.2 2.1-5.3 3.6-6.2 6.7 0 4.4 2.5 9.1 0 13.2-2.9 4.3-8.7 3.1-12.8 5.3-3.7 3.4-2.5 10-7.3 12.7-4.9 2.9-9.9-2.3-14.9-1.1-4 2.2-6.4 7.4-11.4 7.9-5.2-.3-7.4-6.2-11.9-8-4.7-.3-9.1 3.4-13.8 1.6-5.1-2.3-4.2-8.9-7.3-12.6-3.7-2.9-9.7-1.1-12.8-5.1-3.6-4.3.3-10-.9-14.9C7 68.6.7 67.2 0 61.8c-.3-5.3 5.4-8.1 6.5-13-.3-4.7-4.9-8.8-3.2-13.7 1.8-5 8.2-5 11.5-8.5 2.4-4.1-.1-9.8 3.4-13.5 3.9-3.9 9.7-1 14.4-2.3zm15.9 9.7c-10.8 2.4-20.4 9.8-25 19.8-3.4 6.7-4.3 14.4-3 21.7 1.7 10.4 8.3 19.8 17.4 25 10.1 6 23.2 6.6 33.7 1.4 8.7-4.3 15.7-12 18.7-21.2 4.9-14-.1-30.7-12-39.7-8.2-6.7-19.5-9.1-29.8-7z"/><path class="st0" d="M74.2 35.6c2.1 1.4 5.2 2.5 5.7 5.2-6.2 10-13.6 19.2-20.2 28.9-2.5 3.5-4.8 7.2-7.7 10.4-3-1.3-4.7-4.3-6.8-6.7-4-4.9-8.4-9.6-12.1-14.7-2.9-2.9 1.6-7.7 4.8-6.9 4.5 3.3 8.6 7.1 12.6 11 8-9 15.6-18.3 23.7-27.2z"/></svg>