<svg xmlns="http://www.w3.org/2000/svg" viewBox="0 0 118.3 110.7" fill="#fff"><path class="st0" d="M26.7 0c21.7.2 43.4 0 65 .1.9.7 1.8 1.3 2.7 2 0 1.4-.9 2.3-2 3-.1 1.2-.2 2.5-.2 3.8 6-4.1 13.8-5.5 20.9-3.9 3.4.8 4.5 4.6 5 7.6 1.5 13.5-4.1 27.7-14.8 36.2-6.4 5.1-14.7 7.1-22.8 6.7.4 1.7.7 3.3.8 5-.9.4-1.8.8-2.7 1.1-1.1-1.4-1.6-3.1-1.8-4.9-2.7 2.6-5.7 4.9-8.6 7.3-.6 1.2-.6 2.7-.9 4.1 1.3.4 2.5.8 3.8 1.3-1.2.5-2.3 1-3.5 1.5 1.1 4.1 4 7.5 8 9.1 4.3 2.3 10.2 3.4 12.2 8.4 1.2 0 2.5.1 3.7.1.1 7.3-.1 14.7 0 22-21.6 0-43.3.1-64.9 0v-22h3.6c2.1-5 8-6.2 12.4-8.5 3.9-1.6 6.8-5 7.9-9.1-1.2-.5-2.4-.9-3.7-1.4 1.3-.5 2.6-.9 3.9-1.3-.3-1.4-.2-2.9-.9-4.1-2.9-2.4-5.9-4.6-8.5-7.2-.4 1.6-.8 3.2-1.4 4.8-1-.5-3-.3-3-2 .1-1.4.4-2.8.7-4.1-9 .4-18.3-2.2-24.9-8.5-9-8.8-13.9-22-12.4-34.5.5-3.1 1.6-7 5.2-7.7 7.1-1.4 14.7 0 20.8 4V5.2C25 4.8 24.1 4 23.8 2.7c.6-1.2 1.9-1.8 2.9-2.7zm3.7 3.8c0 1.4-.1 2.8-.1 4.3 2.6.1 5.3.1 7.9 0 0-1.4 0-2.9-.1-4.3-2.5-.1-5.1-.1-7.7 0zm-23.7 5c-1.5 1.5-1.9 3.7-2.3 5.7-1 9.8 1.9 20.1 8.6 27.4 6.1 6.2 14.8 9.5 23.5 9.9-5.9-7.1-9.9-15.8-10-25.2h-3.1c-3.5-4.3 4.7-7.7 2.1-12.2-1.6-3.3-5.3-4.4-8.6-5.2-3.3-.8-6.9-1.7-10.2-.4zm86 6c-1.9 4 4.4 6.8 2.8 10.7-.2 2-2.5.9-3.7 1 .1 9.4-4.1 18.1-9.9 25.2 5.6-.2 11.2-1.7 16.1-4.4 12.6-6.8 18.9-22.9 15-36.5-1.2-3.7-5.8-2.7-8.7-2.3-4.3 1-9.6 1.9-11.6 6.3zm-61.4-3c1 16.1 3.8 33.5 15.2 45.7-3-5.1-5.6-10.4-6.7-16.2-1.8-9.7-2.5-19.6-1.7-29.4-2.3-.1-4.6-.1-6.8-.1zm20.3 6.1c-.1 1.3-.2 2.6-.2 4h5.9c.3 9 0 17.9.3 26.9H67c-.2-12.3-.2-24.6-.4-37h-5c-2.6 3-5.8 5.9-10 6.1zM34.8 95.5c0 3.6 0 7.2.1 10.9 16.2-.1 32.5.1 48.7-.1V95.5H34.8z"/></svg>