<svg xmlns="http://www.w3.org/2000/svg" viewBox="0 0 95.2 80.7" fill="#f59f00"><path class="st0" d="M81.9.6c2.3-1.4 5.1-.3 6.6 1.8 3.5 4.1 4.3 9.5 5.5 14.5 1.8 9.5 1.5 19.2.1 28.7-1.4 5.5-2.3 11.7-6.7 15.8-1.9 2-5.4 1.5-7.1-.6-4-4.5-4.8-10.7-6.2-16.3C72.5 32 72.7 19 77.2 7.1c1.1-2.6 2.4-5 4.7-6.5z"/><path class="st0" d="M44.5 18.3c10.4-2.1 20.9-4.8 30.2-10.1-4 16.1-4.5 33.5 1.2 49.4-9.4-5.9-20.4-8.5-31.1-10.8-.8-9.4-.1-19-.3-28.5zM9.3 22.2c.3-1.6 1.1-3.8 3.2-3.4 10.1-.1 20.2 0 30.3 0-.1 9.5.1 19 0 28.5h-8.5c-.1 3.4-.3 6.9.9 10.2-.3.8-.8 2.2-1.1 3 1.3 1.9 1.3 4.1 0 6 .4 1.4 1.6 2.8.8 4.3-1.6 3 .4 7.3-2.6 9.6-3.5.6-7.2.3-10.7.2-2 0-3.2-2.3-3-4.1 0-9.7 0-19.5.1-29.2-2.6 0-5.2.1-7.7-.1-1-.9-1.3-2.2-1.6-3.5-1.3-7.1-1.4-14.4-.1-21.5zM.4 30.5c.8-3.3 3.7-5.5 6.8-6.5-.5 6-.6 12 0 18-5-1.1-8.4-6.6-6.8-11.5z"/></svg>