<svg xmlns="http://www.w3.org/2000/svg" viewBox="0 0 110 127.8" fill="#fff"><path class="st0" d="M37.9 2.7c11.8-3.8 24.8-3.6 36.4.9 4.4 1.8 8.4 5.3 9.9 10 2.9 9.3 3.7 19.2 1.7 28.8 2.2 1.4 4 3.7 4.1 6.4.4 5.8-2.8 11.6-7.9 14.4-4 12.1-15.9 22-29 21.2-11.7-1-21.9-9.9-25.5-21-5.6-3.3-9.2-10-7.7-16.5.4-2.1 2.3-3.4 3.9-4.8-2.1-9-1.1-18.5 1.2-27.3 1.5-6.2 7.1-10.4 12.9-12.1zm1.5 14.7c-8 4.4-10.9 13.8-12.5 22.2 1.6 1.2 3.3 2.4 4.9 3.5 4.4-3.9 10.9-2.8 16.2-2.2 1.9.1 3.1 1.8 4.3 3.1h5c1.2-1.5 2.6-3.1 4.6-3.2 5.2-.7 11.4-1.4 15.8 2.2l4.8-3.6c-1.2-8.4-4.5-17.5-12.2-22-4.9-2.5-9.5 2.1-14.4 2.2-5.6 1-10.8-4.8-16.5-2.2zm-5.2 26.7c-.1 1.5-.5 3.6 1.3 4.2 4 1.2 8.3 1 12.3.2 2.3-.5 3.3-4.3.6-5-4.5-1.4-9.7-1.1-14.2.6zm27.3-.6c-1.8.6-1.4 2.8-1.6 4.3 4.4 2 9.5 1.8 14.1.7 2.9-.8 1.7-5.2-1-5.4-3.8-.4-7.9-.9-11.5.4zm-33.6-.7c.7 3.1-4 2.5-4.5 5.2-1 5.1 2.2 10.9 7.2 12.6C33.4 71.2 42.8 80 53.9 80.8c11.9.2 22.6-9 25.4-20.4 5-1.5 8-7.2 7.3-12.2-.3-2.8-4.7-2.4-4.3-5.4-2 1.6-4.6 3-4.5 5.9-3.3 3.4-8.5 3.3-12.9 3-3.3-.3-6.8-1.8-7.6-5.3h-4.2c-.8 1.6-1.3 3.5-3.2 4.1-4.9 1.8-10.5 1.8-15.3-.2-2.1-.8-2.3-3.1-3.2-4.9-1.1-.9-2.4-1.7-3.5-2.6z"/><path class="st0" d="M52.3 61.2c4.9-1.9 9 3.4 13.9 1.1-2.7 3.6-8 4.4-11.5 1.6-3.3 2.8-8.7 2.1-11.2-1.5 3.1.9 6 .1 8.8-1.2zM9.7 93.6c7.3-5.4 16-8.4 24.4-11.5-.7 5.8 1.9 11.1 3.5 16.5 2.9-2.3 5.9-4.7 8.7-7.1-.8 6.4-1.9 12.7-2.5 19.1 3.2 4.6 6.7 9.1 11.1 12.7 4.3-3.7 7.9-8.1 11.1-12.7-.6-6.3-1.8-12.6-2.4-18.9 2.9 2.3 5.7 4.7 8.6 7 1.6-5.4 4.4-10.7 3.5-16.5C86.1 86.1 96.9 90 105.1 98c2.7 2.6 4.8 6.1 4.8 10v20.1H88.3v-11.5h-2.7v11.5H24.2v-11.4h-2.6c0 3.8-.1 7.6-.1 11.4H-.1c0-7-.1-14.1 0-21.1.7-6.1 5.4-10.2 9.8-13.4z"/><path class="st0" d="M50.2 88.1c2.3-2.3 7.1-2.3 9.3.1 1.2 7.4 2.2 14.8 2.9 22.3-2 3.2-4.7 5.8-7.4 8.4-2.5-2.1-4.9-4.5-7-7.1-1.2-1.3-.5-3.3-.4-4.8 1-6.3 1.4-12.7 2.6-18.9z"/></svg>