<svg class="icon" height="512" viewBox="0 0 1024 1024" xmlns="http://www.w3.org/2000/svg"><path d="M527.206 455.694c9.101 9.05 23.845 9.05 32.948 0L669.995 346.45c9.101-9.051 9.101-23.721 0-32.771-4.545-4.525-10.516-6.791-16.474-6.791a23.3 23.3 0 00-16.473 6.791l-65.684 65.328c12.354-132.171 124.468-235.993 260.518-235.993 16.061 0 29.075-12.947 29.075-28.922 0-15.977-13.012-28.921-29.075-28.921-167.188 0-304.804 128.279-318.645 291.084l-62.921-62.577c-9.101-9.053-23.859-9.053-32.946 0-9.101 9.051-9.101 23.721 0 32.771l109.836 109.244zm267.336 272.411c-56.455 0-102.383 46.063-102.383 102.688S738.088 933.48 794.542 933.48c56.451 0 102.381-46.063 102.381-102.687 0-56.626-45.926-102.688-102.381-102.688zm0 157.175c-29.781 0-53.926-24.398-53.926-54.489 0-30.094 24.145-54.492 53.926-54.492 29.781 0 53.924 24.398 53.924 54.492-.001 30.091-24.144 54.489-53.924 54.489zM406.889 728.105c-56.451 0-102.38 46.063-102.38 102.688s45.925 102.687 102.38 102.687c56.451 0 102.381-46.063 102.381-102.687.001-56.626-45.926-102.688-102.381-102.688zm0 157.175c-29.781 0-53.926-24.398-53.926-54.489 0-30.094 24.145-54.492 53.926-54.492s53.924 24.398 53.924 54.492c0 30.091-24.144 54.489-53.924 54.489zm568.209-606.815c-17.802-25.625-47.131-40.93-78.458-40.93H779.38c-16.058 0-29.072 12.946-29.072 28.922 0 15.973 13.012 28.914 29.072 28.914h117.26c12.409 0 23.575 5.829 30.625 15.977 7.05 10.156 8.587 22.603 4.202 34.148l-103.036 271.07c-6.578 17.296-23.483 28.914-42.063 28.914H433.397c-25.542 0-48.023-17.146-54.655-41.677L246.393 114.397c-3.418-12.636-14.933-21.411-28.078-21.411H62.224c-16.061 0-29.076 12.943-29.076 28.921 0 15.973 13.012 28.922 29.076 28.922h133.804l126.565 468c13.458 49.753 59.029 84.493 110.806 84.493h352.973c42.61 0 81.363-26.643 96.443-66.298L985.86 365.941c11.072-29.138 7.049-61.84-10.764-87.474z"/></svg>