<svg xmlns="http://www.w3.org/2000/svg" viewBox="0 0 108.1 96" fill="#f59f00"><path class="st0" d="M46.9 4.4c1.8-2.1 4-4.6 7.1-4.4 3 0 5.2 2.4 6.9 4.5.2 2.2.4 4.4-.2 6.5-1 2.3-3.4 4.2-3.1 6.9.1 4.1 1.1 8 1.8 12 1.4 5.7 1.8 11.7 3.5 17.4 1.4-.2 3.2 0 3.7-1.6 4.5-7.8 8.8-15.9 11.3-24.5-1-1.9-2.9-3.8-2.1-6.2.1-4.8 7-8.3 10.4-4.4 2.5 2.3 2.9 6 1.8 9-1.6 1.5-3.7 2.6-5 4.3-.8 8-1.4 16-1.2 24-.3 2.3 3.3 2.9 4 .8 3.1-4.6 6.3-9.1 9.3-13.8 2.4-3.7-.8-9 2.7-12.2 1.6-2.2 4.5-1.9 6.9-1.9 1.2 1.3 2.4 2.7 3.5 4-.3 2.6-.7 5.7-3.1 7.3-1.9 1.4-4.1 2.8-4.8 5.3-4.7 13.2-8.8 26.7-10.9 40.6-.7 3.5.2 7.2-.8 10.6-3 4.2-8.6 5.2-13.4 5.6-15.8 2.5-32 2.3-47.7-1-3.2-.8-6.9-1.9-8.3-5.2-.3-17.6-6.2-34.7-12-51.3-.8-2.7-3.8-3.4-5.6-5.2C.8 30.2.5 28.7.1 27.2c-.5-2.5 1.6-4.5 3.1-6.2 2.5 0 5.2-.2 7.1 1.8 3.4 3.3.1 8.7 2.6 12.4 3.2 4.5 5.8 9.5 9.2 13.9.9 1.8 4.1 1.4 3.8-.9.5-8 0-16.1-1.1-24.1-1.4-1.7-3.3-3-4.9-4.4-1.3-3-1.1-6.8 1.6-9.1 2.9-3.1 8.2-1.5 9.8 2.1 1.5 3 .3 6.4-.8 9.4.1 4.3 2.8 8.1 4.3 12 2.6 4.5 4.3 9.7 7.9 13.6.5-.2 1.6-.6 2.2-.7 2.5-9.1 3.5-18.6 5.4-27.9 1.1-3.6-2.5-6-3.7-9-.8-1.9.1-3.9.3-5.7zm17 86.1c6.4 0 12.8-.9 18.9-3C79 86.2 75 85.2 70.9 85c-5.7-.2-11.3-1.2-17-1-9.6.7-19.5 0-28.6 3.5C31 89.4 37 90.4 43 90.3"/></svg>