<svg width="47" height="46" fill="none" xmlns="http://www.w3.org/2000/svg"><path d="M5.11 31.503h2.45a.728.728 0 00.722-.735.728.728 0 00-.722-.734H5.11a.728.728 0 00-.721.734c0 .406.322.735.72.735zm2.451 2.937H5.11a.728.728 0 00-.721.735c0 .405.322.734.72.734h2.452a.728.728 0 00.722-.734.728.728 0 00-.722-.735zm0 4.499H5.11a.728.728 0 00-.721.735c0 .405.322.734.72.734h2.452a.728.728 0 00.722-.734.728.728 0 00-.722-.735zm7.509-17.682a.728.728 0 00.722-.734v-2.854a.728.728 0 00-.722-.734.728.728 0 00-.72.734v2.854c0 .405.322.734.72.734zm4.417 0a.728.728 0 00.721-.734v-2.854a.728.728 0 00-.72-.734.728.728 0 00-.722.734v2.854c0 .405.323.734.721.734zm-4.417 8.918a.728.728 0 00.722-.734v-2.854a.728.728 0 00-.722-.735.728.728 0 00-.72.735v2.854c0 .405.322.734.72.734zm4.417 0a.728.728 0 00.721-.734v-2.854a.728.728 0 00-.72-.735.728.728 0 00-.722.735v2.854c0 .405.323.734.721.734zm4.327 0a.728.728 0 00.721-.734v-2.854a.728.728 0 00-.72-.735.728.728 0 00-.722.735v2.854c0 .405.323.734.721.734zm-8.744 8.919a.728.728 0 00.722-.735v-2.854a.728.728 0 00-.722-.734.728.728 0 00-.72.734v2.854c0 .406.322.735.72.735zm4.417 0a.728.728 0 00.721-.735v-2.854a.728.728 0 00-.72-.734.728.728 0 00-.722.734v2.854c0 .406.323.735.721.735zm4.327 0a.728.728 0 00.721-.735v-2.854a.728.728 0 00-.72-.734.728.728 0 00-.722.734v2.854c0 .406.323.735.721.735zM34.159 4.23c-4.515.005-8.174 3.731-8.179 8.33 0 .368.269.68.628.728a.722.722 0 00.79-.54c.077-.293.235-.688.355-.832.22-.21.51-.329.813-.331.3-.003.59.114.808.325.212.226.332.526.335.839 0 .406.323.734.721.734a.728.728 0 00.721-.734c-.006-.31.112-.61.328-.83.216-.22.51-.34.815-.334.304-.003.598.114.82.325.216.225.34.525.345.839v5.7c0 .087-.034.17-.095.23a.31.31 0 01-.23.09.304.304 0 01-.228-.09.317.317 0 01-.092-.23.73.73 0 00-.723-.728.73.73 0 00-.724.728c0 .994.792 1.8 1.768 1.8.975 0 1.767-.806 1.767-1.8v-5.7a1.13 1.13 0 01.316-.83c.213-.22.506-.341.81-.334.3-.003.59.114.806.325.212.226.331.527.333.839 0 .406.323.734.721.734.398 0 .72-.328.72-.734a1.15 1.15 0 01.328-.83c.216-.22.51-.34.816-.334.3-.003.59.114.807.324.12.138.282.542.36.837.092.357.43.59.79.542a.73.73 0 00.629-.729c-.005-4.598-3.664-8.324-8.179-8.33zm5.593 5.886a2.627 2.627 0 00-1.851.78l-.014.014-.013-.014-.015-.017a2.585 2.585 0 00-3.687.017l-.013.014-.014-.014-.015-.017a2.585 2.585 0 00-3.687.017l-.013.014-.014-.014a2.58 2.58 0 00-2.593-.669c.965-2.718 3.497-4.528 6.335-4.529 2.837 0 5.37 1.81 6.336 4.526a2.6 2.6 0 00-.742-.108z" fill="#000"/><path d="M34.159 0c-6.07 0-11.184 4.617-11.914 10.754h-1.766V4.207a.728.728 0 00-.721-.734.728.728 0 00-.721.734v6.547h-6.389c-1.4.014-2.53 1.17-2.535 2.598v12.367h-6.66a2.522 2.522 0 00-2.535 2.526v16.937a.737.737 0 00.733.734h36.208a.742.742 0 00.738-.734V25.837a2.594 2.594 0 00-.87-1.932c5.015-1.597 8.43-6.326 8.435-11.677C46.162 5.488 40.775 0 34.16 0zm-21.51 12.223h9.51a12.267 12.267 0 001.058 5.05.803.803 0 00-.124.396v2.854c0 .405.323.734.721.734a.728.728 0 00.721-.734v-.95c.811 1 1.623 1.882 2.704 2.61v22.265H11.556V13.352a1.126 1.126 0 011.093-1.129zM2.36 28.245c0-.607.497-1.057 1.094-1.057h6.659v17.26H2.36V28.245zm34.795 16.203h-8.473v-4.315h4.631a.728.728 0 00.722-.735.728.728 0 00-.721-.734h-4.632v-3.03h4.631a.728.728 0 00.722-.734.728.728 0 00-.721-.735h-4.632v-2.938h4.631a.728.728 0 00.722-.734.728.728 0 00-.721-.735h-4.632v-6.674c1.082.604 2.369 1.015 3.686 1.219.112.252.36.411.631.406h3.057a1.13 1.13 0 011.1 1.128v18.61zM34.16 22.986c-5.83 0-10.557-4.814-10.557-10.752 0-5.938 4.726-10.752 10.557-10.752 5.83 0 10.556 4.814 10.556 10.752-.006 5.935-4.729 10.745-10.556 10.752z" fill="#000"/></svg>