<svg width="45" height="47" fill="none" xmlns="http://www.w3.org/2000/svg"><path d="M15.047 14.175a.735.735 0 00-.729.74.87.87 0 01-.862.868.869.869 0 01-.862-.867.734.734 0 00-.729-.741.735.735 0 00-.728.74c.008 1.297 1.044 2.344 2.32 2.344 1.274 0 2.31-1.047 2.318-2.343a.734.734 0 00-.728-.741zm6.363 3.099c1.28-.002 2.318-1.057 2.32-2.358a.735.735 0 00-.73-.741.735.735 0 00-.728.74.87.87 0 01-.862.868.869.869 0 01-.862-.867.734.734 0 00-.728-.741.735.735 0 00-.73.74c.002 1.303 1.04 2.358 2.32 2.359z" fill="#000"/><path d="M44.207 26.652l-8.873-4.426a.733.733 0 00-.648 0l-8.86 4.414a.74.74 0 00-.407.665v.105h-2.095v-2.258c.438-.32.845-.681 1.215-1.08a10.52 10.52 0 002.858-5.99 2.718 2.718 0 002.034-2.584 2.723 2.723 0 00-1.917-2.675v-4.86h1.53a.739.739 0 00.729-.744C29.768 3.236 26.595.007 22.676 0h-6.555c-.817 0-1.614.262-2.277.748-3.889 1.515-6.457 5.31-6.46 9.544v2.513C6.202 13.11 5.378 14.2 5.39 15.44c0 1.243.896 2.322 2.075 2.635a10.539 10.539 0 002.875 5.997c.489.51.961.962 1.599 1.351v1.987h-3.88c-3.913 0-7.14 3.252-7.14 7.23v5.721c0 .41.37.753.773.753H27.79c.307.299.633.578.975.835l5.825 4.036a.72.72 0 00.821-.002l5.848-4.04c1.913-1.325 3.379-4.1 3.379-6.453v-8.173a.764.764 0 00-.43-.665zM27.992 15.44a1.304 1.304 0 01-.478.985v-1.97c.295.24.47.601.478.985zM22.676 1.482c2.863 0 5.234 2.222 5.593 5H16.12c-1.358 0-2.46-1.12-2.46-2.5s1.102-2.5 2.46-2.5h6.555zM12.263 3.324c-.304 1.828.677 3.627 2.363 4.333-2.188 2.376-4.6 2.701-5.784 2.705v-.07a8.832 8.832 0 013.421-6.968zM6.847 15.44c0-.427.174-.805.538-1.03v2.017a1.135 1.135 0 01-.538-.987zm4.518 7.599a9.034 9.034 0 01-2.523-6.277v-4.92c1.549-.008 4.777-.452 7.448-3.878h9.767v8.798a9.05 9.05 0 01-2.54 6.277c-1.633 1.705-3.795 2.644-6.076 2.644-2.28 0-4.443-.94-6.076-2.644zm6.08 4.126a9.506 9.506 0 004.422-1.088v1.678l-4.346 2.768-4.125-2.757V26.26a9.52 9.52 0 004.05.903zm-15.07 7.474c0-3.16 2.575-5.748 5.684-5.748h4.353l4.354 2.911v7.83H2.376V34.64zm15.849 4.994v-7.82l4.595-2.922h2.6v6.599c0 1.356.47 2.846 1.243 4.143h-8.438zM43.18 35.49c0 1.844-1.243 4.19-2.742 5.229l-5.426 3.754-5.415-3.754c-1.5-1.04-2.72-3.385-2.72-5.23v-7.722l8.151-4.05 8.152 4.061v7.712z" fill="#000"/><path d="M32.142 33.559a.721.721 0 00-.706-.201.734.734 0 00-.52.524.749.749 0 00.19.72l2.27 2.32a.712.712 0 00.516.21h.002a.714.714 0 00.515-.207l4.483-4.554a.748.748 0 00.192-.717.734.734 0 00-.518-.525.72.72 0 00-.704.197l-3.966 4.033-1.754-1.8z" fill="#000"/></svg>