<svg class="icon" height="512" viewBox="0 0 1024 1024" xmlns="http://www.w3.org/2000/svg"><path d="M566.514 645.431c115.412 0 209.268-93.858 209.268-209.268s-93.857-209.269-209.268-209.269c-115.41 0-209.268 93.857-209.268 209.269S451.103 645.43 566.514 645.43zm-177.944 41.54c-80.609 0-145.949 65.338-145.949 145.948v163.014c0 15.494 12.574 28.067 28.067 28.067h591.654c15.494 0 28.068-12.573 28.068-28.067V836.96c2.47-4.266 4.715-8.87 6.511-13.697l114.514-303.125c3.817-10.104 5.838-20.881 5.838-31.771V148.194c0-49.622-40.192-89.814-89.815-89.814s-89.815 40.192-89.815 89.814v323.782l-81.17 214.994H388.57zM34.588 199.95h66.238c13.921 0 25.71-10.104 27.73-23.8 3.817-24.924 11.564-43.336 23.015-54.451 10.666-10.329 25.373-15.38 45.132-15.38 20.433 0 36.038 5.613 47.939 17.288 11.9 11.676 17.401 25.71 17.401 44.347 0 8.756-2.02 16.84-6.174 24.699-2.133 3.929-10.441 16.054-42.101 42.886-29.414 24.924-49.286 48.388-60.85 71.627-11.788 23.689-17.513 58.155-17.513 105.084 0 15.493 12.574 28.067 28.067 28.067h59.839c15.493 0 28.067-12.574 28.067-28.067 0-36.263 4.378-51.083 6.96-56.696 2.021-4.49 10.442-17.738 43.785-45.356 30.986-25.71 51.868-49.174 63.769-71.628 12.237-23.015 18.412-48.275 18.412-74.995 0-47.714-18.077-87.57-53.89-118.555C295.837 15.156 250.705 0 196.255 0 144.386 0 100.49 15.493 66.023 45.918 31.22 76.679 11.348 118.33 6.857 169.638c-1.571 16.166 11.34 30.312 27.73 30.312zm188.498 399.114c15.493 0 28.067-12.573 28.067-28.067V511.27c0-15.494-12.574-28.067-28.067-28.067H163.36c-15.493 0-28.067 12.573-28.067 28.067v59.727c0 15.494 12.574 28.067 28.067 28.067h59.727z"/></svg>