<svg width="50" height="45" fill="none" xmlns="http://www.w3.org/2000/svg"><path d="M44.791 0h-31.69c-2.75 0-4.988 2.254-4.988 5.015l-.205 28.37H1.724c-.438 0-.773.394-.773.84v3.904c0 3.654 2.877 6.644 6.35 6.808v.046h26.686v-.052c.198.008.318.052.455.052h.019c3.703-.022 6.688-3.09 6.669-6.855V13.313h8.056c.438 0 .773-.403.773-.848V5.3c.005-2.91-2.304-5.279-5.168-5.3zM7.647 43.37h-.005c-2.823 0-5.104-2.372-5.104-5.242v-3.13h25.199v3.116a6.888 6.888 0 001.96 4.846c.135.137.275.208.418.41H7.647zm31.895-5.243c0 2.87-2.258 5.243-5.083 5.243h-.016c-2.838-.021-5.126-2.37-5.119-5.255v-3.89a.83.83 0 00-.794-.84H9.496L9.7 5.02a3.408 3.408 0 013.4-3.406h27.944c-.904 1.008-1.502 2.284-1.502 3.709v32.804zm8.83-32.812V11.7H41.13V5.32c0-2.02 1.652-3.707 3.638-3.707h.022c1.99.02 3.591 1.671 3.582 3.695v.006z" fill="#000"/><path d="M19.587 19.86l4.092 2.844c.267.188.62.188.887 0l4.08-2.843c1.417-.983 2.464-3.038 2.464-4.78V9.326a.79.79 0 00-.423-.724l-6.23-3.116a.768.768 0 00-.694 0l-6.219 3.107a.79.79 0 00-.422.724v5.764c0 1.742 1.049 3.797 2.465 4.78zM18.71 9.821l5.407-2.712 5.407 2.72v5.252c0 1.215-.784 2.76-1.773 3.446l-3.644 2.534-3.63-2.534c-.988-.686-1.767-2.231-1.767-3.447V9.822z" fill="#000"/><path d="M22.773 16.3c.148.153.35.24.562.241h.002c.21 0 .413-.087.561-.239l3.157-3.21a.817.817 0 000-1.142.784.784 0 00-1.122 0l-2.593 2.635-1.037-1.064a.785.785 0 00-1.123-.005.817.817 0 00-.005 1.142l1.598 1.641zm11.214 8.714H14.939a.8.8 0 00-.793.806.8.8 0 00.793.807h19.048a.8.8 0 00.794-.807.8.8 0 00-.794-.806zm0 3.731H14.939a.8.8 0 00-.793.807.8.8 0 00.793.807h19.048a.8.8 0 00.794-.807.8.8 0 00-.794-.807z" fill="#000"/></svg>