<svg width="1440" height="579" xmlns="http://www.w3.org/2000/svg"><defs><linearGradient x1="2.813%" y1="49.376%" x2="109.245%" y2="50.506%" id="a"><stop stop-color="#EA4972" offset="0%"/><stop stop-color="#8747AB" offset="100%"/></linearGradient></defs><g fill="none" fill-rule="evenodd"><path d="M81.062 1.748c88-8.5 139.5 14.5 287 58s228 46.5 451 8 316.5-66 495-53c170 7.5 228.5 68 288 116.5s-1052 .78-1052 .78l-548-26.28c-6-63.666 20.334-98.333 79-104z" fill="url(#a)" transform="translate(-45.062 .752)"/><path d="M1591 102.127l-70.988 64.298V579H-30.72V141.43l-11.997-23.78C-56.928 65.881-6.522 40.331 108.5 41c172.534 1.001 234.8 51.486 435 61 200.2 9.514 363.798-51.987 564.5-61 133.802-6.009 294.802 14.367 483 61.127z" fill="#8747AB"/></g></svg>