<svg width="102" height="114" xmlns="http://www.w3.org/2000/svg"><g fill="none" fill-rule="evenodd"><path d="M3 60h84a3 3 0 013 3v17a3 3 0 01-3 3H3a3 3 0 01-3-3V63a3 3 0 013-3z" fill-opacity=".3" fill="#EA4972"/><rect fill-opacity=".3" fill="#BD10E0" x="10" y="32" width="90" height="23" rx="3"/><rect fill-opacity=".28" fill="#9013FE" x="10" y="1" width="90" height="23" rx="3"/><g fill-rule="nonzero"><path d="M93 77.69v-4.38c0-2.376-1.87-4.31-4.17-4.31H52.17c-2.3 0-4.17 1.934-4.17 4.31v4.38c0 2.377 1.87 4.31 4.17 4.31h36.66c2.3 0 4.17-1.933 4.17-4.31zm-3.353-4.38v4.38c0 .466-.367.845-.817.845h-5.057v-6.07h5.057c.45 0 .817.379.817.845zm-9.227 5.225h-5.874v-6.07h5.874v6.07zm-29.067-.845v-4.38c0-.466.367-.845.817-.845h19.022v6.07H52.17c-.45 0-.817-.379-.817-.845z" fill="#EA4972"/><path d="M42 75.45v.1c0 .8.672 1.45 1.5 1.45.829 0 1.5-.65 1.5-1.45v-.1c0-.8-.671-1.45-1.5-1.45-.828 0-1.5.65-1.5 1.45zM88.83 51c2.3 0 4.17-1.933 4.17-4.31v-4.38c0-2.376-1.87-4.31-4.17-4.31H52.17c-2.3 0-4.17 1.934-4.17 4.31v4.38c0 2.377 1.87 4.31 4.17 4.31h36.66zm-14.284-3.465v-6.07h5.874v6.07h-5.874zm15.1-5.225v4.38c0 .466-.366.845-.816.845h-5.057v-6.07h5.057c.45 0 .817.379.817.845zm-38.293 4.38v-4.38c0-.466.367-.845.817-.845h19.022v6.07H52.17c-.45 0-.817-.379-.817-.845zM45 44.55v-.1c0-.8-.671-1.45-1.5-1.45-.828 0-1.5.65-1.5 1.45v.1c0 .8.672 1.45 1.5 1.45.829 0 1.5-.65 1.5-1.45z" fill="#3F546C"/><path d="M97.863 26.69c2.281 0 4.137-1.865 4.137-4.155V4.154C102 1.863 100.144 0 97.863 0H48.199c-.92 0-1.663.748-1.663 1.67 0 .922.744 1.67 1.663 1.67h49.664c.447 0 .81.365.81.814v18.381a.814.814 0 01-.81.814H12.137a.814.814 0 01-.81-.814V4.154c0-.449.363-.814.81-.814h7.739v2.8c0 .922.744 1.67 1.663 1.67.918 0 1.663-.748 1.663-1.67v-2.8h3.6v2.8c0 .922.746 1.67 1.664 1.67.919 0 1.663-.748 1.663-1.67v-2.8h3.601v2.8c0 .922.745 1.67 1.663 1.67.919 0 1.664-.748 1.664-1.67v-2.8h3.899c.918 0 1.663-.748 1.663-1.67 0-.922-.745-1.67-1.663-1.67H12.137C9.857 0 8 1.863 8 4.154v18.381c0 2.29 1.856 4.154 4.137 4.154h41.2v4.36h-41.2C9.856 31.05 8 32.913 8 35.203v18.381c0 2.291 1.856 4.154 4.137 4.154h12.408c.918 0 1.663-.747 1.663-1.67 0-.921-.745-1.67-1.663-1.67H12.137a.813.813 0 01-.81-.814v-18.38c0-.45.363-.815.81-.815h7.739v2.802c0 .922.744 1.67 1.663 1.67.918 0 1.663-.748 1.663-1.67v-2.802h3.6v2.802c0 .921.746 1.67 1.664 1.67.919 0 1.663-.749 1.663-1.67v-2.802h3.601v2.802c0 .921.745 1.67 1.663 1.67.919 0 1.664-.749 1.664-1.67v-2.802h60.806c.447 0 .81.365.81.814v18.381a.814.814 0 01-.81.815H31.788c-.92 0-1.663.748-1.663 1.67 0 .922.744 1.67 1.663 1.67h21.549v4.36h-41.2C9.856 62.098 8 63.961 8 66.251v18.382c0 2.29 1.856 4.154 4.137 4.154h41.2v10.387a7.511 7.511 0 00-5.625 5.647H9.663c-.918 0-1.663.748-1.663 1.67 0 .923.745 1.67 1.663 1.67h38.048C48.47 111.5 51.45 114 55 114s6.53-2.5 7.289-5.838h38.048c.918 0 1.663-.747 1.663-1.67 0-.922-.745-1.67-1.663-1.67H62.289a7.514 7.514 0 00-5.626-5.647V88.788h23.133c.918 0 1.663-.748 1.663-1.67 0-.922-.745-1.67-1.663-1.67H12.137a.814.814 0 01-.81-.814V66.252c0-.448.363-.814.81-.814h7.739v2.802c0 .922.744 1.67 1.663 1.67.918 0 1.663-.748 1.663-1.67v-2.802h3.6v2.802c0 .922.746 1.67 1.664 1.67.919 0 1.663-.748 1.663-1.67v-2.802h3.601v2.802c0 .922.745 1.67 1.663 1.67.919 0 1.664-.748 1.664-1.67v-2.802h60.806c.447 0 .81.366.81.814v18.382a.814.814 0 01-.81.814H87.038c-.918 0-1.663.748-1.663 1.67 0 .922.745 1.67 1.663 1.67h10.825c2.281 0 4.137-1.863 4.137-4.154V66.252c0-2.29-1.856-4.154-4.137-4.154h-41.2v-4.36h41.2c2.281 0 4.137-1.863 4.137-4.154v-18.38c0-2.29-1.856-4.155-4.137-4.155h-41.2v-4.36m2.488 79.803c0 2.298-1.862 4.168-4.151 4.168-2.289 0-4.15-1.869-4.15-4.168 0-2.298 1.861-4.167 4.15-4.167 2.289 0 4.151 1.87 4.151 4.167z" fill="#3F546C"/><path d="M88.83 20c2.3 0 4.17-1.934 4.17-4.31v-4.38C93 8.933 91.13 7 88.83 7H52.17C49.87 7 48 8.933 48 11.31v4.38c0 2.376 1.87 4.31 4.17 4.31h36.66zm-14.284-3.465v-6.07h5.874v6.07h-5.874zm15.1-5.225v4.38c0 .466-.366.845-.816.845h-5.057v-6.07h5.057c.45 0 .817.379.817.845zm-38.293 4.38v-4.38c0-.466.367-.845.817-.845h19.022v6.07H52.17c-.45 0-.817-.379-.817-.845zM42 13.55c0 .8.672 1.45 1.5 1.45.829 0 1.5-.65 1.5-1.45v-.1c0-.8-.671-1.45-1.5-1.45-.828 0-1.5.65-1.5 1.45v.1z" fill="#3F546C"/></g></g></svg>