<svg xmlns="http://www.w3.org/2000/svg" viewBox="0 0 126.8 126.6" fill="#fff"><path class="st0" d="M71.8 2.5c7.3-4.4 17.3-2.7 23.4 3 6.9 6.5 8.2 17.6 3 25.5 6.3-1.7 13.4-2.1 19.2 1.2 4.4 2.6 6 8.1 5.3 12.9-.6 6.1-5 11.3-10.3 14.1 8.6 3 15 11.6 14.4 20.9-.2 8.8-6.6 17.2-15.4 19.1-5.9 1.2-12-.3-17.1-3.3.6 4.9 1.3 10.3-1.2 14.9-2.3 5.6-8.8 9-14.7 7.5-4.6-.8-7.9-4.3-11.4-7.2-1.9 6.8-7.1 12.7-14 14.6-6.4 1.6-13.6.7-19.2-3-5.7-4.5-9.5-12-7.9-19.3.4-4 2.8-7.4 4.9-10.8-4.9 1.2-10.1 1.3-15-.1-5.4-1.8-9.3-7.7-8-13.4.6-4.8 4.4-8.2 7.7-11.3-5.6-1-10.8-4.2-13.7-9.1-2.8-5-2.2-11.5.7-16.4C8 32.2 21.6 27.6 32 32.5c-3.4-5.3-5-11.9-3.6-18.1 1-5.4 5.3-10.5 10.9-11.3 3.8-.3 7.9-.1 11.2 2 5 2.7 7.7 8 10.6 12.6 1.5-6.1 4.8-12.3 10.7-15.2zm3.1 9.4c-4.2 1.7-8.4 5.5-8.2 10.4.1 8.1 1.3 16.1 1.8 24.2 1.6 1 3.3 2 4.9 2.9 4.4-5 8.4-10.2 12.8-15.3 2.6-3.1 4.9-6.7 5.2-10.9 0-4-1.8-8.5-5.8-10-3.3-1.7-7.2-2.8-10.7-1.3zm-35.7 5.9c-2.1 5.4-.2 11.9 4 15.7 4.1 4.2 8.1 8.6 12.1 12.8.6-.2 1.8-.7 2.3-.9-1.2-6.6-1.9-13.4-3.6-19.9-1.5-4.7-4.4-9.9-9.7-10.8-2.2-.6-4.1 1.4-5.1 3.1zm54.6 25.7C90 46.7 86 49.8 82.1 53c-1 1-2.9 2-1.8 3.8 7.3-.8 14.6-1.4 21.8-2.7 4.1-1.4 8.6-3.5 10.3-7.8 1-3.6-2.7-6.4-5.9-6.7-4.6-.5-9.3.9-12.7 3.9zM12.1 52c0 5.3 5.4 8.6 10.2 8.1 7.3-1 14.6-1.7 21.8-2.8.8-1.6 1.7-3.2 2.6-4.8-3.8-3.1-8-5.8-11.9-8.7-2.7-2-6-3.7-9.5-3.6-6.4 0-13 5-13.2 11.8zm40.7 4.7c-4.3 4.8-3.4 13.4 2.2 16.9 3.4 2.8 8 2.7 12 1.6 5.4-2.5 8.6-8.6 6.7-14.5-2.4-8.8-15.4-11-20.9-4zm30.1 13.1c-.5 1.4-1 2.8-1.6 4.2 4.3 3.5 8.5 7 12.9 10.5 2.8 2.2 5.3 5.2 9.1 5.5 6.8 1.4 13.7-4.8 13-11.8-.6-4.4-3.8-8.6-8.2-9.9-8.4-.6-16.8 1.1-25.2 1.5zM37.6 96.4c-3.7 4-4.7 10.6-1.5 15.2 3.1 4.3 9.1 5.5 14 4.4 3.5-1.6 7.5-3.1 9.9-6.2 2.2-2.7 1.1-6.4 1.2-9.6-.1-6-2.6-11.7-3.3-17.6-2.4-.5-4.7-1.2-7-1.9-4.4 5.2-8.8 10.5-13.3 15.7zm29.9-13.1c1.7 6.6 1.5 13.8 5 19.9 1.7 3.3 5 6.9 9.2 6 4.2-.9 5.2-6.2 4.5-9.8-1.7-7.8-8.3-12.9-13.6-18.2-1.8.6-3.5 1.4-5.1 2.1z"/></svg>