<svg xmlns="http://www.w3.org/2000/svg" viewBox="0 0 121.4 107.3" fill="#c32179"><path class="st0" d="M11.6 9.6C23.4-2.1 43.6-3 57 6.5c-2.3 11.5-4.3 23-6.5 34.5 7.1-.5 14.1-1.3 21.2-1.8-4.8 10.5-9.5 21.2-14.4 31.7 5.6.8 11.2 1.2 16.8 1.8-4 10.8-8.5 21.5-12.2 32.4 7.4-12.5 14.5-25.3 21.6-38-5.6-.1-11.1-.2-16.5-.4 4.2-10.3 8.4-20.7 12.6-31-6.7-.8-13.5-1.4-20.2-2.3 1.8-8.9 3.4-17.9 5.4-26.7 13.5-10.4 34.9-8.4 46.4 4.1 8.4 9.1 11.4 22.2 9.8 34.2-2 13.4-10.6 24.7-20.5 33.4-11.6 10.5-26 17.2-38 27.2l-1.3-.4c.1.5.3 1.6.3 2.1-3.1-1.7-5.5-4.4-8.5-6.4-13.3-9.2-27.9-17-38.8-29.2C6.2 63.1.2 52 0 40-.2 28.9 3.3 17.2 11.6 9.6z"/></svg>