<svg xmlns="http://www.w3.org/2000/svg" viewBox="0 0 112 116" fill="#c32179"><path class="st0" d="M57.9 4.9c1.7-4.1 7-6.2 11-4.1 11.3 4.8 22.7 9.5 33.9 14.4 3.9 1.6 6.3 6.4 4.6 10.3-2 4.9-4.3 9.7-6.4 14.5h-8.4c.7-1.9 1.5-3.7 2.3-5.6-6-2.9-9.2-10.2-6.7-16.5-3.7-1.7-7.5-3.3-11.3-4.8-2.8 6.2-10.2 9.2-16.5 6.7-2.9 6.7-5.4 13.6-8.6 20.2-2.9 0-5.8-.1-8.8 0 5.1-11.7 9.7-23.5 14.9-35.1zm-16.4 5.5c1-4.9 6.6-7.3 11.1-5.8-4.8 11.9-9.9 23.6-14.9 35.4h-4c2.4-10 5.2-19.8 7.8-29.6zm-13.4 3.7c.8-3.9 4.9-5.9 8.6-6.2-3 10.6-5.8 21.3-8.5 32h-3.6c1.2-8.6 1.9-17.2 3.5-25.8z"/><path class="st0" d="M58.8 39.9c-.1-6.3 6-11.2 12.1-11 7-.4 13.7 4.4 15.8 11-9.3.1-18.6.1-27.9 0z"/><path class="st0" d="M5.8 33.8C10 31.2 15.2 32.1 20 32v8c-2.6.3-5.9-.9-8 1.2-.6 1.8 1.3 3 2.9 2.8H95c3.9 0 8 1.3 10.3 4.6 3.6 4.3 2.5 10.2 2.7 15.4-7.7.1-15.4-.2-23.1.2-8.5 1-14.7 9.5-13.6 17.8.8 7 6.8 12.9 13.7 13.9 7.7.2 15.4 0 23.1.1-.2 4.5.8 9.4-1.5 13.5-2.1 4.2-6.8 6.6-11.5 6.5H11.9C5.6 115.8 0 110.4 0 104.1V44.9c-.1-4.4 2-8.9 5.8-11.1z"/><path class="st0" d="M85.4 68.4c7.1-1 14.5-.2 21.7-.5 2.3-.3 4.9 1.5 4.9 3.9.1 5.4.1 10.8 0 16.2-.1 2.4-2.6 4.2-4.9 3.9-6.4 0-12.8.1-19.2-.1-5.5-.3-10.5-4.5-11.2-10-1.2-5.8 2.9-12 8.7-13.4zm4 7.7c-2.3 1.5-2.6 5.1-.7 7.1 2.3 2.6 7.4 1.2 7.9-2.3 1.1-4-4-7.1-7.2-4.8z"/></svg>