<svg width="14" height="14" fill="none" xmlns="http://www.w3.org/2000/svg"><path fill-rule="evenodd" clip-rule="evenodd" d="M7 .6C5.262.6 5.044.608 4.361.64 3.68.67 3.215.778 2.808.936a3.142 3.142 0 00-1.134.738 3.142 3.142 0 00-.739 1.134C.777 3.215.67 3.68.638 4.36.608 5.044.6 5.262.6 7.001c0 1.737.007 1.955.038 2.637.032.682.14 1.147.298 1.554.163.42.382.778.738 1.134.355.356.712.575 1.133.738.407.159.873.266 1.554.298.682.03.9.038 2.638.038 1.739 0 1.956-.007 2.639-.038.681-.032 1.147-.14 1.554-.298a3.13 3.13 0 001.133-.738c.356-.356.575-.713.739-1.134.157-.407.265-.872.297-1.553.03-.683.039-.9.039-2.639 0-1.738-.008-1.956-.04-2.639-.031-.681-.14-1.146-.296-1.553a3.141 3.141 0 00-.74-1.134 3.128 3.128 0 00-1.132-.738C10.784.778 10.318.67 9.637.64 8.954.608 8.737.6 6.998.6H7zm-.574 1.153H7c1.709 0 1.912.007 2.586.037.624.029.963.133 1.189.22.298.117.511.255.735.48.224.223.363.437.479.735.088.226.192.564.22 1.188.031.675.038.878.038 2.586 0 1.708-.007 1.91-.038 2.585-.028.624-.132.963-.22 1.188a1.98 1.98 0 01-.479.735 1.98 1.98 0 01-.735.479c-.226.088-.565.192-1.189.22-.674.031-.877.038-2.586.038-1.709 0-1.911-.007-2.586-.037-.624-.03-.963-.134-1.188-.221a1.982 1.982 0 01-.736-.479 1.984 1.984 0 01-.48-.736c-.087-.225-.191-.564-.22-1.187-.03-.675-.037-.878-.037-2.587s.007-1.91.037-2.585c.029-.624.133-.963.22-1.189.117-.298.256-.512.48-.736.224-.224.437-.362.736-.479.225-.088.564-.192 1.188-.22.59-.027.82-.035 2.012-.036v.001zm3.99 1.063a.768.768 0 100 1.536.768.768 0 000-1.536zM7 3.713a3.287 3.287 0 100 6.574 3.287 3.287 0 000-6.574zm0 1.154a2.133 2.133 0 110 4.267 2.133 2.133 0 010-4.267z" fill="#fff"/></svg>