<svg width="14" height="14" fill="none" xmlns="http://www.w3.org/2000/svg"><path fill-rule="evenodd" clip-rule="evenodd" d="M13.4 6.991a6.405 6.405 0 01-.504 2.488 6.436 6.436 0 01-2.318 2.811c-.342.23-.708.429-1.087.59a6.43 6.43 0 01-4.983 0 6.465 6.465 0 01-1.088-.59 6.445 6.445 0 01-2.318-2.81A6.37 6.37 0 01.73 5.705a6.355 6.355 0 01.964-2.288A6.453 6.453 0 013.42 1.692 6.337 6.337 0 015.71.73a6.45 6.45 0 013.78.372 6.418 6.418 0 012.816 2.315A6.33 6.33 0 0113.4 6.991zM4.667 2.055a5.466 5.466 0 00-3.016 3.81c.144.002 2.422.03 5.046-.665a32.862 32.862 0 00-2.03-3.145zM7.15 6.04c-2.815.841-5.515.78-5.612.777-.002.059-.004.116-.004.174 0 1.402.53 2.68 1.4 3.647-.002-.003 1.494-2.653 4.443-3.605.072-.024.144-.045.216-.065a19.12 19.12 0 00-.443-.928zm3.459-3.145a5.444 5.444 0 00-3.61-1.361c-.444 0-.875.053-1.288.153.082.11 1.109 1.47 2.044 3.183 2.062-.772 2.84-1.955 2.854-1.975zM7.966 7.872c-.013.004-.025.007-.037.012-3.224 1.122-4.278 3.385-4.289 3.41a5.46 5.46 0 005.493.722 22.696 22.696 0 00-1.167-4.144zm2.087 3.645a5.458 5.458 0 002.342-3.66 7.94 7.94 0 00-3.405-.238 23.593 23.593 0 011.063 3.898zM8.175 5.684a17.209 17.209 0 01.482 1.074c1.877-.236 3.727.16 3.806.177a5.425 5.425 0 00-1.243-3.41c-.01.014-.887 1.279-3.045 2.159z" fill="#fff"/></svg>