<svg xmlns="http://www.w3.org/2000/svg" viewBox="0 0 576 341"><text transform="translate(0 318.876)" font-size="80.992" font-family="Copperplate">BARBERSHOP</text><path d="M448.9 250.2c-116.1-55.9-221.6-43.9-310.4-20.3-1-1.3-1.9-2.6-2.9-3.9 90.7-27.5 199.4-42.2 319.3 12.8l-6 11.4z"/><path d="M448.9 250.2c-116.1-55.9-221.6-43.9-310.4-20.3-1-1.3-1.9-2.6-2.9-3.9 90.7-27.5 199.4-42.2 319.3 12.8l-6 11.4z" fill="none" stroke="#000" stroke-width="8.181" stroke-linecap="round" stroke-linejoin="round" stroke-miterlimit="10"/><path d="M158.9 246.2c-8.7-4-18.5-6.7-25.7-12.6-4.6-3.9 6.5-23.8 14.2-27.9 30.9-16.3 62.3-32 92.6-49.3 42.8-24.4 83.4-52.1 119.9-85.3 3.1-2.8 6.5-6.6 10.1-7 5.2-.6 12 0 15.6 3.1 2.7 2.4 2.6 9.6 1.6 14.2-.8 3.6-4.5 7-7.4 9.8-40.4 38.7-82.8 74.5-129.4 104.5-13.1 8.4-26.5 16.4-40.4 23.9-9.6 5.2-19.4 10.1-29.4 14.7-6.8 3.2-13.7 6-20.6 9-.4.9-.8 1.9-1.1 2.9z"/><path d="M359.4 66.5c-7.4 6.7-11.4 10.3-15.5 14-15.3-7.5-30.4-14.6-45.3-22.2-10.3-5.2-18.4-4.9-26.3 5.1-2.9 3.7-11.2 6.2-15.9 5-38.7-10.3-77.2-21.5-115.7-32.7-4.3-1.3-8.6-3.4-12.2-6.1-7.6-5.8-9.4-13.8-5-22.3C127.8-1 135-1 143 1.5c37.4 11.7 74.7 23.9 112.5 34.7 19.2 5.5 39.4 7.5 58.7 12.8 14.6 4 28.5 10.9 45.2 17.5zm-140-32.2c-.2 1-.5 1.9-.7 2.9 17.2 4.4 34.3 8.8 51.5 13.2.2-.9.5-1.8.7-2.8-17.2-4.4-34.3-8.8-51.5-13.3z"/><path d="M219.4 34.3c17.2 4.4 34.3 8.9 51.5 13.3-.2.9-.5 1.8-.7 2.8-17.2-4.4-34.3-8.8-51.5-13.2.2-1 .4-1.9.7-2.9z" fill="#fff"/><path stroke="#fff" stroke-width="1.238" stroke-miterlimit="10" d="M208.6 221.2l40.4-23.8"/></svg>