<svg width="48" height="48" fill="none" xmlns="http://www.w3.org/2000/svg"><path d="M10.333 27.416h2.688V29H8.28v-8.424h2.052v6.84zm7.65 1.668a4.43 4.43 0 01-2.184-.552 4.197 4.197 0 01-1.572-1.536c-.383-.664-.575-1.408-.575-2.232 0-.824.192-1.564.575-2.22a4.197 4.197 0 011.572-1.536 4.43 4.43 0 012.184-.552c.793 0 1.517.184 2.172.552.665.368 1.184.88 1.56 1.536.384.656.576 1.396.576 2.22 0 .824-.192 1.568-.576 2.232a4.108 4.108 0 01-1.56 1.536 4.363 4.363 0 01-2.172.552zm0-1.872c.672 0 1.209-.224 1.608-.672.409-.448.612-1.04.612-1.776 0-.744-.203-1.336-.611-1.776-.4-.448-.936-.672-1.608-.672-.68 0-1.225.22-1.633.66-.4.44-.6 1.036-.6 1.788 0 .744.2 1.34.6 1.788.409.44.953.66 1.633.66zm11.042-3.972a1.492 1.492 0 00-.66-.636c-.28-.152-.612-.228-.996-.228-.664 0-1.196.22-1.596.66-.4.432-.6 1.012-.6 1.74 0 .776.208 1.384.624 1.824.424.432 1.004.648 1.74.648.504 0 .928-.128 1.272-.384.352-.256.608-.624.768-1.104h-2.604v-1.512h4.464v1.908a3.98 3.98 0 01-.78 1.428c-.36.44-.82.796-1.38 1.068-.56.272-1.192.408-1.896.408-.832 0-1.576-.18-2.232-.54a3.985 3.985 0 01-1.524-1.524c-.36-.648-.54-1.388-.54-2.22 0-.832.18-1.572.54-2.22a3.878 3.878 0 011.524-1.524c.648-.368 1.388-.552 2.22-.552 1.008 0 1.856.244 2.544.732.696.488 1.156 1.164 1.38 2.028h-2.268zm7.533 5.844a4.43 4.43 0 01-2.184-.552 4.197 4.197 0 01-1.572-1.536c-.384-.664-.576-1.408-.576-2.232 0-.824.192-1.564.576-2.22a4.197 4.197 0 011.572-1.536 4.43 4.43 0 012.184-.552c.792 0 1.516.184 2.172.552.664.368 1.184.88 1.56 1.536.384.656.576 1.396.576 2.22 0 .824-.192 1.568-.576 2.232a4.108 4.108 0 01-1.56 1.536 4.363 4.363 0 01-2.172.552zm0-1.872c.672 0 1.208-.224 1.608-.672.408-.448.612-1.04.612-1.776 0-.744-.204-1.336-.612-1.776-.4-.448-.936-.672-1.608-.672-.68 0-1.224.22-1.632.66-.4.44-.6 1.036-.6 1.788 0 .744.2 1.34.6 1.788.408.44.952.66 1.632.66z" fill="#6F36BC"/><circle cx="24" cy="24" r="22" stroke="#6F36BC" stroke-width="4"/></svg>