<svg xmlns="http://www.w3.org/2000/svg" viewBox="0 0 104.4 128" fill="#fff"><path class="st0" d="M41.8 0h20.7c3.2 7.4 9.5 13.1 16.8 16.4 7.5 3.4 15.8 4.5 23.9 4.6 2.2 20 1.9 40.7-5 59.8-5.6 16.3-16.8 30.6-31.4 39.7-4.6 3-9.7 5.2-14.6 7.5-9.8-4.2-19.1-9.5-26.8-16.9C11.7 98 3.9 79.7 1.3 61.1-.6 47.8-.3 34.3 1.3 21c10-.2 20.3-1.8 28.8-7.4 5.1-3.2 9.4-7.9 11.7-13.6zM8.2 28.2c-1.8 21.6.2 44.5 11.5 63.5 7.4 12.6 19.2 22.2 32.4 28.1 13.9-6 26.1-16.4 33.5-29.7 10.5-18.7 12.2-40.9 10.5-61.9-14.8-.9-30.2-7.5-38.1-20.6-3.8-.1-7.6-.1-11.4-.1-8.2 13.1-23.5 19.8-38.4 20.7z"/><path class="st0" d="M42.1 24.7c1.4-1.4 1.8-3.7 3.4-4.8 4.6-.2 9.1.1 13.7 0C64 30.5 76.4 34.5 87.3 34.3c2 17.1 1 35.5-7.8 50.8-6 10.6-16.1 18.5-27.3 23-12.9-5-24-14.6-29.7-27.3C15.8 66.4 15.2 50 17 34.4c9.2-.1 19.1-2.4 25.1-9.7z"/></svg>