<svg width="24" height="24" fill="none" xmlns="http://www.w3.org/2000/svg"><path d="M11.953 4.071c-4.437 0-8.047 3.61-8.047 8.048 0 4.437 3.61 8.048 8.047 8.048 4.438 0 8.048-3.61 8.048-8.048 0-4.437-3.61-8.048-8.048-8.048zm0 15.233c-3.961 0-7.185-3.223-7.185-7.185 0-3.962 3.224-7.185 7.185-7.185a7.193 7.193 0 017.185 7.185 7.193 7.193 0 01-7.185 7.185z" fill="#fff"/><path d="M13.988 10.81l-1.736 1.736V6.372a.431.431 0 00-.863 0v7.216a.4.4 0 00.009.084c.002.013.007.024.01.036.005.015.008.03.014.045.006.014.014.027.022.04.006.012.01.024.018.034a.436.436 0 00.12.12l.027.015c.016.009.03.018.047.025.013.005.027.008.04.012.013.004.026.01.04.012a.434.434 0 00.169 0c.014-.003.027-.008.04-.012.014-.004.027-.007.04-.012.017-.007.032-.017.048-.025.009-.005.018-.009.026-.015a.413.413 0 00.067-.054l2.472-2.472a.431.431 0 00-.61-.61z" fill="#fff"/><path d="M11.954 2.164C6.465 2.164 2 6.63 2 12.118c0 5.49 4.465 9.954 9.954 9.954 5.488 0 9.954-4.465 9.954-9.954 0-5.488-4.466-9.954-9.954-9.954zm0 19.045c-5.013 0-9.092-4.078-9.092-9.09 0-5.014 4.079-9.093 9.092-9.093 5.013 0 9.091 4.08 9.091 9.092 0 5.013-4.078 9.091-9.091 9.091z" fill="#fff"/></svg>