<svg width="27" height="25" fill="none" xmlns="http://www.w3.org/2000/svg"><path d="M3.788 18.957c0 1.598 1.3 2.899 2.898 2.899 1.6 0 2.9-1.301 2.9-2.9 0-1.598-1.3-2.898-2.9-2.898a2.902 2.902 0 00-2.898 2.899zm4.845 0a1.948 1.948 0 01-1.946 1.946 1.948 1.948 0 01-1.947-1.946c0-1.073.874-1.946 1.946-1.946a1.95 1.95 0 011.947 1.946zM26.655 8.132a.477.477 0 00-.672.039l-6.92 7.75L15.5 12.36a.476.476 0 10-.673.674l3.919 3.918c.09.09.21.14.337.14h.013a.477.477 0 00.342-.16l7.256-8.126a.476.476 0 00-.039-.673z" fill="#3D309E"/><path d="M19.247 18.281a.476.476 0 00-.476.477v4.74H1.9V1.265h16.87v9.982a.476.476 0 10.952 0V.79a.476.476 0 00-.476-.477H1.424A.476.476 0 00.948.79v23.186c0 .263.213.476.476.476h17.823a.476.476 0 00.476-.476v-5.218a.476.476 0 00-.476-.476z" fill="#3D309E"/><path d="M13.678 6.734a.476.476 0 100-.953H4.106a.476.476 0 100 .953h9.572zm.595 3.762a.476.476 0 00-.477-.476h-9.57a.476.476 0 100 .952h9.57a.476.476 0 00.477-.476z" fill="#3D309E"/></svg>