<svg width="32" height="33" fill="none" xmlns="http://www.w3.org/2000/svg"><path d="M16.633 25.528H5.86a9.014 9.014 0 018.982-8.554 8.909 8.909 0 014.857 1.435.477.477 0 10.52-.801 9.86 9.86 0 00-5.387-1.585 9.968 9.968 0 00-9.923 9.98.475.475 0 00.475.476h11.248a.475.475 0 100-.95zM14.89 14.914a5.862 5.862 0 10-5.86-5.861 5.87 5.87 0 005.86 5.861zm0-10.772a4.91 4.91 0 11-4.91 4.91 4.917 4.917 0 014.91-4.91z" fill="#3D309E"/><path d="M28.534 21.207l-1.771-1.77a.475.475 0 00-.672.67l.665.67H19.47a.476.476 0 000 .95h7.874l-1.268 1.267a.475.475 0 10.672.672l1.771-1.771a.475.475 0 000-.672l.016-.016zm-.811 4.006h-8.079l1.305-1.306a.476.476 0 10-.671-.674l-1.771 1.77a.475.475 0 000 .672l1.77 1.775a.474.474 0 00.79-.146.476.476 0 00-.118-.526l-.624-.615h7.398a.475.475 0 000-.95z" fill="#3D309E"/></svg>