<svg width="24" height="24" fill="none" xmlns="http://www.w3.org/2000/svg"><path d="M21.787 16.703c-.045-1.298-.45-2.863-1.139-4.405-1.513-3.391-3.775-5.45-5.258-4.786l-.863.384V5.851c0-1.625-2.8-2.851-6.513-2.851C4.3 3 1.5 4.226 1.5 5.85v3.664c0 .019.003.038.006.056a.37.37 0 00-.006.057c0 .033.003.066.005.098a.347.347 0 00-.005.053v3.663c0 .02.003.038.006.056-.003.02-.006.038-.006.057 0 .042.003.082.007.123a.35.35 0 00-.007.066v3.662c0 .02.003.038.006.057a.37.37 0 00-.006.057c0 1.625 2.8 2.85 6.514 2.85 2.353 0 4.499-.535 5.633-1.384 1.012 1.312 2.1 2.085 3.012 2.085.208 0 .407-.04.594-.124l3.448-1.54c.75-.333 1.136-1.294 1.086-2.703zM8.014 3.718c3.416 0 5.796 1.124 5.796 2.133 0 1.01-2.38 2.134-5.796 2.134-3.416 0-5.797-1.125-5.797-2.134s2.38-2.133 5.797-2.133zM2.217 9.514V7.193c1.062.912 3.206 1.51 5.797 1.51 2.59 0 4.735-.598 5.796-1.51v1.024l-1.87.834c-.718.322-1.082 1.206-1.095 2.417a13.44 13.44 0 01-2.832.293c-3.415 0-5.796-1.124-5.796-2.134a.342.342 0 00-.006-.056.348.348 0 00.006-.057zm0 3.927V10.97c1.062.912 3.206 1.51 5.797 1.51 1 0 1.98-.097 2.862-.279.081.887.32 1.9.714 2.97-1.06.343-2.26.518-3.576.518-3.416 0-5.797-1.124-5.797-2.133a.342.342 0 00-.005-.057.355.355 0 00.005-.057zm5.797 6.212c-3.416 0-5.797-1.125-5.797-2.134a.343.343 0 00-.005-.056.37.37 0 00.005-.057v-2.51c1.062.912 3.206 1.51 5.797 1.51 1.409 0 2.697-.193 3.84-.568a14.757 14.757 0 001.376 2.567c-.99.753-3.026 1.248-5.216 1.248zm8.947.639c-.922.411-2.92-1.304-4.312-4.423-1.392-3.12-1.336-5.751-.416-6.163l2.228-.994c-.123.417-.178.921-.158 1.505.046 1.298.45 2.863 1.14 4.405 1.056 2.367 2.476 4.08 3.743 4.677l-2.226.993zm3.447-1.54c-.92.411-2.918-1.303-4.31-4.422-.653-1.46-1.035-2.93-1.078-4.139-.038-1.082.204-1.82.662-2.024a.744.744 0 01.302-.06c1.007 0 2.754 1.67 4.01 4.483.652 1.46 1.034 2.93 1.077 4.138.037 1.082-.204 1.82-.663 2.025z" fill="#fff"/></svg>