<svg width="19" height="20" fill="none" xmlns="http://www.w3.org/2000/svg"><path d="M9.752.547c-.061-.002-.316 0-.33 0C4.405.648.35 4.725.287 9.75a.353.353 0 00-.044.168.35.35 0 00.047.174c.12 4.975 4.152 8.994 9.13 9.092.037.002.073.005.11.005l.028-.001.049.001c5.14 0 9.322-4.182 9.322-9.322 0-5.092-4.104-9.242-9.178-9.32zm8.453 9.012h-3.412c-.062-3.5-1.162-6.455-2.788-7.956 3.487 1.014 6.066 4.178 6.2 7.956zm-8.956-8.28v8.28H4.987c.082-4.426 1.938-8.01 4.262-8.28zm0 8.997v8.177c-2.305-.268-4.152-3.8-4.261-8.177h4.261zm.718 8.154v-8.154h4.107c-.107 4.28-1.874 7.75-4.107 8.154zm0-8.871V1.3c2.25.407 4.027 3.93 4.108 8.258H9.967zM6.982 1.672c-1.585 1.521-2.653 4.44-2.713 7.887H1.01c.131-3.695 2.6-6.804 5.972-7.887zm-5.969 8.604h3.258c.08 3.401 1.142 6.277 2.71 7.783-3.34-1.072-5.796-4.133-5.968-7.783zm10.992 7.852c1.61-1.486 2.705-4.397 2.786-7.852h3.411c-.176 3.732-2.741 6.848-6.197 7.852z" fill="#fff"/></svg>