<svg width="24" height="24" fill="none" xmlns="http://www.w3.org/2000/svg"><path d="M20.871 15.398l-4.4-6.971 1.858-2.902c.413-.644.577-1.4.44-2.024-.094-.43-.32-.77-.652-.982l-.103-.067c-.85-.543-2.088-.074-2.82 1.067l-1.746 2.728-9.71-.906a.358.358 0 00-.336.164L2.683 6.63a.358.358 0 00.184.532l8.177 2.843-3.086 4.822-4.821.468a.359.359 0 00-.29.205l-.381.808a.36.36 0 00.264.506l5.56.945 3.188 4.653c.063.093.166.15.278.156h.018a.358.358 0 00.274-.128l.575-.684a.36.36 0 00.064-.349l-1.594-4.574 3.004-4.696 5.513 4.846a.36.36 0 00.539-.076l.72-1.124a.36.36 0 00.002-.385zm-1.101.771l-5.513-4.846a.359.359 0 00-.539.076l-3.324 5.194a.36.36 0 00-.036.311l1.585 4.547-.14.166-2.988-4.361a.362.362 0 00-.1-.098l-.051-.034a.356.356 0 00-.135-.052l-5.212-.886.092-.196 4.792-.466a.36.36 0 00.268-.163l3.424-5.352a.36.36 0 00-.184-.533L3.532 6.633l.357-.558 9.71.907a.356.356 0 00.336-.164l1.863-2.912c.498-.776 1.335-1.166 1.825-.852l.107.07c.213.135.302.363.338.53.098.442-.03.997-.343 1.484l-1.98 3.094a.36.36 0 00-.002.385l4.4 6.971-.373.581z" fill="#fff"/></svg>