<svg width="31" height="21" fill="none" xmlns="http://www.w3.org/2000/svg"><path d="M13.185 8.922a4.422 4.422 0 00-4.417 4.417 4.422 4.422 0 004.417 4.417 4.422 4.422 0 004.417-4.417 4.422 4.422 0 00-4.417-4.417zm0 7.877a3.465 3.465 0 01-3.46-3.46 3.465 3.465 0 013.46-3.46 3.464 3.464 0 013.46 3.46 3.464 3.464 0 01-3.46 3.46zM3.894 8.922a.478.478 0 00-.478.478v7.878a.478.478 0 10.957 0V9.4a.478.478 0 00-.479-.478zm18.43 0a.478.478 0 00-.478.478v7.878a.478.478 0 10.956 0V9.4a.478.478 0 00-.478-.478z" fill="#3D309E"/><path d="M30.12.621H6.89a.478.478 0 00-.478.478v2.344H4.29a.478.478 0 00-.478.478v2.606H1.463a.478.478 0 00-.479.478v12.672c0 .264.214.478.479.478h23.23a.478.478 0 00.477-.478V17.07h2.349a.478.478 0 00.478-.479v-2.344h2.123a.478.478 0 00.479-.478V1.1a.478.478 0 00-.479-.48zM24.214 19.2H1.94V7.484h22.273v11.715zm.957-3.085v-9.11a.478.478 0 00-.479-.478H4.767V4.399H27.04v11.715h-1.87zm4.471-2.822h-1.645V3.92a.478.478 0 00-.478-.478H7.369V1.578h22.273v11.714z" fill="#3D309E"/></svg>