<svg fill="none" xmlns="http://www.w3.org/2000/svg" viewBox="0 0 139 38"><g clip-path="url(#clip0)" fill="#15191D"><path d="M46.9 36.309H.997c-.264 0-.518-.1-.705-.28A.935.935 0 010 35.354c0-.253.105-.496.292-.675.187-.179.44-.28.705-.28H46.9c.265 0 .519.101.706.28a.94.94 0 01.292.675.935.935 0 01-.293.675 1.02 1.02 0 01-.705.28z"/><path d="M42.908 36.309a1.036 1.036 0 01-.706-.281.953.953 0 01-.216-.311.92.92 0 01-.075-.367V21.976c0-.254.105-.496.292-.676.187-.179.44-.28.705-.28.264 0 .518.101.705.28.187.18.292.422.292.676V35.35a.92.92 0 01-.075.367.953.953 0 01-.215.311 1.036 1.036 0 01-.706.281zm-37.918 0a1.036 1.036 0 01-.707-.28.953.953 0 01-.216-.312.92.92 0 01-.075-.367V13.38c0-.503.104-1 .305-1.465.201-.464.496-.886.867-1.241a4.01 4.01 0 011.298-.829 4.147 4.147 0 011.53-.288h10.97c.264 0 .517.1.704.28a.93.93 0 01.292.674.935.935 0 01-.292.676 1.02 1.02 0 01-.705.28H7.992a2.044 2.044 0 00-1.41.56 1.873 1.873 0 00-.584 1.353v21.97a.92.92 0 01-.076.37.953.953 0 01-.219.312 1.034 1.034 0 01-.714.277zm14.968-9.556a4.12 4.12 0 01-2.219-.642 3.865 3.865 0 01-1.472-1.715 3.673 3.673 0 01-.229-2.21 3.775 3.775 0 011.092-1.957 4.05 4.05 0 012.044-1.048 4.157 4.157 0 012.307.217c.73.29 1.354.78 1.793 1.408a3.71 3.71 0 01.673 2.124 3.74 3.74 0 01-1.168 2.702 4.084 4.084 0 01-2.82 1.121zm0-5.732c-.395 0-.782.11-1.111.32-.33.21-.586.51-.738.86a1.831 1.831 0 00-.114 1.105c.076.372.267.713.547.981s.636.45 1.024.524c.387.073.79.035 1.155-.11a1.98 1.98 0 00.896-.706c.22-.315.336-.686.336-1.065a1.873 1.873 0 00-.586-1.349 2.043 2.043 0 00-1.409-.56zm6.984 15.288a1.036 1.036 0 01-.706-.281.921.921 0 01-.29-.678v-1.91a2.812 2.812 0 00-.88-2.024 3.068 3.068 0 00-2.116-.84h-5.987a3.064 3.064 0 00-2.114.84 2.808 2.808 0 00-.877 2.025v1.91a.942.942 0 01-.314.639c-.186.167-.43.26-.686.26-.254 0-.5-.093-.685-.26a.942.942 0 01-.314-.64v-1.91a4.681 4.681 0 011.464-3.374 5.108 5.108 0 013.526-1.4h5.987a5.11 5.11 0 013.527 1.399 4.677 4.677 0 011.462 3.376v1.91a.92.92 0 01-.29.677 1.036 1.036 0 01-.706.281zm8.982-19.111a6.177 6.177 0 01-3.326-.966 5.793 5.793 0 01-2.205-2.573 5.507 5.507 0 01-.34-3.312 5.662 5.662 0 011.638-2.935 6.073 6.073 0 013.065-1.57 6.234 6.234 0 013.46.327 5.94 5.94 0 012.686 2.111 5.561 5.561 0 011.009 3.185 5.616 5.616 0 01-1.755 4.053 6.127 6.127 0 01-4.232 1.68zm0-9.556a4.12 4.12 0 00-2.219.643A3.863 3.863 0 0032.233 10a3.672 3.672 0 00-.229 2.209 3.775 3.775 0 001.092 1.958c.558.535 1.27.9 2.044 1.047a4.156 4.156 0 002.307-.216 3.96 3.96 0 001.793-1.409 3.708 3.708 0 00.673-2.124 3.747 3.747 0 00-1.173-2.694 4.088 4.088 0 00-2.816-1.118v-.01z"/><path d="M35.924 22.93c-2.368 0-4.683-.672-6.652-1.932a11.588 11.588 0 01-4.41-5.145 11.014 11.014 0 01-.681-6.625 11.323 11.323 0 013.277-5.87A12.147 12.147 0 0133.588.22a12.468 12.468 0 016.918.653 11.878 11.878 0 015.374 4.223 11.123 11.123 0 012.018 6.37v1.913a3.747 3.747 0 01-1.17 2.705 4.088 4.088 0 01-2.827 1.121 4.088 4.088 0 01-2.825-1.12 3.747 3.747 0 01-1.17-2.707v-6.69a.942.942 0 01.313-.64c.185-.167.43-.26.685-.26.255 0 .5.093.686.26a.942.942 0 01.313.64v6.69c.023.493.243.958.615 1.3.372.34.867.53 1.381.53.515 0 1.01-.19 1.382-.53.372-.342.592-.807.615-1.3v-1.913a9.27 9.27 0 00-1.683-5.31 9.899 9.899 0 00-4.48-3.519 10.39 10.39 0 00-5.766-.542 10.123 10.123 0 00-5.11 2.617 9.437 9.437 0 00-2.729 4.895 9.18 9.18 0 00.571 5.521 9.66 9.66 0 003.679 4.287 10.297 10.297 0 005.546 1.607c.265 0 .518.1.705.28a.935.935 0 01.292.675.935.935 0 01-.292.675 1.02 1.02 0 01-.705.28zm20.461-1.88c7.486-9.111 8.255-10.383 8.255-12.693 0-1.458-.91-2.712-2.413-2.712-1.503 0-2.729.802-3.673 2.478L55.757 5.61c1.522-2.31 3.532-3.718 6.68-3.718 4.022 0 6.644 2.552 6.644 6.4 0 2.945-1.396 5.39-6.888 12.559h6.995v3.717H56.385V21.05zm15.425 0c7.483-9.111 8.255-10.383 8.255-12.693 0-1.458-.91-2.712-2.416-2.712-1.508 0-2.726.802-3.67 2.478L71.172 5.61c1.522-2.31 3.535-3.718 6.683-3.718 4.019 0 6.645 2.552 6.645 6.4 0 2.945-1.4 5.39-6.892 12.559h6.995v3.717H71.81V21.05zM87.582 2.227h10.23v3.717H91.99v5.394h5.56v3.717h-5.56v5.794h5.823v3.718h-10.23V2.227zm15.737 17.752a2.67 2.67 0 011.438.417c.426.273.758.66.954 1.112.195.453.247.951.147 1.432-.1.48-.347.922-.709 1.27a2.621 2.621 0 01-1.325.677 2.694 2.694 0 01-1.495-.14 2.564 2.564 0 01-1.161-.913 2.4 2.4 0 01-.437-1.377c.01-.655.286-1.28.769-1.742a2.687 2.687 0 011.819-.736zm12.001-3.619h-1.435v8.207h-4.411V2.227h6.508c3.707 0 6.363 2.846 6.363 6.924 0 3.787-1.678 5.496-3.006 6.163l3.212 9.253h-4.72l-2.511-8.207zm0-10.416h-1.435v6.698h1.435c1.644 0 2.553-1.337 2.553-3.349 0-2.012-.913-3.349-2.553-3.349zm10.241-3.717h4.408v16.075c0 2.187.875 2.948 2.237 2.948 1.363 0 2.242-.772 2.242-2.948V2.227h4.404v15.875c0 4.788-3.182 6.866-6.646 6.866-3.463 0-6.645-2.078-6.645-6.866V2.227zm-69.85 28.495h1.926c.963 0 1.522.503 1.522 1.33.018.255-.054.51-.204.72-.15.212-.37.369-.625.447.275.09.513.263.678.492.165.23.249.504.239.783 0 .867-.525 1.403-1.576 1.403H55.7l.011-5.175zm1.903.463h-1.343v1.822h1.343a.974.974 0 00.673-.267.892.892 0 00.279-.644c0-.242-.1-.473-.28-.644a.973.973 0 00-.672-.267zm.034 2.281h-1.377v1.972h1.377a.959.959 0 00.757-.253.877.877 0 00.218-.333.847.847 0 00.045-.39.888.888 0 00-.055-.389.922.922 0 00-.219-.331.972.972 0 00-.341-.215 1.008 1.008 0 00-.405-.06zm3-2.744h.559v4.224l2.283-4.224h.594v5.175h-.56v-4.286l-2.306 4.286h-.57v-5.175zm4.89 4.694c.225-.299.57-1.093.761-3.44l.1-1.254h2.732v4.694h.64v1.8h-.503v-1.319h-3.67v1.32h-.517v-1.8h.457zm.57 0h2.452v-4.21h-1.678l-.069.835c-.19 2.27-.48 3.022-.704 3.375zm6.585-4.803c1.4 0 2.048 1.253 2.048 2.722v.172h-3.536c.023 1.177.628 2.077 1.656 2.077.263-.006.522-.073.754-.194.231-.12.43-.293.578-.502l.346.31a2.06 2.06 0 01-.748.625 2.157 2.157 0 01-.965.224c-1.408 0-2.226-1.16-2.226-2.723-.004-1.52.78-2.711 2.093-2.711zm-1.5 2.464h2.977c0-.89-.415-2.005-1.488-2.005-1.074 0-1.47 1.13-1.492 1.986l.004.019zm4.587.229c0-1.458.715-2.711 2.082-2.711 1.366 0 2.093 1.242 2.093 2.711 0 1.469-.708 2.722-2.093 2.722-1.386 0-2.082-1.253-2.082-2.722zm3.57 0c0-1.115-.45-2.23-1.488-2.23-1.04 0-1.48 1.115-1.48 2.23s.46 2.238 1.48 2.238 1.488-1.112 1.488-2.238zm1.476-.248h2.307v.492h-2.307v-.492zm4.845.376l-.848 1.009v1.458h-.56v-5.179h.56v3.01l2.504-3.01h.685l-1.96 2.336 1.937 2.84h-.685l-1.633-2.465zm2.866-.128c0-1.458.716-2.711 2.082-2.711 1.366 0 2.093 1.242 2.093 2.711 0 1.469-.708 2.722-2.093 2.722s-2.082-1.253-2.082-2.722zm3.57 0c0-1.115-.449-2.23-1.488-2.23s-1.477 1.115-1.477 2.23.457 2.238 1.477 2.238 1.484-1.112 1.484-2.238h.004zm1.937-2.584h.56v2.252h2.325v-2.252h.56v5.175h-.56v-2.442h-2.325v2.442h-.56v-5.175zm6.916-.109c.284-.01.566.048.822.167.255.12.476.298.643.518l-.335.364a1.269 1.269 0 00-.471-.42 1.338 1.338 0 00-.625-.148c-1.054 0-1.568 1.039-1.568 2.23 0 1.192.514 2.238 1.568 2.238.219 0 .434-.052.625-.153.192-.1.354-.246.471-.423l.335.365a1.668 1.668 0 01-.641.523c-.256.12-.54.175-.824.162-1.355 0-2.14-1.214-2.14-2.723 0-1.508.785-2.7 2.14-2.7zm2.71 6.902c.312 0 .491-.138.658-.576l.335-.932-1.789-5.285h.624l1.458 4.512 1.454-4.512h.628l-2.185 6.356c-.236.663-.616.922-1.164.922a1.59 1.59 0 01-.48-.077l.099-.492a.901.901 0 00.362.084zm4.62-5.561l.091-1.232h2.729v5.175h-.559v-4.69h-1.702l-.057.78c-.266 3.473-.894 4.041-1.724 4.041v-.524c.506 0 .986-.518 1.222-3.55zm4.971.689h1.332c.436.02.848.2 1.15.503.302.303.47.705.47 1.124 0 .419-.168.821-.47 1.124a1.735 1.735 0 01-1.15.503h-1.903v-5.175h.559l.012 1.92zm0 2.784h1.297c.762 0 1.074-.525 1.074-1.159s-.312-1.155-1.074-1.155h-1.286l-.011 2.314zm4.342-4.22h-1.267v-.485h3.102v.485h-1.268v4.69h-.567v-4.69zm5.583 4.114a1.644 1.644 0 01-.617.528 1.733 1.733 0 01-.806.18c-.883 0-1.621-.657-1.621-1.728 0-1.072.738-1.713 1.621-1.713.279-.008.556.051.805.173s.461.302.618.523v-1.017c0-.772-.415-1.202-1.141-1.202-.268 0-.533.061-.772.177a1.7 1.7 0 00-.606.49l-.289-.39c.214-.235.479-.422.777-.548.298-.126.621-.188.947-.181 1.027 0 1.655.514 1.655 1.629v3.655h-.571v-.576zm0-1.578a1.358 1.358 0 00-.522-.538 1.437 1.437 0 00-.741-.19c-.761 0-1.188.59-1.188 1.297s.438 1.297 1.188 1.297c.26.002.516-.065.739-.194.223-.128.404-.313.524-.535v-1.137zm2.158 2.154v-5.175h.56v4.694h2.261v-4.694h.57v4.694h.64v1.8h-.503v-1.319h-3.528zm5.173-5.175h.559v4.224l2.284-4.224h.609v5.175h-.56v-4.286l-2.322 4.286h-.57v-5.175zm5.035 0h.559v4.224l2.284-4.224h.593v5.175h-.559v-4.286l-2.306 4.286h-.571v-5.175z"/></g><defs><clipPath id="clip0"><path fill="#15191D" d="M0 0h139v38H0z"/></clipPath></defs></svg>