<svg viewBox="0 0 107 152" fill="none" xmlns="http://www.w3.org/2000/svg"><g clip-path="url(#clip0)"><path d="M99.597 5.156h-79.78a7.406 7.406 0 00-7.407 7.405v131.185a7.405 7.405 0 007.406 7.405h79.78a7.405 7.405 0 007.407-7.405V12.561a7.406 7.406 0 00-7.406-7.405z" fill="#F2F2F2"/><path d="M96.768 9.05H22.64a6.917 6.917 0 00-6.917 6.917v123.156a6.917 6.917 0 006.917 6.916h74.128a6.917 6.917 0 006.918-6.916V15.967a6.917 6.917 0 00-6.918-6.916z" fill="#fff"/><path d="M36.793 99.442a6.864 6.864 0 016.861 6.861 6.862 6.862 0 11-6.861-6.861zm0 17.153c7.582 0 13.723 3.071 13.723 6.862v3.431H23.07v-3.431c0-3.791 6.14-6.862 13.723-6.862z" fill="#EEECFF"/><path d="M96.862 99.485h-6.521a2.08 2.08 0 00-2.08 2.08v6.699a2.08 2.08 0 002.08 2.079h6.521a2.08 2.08 0 002.08-2.079v-6.699a2.08 2.08 0 00-2.08-2.08z" fill="#fff"/><path d="M81.94 103.816H57.276v2.387H81.94v-2.387zm-.001 5.57H57.277v1.989h24.662v-1.989zm.001 5.173H57.276v2.386H81.94v-2.386zm-.001 5.566H57.277v2.387h24.662v-2.387z" fill="#E3E1FD"/><path d="M100.904 133H20v1.265h80.904V133z" fill="#9595BF"/><path d="M96.862 57.21h-6.52a2.08 2.08 0 00-2.08 2.08v6.7a2.08 2.08 0 002.08 2.079h6.52a2.08 2.08 0 002.08-2.08V59.29a2.08 2.08 0 00-2.08-2.08z" fill="#fff"/><path d="M84.326 63.645H57.277v2.386h27.049v-2.387zm-.001 5.566H57.277v2.387h27.048V69.21zm.001 5.57H57.277v1.99h27.049v-1.99zm0 5.172H57.277v2.387h27.049v-2.387z" fill="#E3E1FD"/><path d="M96.443 60.221a.674.674 0 00-.918.042l-2.659 2.784-1.127-.835a.636.636 0 00-.478-.126.664.664 0 00-.345.145.614.614 0 00-.202.303.589.589 0 00.01.36c.04.116.117.217.219.292l1.46 1.08a.873.873 0 001.144-.093l2.94-3.077a.611.611 0 00.17-.446.593.593 0 00-.214-.429z" fill="#493792"/><path d="M54.456 95.984H20.574v1.086h33.882v-1.086zm46.205-1.242H54.453v1.167h46.208v-1.167z" fill="#9595BF"/><path d="M48.411 1.988h24.504c1.023 0 2.003.353 2.726.982.723.628 1.13 1.48 1.13 2.37v5.41c0 .63-.289 1.234-.801 1.68-.513.446-1.208.696-1.933.696H47.284c-.725 0-1.42-.25-1.933-.696-.512-.446-.8-1.05-.8-1.68V5.34c0-.44.1-.877.294-1.284.194-.407.478-.776.837-1.088a3.938 3.938 0 011.252-.726c.469-.168.97-.254 1.477-.254z" fill="#E3E1FD"/><path d="M50.894 9.77a2.308 2.308 0 100-4.614 2.308 2.308 0 000 4.615zm44.437 12.261h-6.52a2.08 2.08 0 00-2.08 2.08v6.699a2.08 2.08 0 002.08 2.08h6.52a2.08 2.08 0 002.08-2.08v-6.7a2.08 2.08 0 00-2.08-2.079z" fill="#fff"/><path d="M81.939 23.07H57.277v2.386h24.662V23.07zm.001 5.567H57.276v2.386H81.94v-2.386zm0 5.57H57.276v1.989H81.94v-1.989zm-.001 5.171H57.277v2.387h24.662v-2.387z" fill="#E3E1FD"/><path d="M100.662 52.574H19.758v1.265h80.904v-1.265z" fill="#9595BF"/><path d="M93.038 27.444l1.08-1.078a.508.508 0 000-.716l-.046-.044a.507.507 0 00-.556-.11.507.507 0 00-.165.11l-1.069 1.075-1.072-1.073a.51.51 0 00-.72 0l-.047.044a.505.505 0 000 .716l1.077 1.078-1.077 1.081a.5.5 0 000 .713l.047.047a.512.512 0 00.72 0l1.072-1.078 1.072 1.073a.512.512 0 00.72 0l.047-.047a.502.502 0 000-.713l-1.083-1.078z" fill="#493792"/><path d="M70.44 9.77a2.308 2.308 0 100-4.614 2.308 2.308 0 000 4.615z" fill="#fff"/><path d="M94.507 105.011l1.189-1.295a.64.64 0 00.163-.43.64.64 0 00-.163-.43l-.052-.052a.532.532 0 00-.61-.133.56.56 0 00-.182.133l-1.18 1.288-1.18-1.288a.532.532 0 00-.61-.133.56.56 0 00-.182.133l-.052.052a.64.64 0 00-.163.43.64.64 0 00.163.43l1.189 1.295-1.189 1.298a.63.63 0 00-.164.428c0 .16.06.314.164.428l.052.056a.542.542 0 00.396.177.542.542 0 00.397-.177l1.18-1.288 1.179 1.288a.542.542 0 00.396.177.542.542 0 00.396-.177l.052-.056a.633.633 0 00.164-.428.63.63 0 00-.164-.428l-1.189-1.298z" fill="#505C93"/><path d="M19.527 94.7l-17.75 27.8 3.258 2.638L24.03 97.506l-4.502-2.807z" fill="#9595BF"/><path d="M35.444 101.078c-15.404 0-27.936-11.97-27.936-26.689 0-14.717 12.505-26.694 27.936-26.694 15.432 0 27.931 11.977 27.931 26.694 0 14.718-12.553 26.689-27.93 26.689zm0-50.668c-13.906 0-25.221 10.755-25.221 23.98 0 13.224 11.288 23.974 25.221 23.974S60.66 87.609 60.66 74.389 49.323 50.41 35.444 50.41z" fill="#9595BF"/></g><path d="M36.793 17.105a6.861 6.861 0 110 13.723 6.861 6.861 0 010-13.723zm0 17.154c7.582 0 13.723 3.07 13.723 6.862v3.43H23.07v-3.43c0-3.791 6.141-6.862 13.723-6.862z" fill="#EEECFF"/><path d="M36.794 62.847a6.861 6.861 0 110 13.722 6.861 6.861 0 010-13.722zm0 17.154c7.582 0 13.723 3.07 13.723 6.861v3.431H23.07v-3.43C23.07 83.07 29.21 80 36.794 80z" fill="#D3D0FD"/><defs><clipPath id="clip0"><path fill="#fff" d="M0 0h107v151.152H0z"/></clipPath></defs></svg>