<svg xmlns="http://www.w3.org/2000/svg" width="23" height="20"><path fill="#826550" d="M8.5 4c0-2.175-1.826-4-4-4C2.432 0 .651 1.664.509 3.727c-.145 2.121 1.471 4.03 3.584 4.25.5.052 1.025.027 1.503-.14.434-.151.347-.228.657-.084.518.241 1.054 1.054 1.455 1.455.108.108.788.64.782.802-.01.247-1.018 1.018-1.19 1.19-.259.259-.8 1.061-1.16 1.16-.199.055-.791-.28-1.07-.323a3.942 3.942 0 00-1.756.146c-2.029.634-3.239 2.824-2.671 4.878.552 1.996 2.629 3.277 4.66 2.858a4.045 4.045 0 002.648-1.903c.691-1.178.464-2.13.282-3.364-.072-.489-.099-.153.191-.575.187-.272.503-.503.737-.737L10.5 12l5.488 5.488c.456.456 1.054 1.338 1.666 1.512.607.173 1.516 0 2.145 0H21.5L9.353 6.853c-.315-.315-.788-.65-1.027-1.027-.042-.066-.195-.137-.213-.213-.024-.1.137-.268.173-.39.12-.412.214-.788.214-1.223zm-4 2c-2.574 0-2.578-4 0-4 2.576 0 2.578 4 0 4zm0 12c-2.574 0-2.577-4 0-4 2.576 0 2.578 4 0 4zm6-8.5c.653 0 .653 1 0 1s-.653-1 0-1zm11-8.5h-2.963c-.659 0-.909-.104-1.36.323-1.638 1.551-3.196 3.196-4.792 4.792-.184.184-.635.491-.738.738-.129.31-.113-.017.026.323.108.266 1.584 1.827 1.834 1.818.275-.01 1.028-1.028 1.215-1.215l2.565-2.565L21.5 1z"/></svg>